<svg width="128" height="128" viewBox="0 0 128 128" fill="none" xmlns="http://www.w3.org/2000/svg">
<g clip-path="url(#clip0_97_10406)">
<path d="M64 128C99.3462 128 128 99.3462 128 64C128 28.6538 99.3462 0 64 0C28.6538 0 0 28.6538 0 64C0 99.3462 28.6538 128 64 128Z" fill="#F0F0F0"/>
<path d="M108.784 18.286C97.2407 6.976 81.4362 0 63.9994 0C58.4342 0 42.1509 6.976 30.6082 18.286H108.784Z" fill="#6DA544"/>
<path d="M63.9993 54.8573H127.346C126.423 48.401 124.537 42.256 121.837 36.5715H61.2168L63.9993 54.8573Z" fill="#6DA544"/>
<path d="M6.16209 91.4287H121.837C124.537 85.7445 126.423 79.599 127.346 73.1428H0.652344C1.57609 79.5993 3.46134 85.7448 6.16209 91.4287Z" fill="#6DA544"/>
<path d="M19.2148 109.714C30.7581 121.024 46.5626 128 63.9993 128C81.4361 128 97.2406 121.024 108.784 109.714H19.2148Z" fill="#6DA544"/>
<path d="M64.0003 0C31.7588 0 5.09032 23.8428 0.65332 54.8573H64.0003V0Z" fill="#D80027"/>
<path d="M32.0003 49.0667L29.2178 43.5017V32.3712L36.1743 26.8059L43.1308 32.3712V40.7189L45.9133 37.9364V43.5017L40.348 49.0667H32.0003Z" fill="#F0F0F0"/>
<path d="M17.0338 31.9999L17.7706 34.2674H20.1546L18.2258 35.6692L18.9628 37.9364L17.0338 36.5349L15.1048 37.9364L15.8418 35.6692L13.9131 34.2674H16.2971L17.0338 31.9999Z" fill="#F0F0F0"/>
<path d="M22.5993 26.4347L23.336 28.7022H25.7203L23.7913 30.1039L24.528 32.3712L22.5993 30.9699L20.6705 32.3712L21.4075 30.1039L19.4785 28.7022H21.8623L22.5993 26.4347Z" fill="#F0F0F0"/>
<path d="M28.1647 20.8694L28.9014 23.1369H31.2852L29.3567 24.5387L30.0932 26.8059L28.1647 25.4047L26.2357 26.8059L26.9724 24.5387L25.0439 23.1369H27.4277L28.1647 20.8694Z" fill="#F0F0F0"/>
<path d="M55.3139 31.9999L54.5771 34.2674H52.1934L54.1219 35.6692L53.3851 37.9364L55.3139 36.5349L57.2429 37.9364L56.5061 35.6692L58.4346 34.2674H56.0509L55.3139 31.9999Z" fill="#F0F0F0"/>
<path d="M49.7489 26.4347L49.0122 28.7022H46.6284L48.5569 30.1039L47.8202 32.3712L49.7489 30.9699L51.6779 32.3712L50.9409 30.1039L52.8697 28.7022H50.4859L49.7489 26.4347Z" fill="#F0F0F0"/>
<path d="M44.1837 20.8694L43.4467 23.1369H41.063L42.9915 24.5387L42.2547 26.8059L44.1837 25.4047L46.1125 26.8059L45.3757 24.5387L47.3042 23.1369H44.9205L44.1837 20.8694Z" fill="#F0F0F0"/>
<path d="M36.174 18.0869L35.437 20.3544H33.0532L34.9817 21.7559L34.245 24.0232L36.174 22.6219L38.1027 24.0232L37.366 21.7559L39.2945 20.3544H36.9107L36.174 18.0869Z" fill="#F0F0F0"/>
</g>
<defs>
<clipPath id="clip0_97_10406">
<rect width="128" height="128" fill="white"/>
</clipPath>
</defs>
</svg>
