<svg width="128" height="128" viewBox="0 0 128 128" fill="none" xmlns="http://www.w3.org/2000/svg">
<g clip-path="url(#clip0_97_10423)">
<path d="M91.8256 6.3505C83.4116 2.282 73.9721 0 63.9996 0C54.0271 0 44.5876 2.282 36.1736 6.3505L30.6084 64L36.1736 121.649C44.5876 125.718 54.0271 128 63.9996 128C73.9721 128 83.4116 125.718 91.8256 121.649L97.3909 64L91.8256 6.3505Z" fill="#D80027"/>
<path d="M36.174 6.35275C14.7665 16.7045 0 38.6268 0 64C0 89.3732 14.7665 111.295 36.174 121.647V6.35275Z" fill="black"/>
<path d="M91.8262 6.35275V121.647C113.234 111.295 128 89.3732 128 64C128 38.6268 113.234 16.7045 91.8262 6.35275Z" fill="#496E2D"/>
<path d="M64 41.7393C51.7055 41.7393 41.7393 51.7058 41.7393 64C41.7393 76.2943 51.7058 86.2607 64 86.2607C76.2943 86.2607 86.2608 76.2943 86.2608 64C86.2608 51.7058 76.2945 41.7393 64 41.7393ZM64 77.913C56.316 77.913 50.087 71.6838 50.087 64C50.087 56.3162 56.3163 50.087 64 50.087C71.6838 50.087 77.913 56.3162 77.913 64C77.913 71.6838 71.684 77.913 64 77.913Z" fill="#FFDA44"/>
<path d="M63.9998 55.6522C60.9261 55.6522 58.4346 58.1437 58.4346 61.2175V69.5652H69.5651V61.2175C69.5651 58.1437 67.0736 55.6522 63.9998 55.6522Z" fill="#FFDA44"/>
</g>
<defs>
<clipPath id="clip0_97_10423">
<rect width="128" height="128" fill="white"/>
</clipPath>
</defs>
</svg>
