<svg width="128" height="128" viewBox="0 0 128 128" fill="none" xmlns="http://www.w3.org/2000/svg">
<g clip-path="url(#clip0_97_10430)">
<path d="M125.795 80.6957C127.23 75.3722 128 69.7767 128 64C128 58.2233 127.23 52.6278 125.795 47.3042L58.4347 0.2435C45.9295 1.321 34.4538 5.9935 25.0435 13.2238L2.20475 47.3042C0.77 52.6278 0 58.2233 0 64C0 69.743 0.76075 75.3077 2.1795 80.6032L25.0432 114.776C34.4535 122.007 45.9293 126.679 58.4345 127.757L125.795 80.6957Z" fill="#FFDA44"/>
<path d="M2.2041 80.6957C5.9071 94.4355 14.0684 106.344 25.0429 114.776V80.6957H2.2041Z" fill="#0052B4"/>
<path d="M58.4341 127.757C60.2686 127.915 62.1238 128 63.9993 128C93.5691 128 118.451 107.945 125.795 80.6957H58.4341V127.757Z" fill="#0052B4"/>
<path d="M125.795 47.3042C118.451 20.0552 93.5691 0 63.9993 0C62.1238 0 60.2686 0.0855 58.4341 0.2435V47.3042H125.795Z" fill="#0052B4"/>
<path d="M25.0429 13.2238C14.0684 21.6563 5.9071 33.5645 2.2041 47.3042H25.0429V13.2238Z" fill="#0052B4"/>
<path d="M127.458 55.6522H50.0872H50.087V1.52125C44.1725 2.83275 38.5653 4.9585 33.3913 7.78175V55.652H0.54175C0.1855 58.3847 0 61.1707 0 64C0 66.8292 0.1855 69.6152 0.54175 72.3477H33.391H33.3913V120.218C38.5653 123.041 44.1725 125.167 50.087 126.479V72.3485V72.348H127.458C127.814 69.6152 128 66.8292 128 64C128 61.1707 127.814 58.3847 127.458 55.6522Z" fill="#D80027"/>
</g>
<defs>
<clipPath id="clip0_97_10430">
<rect width="128" height="128" fill="white"/>
</clipPath>
</defs>
</svg>
