<svg width="128" height="128" viewBox="0 0 128 128" fill="none" xmlns="http://www.w3.org/2000/svg">
<g clip-path="url(#clip0_97_10438)">
<path d="M64 128C99.3462 128 128 99.3462 128 64C128 28.6538 99.3462 0 64 0C28.6538 0 0 28.6538 0 64C0 99.3462 28.6538 128 64 128Z" fill="#D80027"/>
<path d="M100.174 47.5023H76.9924C78.4234 46.0038 79.3042 43.975 79.3042 41.7393C79.3042 37.129 75.5667 33.3915 70.9564 33.3915C68.0519 33.3915 65.4952 34.8755 63.9999 37.1258C62.5047 34.8755 59.9477 33.3915 57.0434 33.3915C52.4332 33.3915 48.6957 37.129 48.6957 41.7393C48.6957 43.975 49.5764 46.004 51.0074 47.5023H27.8262C27.8262 53.6495 33.1804 58.6325 39.3272 58.6325H38.9562C38.9562 64.78 43.9394 69.7633 50.0869 69.7633C50.0869 71.7543 50.6117 73.6207 51.5277 75.2367L42.2952 84.4695L49.3787 91.5525L59.4267 81.5048C59.8202 81.649 60.2274 81.7647 60.6479 81.8435L54.5762 95.5523L63.9999 105.739L73.4237 95.5518L67.3519 81.843C67.7727 81.7643 68.1797 81.6488 68.5732 81.5042L78.6212 91.552L85.7047 84.4688L76.4719 75.236C77.3882 73.6203 77.9129 71.7535 77.9129 69.7625C84.0602 69.7625 89.0434 64.7795 89.0434 58.6317H88.6727C94.8194 58.6322 100.174 53.6495 100.174 47.5023Z" fill="black"/>
</g>
<defs>
<clipPath id="clip0_97_10438">
<rect width="128" height="128" fill="white"/>
</clipPath>
</defs>
</svg>
