<svg width="128" height="128" viewBox="0 0 128 128" fill="none" xmlns="http://www.w3.org/2000/svg">
<g clip-path="url(#clip0_97_10441)">
<path d="M64.0001 0C99.3461 0 128 28.654 128 64C128 99.346 99.3461 128 64.0001 128C64.0001 125.217 55.6523 64 55.6523 64L64.0001 0Z" fill="#F0F0F0"/>
<path d="M64 128C28.654 128 0 99.346 0 64C0 28.654 28.654 0 64 0" fill="#496E2D"/>
<path d="M77.7513 51.724L72.5003 58.9602L63.9961 56.2022L69.2556 63.4322L64.0051 70.6685L72.5061 67.9007L77.7656 75.1305L77.7601 66.1902L86.2613 63.4222L77.7573 60.6647L77.7513 51.724Z" fill="#D80027"/>
<path d="M69.31 82.087C59.321 82.087 51.223 73.989 51.223 64C51.223 54.011 59.321 45.913 69.31 45.913C72.4245 45.913 75.3553 46.7005 77.9138 48.087C73.8998 44.1617 68.4108 41.739 62.3535 41.739C50.059 41.739 40.0928 51.7055 40.0928 63.9997C40.0928 76.294 50.0593 86.2605 62.3535 86.2605C68.411 86.2605 73.9 83.8377 77.9138 79.9125C75.3553 81.2995 72.4245 82.087 69.31 82.087Z" fill="#D80027"/>
</g>
<defs>
<clipPath id="clip0_97_10441">
<rect width="128" height="128" fill="white"/>
</clipPath>
</defs>
</svg>
