<svg width="128" height="128" viewBox="0 0 128 128" fill="none" xmlns="http://www.w3.org/2000/svg">
<g clip-path="url(#clip0_97_10447)">
<path d="M64 128C99.3462 128 128 99.3462 128 64C128 28.6538 99.3462 0 64 0C28.6538 0 0 28.6538 0 64C0 99.3462 28.6538 128 64 128Z" fill="#F0F0F0"/>
<path d="M95.049 8.028C85.853 2.916 75.2675 0 64 0C28.6565 0 0.0045 28.6495 0 63.9925L44.5218 41.7393L95.049 8.028Z" fill="#0052B4"/>
<path d="M0 64.0075C0.0045 99.3505 28.6565 128 64 128C75.2675 128 85.853 125.084 95.049 119.972L44.5218 86.2607L0 64.0075Z" fill="#0052B4"/>
<path d="M100.382 11.3455C98.6635 10.1557 96.8823 9.04925 95.0468 8.029L0 63.9925V64C0 64 0 64.0052 0 64.0075L95.047 119.971C96.8825 118.95 98.6635 117.844 100.383 116.654L10.9555 64L100.382 11.3455Z" fill="#D80027"/>
<path d="M111.304 61.6133H103.681C105.663 59.2332 105.541 55.6925 103.307 53.4598C105.673 51.0945 105.673 47.2593 103.307 44.8935L103.165 45.0365C105.53 42.6712 105.673 38.693 103.307 36.3278L69.0435 70.5918C71.409 72.9575 75.177 72.9293 77.5422 70.5638L78.2017 69.961L94.6087 68.4695V75.526H100.174V67.9635L108.522 67.2048L111.304 61.6133Z" fill="#A2001D"/>
<path d="M69.5673 77.913L64 75.1305L69.5673 72.3477H105.741V77.913H69.5673Z" fill="#FFDA44"/>
</g>
<defs>
<clipPath id="clip0_97_10447">
<rect width="128" height="128" fill="white"/>
</clipPath>
</defs>
</svg>
