<svg width="128" height="128" viewBox="0 0 128 128" fill="none" xmlns="http://www.w3.org/2000/svg">
<g clip-path="url(#clip0_97_10455)">
<path d="M36.1736 121.649C44.5876 125.718 54.0269 128 63.9996 128C73.9724 128 83.4116 125.718 91.8256 121.649L97.3909 64L91.8256 6.3505C83.4116 2.282 73.9724 0 63.9996 0C54.0269 0 44.5876 2.282 36.1736 6.3505L30.6084 64L36.1736 121.649Z" fill="#FFDA44"/>
<path d="M91.8262 121.647C113.234 111.296 128 89.3732 128 64C128 38.6268 113.234 16.7042 91.8262 6.35275V121.647Z" fill="#D80027"/>
<path d="M36.174 121.647V6.35275C14.7663 16.7042 0 38.6265 0 64C0 89.3735 14.7663 111.296 36.174 121.647Z" fill="#0052B4"/>
<path d="M64 86.2608C64 76.0481 64 64.0001 64 64.0001H80.6957V72.3478C80.6957 73.7981 77.9132 79.1121 71.045 83.4783C68.4437 85.1323 65.751 85.6643 64 86.2608Z" fill="#D80027"/>
<path d="M47.3042 47.3042H64V64H47.3042V47.3042Z" fill="#D80027"/>
<path d="M72.3478 41.7393C72.3478 38.6655 69.856 36.174 66.7825 36.174C65.7675 36.174 64.819 36.45 64 36.9245C63.1808 36.45 62.2325 36.174 61.2175 36.174C58.144 36.174 55.6523 38.6655 55.6523 41.7393H41.7393V69.565C41.7393 79.924 49.9658 85.9147 56.417 89.0202C55.9343 89.8447 55.6523 90.8015 55.6523 91.8262C55.6523 94.9 58.144 97.3915 61.2175 97.3915C62.2325 97.3915 63.181 97.1155 64 96.641C64.8193 97.1155 65.7675 97.3915 66.7825 97.3915C69.856 97.3915 72.3478 94.9 72.3478 91.8262C72.3478 90.8015 72.0658 89.8447 71.5828 89.0202C78.034 85.9147 86.2608 79.9243 86.2608 69.565V41.7393H72.3478ZM77.913 69.565C77.913 71.0153 77.913 75.428 71.045 79.7945C68.4435 81.4485 65.751 82.521 64 83.1172C62.249 82.521 59.5565 81.4485 56.955 79.7945C50.087 75.428 50.087 71.0153 50.087 69.565V50.087H77.913V69.565Z" fill="#FF9811"/>
</g>
<defs>
<clipPath id="clip0_97_10455">
<rect width="128" height="128" fill="white"/>
</clipPath>
</defs>
</svg>
