<svg width="128" height="128" viewBox="0 0 128 128" fill="none" xmlns="http://www.w3.org/2000/svg">
<g clip-path="url(#clip0_97_10463)">
<path d="M0 64C0 28.654 28.654 0 64 0C99.346 0 128 28.654 128 64C125.217 64 64 72.3477 64 72.3477L0 64Z" fill="#D80027"/>
<path d="M128 64C128 99.346 99.346 128 64 128C28.654 128 0 99.346 0 64" fill="black"/>
<path d="M55.2246 50.9029L60.6501 54.8404L58.5826 61.2174L64.0041 57.2734L69.4301 61.2109L67.3546 54.8359L72.7756 50.8924L66.0719 50.8964L63.9961 44.5217L61.9284 50.8987L55.2246 50.9029Z" fill="#FFDA44"/>
<path d="M80.0003 36.2872C74.957 33.3754 69.4428 32.0012 64.0003 32.0107V40.3567C68.023 40.3494 72.0985 41.3644 75.8263 43.5169C87.1208 50.0379 91.0045 64.5319 84.4833 75.8264C77.9625 87.1209 63.4688 91.0047 52.174 84.4837C48.8835 82.5839 46.2273 80.0044 44.2693 77.0277L37.3003 81.6287C39.9495 85.6559 43.5485 89.1427 48.0003 91.7127C63.2813 100.535 82.8905 95.2809 91.7128 79.9999C100.535 64.7189 95.2813 45.1097 80.0003 36.2872Z" fill="#FFDA44"/>
<path d="M45.5481 58.4347C43.3356 62.4794 44.8211 67.5522 48.8656 69.7647L75.9778 84.5797C74.1341 87.9499 75.1133 92.0522 78.4836 93.8959L85.8073 97.9022C89.1776 99.7462 93.4053 98.5082 95.2491 95.1377L99.2553 87.8142L45.5481 58.4347Z" fill="#FFDA44"/>
</g>
<defs>
<clipPath id="clip0_97_10463">
<rect width="128" height="128" fill="white"/>
</clipPath>
</defs>
</svg>
