<svg width="128" height="128" viewBox="0 0 128 128" fill="none" xmlns="http://www.w3.org/2000/svg">
<g clip-path="url(#clip0_97_10470)">
<path d="M128 64C128 99.346 99.346 128 64 128C28.654 128 0 99.346 0 64C0 64.0153 64 0.007 64 0C99.346 0 128 28.654 128 64Z" fill="#0052B4"/>
<path d="M63.8291 64H64.0004C64.0004 63.9425 64.0004 63.8865 64.0004 63.8288C63.9434 63.886 63.8864 63.943 63.8291 64Z" fill="#F0F0F0"/>
<path d="M64 33.3913C64 22.13 64 14.7513 64 0H63.9893C28.6478 0.006 0 28.6572 0 64H33.3913V45.1973L52.194 64H63.829C63.886 63.943 63.943 63.886 64.0003 63.8288C64.0003 59.517 64.0003 55.6698 64.0003 52.1945L45.197 33.3913H64Z" fill="#F0F0F0"/>
<path d="M32.3787 8.34775C22.3689 14.0475 14.0472 22.369 8.34766 32.3787V64H25.0434V25.044V25.0435H63.9999C63.9999 19.7777 63.9999 14.7612 63.9999 8.34775H32.3787Z" fill="#D80027"/>
<path d="M63.9999 56.1297L41.2611 33.3914H33.3911V33.3919L63.9994 63.9999H63.9999C63.9999 63.9999 63.9999 58.5732 63.9999 56.1297Z" fill="#D80027"/>
<path d="M108.235 73.3685C110.075 70.8365 111.304 67.7445 111.304 64V36.174C108.979 37.921 106.089 38.9565 102.956 38.9565C98.4049 38.9565 94.3642 36.7708 91.8259 33.3918C89.2874 36.7708 85.2467 38.9565 80.6954 38.9565C77.5629 38.9565 74.6729 37.9207 72.3477 36.1745V64C72.3477 67.7445 73.5769 70.8365 75.4172 73.3685H108.235Z" fill="#F3F3F3"/>
<path d="M102.445 58.8377C103.331 56.6762 104.02 53.517 104.02 51.9447C104.02 49.4185 100.727 47.3707 100.727 47.3707C100.727 47.3707 97.4334 49.4185 97.4334 51.9447C97.4334 53.5172 98.1227 56.6765 99.0082 58.8377L97.1069 63.1305C98.2244 63.585 99.4459 63.8375 100.727 63.8375C102.008 63.8375 103.23 63.5847 104.347 63.1305L102.445 58.8377Z" fill="#FF9811"/>
<path d="M89.5725 44.938C87.2585 45.2515 84.1777 46.2352 82.8162 47.0212C80.6285 48.2845 80.5015 52.1602 80.5015 52.1602C80.5015 52.1602 83.922 53.9885 86.1095 52.7255C87.4715 51.9392 89.8625 49.7632 91.2907 47.9152L95.9597 47.4152C95.7945 46.2207 95.4015 45.0365 94.7617 43.9272C94.1207 42.818 93.292 41.886 92.3395 41.1452L89.5725 44.938Z" fill="#FF9811"/>
<path d="M83.972 63.0365C85.4002 64.8835 87.792 67.0592 89.154 67.8457C91.3417 69.1087 94.762 67.281 94.762 67.281C94.762 67.281 94.6345 63.4047 92.4472 62.1415C91.085 61.3552 88.0047 60.3725 85.6902 60.0595L82.9235 56.2662C81.9712 57.0067 81.1422 57.9392 80.5015 59.0475C79.8612 60.1572 79.4692 61.341 79.3032 62.5362L83.972 63.0365Z" fill="#FF9811"/>
<path d="M74.729 72.3485C79.926 80.6873 91.8263 83.4785 91.8263 83.4785C91.8263 83.4785 103.726 80.6873 108.924 72.3485H74.729Z" fill="#338AF3"/>
</g>
<defs>
<clipPath id="clip0_97_10470">
<rect width="128" height="128" fill="white"/>
</clipPath>
</defs>
</svg>
