<svg width="128" height="128" viewBox="0 0 128 128" fill="none" xmlns="http://www.w3.org/2000/svg">
<g clip-path="url(#clip0_97_10485)">
<path d="M0 64C0 68.3838 0.442 72.6643 1.28175 76.8L64 80.6957L126.718 76.8C127.558 72.6643 128 68.3838 128 64C128 59.6163 127.558 55.3358 126.718 51.2L64 47.3042L1.28175 51.2C0.442 55.3358 0 59.6163 0 64H0Z" fill="#0052B4"/>
<path d="M126.718 76.8H1.28174C7.21149 106.013 33.0377 128 64 128C94.9622 128 120.788 106.013 126.718 76.8Z" fill="#F0F0F0"/>
<path d="M1.28174 51.2H126.719C120.788 21.9875 94.9627 0 64 0C33.0372 0 7.21149 21.9875 1.28174 51.2Z" fill="black"/>
<path d="M91.8258 51.2H36.1738L47.5438 45.8515L41.4891 34.8402L53.8353 37.2015L55.4003 24.7292L63.9998 33.9027L72.5998 24.7292L74.1638 37.2015L86.5106 34.8402L80.4563 45.852L91.8258 51.2Z" fill="#FFDA44"/>
<path d="M0 64C0 99.346 28.654 128 64 128L12.799 25.5977C4.763 36.295 0 49.5908 0 64Z" fill="#A2001D"/>
<path d="M64 128C99.346 128 128 99.3459 128 63.9999C128 49.5907 123.237 36.2949 115.201 25.5977L64 128Z" fill="#A2001D"/>
</g>
<defs>
<clipPath id="clip0_97_10485">
<rect width="128" height="128" fill="white"/>
</clipPath>
</defs>
</svg>
