<svg width="128" height="128" viewBox="0 0 128 128" fill="none" xmlns="http://www.w3.org/2000/svg">
<g clip-path="url(#clip0_97_10493)">
<path d="M64 128C99.3462 128 128 99.3462 128 64C128 28.6538 99.3462 0 64 0C28.6538 0 0 28.6538 0 64C0 99.3462 28.6538 128 64 128Z" fill="#F0F0F0"/>
<path d="M64.0001 0C38.6266 0 16.7026 14.7663 6.35059 36.174H121.649C111.298 14.7663 89.3733 0 64.0001 0Z" fill="#338AF3"/>
<path d="M64.0001 128C89.3733 128 111.298 113.234 121.65 91.826H6.35059C16.7026 113.234 38.6266 128 64.0001 128Z" fill="#338AF3"/>
<path d="M83.1286 64L75.3123 67.6768L79.4746 75.2465L70.9871 73.6228L69.9116 82.1968L63.9998 75.8908L58.0878 82.1968L57.0126 73.6228L48.5251 75.2463L52.6871 67.6765L44.8711 64L52.6873 60.3233L48.5251 52.7538L57.0123 54.3773L58.0881 45.8033L63.9998 52.1093L69.9118 45.8033L70.9871 54.3773L79.4748 52.7538L75.3126 60.3235L83.1286 64Z" fill="#FFDA44"/>
</g>
<defs>
<clipPath id="clip0_97_10493">
<rect width="128" height="128" fill="white"/>
</clipPath>
</defs>
</svg>
