<svg width="128" height="128" viewBox="0 0 128 128" fill="none" xmlns="http://www.w3.org/2000/svg">
<g clip-path="url(#clip0_97_10503)">
<path d="M64 128C99.3462 128 128 99.3462 128 64C128 28.6538 99.3462 0 64 0C28.6538 0 0 28.6538 0 64C0 99.3462 28.6538 128 64 128Z" fill="#FFDA44"/>
<path d="M64.0001 128C83.3979 128 100.779 119.369 112.515 105.739H15.4849C27.2216 119.369 44.6024 128 64.0001 128Z" fill="#338AF3"/>
<path d="M128 64C128 28.654 99.346 0 64 0C28.654 0 0 28.654 0 64C0 69.7767 0.77 75.3722 2.20475 80.6957H125.796C127.23 75.3722 128 69.7767 128 64Z" fill="#338AF3"/>
<path d="M5.08691 89.0435C6.32066 91.9425 7.76291 94.7305 9.39316 97.3913H118.606C120.236 94.7303 121.679 91.9423 122.913 89.0435H5.08691Z" fill="#338AF3"/>
<path d="M29.3292 40.3657L16.8252 34.8472L29.3292 29.3287L34.8474 16.825L40.3657 29.3287L52.8694 34.8472L40.3657 40.3657L34.8474 52.8695L29.3292 40.3657Z" fill="#F0F0F0"/>
<path d="M34.8473 23.7167L38.255 31.439L45.9775 34.8472L38.255 38.2552L34.8473 45.9775L31.439 38.2552L23.7168 34.8472L31.439 31.439L34.8473 23.7167Z" fill="#D80027"/>
</g>
<defs>
<clipPath id="clip0_97_10503">
<rect width="128" height="128" fill="white"/>
</clipPath>
</defs>
</svg>
