<svg width="128" height="128" viewBox="0 0 128 128" fill="none" xmlns="http://www.w3.org/2000/svg">
<g clip-path="url(#clip0_97_10527)">
<path d="M124.019 86.2608C126.592 79.3278 128 71.8285 128 64C128 56.1715 126.592 48.6728 124.019 41.7393L64 36.174L3.98075 41.7393C1.40825 48.6728 0 56.1715 0 64C0 71.8285 1.40825 79.3278 3.98075 86.2608L64 91.826L124.019 86.2608Z" fill="#F0F0F0"/>
<path d="M64 128C91.5175 128 114.976 110.632 124.019 86.2607H3.98047C13.0235 110.632 36.482 128 64 128Z" fill="#D80027"/>
<path d="M64 0C36.482 0 13.0235 17.368 3.98047 41.7393H124.019C114.976 17.368 91.5175 0 64 0Z" fill="#D80027"/>
</g>
<defs>
<clipPath id="clip0_97_10527">
<rect width="128" height="128" fill="white"/>
</clipPath>
</defs>
</svg>
