<svg width="128" height="128" viewBox="0 0 128 128" fill="none" xmlns="http://www.w3.org/2000/svg">
<g clip-path="url(#clip0_97_10511)">
<path d="M128 64C128 99.346 99.346 128 64 128C28.654 128 0 99.346 0 64C0 64.015 64 0.00725 64 0C99.346 0 128 28.654 128 64Z" fill="#0052B4"/>
<path d="M64 0C63.9965 0 63.9928 0.00025 63.9893 0.00025L64 0Z" fill="#F0F0F0"/>
<path d="M63.8291 64H64.0004C64.0004 63.942 64.0004 63.8865 64.0004 63.8287C63.9434 63.886 63.8864 63.943 63.8291 64Z" fill="#F0F0F0"/>
<path d="M64 33.3915C64 22.1302 64 14.751 64 0.000244141H63.9893C28.648 0.00599414 0 28.6572 0 64H33.3913V45.197L52.1942 64H63.829C63.8862 63.943 63.9433 63.886 64.0003 63.8287C64.0003 59.517 64.0003 55.6697 64.0003 52.1947L45.197 33.3915H64Z" fill="#F0F0F0"/>
<path d="M32.3787 8.34775C22.3689 14.0475 14.0474 22.369 8.34766 32.3787V64H25.0434V25.0437V25.0435H63.9999C63.9999 19.7777 63.9999 14.7612 63.9999 8.34775H32.3787Z" fill="#D80027"/>
<path d="M64.0001 56.1297L41.2619 33.3917H33.3916C33.3916 33.3914 33.3916 33.3917 33.3916 33.3917L63.9999 63.9999H64.0001C64.0001 63.9999 64.0001 58.5737 64.0001 56.1297Z" fill="#D80027"/>
<path d="M38.5979 75.1304L42.1104 82.4749L50.0421 80.6416L46.4902 87.9671L52.8686 93.0254L44.9269 94.8154L44.9492 102.956L38.5979 97.8631L32.2469 102.956L32.2691 94.8154L24.3271 93.0254L30.7059 87.9671L27.1534 80.6416L35.0856 82.4749L38.5979 75.1304Z" fill="#F0F0F0"/>
<path d="M95.8198 89.0434L97.5761 92.7156L101.542 91.7989L99.7658 95.4616L102.955 97.9909L98.9843 98.8859L98.9953 102.956L95.8198 100.41L92.6443 102.956L92.6553 98.8859L88.6846 97.9909L91.8738 95.4616L90.0978 91.7989L94.0636 92.7156L95.8198 89.0434Z" fill="#F0F0F0"/>
<path d="M79.4822 50.0869L81.2382 53.7593L85.2042 52.8424L83.4282 56.5051L86.6174 59.0344L82.6467 59.9294L82.6574 63.9999L79.4822 61.4531L76.3067 63.9999L76.3174 59.9294L72.3467 59.0344L75.5359 56.5051L73.7599 52.8424L77.7259 53.7593L79.4822 50.0869Z" fill="#F0F0F0"/>
<path d="M95.8198 27.8259L97.5761 31.4984L101.542 30.5816L99.7661 34.2444L102.955 36.7734L98.9843 37.6686L98.9953 41.7391L95.8198 39.1924L92.6443 41.7391L92.6553 37.6686L88.6846 36.7734L91.8736 34.2444L90.0978 30.5816L94.0636 31.4984L95.8198 27.8259Z" fill="#F0F0F0"/>
<path d="M110.091 44.5216L111.847 48.1941L115.813 47.2771L114.037 50.9399L117.226 53.4691L113.255 54.3644L113.266 58.4346L110.091 55.8881L106.916 58.4346L106.926 54.3644L102.956 53.4691L106.145 50.9399L104.369 47.2771L108.335 48.1941L110.091 44.5216Z" fill="#F0F0F0"/>
<path d="M99.8869 63.9999L101.268 68.2514H105.739L102.122 70.8791L103.504 75.1304L99.8869 72.5029L96.2704 75.1304L97.6517 70.8791L94.0352 68.2514H98.5054L99.8869 63.9999Z" fill="#F0F0F0"/>
</g>
<defs>
<clipPath id="clip0_97_10511">
<rect width="128" height="128" fill="white"/>
</clipPath>
</defs>
</svg>
