<svg width="128" height="128" viewBox="0 0 128 128" fill="none" xmlns="http://www.w3.org/2000/svg">
<g clip-path="url(#clip0_97_10532)">
<path d="M128 64C128 56.1715 126.592 48.6723 124.019 41.7393L64 38.9565L3.98075 41.739C1.40825 48.6723 0 56.1715 0 64C0 71.8285 1.40825 79.3278 3.98075 86.2608L64 89.0435L124.019 86.261C126.592 79.3278 128 71.8285 128 64Z" fill="#D80027"/>
<path d="M63.9997 128C91.5175 128 114.976 110.632 124.019 86.2607H3.98047C13.0232 110.632 36.482 128 63.9997 128Z" fill="#6DA544"/>
<path d="M3.98047 41.7393H124.019C114.976 17.368 91.5175 0 63.9997 0C36.482 0 13.0232 17.368 3.98047 41.7393Z" fill="#338AF3"/>
<path d="M65.3921 82.087C55.4031 82.087 47.3051 73.989 47.3051 64C47.3051 54.011 55.4031 45.913 65.3921 45.913C68.5066 45.913 71.4373 46.7005 73.9958 48.087C69.9818 44.1618 64.4928 41.739 58.4356 41.739C46.1411 41.739 36.1748 51.7055 36.1748 63.9998C36.1748 76.294 46.1413 86.2605 58.4356 86.2605C64.4931 86.2605 69.9821 83.8378 73.9958 79.9125C71.4373 81.2995 68.5066 82.087 65.3921 82.087Z" fill="#F0F0F0"/>
<path d="M79.305 51.4783L81.7007 58.216L88.1592 55.1455L85.089 61.604L91.8267 64L85.089 66.396L88.1592 72.8545L81.7007 69.784L79.305 76.5218L76.9095 69.784L70.4507 72.8545L73.5212 66.396L66.7832 64L73.5212 61.604L70.4507 55.1455L76.9095 58.216L79.305 51.4783Z" fill="#F0F0F0"/>
</g>
<defs>
<clipPath id="clip0_97_10532">
<rect width="128" height="128" fill="white"/>
</clipPath>
</defs>
</svg>
