<svg width="128" height="128" viewBox="0 0 128 128" fill="none" xmlns="http://www.w3.org/2000/svg">
<g clip-path="url(#clip0_97_10539)">
<path d="M64 128C99.3462 128 128 99.3462 128 64C128 28.6538 99.3462 0 64 0C28.6538 0 0 28.6538 0 64C0 99.3462 28.6538 128 64 128Z" fill="#F0F0F0"/>
<path d="M0 64C0 88.2588 13.4975 109.364 33.3913 120.218V7.78175C13.4975 18.6363 0 39.7413 0 64Z" fill="#D80027"/>
<path d="M0 64C0 93.5697 20.0552 118.451 47.3042 125.795V2.20474C20.0552 9.54874 0 34.4302 0 64Z" fill="#0052B4"/>
<path d="M22.9565 22.2607V32.6955C22.9565 37.8822 27.161 42.0867 32.3478 42.0867C37.5345 42.0867 41.739 37.8822 41.739 32.6955V22.2607H22.9565Z" fill="#D80027"/>
<path d="M32.3475 36.5218C30.2377 36.5218 28.5215 34.8055 28.5215 32.6958V27.8263H36.1737V32.6958C36.1737 34.8055 34.4572 36.5218 32.3475 36.5218Z" fill="#F0F0F0"/>
<path d="M69.565 66.7825H52.8692C52.8692 63.709 50.3775 61.2173 47.304 61.2173C44.2305 61.2173 41.7387 63.709 41.7387 66.7825H25.043C25.043 69.8563 27.7202 72.3478 30.7935 72.3478H30.6082C30.6082 75.4215 33.0995 77.913 36.1735 77.913C36.1735 80.9868 38.6647 83.4783 41.7387 83.4783H52.8692C55.9427 83.4783 58.4345 80.9868 58.4345 77.913C61.508 77.913 63.9997 75.4215 63.9997 72.3478H63.8145C66.8877 72.3478 69.565 69.8563 69.565 66.7825Z" fill="#FFDA44"/>
<path d="M71.852 57.8767L70.391 60.216L72.1632 62.328L69.4872 61.6617L68.026 64L67.8332 61.2487L65.1572 60.5815L67.715 59.5485L67.5225 56.7972L69.2952 58.9102L71.852 57.8767Z" fill="#FFDA44"/>
<path d="M63.3264 50.723L62.7537 53.4207L65.1419 54.7995L62.3989 55.089L61.8257 57.786L60.7037 55.2665L57.9609 55.5545L60.0107 53.709L58.8892 51.19L61.2772 52.5687L63.3264 50.723Z" fill="#FFDA44"/>
<path d="M52.8691 46.917L53.2529 49.6482L55.9686 50.127L53.4902 51.336L53.8739 54.0672L51.9584 52.0832L49.4794 53.2922L50.7741 50.857L48.8584 48.8735L51.5746 49.352L52.8691 46.917Z" fill="#FFDA44"/>
<path d="M41.7401 46.917L43.0351 49.352L45.7509 48.8732L43.8351 50.8575L45.1299 53.2925L42.6514 52.0832L40.7354 54.0667L41.1194 51.336L38.6406 50.1272L41.3564 49.6482L41.7401 46.917Z" fill="#FFDA44"/>
<path d="M31.282 50.723L33.3315 52.5687L35.7195 51.19L34.5985 53.71L36.6473 55.5547L33.905 55.2665L32.7828 57.786L32.2103 55.0885L29.4673 54.8005L31.8553 53.421L31.282 50.723Z" fill="#FFDA44"/>
<path d="M22.7566 57.8767L25.3143 58.9102L27.0861 56.7975L26.8946 59.5492L29.4513 60.5825L26.7751 61.249L26.5821 64L25.1218 61.6617L22.4458 62.3285L24.2186 60.216L22.7566 57.8767Z" fill="#FFDA44"/>
</g>
<defs>
<clipPath id="clip0_97_10539">
<rect width="128" height="128" fill="white"/>
</clipPath>
</defs>
</svg>
