<svg width="128" height="128" viewBox="0 0 128 128" fill="none" xmlns="http://www.w3.org/2000/svg">
<g clip-path="url(#clip0_97_10553)">
<path d="M64 128C99.3462 128 128 99.3462 128 64C128 28.6538 99.3462 0 64 0C28.6538 0 0 28.6538 0 64C0 99.3462 28.6538 128 64 128Z" fill="#FFDA44"/>
<path d="M38.9568 41.7393H124.019C114.977 17.368 91.5178 0 64.0003 0C46.3268 0 30.3286 7.16475 18.7476 18.7472L38.9568 41.7393Z" fill="#338AF3"/>
<path d="M38.9568 86.2607H124.019C114.977 110.632 91.5178 128 64.0003 128C46.3268 128 30.3286 120.835 18.7476 109.253L38.9568 86.2607Z" fill="#338AF3"/>
<path d="M18.7451 18.745C-6.24837 43.7385 -6.24837 84.2612 18.7451 109.255C29.0734 98.9267 39.0066 88.9935 64.0001 64L18.7451 18.745Z" fill="black"/>
</g>
<defs>
<clipPath id="clip0_97_10553">
<rect width="128" height="128" fill="white"/>
</clipPath>
</defs>
</svg>
