<svg width="128" height="128" viewBox="0 0 128 128" fill="none" xmlns="http://www.w3.org/2000/svg">
<g clip-path="url(#clip0_97_10559)">
<path d="M64 128C99.3462 128 128 99.3462 128 64C128 28.6538 99.3462 0 64 0C28.6538 0 0 28.6538 0 64C0 99.3462 28.6538 128 64 128Z" fill="#F0F0F0"/>
<path d="M64 0C51.156 0 39.198 3.78625 29.175 10.2995L45.6347 21.3318L25.0435 31.9982L45.6347 42.6647L25.0435 53.3312L45.6347 63.9965L25.0435 74.6628L45.6347 85.329L25.0435 95.9965L45.6347 106.663L29.173 117.699C39.1965 124.213 51.1552 128 64 128C99.346 128 128 99.346 128 64C128 28.654 99.346 0 64 0V0Z" fill="#D80027"/>
</g>
<defs>
<clipPath id="clip0_97_10559">
<rect width="128" height="128" fill="white"/>
</clipPath>
</defs>
</svg>
