<svg width="128" height="128" viewBox="0 0 128 128" fill="none" xmlns="http://www.w3.org/2000/svg">
<g clip-path="url(#clip0_97_10562)">
<path d="M64.0004 0.00024414C99.3463 0.00024414 128 28.6542 128 64.0001C128 99.3461 99.3463 128 64.0004 128C28.6544 128 0.00048828 99.3461 0.00048828 64.0001" fill="#FFDA44"/>
<path d="M62.6088 28.4446H117.22C113.624 23.0729 109.235 18.2779 104.223 14.2224H62.6088V28.4446Z" fill="#D80027"/>
<path d="M62.6088 56.8891H127.605C127.059 51.9576 125.954 47.1959 124.353 42.6671H62.6088V56.8891Z" fill="#D80027"/>
<path d="M3.647 85.3335H124.353C125.954 80.8048 127.059 76.0426 127.605 71.1111H0.395507C0.940506 76.0428 2.046 80.805 3.647 85.3335Z" fill="#D80027"/>
<path d="M23.777 113.778H104.223C109.235 109.722 113.624 104.927 117.22 99.5555H10.7807C14.3767 104.927 18.7647 109.722 23.777 113.778Z" fill="#D80027"/>
<path d="M64.0001 0.00024414C28.6539 0.00024414 -0.000249998 28.6542 1.63587e-09 64.0006C14.6065 64.0001 28.6539 64.0006 63.9999 64.0006L64.0001 0.00024414Z" fill="#4A1F63"/>
<path d="M52.8697 33.3914V38.9567H50.0872V33.3914H44.522V38.9567H41.7395V27.8262H30.609V38.9567H27.8263V33.3914H22.2613V38.9567H19.4785V33.3914H13.9131V50.0869H58.435V33.3914H52.8697Z" fill="#F0F0F0"/>
</g>
<defs>
<clipPath id="clip0_97_10562">
<rect width="128" height="128" fill="white"/>
</clipPath>
</defs>
</svg>
