<svg width="128" height="128" viewBox="0 0 128 128" fill="none" xmlns="http://www.w3.org/2000/svg">
<g clip-path="url(#clip0_97_10574)">
<path d="M91.8256 6.3505C83.4116 2.282 73.9721 0 63.9996 0C54.0271 0 44.5876 2.282 36.1736 6.3505L30.6084 64L36.1736 121.649C44.5876 125.718 54.0271 128 63.9996 128C73.9721 128 83.4116 125.718 91.8256 121.649L97.3909 64L91.8256 6.3505Z" fill="#FFDA44"/>
<path d="M36.174 6.35275C14.7665 16.7043 0 38.6265 0 64C0 89.3735 14.7665 111.296 36.174 121.647V6.35275Z" fill="#0052B4"/>
<path d="M91.8262 6.35269V121.647C113.234 111.296 128 89.3732 128 63.9999C128 38.6267 113.234 16.7042 91.8262 6.35269Z" fill="#0052B4"/>
<path d="M83.4783 38.9565L87.2116 40.823L83.4783 38.9565L79.7448 37.09C79.5198 37.5402 74.6451 47.4585 73.8488 62.6087H68.1741V38.9565L64.0001 33.3912L59.8261 38.9565V62.6087H54.1513C53.3548 47.4585 48.4803 37.5402 48.2551 37.09L40.7886 40.8232C40.8401 40.9257 45.9133 51.252 45.9133 66.7827V70.9567H59.8263V94.609H68.1741V70.9567H82.0871V66.7825C82.0871 58.753 83.4763 52.132 84.6421 47.9915C85.9128 43.4765 87.2036 40.8397 87.2163 40.8135L83.4783 38.9565Z" fill="black"/>
</g>
<defs>
<clipPath id="clip0_97_10574">
<rect width="128" height="128" fill="white"/>
</clipPath>
</defs>
</svg>
