<svg width="128" height="128" viewBox="0 0 128 128" fill="none" xmlns="http://www.w3.org/2000/svg">
<g clip-path="url(#clip0_97_10593)">
<path d="M64 128C99.3462 128 128 99.3462 128 64C128 28.6538 99.3462 0 64 0C28.6538 0 0 28.6538 0 64C0 99.3462 28.6538 128 64 128Z" fill="#FCFCFC"/>
<path d="M26.434 59.3623L19.4775 46.7415L26.434 34.3188L33.3905 46.7415L26.434 59.3623Z" fill="#A2001D"/>
<path d="M12.521 59.3623L5.56445 46.7415L12.521 34.3188L19.4775 46.7415L12.521 59.3623Z" fill="#A2001D"/>
<path d="M26.434 93.6813L19.4775 81.0605L26.434 68.6378L33.3905 81.0605L26.434 93.6813Z" fill="#A2001D"/>
<path d="M12.521 93.6813L5.56445 81.0605L12.521 68.6378L19.4775 81.0605L12.521 93.6813Z" fill="#A2001D"/>
<path d="M33.3905 12.423L31.421 8.90601C27.8885 10.999 24.5752 13.4223 21.5225 16.1333L26.434 25.0435L33.3905 12.423Z" fill="#A2001D"/>
<path d="M26.4342 102.956L21.4707 111.82C24.5207 114.535 27.8317 116.962 31.3627 119.059L33.391 115.379L26.4342 102.956Z" fill="#A2001D"/>
<path d="M38.9565 80.6957V122.911C46.6488 126.186 55.112 128 64 128C91.5178 128 114.977 110.632 124.019 86.2607L38.9565 80.6957Z" fill="#6DA544"/>
<path d="M124.019 86.2607C126.592 79.3275 128 71.8285 128 64C128 28.654 99.346 0 64 0C55.1128 0 46.6488 1.81325 38.9565 5.087V86.261H124.019V86.2607Z" fill="#A2001D"/>
</g>
<defs>
<clipPath id="clip0_97_10593">
<rect width="128" height="128" fill="white"/>
</clipPath>
</defs>
</svg>
