<svg width="128" height="128" viewBox="0 0 128 128" fill="none" xmlns="http://www.w3.org/2000/svg">
<g clip-path="url(#clip0_97_10608)">
<path d="M128 64C128 42.0348 116.933 22.6565 100.072 11.1305L64 8.34775L27.9282 11.1302C11.0675 22.6565 0 42.035 0 64C0 85.9658 11.0675 105.343 27.9282 116.869L64 119.652L100.072 116.87C116.933 105.343 128 85.9658 128 64Z" fill="#0052B4"/>
<path d="M100.072 11.1305C89.8005 4.109 77.381 0 64 0C50.6192 0 38.1995 4.109 27.9282 11.1305H100.072Z" fill="#A2001D"/>
<path d="M27.9282 116.87C38.1992 123.891 50.6192 128 64 128C77.381 128 89.8005 123.891 100.072 116.87H27.9282Z" fill="#A2001D"/>
<path d="M64.0004 94.6087C80.9051 94.6087 94.6091 80.9047 94.6091 64C94.6091 47.0952 80.9051 33.3912 64.0004 33.3912C47.0956 33.3912 33.3916 47.0952 33.3916 64C33.3916 80.9047 47.0956 94.6087 64.0004 94.6087Z" fill="#F0F0F0"/>
<path d="M64 89.0435C77.8312 89.0435 89.0435 77.8312 89.0435 64C89.0435 50.1689 77.8312 38.9565 64 38.9565C50.1689 38.9565 38.9565 50.1689 38.9565 64C38.9565 77.8312 50.1689 89.0435 64 89.0435Z" fill="#6DA544"/>
<path d="M64 80.6958C73.2208 80.6958 80.6957 73.2208 80.6957 64C80.6957 54.7792 73.2208 47.3043 64 47.3043C54.7791 47.3043 47.3042 54.7792 47.3042 64C47.3042 73.2208 54.7791 80.6958 64 80.6958Z" fill="#F0F0F0"/>
<path d="M64 59.826L54.9565 64V70.9565L64 76.5217L73.0435 70.9565V64L64 59.826Z" fill="#0052B4"/>
<path d="M54.9565 55.6522H73.0435V64H54.9565V55.6522Z" fill="#FFDA44"/>
</g>
<defs>
<clipPath id="clip0_97_10608">
<rect width="128" height="128" fill="white"/>
</clipPath>
</defs>
</svg>
