<svg width="128" height="128" viewBox="0 0 128 128" fill="none" xmlns="http://www.w3.org/2000/svg">
<g clip-path="url(#clip0_97_10622)">
<path d="M128 64C128 99.346 99.346 128 64 128C28.654 128 0 99.346 0 64C0 64.0153 64 0.007 64 0C99.346 0 128 28.654 128 64Z" fill="#D80027"/>
<path d="M64 30.6088V52.1945L41.7393 30.6088H64Z" fill="#0052B4"/>
<path d="M33.3914 64H52.1941L33.3914 38.9565L30.6089 58.4348L33.3914 64Z" fill="#0052B4"/>
<path d="M63.8291 64H64.0004C64.0004 63.9425 64.0004 63.8865 64.0004 63.8287C63.9434 63.886 63.8864 63.943 63.8291 64Z" fill="#F0F0F0"/>
<path d="M64 33.3913C64 22.13 64 14.7513 64 0H63.9893C28.6478 0.006 0 28.6572 0 64H33.3913V45.1973L52.194 64H63.829C63.886 63.943 63.943 63.886 64.0003 63.8288C64.0003 59.517 64.0003 55.6698 64.0003 52.1945L45.197 33.3913H64Z" fill="#F0F0F0"/>
<path d="M32.3787 8.34775C22.3689 14.0475 14.0472 22.369 8.34766 32.3787V66.7825H25.0434V25.044V25.0435H66.7824C66.7824 19.7777 66.7824 14.7612 66.7824 8.34775H32.3787Z" fill="#D80027"/>
<path d="M66.5441 58.6734L41.2611 33.3912H33.3911V33.3917L66.5434 66.5439H66.5439C66.5441 66.5442 66.5441 61.1174 66.5441 58.6734Z" fill="#D80027"/>
<path d="M72.3477 33.3912V63.9997C72.3477 78.9097 111.304 78.9097 111.304 63.9997V33.3912H72.3477Z" fill="#F3F3F3"/>
<path d="M72.3477 64V63.9998C72.3477 78.9098 91.8259 83.4783 91.8259 83.4783C91.8259 83.4783 111.304 78.9098 111.304 63.9998V64H72.3477Z" fill="#6DA544"/>
<path d="M91.8257 51.7565L82.7822 55.6522V64L91.8257 69.5652L100.869 64V55.6522L91.8257 51.7565Z" fill="#A2001D"/>
<path d="M82.7822 47.3043H100.869V55.652H82.7822V47.3043Z" fill="#338AF3"/>
</g>
<defs>
<clipPath id="clip0_97_10622">
<rect width="128" height="128" fill="white"/>
</clipPath>
</defs>
</svg>
