<svg width="128" height="128" viewBox="0 0 128 128" fill="none" xmlns="http://www.w3.org/2000/svg">
<g clip-path="url(#clip0_97_10638)">
<path d="M109.255 109.255C84.2614 134.248 43.7389 134.248 18.7451 109.255C-6.24837 84.2615 -6.24837 43.7387 18.7451 18.745C18.7541 18.745 76.2596 1.75324 101.253 26.7467C126.247 51.7402 109.272 109.237 109.255 109.255Z" fill="#FFDA44"/>
<path d="M109.255 109.255C134.248 84.2615 134.248 43.7388 109.255 18.745C84.2614 -6.24874 43.7389 -6.2485 18.7451 18.745L109.255 109.255Z" fill="#D80027"/>
<path d="M80.7291 80.7352C78.1001 81.7677 75.0453 81.6582 72.3951 80.171C67.7126 77.543 66.0411 71.5945 68.6698 66.9112L67.8718 66.4637C75.8896 64.5305 81.8213 57.253 81.7173 48.665C81.6528 43.3257 79.2671 38.549 75.5353 35.2805L69.6921 41.267C71.9011 43.0275 73.3333 45.728 73.3701 48.7662C73.4351 54.1362 69.1196 58.558 63.7498 58.6227L63.7611 59.537C58.0778 53.5605 48.8098 52.0622 41.4246 56.4462C36.8331 59.1722 33.8896 63.6262 32.9243 68.4925L41.0303 70.56C41.4506 67.7665 43.0728 65.176 45.6856 63.6247C50.3033 60.8835 56.2903 62.4105 59.0316 67.028L59.8186 66.5612C57.4841 74.4707 60.8203 83.2465 68.3101 87.4505C72.9666 90.064 78.2956 90.3862 82.9926 88.789L80.7291 80.7352ZM63.8171 64.1867L63.8166 64.187L63.8171 64.1867Z" fill="#FF9811"/>
<path d="M87.6966 43.3452L83.1731 59.488L69.6006 56.9817L60.8641 38.973L37.2623 47.3482L35.4011 42.1032L29.2261 41.3425L33.8788 54.4547L50.1211 50.3007L54.7368 63.308L43.5088 79.8782L62.5631 96.1297L58.9513 100.364L61.3801 106.093L70.4096 95.5067L58.6911 83.5175L67.6478 73.0167L87.6123 74.4552L92.1596 49.8277L97.6323 50.8385L101.38 45.871L87.6966 43.3452ZM63.9953 64.4355V64.436V64.4355Z" fill="#FFEACF"/>
</g>
<defs>
<clipPath id="clip0_97_10638">
<rect width="128" height="128" fill="white"/>
</clipPath>
</defs>
</svg>
