<svg width="128" height="128" viewBox="0 0 128 128" fill="none" xmlns="http://www.w3.org/2000/svg">
<g clip-path="url(#clip0_97_10647)">
<path d="M64 128C99.3462 128 128 99.3465 128 64.0002C128 28.654 99.3462 0.000244141 64 0.000244141C28.6538 0.000244141 0 28.654 0 64.0002C0 99.3465 28.6538 128 64 128Z" fill="#F0F0F0"/>
<path d="M18.7452 18.7453C5.02895 32.4615 -1.1578 50.855 0.180446 68.7915L68.7912 0.180751C50.8547 -1.15775 32.4614 5.029 18.7452 18.7453Z" fill="#FFDA44"/>
<path d="M22.8525 113.018C47.9978 134.173 85.5875 132.922 109.255 109.255C132.923 85.5877 134.174 47.9977 113.018 22.8527L22.8525 113.018Z" fill="#0052B4"/>
<path d="M63.7716 61.4225L69.2869 58.435L63.7716 55.4475C62.4839 47.0822 55.8744 40.4725 47.5091 39.185L44.5214 33.6695L41.5339 39.1847C33.1689 40.4722 26.5594 47.082 25.2714 55.4472L19.7559 58.435L25.2711 61.4225C26.5589 69.7877 33.1684 76.3975 41.5336 77.685L44.5214 83.2005L47.5089 77.6852C55.8744 76.3975 62.4839 69.7877 63.7716 61.4225ZM44.5216 69.5655C38.3744 69.5655 33.3911 64.5825 33.3911 58.435C33.3911 52.2875 38.3741 47.3045 44.5216 47.3045C50.6691 47.3045 55.6521 52.2875 55.6521 58.435C55.6521 64.5825 50.6689 69.5655 44.5216 69.5655Z" fill="black"/>
<path d="M44.5217 50.0872L46.9315 54.261H51.7512L49.3412 58.435L51.7512 62.609H46.9315L44.5217 66.7827L42.112 62.609H37.2925L39.7022 58.435L37.2925 54.261H42.112L44.5217 50.0872Z" fill="#D80027"/>
</g>
<defs>
<clipPath id="clip0_97_10647">
<rect width="128" height="128" fill="white"/>
</clipPath>
</defs>
</svg>
