<svg width="128" height="128" viewBox="0 0 128 128" fill="none" xmlns="http://www.w3.org/2000/svg">
<g clip-path="url(#clip0_97_10653)">
<path d="M64 128C99.3462 128 128 99.3465 128 64.0002C128 28.654 99.3462 0.000244141 64 0.000244141C28.6538 0.000244141 0 28.654 0 64.0002C0 99.3465 28.6538 128 64 128Z" fill="#F0F0F0"/>
<path d="M63.9997 0.000244141C41.3072 0.000244141 21.3747 11.811 10.0107 29.62L96.8005 118.962C115.486 107.787 128 87.356 128 64.0002C128 28.6542 99.3457 0.000244141 63.9997 0.000244141Z" fill="#FFDA44"/>
<path d="M128 64.0003C128 47.3948 121.675 32.2677 111.304 20.8932V107.107C121.675 95.7327 128 80.6058 128 64.0003Z" fill="#0052B4"/>
<path d="M79.9473 120.468L86.651 120.464L88.719 114.087L90.7945 120.462L94.157 120.46C96.2188 119.356 98.213 118.143 100.132 116.827L11.1722 27.868C9.70625 30.007 8.36925 32.2405 7.167 34.5555L7.9575 36.9835L14.6613 36.9792L9.24025 40.923L11.3158 47.2977L5.88975 43.3607L2.6535 45.7147C0.92825 51.5087 0 57.646 0 64.0002C0 99.3462 28.654 128 64 128C71.473 128 78.6458 126.717 85.3125 124.362L79.9473 120.468ZM14.2747 61.2177L16.3423 54.8407L10.9167 50.9032L17.6205 50.899L19.6882 44.5217L21.7638 50.8965L28.4675 50.8922L23.0462 54.836L25.1217 61.2107L19.6957 57.2737L14.2747 61.2177ZM28.081 75.1307L30.1485 68.7537L24.723 64.8162L31.4268 64.812L33.4945 58.4347L35.57 64.8095L42.2738 64.8052L36.8527 68.749L38.9282 75.1237L33.5023 71.1867L28.081 75.1307ZM41.887 89.0437L43.9545 82.6667L38.529 78.7292L45.2327 78.725L47.3005 72.3477L49.376 78.7225L56.0798 78.7182L50.6587 82.662L52.7342 89.0367L47.3083 85.0992L41.887 89.0437ZM61.1143 99.013L55.693 102.957L57.7605 96.5797L52.335 92.6422L59.0387 92.638L61.1068 86.2607L63.1823 92.6355L69.886 92.6312L64.465 96.575L66.5405 102.95L61.1143 99.013ZM69.4993 116.87L71.5667 110.493L66.1413 106.555L72.845 106.551L74.9128 100.174L76.9883 106.548L83.692 106.544L78.271 110.488L80.3465 116.863L74.9205 112.925L69.4993 116.87Z" fill="#0052B4"/>
</g>
<defs>
<clipPath id="clip0_97_10653">
<rect width="128" height="128" fill="white"/>
</clipPath>
</defs>
</svg>
