<svg width="128" height="128" viewBox="0 0 128 128" fill="none" xmlns="http://www.w3.org/2000/svg">
<g clip-path="url(#clip0_97_10659)">
<path d="M3.022 44.5218C1.0615 50.664 -0.000249956 57.2073 4.41387e-08 64C-0.000249956 70.7923 1.0615 77.3358 3.02225 83.4783L64 86.2613L124.978 83.4783C126.938 77.3358 128 70.792 128 64.0003C128 57.2078 126.938 50.664 124.978 44.5218L63.9997 41.7393L3.022 44.5218Z" fill="#F0F0F0"/>
<path d="M128 64.0003C128 60.2035 127.667 56.4845 127.033 52.8695H0.967C0.3325 56.4845 0 60.203 0 64C0 67.797 0.33275 71.5155 0.967 75.1305H127.033C127.667 71.5153 128 67.7968 128 64.0003Z" fill="black"/>
<path d="M63.9992 128C92.5532 128 116.736 109.299 124.977 83.4778H3.02148C11.2627 109.299 35.4455 127.999 63.9992 128Z" fill="#338AF3"/>
<path d="M63.9995 0.000244151C35.4457 0.000244151 11.2632 18.701 3.02148 44.5215L124.976 44.5217C116.736 18.701 92.553 -0.000255849 63.9995 0.000244151Z" fill="#338AF3"/>
</g>
<defs>
<clipPath id="clip0_97_10659">
<rect width="128" height="128" fill="white"/>
</clipPath>
</defs>
</svg>
