<svg width="128" height="128" viewBox="0 0 128 128" fill="none" xmlns="http://www.w3.org/2000/svg">
<g clip-path="url(#clip0_97_10665)">
<path d="M64 128C99.3462 128 128 99.3465 128 64.0002C128 28.654 99.3462 0.000244141 64 0.000244141C28.6538 0.000244141 0 28.654 0 64.0002C0 99.3465 28.6538 128 64 128Z" fill="#6DA544"/>
<path d="M64.0004 25.0438L116.87 64.0003L64.0004 102.957L11.1309 64.0003L64.0004 25.0438Z" fill="#FFDA44"/>
<path d="M64 86.261C76.2943 86.261 86.2608 76.2945 86.2608 64.0003C86.2608 51.706 76.2943 41.7395 64 41.7395C51.7057 41.7395 41.7393 51.706 41.7393 64.0003C41.7393 76.2945 51.7057 86.261 64 86.261Z" fill="#F0F0F0"/>
<path d="M52.8703 62.6091C48.9993 62.6091 45.2636 63.1979 41.7471 64.2904C41.9028 76.4504 51.8038 86.2614 64.0008 86.2614C71.5428 86.2614 78.2038 82.5071 82.2306 76.7694C75.3413 68.1451 64.7411 62.6091 52.8703 62.6091Z" fill="#0052B4"/>
<path d="M85.8494 68.2654C86.1174 66.8844 86.2622 65.4596 86.2622 64.0004C86.2622 51.7059 76.2957 41.7396 64.0014 41.7396C54.8279 41.7396 46.9529 47.2899 43.5449 55.2144C46.5574 54.5901 49.6764 54.2614 52.8712 54.2614C65.8004 54.2611 77.4969 59.6356 85.8494 68.2654Z" fill="#0052B4"/>
</g>
<defs>
<clipPath id="clip0_97_10665">
<rect width="128" height="128" fill="white"/>
</clipPath>
</defs>
</svg>
