<svg width="128" height="128" viewBox="0 0 128 128" fill="none" xmlns="http://www.w3.org/2000/svg">
<g clip-path="url(#clip0_97_10701)">
<path d="M64 128C99.3462 128 128 99.3465 128 64.0002C128 28.654 99.3462 0.000244141 64 0.000244141C28.6538 0.000244141 0 28.654 0 64.0002C0 99.3465 28.6538 128 64 128Z" fill="#F0F0F0"/>
<path d="M117.333 71.6596C112 71.6596 112 66.7831 106.666 66.7831C101.333 66.7831 101.333 71.6596 96.0002 71.6596C90.6672 71.6596 90.667 66.7831 85.334 66.7831C80.0007 66.7831 80.0007 71.6596 74.6672 71.6596C69.3337 71.6596 69.3335 66.7831 63.9997 66.7831C58.6665 66.7831 58.6665 71.6596 53.3335 71.6596C48.001 71.6596 48.001 66.7831 42.6677 66.7831C37.334 66.7831 37.334 71.6596 32.0002 71.6596C26.6665 71.6596 26.6665 66.7831 21.3327 66.7831C16.0002 66.7831 16.0002 71.6596 10.667 71.6596C5.36248 71.6596 5.33173 66.8369 0.0839844 66.7854C0.231734 69.7126 0.581234 72.5869 1.10973 75.3976C5.36073 76.0219 5.73298 80.1926 10.6675 80.1926C16.0007 80.1926 16.0007 75.3166 21.3332 75.3166C26.667 75.3166 26.667 80.1926 32.0007 80.1926C37.3345 80.1926 37.3345 75.3166 42.6682 75.3166C48.0015 75.3166 48.0015 80.1926 53.334 80.1926C58.6672 80.1926 58.6672 75.3166 64.0002 75.3166C69.334 75.3166 69.334 80.1926 74.6677 80.1926C80.0015 80.1926 80.0015 75.3166 85.3345 75.3166C90.6677 75.3166 90.6677 80.1926 96.0007 80.1926C101.334 80.1926 101.334 75.3166 106.667 75.3166C112.001 75.3166 112.001 80.1926 117.334 80.1926C122.268 80.1926 122.641 76.0221 126.892 75.3976C127.421 72.5866 127.77 69.7129 127.918 66.7854C122.669 66.8371 122.638 71.6596 117.333 71.6596Z" fill="#0052B4"/>
<path d="M106.666 83.4786C101.333 83.4786 101.333 88.3551 95.9999 88.3551C90.6669 88.3551 90.6667 83.4786 85.3337 83.4786C80.0004 83.4786 80.0004 88.3551 74.6669 88.3551C69.3332 88.3551 69.3332 83.4786 63.9994 83.4786C58.6662 83.4786 58.6662 88.3551 53.3332 88.3551C48.0007 88.3551 48.0007 83.4786 42.6674 83.4786C37.3337 83.4786 37.3337 88.3551 31.9999 88.3551C26.6662 88.3551 26.6662 83.4786 21.3324 83.4786C15.9999 83.4786 15.9999 88.3551 10.6667 88.3551C6.73792 88.3551 5.70067 85.7106 3.29492 84.3176C4.75192 88.6724 6.66567 92.8171 8.97692 96.6981C9.47742 96.8189 10.0339 96.8884 10.6664 96.8884C15.9997 96.8884 15.9997 92.0124 21.3322 92.0124C26.6659 92.0124 26.6659 96.8884 31.9997 96.8884C37.3334 96.8884 37.3334 92.0124 42.6672 92.0124C48.0004 92.0124 48.0004 96.8884 53.3329 96.8884C58.6662 96.8884 58.6662 92.0124 63.9992 92.0124C69.3329 92.0124 69.3329 96.8884 74.6667 96.8884C80.0004 96.8884 80.0004 92.0124 85.3334 92.0124C90.6667 92.0124 90.6667 96.8884 95.9997 96.8884C101.333 96.8884 101.333 92.0124 106.666 92.0124C112 92.0124 112 96.8884 117.333 96.8884C117.966 96.8884 118.523 96.8189 119.023 96.6979C121.335 92.8171 123.248 88.6724 124.705 84.3179C122.299 85.7109 121.262 88.3554 117.333 88.3554C112 88.3551 112 83.4786 106.666 83.4786Z" fill="#0052B4"/>
<path d="M126.512 50.2356C122.613 51.0448 122.116 54.9638 117.333 54.9638C112 54.9638 112 50.0873 106.667 50.0873C101.333 50.0873 101.333 54.9638 96.0003 54.9638C90.6673 54.9638 90.667 50.0873 85.334 50.0873C80.0008 50.0873 80.0008 54.9638 74.6673 54.9638C69.3338 54.9638 69.3335 50.0873 63.9998 50.0873C61.118 50.0873 59.793 51.5108 58.3428 52.8198V61.3531C59.793 60.0443 61.1178 58.6211 63.9998 58.6211C69.3335 58.6211 69.3335 63.4971 74.6673 63.4971C80.001 63.4971 80.001 58.6211 85.334 58.6211C90.6673 58.6211 90.6673 63.4971 96.0003 63.4971C101.333 63.4971 101.334 58.6211 106.667 58.6211C112 58.6211 112 63.4971 117.333 63.4971C122.268 63.4971 122.64 59.3266 126.892 58.7021C127.164 58.7021 127.469 58.6993 127.78 58.6956C127.544 55.8173 127.117 52.9933 126.512 50.2356Z" fill="#0052B4"/>
<path d="M121.837 36.5689C120.731 37.4971 119.454 38.2681 117.333 38.2681C112 38.2681 112 33.3916 106.667 33.3916C101.333 33.3916 101.333 38.2681 96.0003 38.2681C90.6673 38.2681 90.667 33.3916 85.334 33.3916C80.0008 33.3916 80.0008 38.2681 74.6673 38.2681C69.3338 38.2681 69.3335 33.3916 63.9998 33.3916C61.118 33.3916 59.793 34.8151 58.3428 36.1241V44.6574C59.793 43.3486 61.1178 41.9254 63.9998 41.9254C69.3335 41.9254 69.3335 46.8013 74.6673 46.8013C80.0005 46.8013 80.0005 41.9254 85.3338 41.9254C90.667 41.9254 90.667 46.8013 96 46.8013C101.333 46.8013 101.333 41.9254 106.666 41.9254C112 41.9254 112 46.8013 117.333 46.8013C121.117 46.8013 122.22 44.3501 124.445 42.9246C123.686 40.7504 122.816 38.6291 121.837 36.5689Z" fill="#0052B4"/>
<path d="M107.122 16.7091C106.974 16.7011 106.824 16.6961 106.667 16.6961C101.334 16.6961 101.334 21.5726 96.0005 21.5726C90.6673 21.5726 90.6673 16.6961 85.3343 16.6961C80.001 16.6961 80.001 21.5726 74.6673 21.5726C69.3335 21.5726 69.3335 16.6961 63.9998 16.6961C61.118 16.6961 59.793 18.1196 58.3428 19.4286V27.9619C59.793 26.6531 61.1178 25.2299 63.9998 25.2299C69.3335 25.2299 69.3335 30.1059 74.6673 30.1059C80.001 30.1059 80.001 25.2299 85.334 25.2299C90.6673 25.2299 90.6673 30.1059 96.0003 30.1059C101.333 30.1059 101.334 25.2299 106.667 25.2299C112 25.2299 112 30.1059 117.333 30.1059C117.662 30.1059 117.969 30.0864 118.259 30.0516C115.161 25.1106 111.41 20.6214 107.122 16.7091Z" fill="#0052B4"/>
<path d="M80.3588 2.11385C78.8948 3.43085 77.5718 4.87735 74.6671 4.87735C69.3333 4.87735 69.3333 0.00135449 63.9998 0.000854492H63.9988C61.2408 0.00110449 59.9093 1.30535 58.5283 2.5651V11.0986C59.9091 9.83885 61.2411 8.53436 63.9998 8.53436C69.3336 8.53436 69.3336 13.4104 74.6673 13.4104C80.0008 13.4104 80.0008 8.53436 85.3341 8.53436C90.6673 8.53436 90.6673 13.4104 96.0003 13.4104C98.2381 13.4104 99.5361 12.5514 100.684 11.5549C94.6001 7.2911 87.7406 4.0596 80.3588 2.11385Z" fill="#0052B4"/>
<path d="M74.6669 121.746C69.3332 121.746 69.3332 116.87 63.9994 116.87C58.6662 116.87 58.6662 121.746 53.3332 121.746C48.0007 121.746 48.0007 116.87 42.6674 116.87C38.5822 116.87 37.6239 119.728 35.0039 121.068C42.2289 124.746 50.2457 127.091 58.7307 127.783C60.0429 126.584 61.3759 125.403 63.9994 125.403C66.6237 125.403 67.9567 126.584 69.2692 127.783C77.7544 127.092 85.7717 124.747 92.9969 121.068C90.3764 119.729 89.4184 116.87 85.3337 116.87C80.0007 116.87 80.0007 121.746 74.6669 121.746Z" fill="#0052B4"/>
<path d="M96.0003 105.051C90.667 105.051 90.667 100.174 85.334 100.174C80.0008 100.174 80.0008 105.051 74.6673 105.051C69.3335 105.051 69.3335 100.174 63.9998 100.174C58.6665 100.174 58.6665 105.051 53.3335 105.051C48.001 105.051 48.001 100.174 42.6678 100.174C37.334 100.174 37.334 105.051 32.0003 105.051C26.6665 105.051 26.6665 100.174 21.3328 100.174C17.4975 100.174 16.4205 102.697 14.1343 104.113C15.5673 105.893 17.0908 107.596 18.703 109.211C19.4253 108.903 20.2728 108.708 21.3325 108.708C26.6663 108.708 26.6663 113.584 32 113.584C37.3338 113.584 37.3338 108.708 42.6675 108.708C48.0008 108.708 48.0008 113.584 53.3333 113.584C58.6665 113.584 58.6665 108.708 63.9995 108.708C69.3333 108.708 69.3333 113.584 74.667 113.584C80.0008 113.584 80.0008 108.708 85.3338 108.708C90.6668 108.708 90.667 113.584 96 113.584C101.333 113.584 101.333 108.708 106.666 108.708C107.727 108.708 108.575 108.903 109.298 109.212C110.91 107.596 112.434 105.893 113.867 104.113C111.58 102.697 110.503 100.175 106.667 100.175C101.333 100.174 101.333 105.051 96.0003 105.051Z" fill="#0052B4"/>
<path d="M63.8281 64.0004H63.9994C63.9994 63.9429 63.9994 63.8869 63.9994 63.8291C63.9424 63.8864 63.8854 63.9434 63.8281 64.0004Z" fill="#F0F0F0"/>
<path d="M64.001 33.3916V52.1949L41.7402 30.6091L64.001 33.3916Z" fill="#0052B4"/>
<path d="M33.3921 64.0004H52.1946L33.3919 38.9569L30.6094 58.4352L33.3921 64.0004Z" fill="#0052B4"/>
<path d="M64 33.3915C64 22.1302 64 14.7515 64 0.000244141H63.9893C28.648 0.00624414 0 28.6575 0 64.0002H33.3915V45.1975L52.194 64.0002H63.829C63.886 63.9432 63.943 63.8862 64.0003 63.829C64.0003 59.5172 64.0003 55.67 64.0003 52.1947L45.197 33.3915H64Z" fill="#F0F0F0"/>
<path d="M32.3787 8.34802C22.3689 14.0478 14.0474 22.3693 8.34766 32.379V64.0003H25.0434V25.0443V25.0438H63.9999C63.9999 19.778 63.9999 14.7615 63.9999 8.34802H32.3787Z" fill="#D80027"/>
<path d="M63.9999 56.1299L41.2611 33.3917H33.3911V33.3922L63.9994 64.0002H63.9999C63.9999 64.0002 63.9999 58.5734 63.9999 56.1299Z" fill="#D80027"/>
<path d="M83.4785 33.3915H108.522L96.0003 45.9132L83.4785 33.3915Z" fill="#6DA544"/>
<path d="M93.2168 43.1307H98.7821V58.435H93.2168V43.1307Z" fill="#A2001D"/>
<path d="M93.2168 83.4784H98.7821V98.7826H93.2168V83.4784Z" fill="#A2001D"/>
<path d="M112.696 75.1307C112.696 70.5205 108.958 66.783 104.348 66.783C102.21 66.783 100.26 67.588 98.7829 68.9102V64.0002H101.565V58.435H98.7829V55.6525H93.2177V58.435H90.4352V64.0002H93.2177V68.9102C91.7404 67.588 89.7909 66.783 87.6524 66.783C83.0422 66.783 79.3047 70.5205 79.3047 75.1307C79.3047 77.6025 80.3799 79.8225 82.0872 81.3512V86.2612H109.913V81.3512C111.621 79.8225 112.696 77.6025 112.696 75.1307Z" fill="#FFDA44"/>
<path d="M104.348 72.348C103.47 72.348 102.855 72.7335 102.494 73.0565L98.7824 76.3793H93.2174L89.5056 73.0565C89.1444 72.7335 88.5299 72.348 87.6521 72.348C86.1179 72.348 84.8696 73.5963 84.8696 75.1305C84.8696 76.2113 85.4524 76.894 85.7996 77.2053L87.6524 78.8643V80.6958H104.348V78.8643L106.201 77.2053C106.548 76.8943 107.131 76.2113 107.131 75.1305C107.13 73.5963 105.882 72.348 104.348 72.348Z" fill="#D80027"/>
</g>
<defs>
<clipPath id="clip0_97_10701">
<rect width="128" height="128" fill="white"/>
</clipPath>
</defs>
</svg>
