<svg width="128" height="128" viewBox="0 0 128 128" fill="none" xmlns="http://www.w3.org/2000/svg">
<g clip-path="url(#clip0_97_10730)">
<path d="M128 64.0002C128 99.3462 99.346 128 64 128C28.654 128 0 99.3462 0 64.0002C0 64.0155 64 0.00724414 64 0.000244141C99.346 0.000244141 128 28.6542 128 64.0002Z" fill="#0052B4"/>
<path d="M63.8291 64.0004H64.0004C64.0004 63.9429 64.0004 63.8869 64.0004 63.8291C63.9434 63.8864 63.8864 63.9434 63.8291 64.0004Z" fill="#F0F0F0"/>
<path d="M64 33.3917C64 22.1305 64 14.7517 64 0.000488281H63.9893C28.6478 0.00648828 0 28.6577 0 64.0005H33.3913V45.1977L52.194 64.0005H63.829C63.886 63.9435 63.943 63.8865 64.0003 63.8292C64.0003 59.5175 64.0003 55.6702 64.0003 52.195L45.197 33.3917H64Z" fill="#F0F0F0"/>
<path d="M32.3787 8.34802C22.3689 14.0478 14.0472 22.3693 8.34766 32.379V64.0003H25.0434V25.0443V25.0438H63.9999C63.9999 19.778 63.9999 14.7615 63.9999 8.34802H32.3787Z" fill="#D80027"/>
<path d="M91.8261 64.0002L74.5278 81.2985C77.7698 87.5512 84.2968 91.8262 91.8261 91.8262C99.3553 91.8262 105.882 87.5512 109.124 81.2985L91.8261 64.0002Z" fill="#FFDA44"/>
<path d="M64.0004 56.13L41.2616 33.3917H33.3916V33.3922L63.9999 64.0002H64.0004C64.0004 64.0002 64.0004 58.5735 64.0004 56.13Z" fill="#D80027"/>
<path d="M72.3477 33.3915V64V64.0002C72.3479 78.91 91.8259 83.4785 91.8259 83.4785C91.8259 83.4785 111.304 78.91 111.304 64.0002V64V33.3915H72.3477Z" fill="#6DA544"/>
<path d="M87.6523 47.3045H96.0001V69.5653H87.6523V47.3045Z" fill="#F0F0F0"/>
<path d="M91.8263 51.4785C94.1316 51.4785 96.0003 49.6097 96.0003 47.3045C96.0003 44.9993 94.1316 43.1305 91.8263 43.1305C89.5211 43.1305 87.6523 44.9993 87.6523 47.3045C87.6523 49.6097 89.5211 51.4785 91.8263 51.4785Z" fill="#A2001D"/>
<path d="M77.9131 38.9567H83.4783V44.522H77.9131V38.9567Z" fill="#FFDA44"/>
<path d="M77.9131 51.4785H83.4783V57.0437H77.9131V51.4785Z" fill="#FFDA44"/>
<path d="M77.9131 64.0002H83.4783V69.5655H77.9131V64.0002Z" fill="#FFDA44"/>
<path d="M100.174 38.9567H105.739V44.522H100.174V38.9567Z" fill="#FFDA44"/>
<path d="M100.174 51.4785H105.739V57.0437H100.174V51.4785Z" fill="#FFDA44"/>
<path d="M100.174 64.0002H105.739V69.5655H100.174V64.0002Z" fill="#FFDA44"/>
</g>
<defs>
<clipPath id="clip0_97_10730">
<rect width="128" height="128" fill="white"/>
</clipPath>
</defs>
</svg>
