<svg width="128" height="128" viewBox="0 0 128 128" fill="none" xmlns="http://www.w3.org/2000/svg">
<g clip-path="url(#clip0_97_10672)">
<path d="M0 64.0002C0 28.6542 28.654 0.000244141 64 0.000244141C99.346 0.000244141 128 28.6542 128 64.0002H0Z" fill="#F0F0F0"/>
<path d="M47.3044 60.5015L43.8057 64.0002H47.3044V60.5015Z" fill="#0052B4"/>
<path d="M80.6958 60.5017V64.0002H84.1943L80.6958 60.5017Z" fill="#0052B4"/>
<path d="M1.8465 48.6962C0.64275 53.6002 0 58.725 0 64.0002H20.1943L35.4982 48.6962H1.8465Z" fill="#0052B4"/>
<path d="M92.501 48.6962L107.805 64.0002H128C128 58.725 127.357 53.6002 126.153 48.6962H92.501Z" fill="#0052B4"/>
<path d="M88.5656 48.6962H80.6953L95.9993 64.0002H103.87L88.5656 48.6962Z" fill="#D80027"/>
<path d="M47.3035 56.5661V48.6964H47.303L31.999 64.0004H39.8695L47.3035 56.5661Z" fill="#D80027"/>
<path d="M29.9806 9.78577C27.3426 11.4448 24.8344 13.2903 22.4741 15.3045H35.4991L29.9806 9.78577Z" fill="#0052B4"/>
<path d="M105.526 15.3046C103.166 13.2901 100.658 11.4446 98.0204 9.78589L92.502 15.3046H105.526Z" fill="#0052B4"/>
<path d="M72.3476 40.3482H123.485C121.066 34.2685 117.74 28.649 113.677 23.6525H72.3479H72.3476V0.542238C69.6152 0.186488 66.8291 0.000488281 63.9999 0.000488281C61.1701 0.000488281 58.3846 0.186488 55.6521 0.542238V23.6522V23.6525H14.3229C10.2596 28.649 6.93415 34.2685 4.51465 40.3482H55.6516H55.6519V64.0005H72.3476V40.3485V40.3482Z" fill="#D80027"/>
<path d="M47.3041 15.3046V15.3044L37.6559 5.65613C35.8721 6.46288 34.1336 7.35163 32.4419 8.31238L39.4341 15.3046H47.3041Z" fill="#D80027"/>
<path d="M80.6953 15.3046L90.3438 5.65635C88.5086 4.8266 86.6268 4.0826 84.7043 3.42535L80.6953 7.4346V15.3046Z" fill="#D80027"/>
<path d="M128 64.0002C128 99.3462 99.346 128 64 128C28.654 128 0 99.3462 0 64.0002H128Z" fill="#F0F0F0"/>
<path d="M117.333 72.1628C112 72.1628 112 67.2863 106.666 67.2863C101.333 67.2863 101.333 72.1628 96.0002 72.1628C90.6672 72.1628 90.667 67.2863 85.334 67.2863C80.0007 67.2863 80.0007 72.1628 74.6672 72.1628C69.3337 72.1628 69.3335 67.2863 63.9997 67.2863C58.6665 67.2863 58.6665 72.1628 53.3335 72.1628C48.001 72.1628 48.001 67.2863 42.6677 67.2863C37.334 67.2863 37.334 72.1628 32.0002 72.1628C26.6665 72.1628 26.6665 67.2863 21.3327 67.2863C16.0002 67.2863 16.0002 72.1628 10.667 72.1628C5.36248 72.1628 5.33173 67.34 0.0839844 67.2885C0.231734 70.216 0.581234 73.09 1.10973 75.9005C5.36073 76.5253 5.73298 80.696 10.6672 80.696C16.0005 80.696 16.0005 75.82 21.333 75.82C26.6667 75.82 26.6667 80.696 32.0005 80.696C37.3342 80.696 37.3342 75.82 42.668 75.82C48.0012 75.82 48.0012 80.696 53.3337 80.696C58.667 80.696 58.667 75.82 64 75.82C69.3337 75.82 69.3337 80.696 74.6675 80.696C80.0012 80.696 80.0012 75.82 85.3342 75.82C90.6675 75.82 90.6675 80.696 96.0005 80.696C101.333 80.696 101.334 75.82 106.667 75.82C112 75.82 112 80.696 117.333 80.696C122.268 80.696 122.64 76.5255 126.892 75.9007C127.42 73.09 127.769 70.2162 127.918 67.2887C122.669 67.3405 122.638 72.1628 117.333 72.1628Z" fill="#0052B4"/>
<path d="M106.667 83.9821C101.333 83.9821 101.333 88.8586 96.0005 88.8586C90.6675 88.8586 90.6672 83.9821 85.3342 83.9821C80.001 83.9821 80.001 88.8586 74.6675 88.8586C69.3337 88.8586 69.3337 83.9821 64 83.9821C58.6667 83.9821 58.6667 88.8586 53.3337 88.8586C48.0012 88.8586 48.0012 83.9821 42.668 83.9821C37.3342 83.9821 37.3342 88.8586 32.0005 88.8586C26.6667 88.8586 26.6667 83.9821 21.333 83.9821C16.0005 83.9821 16.0005 88.8586 10.6672 88.8586C6.85647 88.8586 5.76797 86.3696 3.51172 84.9476C5.01372 89.2874 6.96772 93.4156 9.32097 97.2746C9.73022 97.3501 10.1757 97.3919 10.6672 97.3919C16.0005 97.3919 16.0005 92.5159 21.333 92.5159C26.6667 92.5159 26.6667 97.3919 32.0005 97.3919C37.3342 97.3919 37.3342 92.5159 42.668 92.5159C48.0012 92.5159 48.0012 97.3919 53.3337 97.3919C58.667 97.3919 58.667 92.5159 64 92.5159C69.3337 92.5159 69.3337 97.3919 74.6675 97.3919C80.0012 97.3919 80.0012 92.5159 85.3342 92.5159C90.6675 92.5159 90.6675 97.3919 96.0005 97.3919C101.333 97.3919 101.334 92.5159 106.667 92.5159C112 92.5159 112 97.3919 117.333 97.3919C117.825 97.3919 118.271 97.3501 118.68 97.2744C121.033 93.4156 122.987 89.2874 124.49 84.9479C122.233 86.3691 121.145 88.8586 117.333 88.8586C112 88.8586 112 83.9821 106.667 83.9821Z" fill="#0052B4"/>
<path d="M127.966 61.9894C127.971 62.1671 127.978 62.3449 127.982 62.5234C127.978 62.3451 127.971 62.1671 127.966 61.9894Z" fill="#F0F0F0"/>
<path d="M0.0185547 62.5231C0.0228047 62.3449 0.0288047 62.1671 0.0343047 61.9891C0.0290547 62.1671 0.0225547 62.3451 0.0185547 62.5231Z" fill="#F0F0F0"/>
<path d="M0 64.0001C0 63.5064 0.0075 63.0146 0.01875 62.5231C0.00725 63.0146 0 63.5064 0 64.0001Z" fill="#F0F0F0"/>
<path d="M0 64.0001C0 65.1659 0.033 66.3241 0.09525 67.4744C5.331 67.5331 5.36575 72.3479 10.6665 72.3479C15.9998 72.3479 15.9998 67.4719 21.3323 67.4719C26.666 67.4719 26.666 72.3479 31.9998 72.3479C37.3335 72.3479 37.3335 67.4719 42.6673 67.4719C48.0005 67.4719 48.0005 72.3479 53.333 72.3479C58.6663 72.3479 58.6662 67.4719 63.9992 67.4719C69.333 67.4719 69.333 72.3479 74.6667 72.3479C80.0005 72.3479 80.0005 67.4719 85.3335 67.4719C90.6668 67.4719 90.6667 72.3479 95.9997 72.3479C101.333 72.3479 101.333 67.4719 106.666 67.4719C112 67.4719 112 72.3479 117.333 72.3479C122.634 72.3479 122.669 67.5331 127.906 67.4744C127.967 66.3239 128 65.1659 128 64.0001H0Z" fill="#F0F0F0"/>
<path d="M127.981 62.5231C127.993 63.0141 128 63.5061 128 64.0001C128 63.5064 127.993 63.0146 127.981 62.5231Z" fill="#F0F0F0"/>
<path d="M106.665 100.677C101.332 100.677 101.332 105.554 95.9992 105.554C90.6662 105.554 90.6659 100.677 85.3329 100.677C79.9997 100.677 79.9997 105.554 74.6662 105.554C69.3324 105.554 69.3324 100.677 63.9987 100.677C58.6654 100.677 58.6654 105.554 53.3324 105.554C47.9999 105.554 47.9999 100.677 42.6667 100.677C37.3329 100.677 37.3329 105.554 31.9992 105.554C26.6654 105.554 26.6654 100.677 21.3317 100.677C17.6482 100.677 16.5084 103.003 14.3984 104.443C19.9957 111.299 26.9882 116.97 34.9394 121.031L63.9997 119.567L93.0597 121.03C101.011 116.97 108.003 111.299 113.6 104.443C111.489 103.004 110.35 100.677 106.665 100.677Z" fill="#0052B4"/>
<path d="M99.4959 102.204L80.0271 105.927L77.5606 86.2612L64.0001 100.725L50.4401 86.261L47.9726 105.927L28.5049 102.203L38.0521 119.566L34.9341 121.033C43.6561 125.487 53.5344 128 64.0001 128C74.4659 128 84.3441 125.487 93.0661 121.033L89.9494 119.567L99.4959 102.204Z" fill="#FFDA44"/>
</g>
<defs>
<clipPath id="clip0_97_10672">
<rect width="128" height="128" fill="white"/>
</clipPath>
</defs>
</svg>
