<svg width="128" height="128" viewBox="0 0 128 128" fill="none" xmlns="http://www.w3.org/2000/svg">
<g clip-path="url(#clip0_97_10752)">
<path d="M64.0004 127.991C99.3414 127.991 127.991 99.3417 127.991 64.0006C127.991 28.6596 99.3414 0.01001 64.0004 0.01001C28.6593 0.01001 0.00976583 28.6596 0.00976583 64.0006C0.00976583 99.3417 28.6593 127.991 64.0004 127.991Z" fill="#F0F0F0"/>
<path d="M8.5827 32.005C5.69439 37.0071 3.56385 42.2367 2.14507 47.5635L109.162 109.35C113.066 105.458 116.53 100.997 119.417 95.9956L8.5827 32.005Z" fill="black"/>
<path d="M95.9952 8.58279C70.3907 -6.19978 38.82 -1.27292 18.8378 18.6505L125.855 80.4366C133.118 53.1705 121.599 23.3656 95.9952 8.58279Z" fill="#FFDA44"/>
<path d="M32.0045 119.418C57.6086 134.201 89.18 129.274 109.162 109.35L2.14465 47.5636C-5.11825 74.8305 6.39999 104.635 32.0045 119.418Z" fill="#FFDA44"/>
<path d="M82.0842 57.0446C82.0842 67.032 73.9875 75.129 63.9998 75.129C54.0121 75.129 45.9154 67.0323 45.9154 57.0446C45.9154 53.9305 46.7027 51.0002 48.0892 48.4419C44.1649 52.4552 41.7421 57.9434 41.7421 64C41.7421 76.2925 51.7071 86.2577 63.9998 86.2577C76.2926 86.2577 86.2576 76.2927 86.2576 64C86.2576 57.9434 83.835 52.4552 79.9104 48.4419C81.297 51.0007 82.0842 53.9305 82.0842 57.0446Z" fill="#D80027"/>
<path d="M59.8275 36.1784H68.1741V77.9115H59.8275V36.1784Z" fill="#D80027"/>
<path d="M77.9108 44.5248H50.089C50.089 46.4456 51.7623 48.0026 53.6828 48.0026H53.5668C53.5668 49.9234 55.1241 51.4805 57.0446 51.4805C57.0446 53.4013 58.6019 54.9583 60.5224 54.9583H67.4778C69.3986 54.9583 70.9557 53.4013 70.9557 51.4805C72.8765 51.4805 74.4335 49.9234 74.4335 48.0026H74.3177C76.2378 48.0024 77.9108 46.4459 77.9108 44.5248Z" fill="#D80027"/>
<path d="M44.5254 80.6936H83.4762V89.0402H44.5254V80.6936Z" fill="#D80027"/>
<path d="M72.3473 83.4759H89.0404V91.8226H72.3473V83.4759Z" fill="#D80027"/>
<path d="M38.9608 83.4759H55.6539V91.8226H38.9608V83.4759Z" fill="#D80027"/>
</g>
<defs>
<clipPath id="clip0_97_10752">
<rect width="127.997" height="127.997" fill="white"/>
</clipPath>
</defs>
</svg>
