<svg width="128" height="128" viewBox="0 0 128 128" fill="none" xmlns="http://www.w3.org/2000/svg">
<g clip-path="url(#clip0_97_10765)">
<path d="M128 64.0002C128 56.1717 126.592 48.6725 124.02 41.7395L64.0005 38.9567L3.98124 41.7392C1.40874 48.6725 0.000488281 56.1717 0.000488281 64.0002C0.000488281 71.8287 1.40874 79.328 3.98124 86.261L64.0005 89.0437L124.02 86.2612C126.592 79.328 128 71.8287 128 64.0002Z" fill="#496E2D"/>
<path d="M64.0007 128C91.5184 128 114.977 110.632 124.02 86.261H3.98145C13.0242 110.632 36.4829 128 64.0007 128Z" fill="#D80027"/>
<path d="M3.98145 41.7395H124.02C114.977 17.3682 91.5184 0.000244141 64.0007 0.000244141C36.4829 0.000244141 13.0242 17.3682 3.98145 41.7395Z" fill="#F0F0F0"/>
</g>
<defs>
<clipPath id="clip0_97_10765">
<rect width="128" height="128" fill="white"/>
</clipPath>
</defs>
</svg>
