<svg width="128" height="128" viewBox="0 0 128 128" fill="none" xmlns="http://www.w3.org/2000/svg">
<g clip-path="url(#clip0_97_10769)">
<path d="M0 63.9998C0 28.6538 28.654 -0.000244141 64 -0.000244141C99.346 -0.000244141 128 28.6538 128 63.9998C125.217 63.9998 64 72.3475 64 72.3475L0 63.9998Z" fill="#D80027"/>
<path d="M128 63.9998C128 99.3458 99.346 128 64 128C28.654 128 0 99.3458 0 63.9998" fill="#6DA544"/>
<path d="M63.9998 41.739L68.834 56.6185H84.4808L71.8228 65.815L76.6573 80.6955L63.9998 71.4993L51.342 80.6955L56.1773 65.815L43.519 56.6185H59.165L63.9998 41.739Z" fill="#FFDA44"/>
</g>
<defs>
<clipPath id="clip0_97_10769">
<rect width="128" height="128" fill="white"/>
</clipPath>
</defs>
</svg>
