<svg width="128" height="128" viewBox="0 0 128 128" fill="none" xmlns="http://www.w3.org/2000/svg">
<g clip-path="url(#clip0_97_10773)">
<path d="M64 128C99.3462 128 128 99.3465 128 64.0002C128 28.654 99.3462 0.000244141 64 0.000244141C28.6538 0.000244141 0 28.654 0 64.0002C0 99.3465 28.6538 128 64 128Z" fill="#F0F0F0"/>
<path d="M102.968 13.2257C80.0553 -4.40577 47.9433 -4.40577 25.0303 13.2255L63.9993 52.1945L102.968 13.2257Z" fill="#D80027"/>
<path d="M63.9988 75.8064L25.0303 114.775C47.9433 132.406 80.0553 132.406 102.968 114.775L63.9993 75.8058L63.9988 75.8064Z" fill="#D80027"/>
<path d="M52.1943 64L13.2256 25.031C-4.40592 47.944 -4.40592 80.056 13.2256 102.969L52.1943 64Z" fill="#6DA544"/>
<path d="M75.8062 64.0001L114.775 102.969C132.406 80.0561 132.406 47.9441 114.775 25.0311L75.8062 64.0001Z" fill="#6DA544"/>
<path d="M63.9998 91.8263C79.3677 91.8263 91.8258 79.3681 91.8258 64.0003C91.8258 48.6324 79.3677 36.1743 63.9998 36.1743C48.632 36.1743 36.1738 48.6324 36.1738 64.0003C36.1738 79.3681 48.632 91.8263 63.9998 91.8263Z" fill="#F0F0F0"/>
<path d="M64.0007 44.5219L66.4105 48.6959H71.2302L68.8202 52.8696L71.2302 57.0436H66.4105L64.0007 61.2176L61.591 57.0436H56.7715L59.1812 52.8696L56.7715 48.6959H61.591L64.0007 44.5219Z" fill="#D80027"/>
<path d="M51.752 64.0001L54.1617 68.1741H58.9812L56.5715 72.3479L58.9812 76.5219H54.1617L51.752 80.6959L49.342 76.5219H44.5225L46.9322 72.3479L44.5225 68.1741H49.342L51.752 64.0001Z" fill="#D80027"/>
<path d="M76.25 64.0001L78.6598 68.1741H83.4793L81.0695 72.3479L83.4793 76.5219H78.6598L76.25 80.6959L73.84 76.5219H69.0205L71.4303 72.3479L69.0205 68.1741H73.84L76.25 64.0001Z" fill="#D80027"/>
</g>
<defs>
<clipPath id="clip0_97_10773">
<rect width="128" height="128" fill="white"/>
</clipPath>
</defs>
</svg>
