<svg width="128" height="128" viewBox="0 0 128 128" fill="none" xmlns="http://www.w3.org/2000/svg">
<g clip-path="url(#clip0_97_10786)">
<path d="M0 64.0002C0 75.0877 2.82075 85.5162 7.78175 94.609L64 100.174L120.218 94.609C125.179 85.5162 128 75.0877 128 64.0002C128 52.9127 125.179 42.4842 120.218 33.3915L64 27.8262L7.78175 33.3915C2.82075 42.4842 0 52.9127 0 64.0002H0Z" fill="#D80027"/>
<path d="M7.78174 33.3917H120.218C109.363 13.4977 88.2587 0.000488281 64 0.000488281C39.7412 0.000488281 18.6365 13.4977 7.78174 33.3917Z" fill="#0052B4"/>
<path d="M64 128C88.2587 128 109.363 114.503 120.218 94.6091H7.78174C18.6365 114.503 39.7412 128 64 128Z" fill="#0052B4"/>
<path d="M86.2606 76.522V68.1743H80.6956V57.0438L75.1303 51.4785L69.5651 57.0438V45.9133L63.9998 40.348L58.4346 45.9133V57.0438L52.8693 51.4785L47.3041 57.0438V68.1743H41.7391V76.522H36.1738V84.8698H91.8258V76.522H86.2606Z" fill="#F0F0F0"/>
</g>
<defs>
<clipPath id="clip0_97_10786">
<rect width="128" height="128" fill="white"/>
</clipPath>
</defs>
</svg>
