<svg width="128" height="128" viewBox="0 0 128 128" fill="none" xmlns="http://www.w3.org/2000/svg">
<g clip-path="url(#clip0_97_10792)">
<path d="M91.8256 6.35074C83.4116 2.28224 73.9721 0.000244141 63.9996 0.000244141C54.0271 0.000244141 44.5876 2.28224 36.1736 6.35074L30.6084 64.0002L36.1736 121.65C44.5876 125.718 54.0271 128 63.9996 128C73.9721 128 83.4116 125.718 91.8256 121.65L97.3909 64.0002L91.8256 6.35074Z" fill="#D80027"/>
<path d="M63.9998 41.7395L69.5247 58.7443H87.4068L72.9408 69.2552L78.466 86.261L63.9998 75.7508L49.5335 86.261L55.0598 69.2552L40.5938 58.7443H58.4745L63.9998 41.7395Z" fill="#FFDA44"/>
<path d="M36.174 6.35297C14.7665 16.7045 0 38.6267 0 64.0002C0 89.3737 14.7665 111.296 36.174 121.647V6.35297Z" fill="#496E2D"/>
<path d="M91.8262 6.35297V121.647C113.234 111.296 128 89.3735 128 64.0002C128 38.627 113.234 16.7045 91.8262 6.35297Z" fill="#FFDA44"/>
</g>
<defs>
<clipPath id="clip0_97_10792">
<rect width="128" height="128" fill="white"/>
</clipPath>
</defs>
</svg>
