<svg width="128" height="128" viewBox="0 0 128 128" fill="none" xmlns="http://www.w3.org/2000/svg">
<g clip-path="url(#clip0_97_10803)">
<path d="M64 0.000244141C56.1715 0.000244141 48.6723 1.40849 41.7393 3.98099L38.9565 64.0002L41.739 124.019C48.6723 126.592 56.1715 128 64 128C71.8285 128 79.3278 126.592 86.2608 124.019L89.0435 64.0002L86.261 3.98099C79.3278 1.40849 71.8285 0.000244141 64 0.000244141V0.000244141Z" fill="#338AF3"/>
<path d="M128 64.0003C128 36.4825 110.632 13.0238 86.2607 3.98102V124.02C110.632 114.977 128 91.518 128 64.0003Z" fill="#FFDA44"/>
<path d="M41.7393 124.02V3.98102C17.368 13.0238 0 36.4825 0 64.0003C0 91.518 17.368 114.977 41.7393 124.02Z" fill="#F0F0F0"/>
</g>
<defs>
<clipPath id="clip0_97_10803">
<rect width="128" height="128" fill="white"/>
</clipPath>
</defs>
</svg>
