<svg width="128" height="128" viewBox="0 0 128 128" fill="none" xmlns="http://www.w3.org/2000/svg">
<g clip-path="url(#clip0_97_10797)">
<path d="M64 128C99.3462 128 128 99.3465 128 64.0002C128 28.654 99.3462 0.000244141 64 0.000244141C28.6538 0.000244141 0 28.654 0 64.0002C0 99.3465 28.6538 128 64 128Z" fill="#F0F0F0"/>
<path d="M128 64.0003C128 38.6268 113.234 16.7028 91.8262 6.35077V121.65C113.234 111.298 128 89.3738 128 64.0003Z" fill="#D80027"/>
<path d="M0 64.0003C0 89.3738 14.7663 111.298 36.174 121.65V6.35077C14.7663 16.7028 0 38.6268 0 64.0003Z" fill="#D80027"/>
<path d="M75.1305 72.348L86.2608 66.7828L80.6958 64.0003V58.435L69.5653 64.0003L75.1305 52.8698H69.5653L64 44.522L58.4348 52.8698H52.8695L58.4348 64.0003L47.3043 58.435V64.0003L41.7393 66.7828L52.8695 72.348L50.087 77.9133H61.2175V86.261H66.7825V77.9133H77.913L75.1305 72.348Z" fill="#D80027"/>
</g>
<defs>
<clipPath id="clip0_97_10797">
<rect width="128" height="128" fill="white"/>
</clipPath>
</defs>
</svg>
