<svg width="128" height="128" viewBox="0 0 128 128" fill="none" xmlns="http://www.w3.org/2000/svg">
<g clip-path="url(#clip0_97_10807)">
<path d="M64 128C99.3462 128 128 99.3465 128 64.0002C128 28.654 99.3462 0.000244141 64 0.000244141C28.6538 0.000244141 0 28.654 0 64.0002C0 99.3465 28.6538 128 64 128Z" fill="#F0F0F0"/>
<path d="M64.0001 128C83.3979 128 100.779 119.369 112.515 105.74H15.4849C27.2216 119.369 44.6024 128 64.0001 128Z" fill="#0052B4"/>
<path d="M128 64.0005C128 28.6545 99.346 0.000488281 64 0.000488281C28.654 0.000488281 0 28.6545 0 64.0005C0 69.7772 0.77 75.3727 2.20475 80.6962H125.796C127.23 75.3727 128 69.7772 128 64.0005Z" fill="#0052B4"/>
<path d="M5.08691 89.0438C6.32066 91.9428 7.76291 94.7308 9.39366 97.3915H118.607C120.237 94.7305 121.679 91.9425 122.913 89.0438H5.08691Z" fill="#D80027"/>
<path d="M45.7479 68.1743L46.7839 71.3628H50.1366L47.4244 73.3335L48.4604 76.522L45.7479 74.5513L43.0354 76.522L44.0716 73.3335L41.3594 71.3628H44.7121L45.7479 68.1743Z" fill="#FFDA44"/>
<path d="M45.7479 109.913L46.7839 113.102H50.1366L47.4244 115.072L48.4604 118.261L45.7479 116.29L43.0354 118.261L44.0716 115.072L41.3594 113.102H44.7121L45.7479 109.913Z" fill="#FFDA44"/>
<path d="M26.3192 95.7975L27.3552 98.9857H30.7079L27.9957 100.956L29.0317 104.145L26.3192 102.174L23.6067 104.145L24.6432 100.956L21.9307 98.9857H25.2832L26.3192 95.7975Z" fill="#FFDA44"/>
<path d="M33.7403 72.348L34.7763 75.5368H38.1288L35.4168 77.5073L36.4528 80.696L33.7403 78.7253L31.0278 80.696L32.0643 77.5073L29.3516 75.5368H32.7043L33.7403 72.348Z" fill="#FFDA44"/>
<path d="M21.9307 85.479L25.2827 85.4792L26.3189 82.29L27.3552 85.479L30.7079 85.4787L27.9954 87.4495L29.0317 90.6382L26.3189 88.6675L23.6067 90.6375L24.6427 87.4492L21.9307 85.479Z" fill="#FFDA44"/>
<path d="M31.0283 113.478L32.0643 110.29L29.3516 108.319H32.7043L33.7406 105.131L34.7768 108.319H38.1293L35.4168 110.29L36.4528 113.479L33.7403 111.508L31.0283 113.478Z" fill="#FFDA44"/>
<path d="M65.1698 95.7975L64.134 98.9857H60.7812L63.4932 100.956L62.4572 104.145L65.1698 102.174L67.8823 104.145L66.846 100.956L69.5585 98.9857H66.2058L65.1698 95.7975Z" fill="#FFDA44"/>
<path d="M57.7489 72.348L56.7131 75.5368H53.3604L56.0723 77.5073L55.0364 80.696L57.7489 78.7253L60.4613 80.696L59.4251 77.5073L62.1376 75.5368H58.7849L57.7489 72.348Z" fill="#FFDA44"/>
<path d="M69.5585 85.479L66.2062 85.4792L65.17 82.29L64.134 85.479L60.7812 85.4787L63.4935 87.4495L62.4572 90.6382L65.17 88.6675L67.8823 90.6375L66.8462 87.4492L69.5585 85.479Z" fill="#FFDA44"/>
<path d="M60.4609 113.478L59.4251 110.29L62.1376 108.319H58.7849L57.7486 105.131L56.7126 108.319H53.3599L56.0724 110.29L55.0364 113.479L57.7489 111.508L60.4609 113.478Z" fill="#FFDA44"/>
</g>
<defs>
<clipPath id="clip0_97_10807">
<rect width="128" height="128" fill="white"/>
</clipPath>
</defs>
</svg>
