<svg width="128" height="128" viewBox="0 0 128 128" fill="none" xmlns="http://www.w3.org/2000/svg">
<g clip-path="url(#clip0_97_10824)">
<path d="M128 64.0002C128 99.3462 99.346 128 64 128C28.654 128 0 99.3462 0 64.0002C0 64.0155 64 0.00724414 64 0.000244141C99.346 0.000244141 128 28.6542 128 64.0002Z" fill="#0052B4"/>
<path d="M63.8291 64.0004H64.0004C64.0004 63.9429 64.0004 63.8869 64.0004 63.8291C63.9434 63.8864 63.8864 63.9434 63.8291 64.0004Z" fill="#F0F0F0"/>
<path d="M64 33.3917C64 22.1305 64 14.7517 64 0.000488281H63.9893C28.6478 0.00648828 0 28.6577 0 64.0005H33.3913V45.1977L52.194 64.0005H63.829C63.886 63.9435 63.943 63.8865 64.0003 63.8292C64.0003 59.5175 64.0003 55.6702 64.0003 52.195L45.197 33.3917H64Z" fill="#F0F0F0"/>
<path d="M91.8258 47.3048C97.973 47.3048 102.956 42.3215 102.956 36.1743C102.956 30.0271 97.973 25.0438 91.8258 25.0438C85.6786 25.0438 80.6953 30.0271 80.6953 36.1743C80.6953 42.3215 85.6786 47.3048 91.8258 47.3048Z" fill="#6DA544"/>
<path d="M32.3787 8.34802C22.3689 14.0478 14.0472 22.3693 8.34766 32.379V64.0003H25.0434V25.0443V25.0438H63.9999C63.9999 19.778 63.9999 14.7615 63.9999 8.34802H32.3787Z" fill="#D80027"/>
<path d="M63.9999 56.1299L41.2611 33.3917H33.3911V33.3922L63.9994 64.0002H63.9999C63.9999 64.0002 63.9999 58.5734 63.9999 56.1299Z" fill="#D80027"/>
<path d="M72.3477 33.3914H111.304V50.0872H72.3477V33.3914Z" fill="#D80027"/>
<path d="M72.3477 75.1307V86.2612H78.2037C81.7149 89.7022 86.5212 91.8265 91.8259 91.8265C97.1307 91.8265 101.937 89.7022 105.448 86.2612H105.739H111.304V75.1307H72.3477Z" fill="#FFDA44"/>
<path d="M72.3477 47.3045V64.0003C72.3477 78.91 91.8259 83.4785 91.8259 83.4785C91.8259 83.4785 111.304 78.91 111.304 64.0003V47.3045H72.3477Z" fill="#338AF3"/>
<path d="M91.8256 56.2226C86.9564 56.2226 86.9564 60.6748 82.0871 60.6748C77.2179 60.6748 77.2179 56.2226 72.3486 56.2226V64.0138C77.2179 64.0138 77.2179 68.4661 82.0871 68.4661C86.9564 68.4661 86.9564 64.0138 91.8256 64.0138C96.6954 64.0138 96.6954 68.4661 101.565 68.4661C106.435 68.4661 106.435 64.0138 111.305 64.0138V56.2226C106.435 56.2226 106.435 60.6748 101.565 60.6748C96.6954 60.6748 96.6954 56.2226 91.8256 56.2226Z" fill="#F3F3F3"/>
<path d="M91.8256 40.6265C86.9564 40.6265 86.9564 45.0787 82.0871 45.0787C77.2179 45.0787 77.2179 40.6265 72.3486 40.6265V48.4177C77.2179 48.4177 77.2179 52.87 82.0871 52.87C86.9564 52.87 86.9564 48.4177 91.8256 48.4177C96.6954 48.4177 96.6954 52.87 101.565 52.87C106.435 52.87 106.435 48.4177 111.305 48.4177V40.6265C106.435 40.6265 106.435 45.0787 101.565 45.0787C96.6954 45.0787 96.6954 40.6265 91.8256 40.6265Z" fill="#F3F3F3"/>
</g>
<defs>
<clipPath id="clip0_97_10824">
<rect width="128" height="128" fill="white"/>
</clipPath>
</defs>
</svg>
