<svg width="128" height="128" viewBox="0 0 128 128" fill="none" xmlns="http://www.w3.org/2000/svg">
<g clip-path="url(#clip0_97_10843)">
<path d="M64 128C99.3462 128 128 99.346 128 63.9998C128 28.6535 99.3462 -0.000244141 64 -0.000244141C28.6538 -0.000244141 0 28.6535 0 63.9998C0 99.346 28.6538 128 64 128Z" fill="#F0F0F0"/>
<path d="M120.219 33.391C111.949 18.2337 97.7283 6.79149 80.6966 2.20099L77.9141 33.391H120.219Z" fill="#0052B4"/>
<path d="M7.78223 33.3911H50.0872L47.3047 2.20105C30.273 6.79155 16.0525 18.2341 7.78223 33.3911Z" fill="#0052B4"/>
<path d="M77.9131 63.9996V94.6084H120.218C125.179 85.5156 128 75.0871 128 63.9996H77.9131Z" fill="#6DA544"/>
<path d="M50.087 63.9995H0C0 75.087 2.82075 85.5155 7.78175 94.6083H50.0868V63.9995H50.087Z" fill="#6DA544"/>
<path d="M7.78223 94.6086C16.0525 109.766 30.273 121.208 47.3047 125.799L50.0872 98.5214L7.78223 94.6086Z" fill="#FFDA44"/>
<path d="M80.6966 125.799C97.7283 121.208 111.949 109.766 120.219 94.6086L77.9141 98.5209L80.6966 125.799Z" fill="#FFDA44"/>
<path d="M77.9136 98.5209L120.219 94.6086H77.9136V98.5209Z" fill="#FFDA44"/>
<path d="M50.0875 94.6086H7.78223L50.0875 98.5209V94.6086Z" fill="#FFDA44"/>
<path d="M64 -0.000244141C58.2232 -0.000244141 52.6277 0.769756 47.3042 2.20451V125.795C52.6277 127.23 58.2232 128 64 128C69.7767 128 75.3722 127.23 80.6957 125.795V2.20451C75.3722 0.769756 69.7767 -0.000244141 64 -0.000244141V-0.000244141Z" fill="#D80027"/>
<path d="M34.4244 13.9128L36.1509 19.227H41.7391L37.2186 22.5115L38.9454 27.8258L34.4244 24.5415L29.9036 27.8258L31.6309 22.5115L27.1104 19.227H32.6981L34.4244 13.9128Z" fill="#FFDA44"/>
</g>
<defs>
<clipPath id="clip0_97_10843">
<rect width="128" height="128" fill="white"/>
</clipPath>
</defs>
</svg>
