<svg width="128" height="128" viewBox="0 0 128 128" fill="none" xmlns="http://www.w3.org/2000/svg">
<g clip-path="url(#clip0_97_10858)">
<path d="M64 128C99.3462 128 128 99.3465 128 64.0002C128 28.654 99.3462 0.000244141 64 0.000244141C28.6538 0.000244141 0 28.654 0 64.0002C0 99.3465 28.6538 128 64 128Z" fill="#F0F0F0"/>
<path d="M64.0001 0.000244141C46.3269 0.000244141 30.3269 7.16374 18.7451 18.7452L64.0001 64.0002V0.000244141Z" fill="black"/>
<path d="M0 64.0002C0 81.6735 7.1635 97.6735 18.745 109.255L64 64.0002H0Z" fill="black"/>
<path d="M64 128C81.6733 128 97.6732 120.837 109.255 109.255L64 64.0002V128Z" fill="black"/>
<path d="M128 64.0002C128 46.327 120.836 30.327 109.255 18.7452L64 64.0002H128Z" fill="black"/>
<path d="M41.7393 44.522L64 47.3052L86.2608 44.522V31.1655L77.3565 35.6177L64 22.261L50.6435 35.6177L41.7393 31.1655V44.522Z" fill="#FFDA44"/>
<path d="M64 97.3915C51.7253 97.3915 41.7393 87.4053 41.7393 75.1308V52.871L50.087 44.5225H77.913L86.2608 52.871V75.1308C86.2608 87.4053 76.2748 97.3915 64 97.3915Z" fill="#D80027"/>
<path d="M63.9999 89.0437C56.3282 89.0437 50.0869 82.8022 50.0869 75.1307V52.8702H77.9129V75.1305C77.9129 82.8022 71.6717 89.0437 63.9999 89.0437Z" fill="#F0F0F0"/>
<path d="M41.7393 44.5217H50.087V52.8695H41.7393V44.5217Z" fill="#FFDA44"/>
<path d="M77.9131 44.5219H86.2608V52.8696H77.9131V44.5219Z" fill="#FFDA44"/>
<path d="M77.9131 62.6088H86.2608V70.9566H77.9131V62.6088Z" fill="#FFDA44"/>
<path d="M41.7393 62.6088H50.087V70.9566H41.7393V62.6088Z" fill="#FFDA44"/>
<path d="M64.0002 89.0436C62.5462 89.0436 61.1444 88.8186 59.8262 88.4031V96.9933C61.1792 97.2513 62.5732 97.3916 64.0002 97.3916C65.4272 97.3916 66.8212 97.2513 68.1742 96.9933V88.4031C66.8559 88.8183 65.4542 89.0436 64.0002 89.0436Z" fill="#FFDA44"/>
<path d="M50.2733 77.3891L43.6113 84.0511C44.7663 86.6809 46.4143 89.0456 48.4398 91.0281L54.3398 85.1281C52.2343 83.0938 50.7676 80.4038 50.2733 77.3891Z" fill="#FFDA44"/>
<path d="M84.3889 84.0516L77.7269 77.3896C77.2324 80.4041 75.7659 83.0938 73.6606 85.1288L79.5606 91.0288C81.5856 89.0461 83.2339 86.6813 84.3889 84.0516Z" fill="#FFDA44"/>
<path d="M61.2178 57.5078V62.1453C61.2178 63.6818 62.4635 64.9277 64.0003 64.9277C65.537 64.9277 66.7828 63.6818 66.7828 62.1453V57.5078H61.2178Z" fill="#0052B4"/>
<path d="M61.2178 76.0585V80.696C61.2178 82.2325 62.4635 83.4785 64.0003 83.4785C65.537 83.4785 66.7828 82.2325 66.7828 80.696V76.0585H61.2178Z" fill="#0052B4"/>
<path d="M69.5654 66.7828V71.4208C69.5654 72.9573 70.8112 74.2033 72.3479 74.2033C73.8847 74.2033 75.1304 72.9573 75.1304 71.4208V66.7828H69.5654Z" fill="#0052B4"/>
<path d="M61.2178 66.7828V71.4208C61.2178 72.9573 62.4635 74.2033 64.0003 74.2033C65.537 74.2033 66.7828 72.9573 66.7828 71.4208V66.7828H61.2178Z" fill="#0052B4"/>
<path d="M52.8696 66.7828V71.4208C52.8696 72.9573 54.1154 74.2033 55.6521 74.2033C57.1889 74.2033 58.4346 72.9573 58.4346 71.4208V66.7828H52.8696Z" fill="#0052B4"/>
</g>
<defs>
<clipPath id="clip0_97_10858">
<rect width="128" height="128" fill="white"/>
</clipPath>
</defs>
</svg>
