<svg width="128" height="128" viewBox="0 0 128 128" fill="none" xmlns="http://www.w3.org/2000/svg">
<g clip-path="url(#clip0_97_10881)">
<path d="M64 -0.000244141C56.1715 -0.000244141 48.6723 1.40801 41.7393 3.98051L38.9565 63.9998L41.739 124.019C48.6723 126.592 56.1715 128 64 128C71.8285 128 79.3278 126.592 86.2608 124.019L89.0435 63.9998L86.261 3.98051C79.3278 1.40801 71.8285 -0.000244141 64 -0.000244141V-0.000244141Z" fill="#FFDA44"/>
<path d="M128 63.9998C128 36.482 110.632 13.0233 86.2607 3.98053V124.019C110.632 114.976 128 91.5175 128 63.9998Z" fill="#D80027"/>
<path d="M41.7393 124.019V3.98053C17.368 13.0233 0 36.482 0 63.9998C0 91.5175 17.368 114.976 41.7393 124.019Z" fill="#0052B4"/>
</g>
<defs>
<clipPath id="clip0_97_10881">
<rect width="128" height="128" fill="white"/>
</clipPath>
</defs>
</svg>
