<svg width="128" height="128" viewBox="0 0 128 128" fill="none" xmlns="http://www.w3.org/2000/svg">
<g clip-path="url(#clip0_97_10885)">
<path d="M64 128C99.3462 128 128 99.3465 128 64.0002C128 28.654 99.3462 0.000244141 64 0.000244141C28.6538 0.000244141 0 28.654 0 64.0002C0 99.3465 28.6538 128 64 128Z" fill="#F0F0F0"/>
<path d="M128 64.0002C128 99.3462 99.346 128 64 128C28.654 128 0 99.3462 0 64.0002C0 28.6542 64 64.0002 64 64.0002C64 64.0002 112.44 64.0002 128 64.0002Z" fill="#D80027"/>
<path d="M0 64.0002C0 28.6542 28.654 0.000244141 64 0.000244141V64.0002C64 64.0002 22.2607 64.0002 0 64.0002Z" fill="#0052B4"/>
<path d="M38.097 22.261L42.2412 35.0155H55.652L44.8025 42.898L48.9465 55.6525L38.097 47.7697L27.2475 55.6525L31.3915 42.898L20.542 35.0155H33.9527L38.097 22.261Z" fill="#F0F0F0"/>
</g>
<defs>
<clipPath id="clip0_97_10885">
<rect width="128" height="128" fill="white"/>
</clipPath>
</defs>
</svg>
