<svg width="128" height="128" viewBox="0 0 128 128" fill="none" xmlns="http://www.w3.org/2000/svg">
<g clip-path="url(#clip0_97_10898)">
<path d="M64 128C99.3462 128 128 99.3465 128 64.0002C128 28.654 99.3462 0.000244141 64 0.000244141C28.6538 0.000244141 0 28.654 0 64.0002C0 99.3465 28.6538 128 64 128Z" fill="#6DA544"/>
<path d="M98.2461 91.8262L100.002 95.4984L103.968 94.5819L102.192 98.2447L105.382 100.774L101.411 101.669L101.422 105.739L98.2461 103.193L95.0706 105.739L95.0816 101.669L91.1108 100.774L94.3001 98.2447L92.5241 94.5819L96.4898 95.4984L98.2461 91.8262Z" fill="#FFDA44"/>
<path d="M81.9077 52.8696L83.6642 56.5419L87.6302 55.6251L85.854 59.2881L89.0432 61.8171L85.0725 62.7121L85.0835 66.7826L81.9077 64.2361L78.7322 66.7826L78.743 62.7121L74.7725 61.8171L77.9617 59.2881L76.1855 55.6251L80.1517 56.5419L81.9077 52.8696Z" fill="#FFDA44"/>
<path d="M98.2463 30.6089L100.003 34.2811L103.969 33.3641L102.193 37.0271L105.382 39.5564L101.411 40.4511L101.422 44.5219L98.2463 41.9751L95.0708 44.5219L95.0818 40.4511L91.1113 39.5564L94.3003 37.0271L92.5243 33.3641L96.4901 34.2811L98.2463 30.6089Z" fill="#FFDA44"/>
<path d="M112.517 47.3044L114.273 50.9767L118.24 50.0599L116.463 53.7229L119.653 56.2519L115.682 57.1469L115.693 61.2177L112.517 58.6709L109.342 61.2177L109.352 57.1469L105.382 56.2519L108.571 53.7229L106.795 50.0599L110.761 50.9767L112.517 47.3044Z" fill="#FFDA44"/>
<path d="M102.312 66.7826L103.694 71.0343H108.164L104.548 73.6618L105.929 77.9131L102.312 75.2858L98.6962 77.9131L100.077 73.6618L96.4609 71.0343H100.931L102.312 66.7826Z" fill="#FFDA44"/>
<path d="M70.9568 82.0871C60.9675 82.0871 52.8695 73.9891 52.8695 64.0001C52.8695 54.0111 60.9673 45.9131 70.9568 45.9131C74.0713 45.9131 77.002 46.7009 79.5605 48.0871C75.5468 44.1616 70.058 41.7391 63.9998 41.7391C51.7058 41.7391 41.7393 51.7056 41.7393 63.9999C41.7393 76.2941 51.7058 86.2606 63.9998 86.2606C70.0578 86.2606 75.5468 83.8381 79.5603 79.9126C77.002 81.2994 74.0713 82.0871 70.9568 82.0871Z" fill="#FFDA44"/>
<path d="M40.2462 25.0436C38.3212 21.7176 34.7275 19.4784 30.6085 19.4784C26.4895 19.4784 22.8957 21.7176 20.9707 25.0436H40.2462Z" fill="#FFDA44"/>
<path d="M40.2835 25.1079L30.6088 34.7827L20.934 25.1079C20.0093 26.7307 19.4785 28.6074 19.4785 30.6089C19.4785 36.7562 24.4618 41.7394 30.609 41.7394C36.7563 41.7394 41.7395 36.7564 41.7395 30.6089C41.7393 28.6074 41.2083 26.7307 40.2835 25.1079Z" fill="#FFDA44"/>
<path d="M27.8262 32.0002V41.3887C28.7154 41.6175 29.6479 41.7392 30.6087 41.7392C31.5694 41.7392 32.5019 41.6172 33.3912 41.3887V32.0002H27.8262Z" fill="#A2001D"/>
</g>
<defs>
<clipPath id="clip0_97_10898">
<rect width="128" height="128" fill="white"/>
</clipPath>
</defs>
</svg>
