<svg width="128" height="128" viewBox="0 0 128 128" fill="none" xmlns="http://www.w3.org/2000/svg">
<g clip-path="url(#clip0_97_10914)">
<path d="M64 128C99.3462 128 128 99.3465 128 64.0002C128 28.654 99.3462 0.000244141 64 0.000244141C28.6538 0.000244141 0 28.654 0 64.0002C0 99.3465 28.6538 128 64 128Z" fill="#F0F0F0"/>
<path d="M127.998 63.8149H58.6205C44.8462 77.5894 36.5167 88.2237 28.0117 96.7287L64.1857 99.9887L120.319 94.4234C125.218 85.3747 128 75.0124 128 64.0002C128 63.9382 127.998 63.8769 127.998 63.8149Z" fill="#D80027"/>
<path d="M28.0116 33.2062H120.115C109.23 13.4142 88.1826 0.000244141 63.9998 0.000244141C46.3736 0.000244141 30.4146 7.12799 18.8408 18.6562L28.0116 33.2062Z" fill="#FFDA44"/>
<path d="M30.794 94.4235C25.0405 100.177 22.817 104.997 18.6543 109.16C30.243 120.797 46.2793 128 63.9998 128C88.3338 128 109.495 114.419 120.319 94.4235H30.794Z" fill="#0052B4"/>
<path d="M18.7451 18.5599C-6.24837 43.5534 -6.24837 84.0762 18.7451 109.07C29.0734 98.7417 39.0066 88.8084 64.0001 63.8149L18.7451 18.5599Z" fill="#6DA544"/>
<path d="M16.8812 63.815C16.8812 54.4905 23.4345 46.7008 32.1855 44.7898C30.8405 44.496 29.445 44.3368 28.0115 44.3368C17.2537 44.3368 8.5332 53.0573 8.5332 63.815C8.5332 74.5728 17.2537 83.2933 28.0115 83.2933C29.4447 83.2933 30.8402 83.134 32.1855 82.8403C23.4345 80.929 16.8812 73.1395 16.8812 63.815Z" fill="#F0F0F0"/>
<path d="M31.9708 47.1191L33.007 50.3076H36.3595L33.647 52.2784L34.6833 55.4669L31.9708 53.4964L29.2583 55.4669L30.2945 52.2784L27.582 50.3076H30.9345L31.9708 47.1191Z" fill="#F0F0F0"/>
<path d="M31.9708 55.4669L33.007 58.6557H36.3595L33.647 60.6262L34.6833 63.8149L31.9708 61.8442L29.2583 63.8149L30.2945 60.6262L27.582 58.6557H30.9345L31.9708 55.4669Z" fill="#F0F0F0"/>
<path d="M31.9708 63.8149L33.007 67.0034H36.3595L33.647 68.9742L34.6833 72.1627L31.9708 70.1919L29.2583 72.1627L30.2945 68.9742L27.582 67.0034H30.9345L31.9708 63.8149Z" fill="#F0F0F0"/>
<path d="M31.9708 72.1627L33.007 75.3512H36.3595L33.647 77.322L34.6833 80.5105L31.9708 78.54L29.2583 80.5105L30.2945 77.322L27.582 75.3512H30.9345L31.9708 72.1627Z" fill="#F0F0F0"/>
</g>
<defs>
<clipPath id="clip0_97_10914">
<rect width="128" height="128" fill="white"/>
</clipPath>
</defs>
</svg>
