<svg width="128" height="128" viewBox="0 0 128 128" fill="none" xmlns="http://www.w3.org/2000/svg">
<g clip-path="url(#clip0_97_10926)">
<path d="M128 64.0002C128 99.3462 99.346 128 64 128C28.654 128 0 99.3462 0 64.0002C0 64.0155 64 0.00724414 64 0.000244141C99.346 0.000244141 128 28.6542 128 64.0002Z" fill="#0052B4"/>
<path d="M63.8291 64.0004H64.0004C64.0004 63.9429 64.0004 63.8869 64.0004 63.8291C63.9434 63.8864 63.8864 63.9434 63.8291 64.0004Z" fill="#F0F0F0"/>
<path d="M64 33.3917C64 22.1305 64 14.7517 64 0.000488281H63.9893C28.6478 0.00648828 0 28.6577 0 64.0005H33.3913V45.1977L52.194 64.0005H63.829C63.886 63.9435 63.943 63.8865 64.0003 63.8292C64.0003 59.5175 64.0003 55.6702 64.0003 52.195L45.197 33.3917H64Z" fill="#F0F0F0"/>
<path d="M32.3787 8.34802C22.3689 14.0478 14.0472 22.3693 8.34766 32.379V64.0003H25.0434V25.0443V25.0438H63.9999C63.9999 19.778 63.9999 14.7615 63.9999 8.34802H32.3787Z" fill="#D80027"/>
<path d="M63.9999 56.1299L41.2611 33.3916H33.3911V33.3921L63.9994 64.0001H63.9999C63.9999 64.0001 63.9999 58.5734 63.9999 56.1299Z" fill="#D80027"/>
<path d="M86.2609 64.0004L87.4454 67.6444H91.2766L88.1771 69.8964L89.3611 73.5406L86.2609 71.2884L83.1611 73.5406L84.3451 69.8964L81.2456 67.6444H85.0769L86.2609 64.0004Z" fill="#F0F0F0"/>
<path d="M70.5203 70.5207L73.934 72.2599L76.6435 69.5507L76.044 73.3352L79.458 75.0747L75.6735 75.6737L75.0743 79.4587L73.3345 76.0444L69.5503 76.6439L72.26 73.9347L70.5203 70.5207Z" fill="#F0F0F0"/>
<path d="M64 86.2611L67.644 85.0771L67.6445 81.2461L69.896 84.3453L73.5403 83.1611L71.288 86.2611L73.5403 89.3613L69.896 88.1773L67.6445 91.2768V87.4456L64 86.2611Z" fill="#F0F0F0"/>
<path d="M70.5203 102.002L72.2595 98.5878L69.5503 95.8788L73.3348 96.4781L75.0743 93.0641L75.6735 96.8486L79.458 97.4476L76.044 99.1873L76.6435 102.972L73.934 100.262L70.5203 102.002Z" fill="#F0F0F0"/>
<path d="M86.2606 108.522L85.0766 104.878H81.2451L84.3449 102.626L83.1609 98.9818L86.2606 101.234L89.3609 98.9818L88.1769 102.626L91.2764 104.878H87.4451L86.2606 108.522Z" fill="#F0F0F0"/>
<path d="M102.001 102.002L98.5872 100.263L95.8782 102.972L96.4775 99.1873L93.0635 97.4481L96.848 96.8486L97.4475 93.0641L99.1867 96.4781L102.971 95.8788L100.261 98.5881L102.001 102.002Z" fill="#F0F0F0"/>
<path d="M108.522 86.2611L104.877 87.4456V91.2768L102.625 88.1771L98.9814 89.3613L101.234 86.2611L98.9814 83.1611L102.625 84.3453L104.877 81.2461V85.0771L108.522 86.2611Z" fill="#F0F0F0"/>
<path d="M102.001 70.5209L100.262 73.9347L102.971 76.6439L99.1867 76.0444L97.4475 79.4587L96.848 75.6737L93.0635 75.0744L96.4775 73.3352L95.8782 69.5509L98.5875 72.2599L102.001 70.5209Z" fill="#F0F0F0"/>
</g>
<defs>
<clipPath id="clip0_97_10926">
<rect width="128" height="128" fill="white"/>
</clipPath>
</defs>
</svg>
