<svg width="128" height="128" viewBox="0 0 128 128" fill="none" xmlns="http://www.w3.org/2000/svg">
<g clip-path="url(#clip0_97_10944)">
<path d="M64 128C99.3462 128 128 99.346 128 63.9998C128 28.6535 99.3462 -0.000244141 64 -0.000244141C28.6538 -0.000244141 0 28.6535 0 63.9998C0 99.346 28.6538 128 64 128Z" fill="#FCFCFC"/>
<path d="M86.2837 54.208C86.2837 40.672 75.3107 29.6992 61.7749 29.6992C51.7864 29.6992 43.1997 35.6767 39.3817 44.2477L36.3589 55.2065L39.1414 57.989L33.5762 69.1195L39.1414 71.902L36.3589 74.6845V77.467L39.1414 80.2495V85.8147L41.9239 88.5972L50.2717 85.8147C50.2717 85.8147 50.2717 88.5972 53.0542 91.38C55.8367 94.1625 58.6197 99.728 58.6197 99.728C58.6197 99.728 66.9674 102.51 72.5327 94.1627C78.0979 85.815 83.6632 83.0322 83.6632 83.0322L78.2992 72.3037C83.2047 67.823 86.2837 61.3762 86.2837 54.208Z" fill="black"/>
<path d="M88.2817 63.5802C99.5889 61.673 101.472 39.5315 101.472 39.5315H85.8899C93.9594 59.0097 85.5131 60.32 85.5131 60.32C84.3689 59.4687 43.4194 40.0697 42.1214 39.5765C41.8086 39.995 40.6574 41.0942 39.2579 44.5167C37.8582 47.9392 37.5146 51.0182 37.5146 51.0182C38.1701 51.4455 81.6584 66.6307 82.8079 66.7572C85.0891 68.2487 87.8961 72.709 86.3274 85.9335L101.326 81.7065C101.326 81.7065 96.2362 68.1657 88.2817 63.5802Z" fill="#ACABB1"/>
</g>
<defs>
<clipPath id="clip0_97_10944">
<rect width="128" height="128" fill="white"/>
</clipPath>
</defs>
</svg>
