<svg width="128" height="128" viewBox="0 0 128 128" fill="none" xmlns="http://www.w3.org/2000/svg">
<g clip-path="url(#clip0_97_10948)">
<path d="M64 128C99.3462 128 128 99.3465 128 64.0002C128 28.654 99.3462 0.000244141 64 0.000244141C28.6538 0.000244141 0 28.654 0 64.0002C0 99.3465 28.6538 128 64 128Z" fill="#F0F0F0"/>
<path d="M124.019 41.7395H3.98075C1.40825 48.6728 0 56.1718 0 64.0003C0 71.8288 1.40825 79.3278 3.98075 86.261H124.02C126.592 79.3278 128 71.8288 128 64.0003C128 56.1718 126.592 48.6728 124.019 41.7395Z" fill="#D80027"/>
<path d="M64.0011 0.000488281C44.6033 0.000488281 27.2226 8.63149 15.4858 22.2612H112.516C100.78 8.63149 83.3988 0.000488281 64.0011 0.000488281Z" fill="#0052B4"/>
<path d="M112.516 105.74H15.4858C27.2226 119.369 44.6033 128 64.0011 128C83.3988 128 100.78 119.369 112.516 105.74Z" fill="#0052B4"/>
</g>
<defs>
<clipPath id="clip0_97_10948">
<rect width="128" height="128" fill="white"/>
</clipPath>
</defs>
</svg>
