<svg width="128" height="128" viewBox="0 0 128 128" fill="none" xmlns="http://www.w3.org/2000/svg">
<g clip-path="url(#clip0_97_10954)">
<path d="M128 63.9998C128 56.1713 126.592 48.672 124.019 41.739L64 38.9563L3.98075 41.7388C1.40825 48.672 0 56.1713 0 63.9998C0 71.8283 1.40825 79.3275 3.98075 86.2605L64 89.0433L124.019 86.2608C126.592 79.3275 128 71.8283 128 63.9998Z" fill="#F0F0F0"/>
<path d="M64.0002 128C91.518 128 114.977 110.632 124.019 86.2605H3.98096C13.0237 110.632 36.4825 128 64.0002 128Z" fill="#0052B4"/>
<path d="M3.98096 41.739H124.02C114.977 17.3678 91.518 -0.000244141 64.0002 -0.000244141C36.4825 -0.000244141 13.0237 17.3678 3.98096 41.739Z" fill="#D80027"/>
<path d="M80.6959 44.5216H69.5654L71.4207 30.6083L78.8407 25.0431L86.2609 30.6083V41.7388L80.6959 44.5216Z" fill="#338AF3"/>
<path d="M47.3043 44.5215H58.4348L56.5795 30.6082L49.1593 25.043L41.7393 30.6082V41.7387L47.3043 44.5215Z" fill="#338AF3"/>
<path d="M71.4206 44.5217H56.5796V30.6085L64.0001 25.0432L71.4206 30.6085V44.5217Z" fill="#0052B4"/>
<path d="M41.7393 41.7393V72.3478C41.7393 79.636 45.2598 86.1175 50.6898 90.1808L54.5855 89.206L59.5015 94.1515C60.9553 94.451 62.4595 94.6088 64.0003 94.6088C65.5328 94.6088 67.0295 94.453 68.4755 94.1565L74.0873 89.484L77.3103 90.1718C82.738 86.1088 86.261 79.634 86.261 72.3478V41.7393H41.7393Z" fill="#F0F0F0"/>
<path d="M41.7393 41.7388H50.6435V50.643H41.7393V41.7388Z" fill="#D80027"/>
<path d="M59.5479 41.7389H68.4521V50.6431H59.5479V41.7389Z" fill="#D80027"/>
<path d="M77.3564 41.7389H86.2607V50.6431H77.3564V41.7389Z" fill="#D80027"/>
<path d="M50.6436 50.6432H59.5478V59.5474H50.6436V50.6432Z" fill="#D80027"/>
<path d="M68.4521 50.6432H77.3564V59.5474H68.4521V50.6432Z" fill="#D80027"/>
<path d="M41.7393 59.5447H50.6435V68.4489H41.7393V59.5447Z" fill="#D80027"/>
<path d="M50.6436 68.4491H59.5478V77.3533H50.6436V68.4491Z" fill="#D80027"/>
<path d="M59.5479 59.5447H68.4521V68.4489H59.5479V59.5447Z" fill="#D80027"/>
<path d="M77.3564 59.5447H86.2607V68.4489H77.3564V59.5447Z" fill="#D80027"/>
<path d="M68.4521 68.4491H77.3564V77.3533H68.4521V68.4491Z" fill="#D80027"/>
<path d="M59.5479 77.3534H68.4521V86.2576H59.5479V77.3534Z" fill="#D80027"/>
<path d="M50.6437 77.3541H42.314C43.078 80.6641 44.58 83.6929 46.6395 86.2584H50.6437V77.3541Z" fill="#D80027"/>
<path d="M77.3564 86.2586H81.3604C83.4204 83.6931 84.9219 80.6641 85.6859 77.3544H77.3564V86.2586Z" fill="#D80027"/>
<path d="M50.6436 86.2587V90.1439C53.2333 92.0927 56.2598 93.4899 59.5478 94.1604V86.2587H50.6436Z" fill="#D80027"/>
<path d="M68.4521 86.2587V94.1604C71.7404 93.4904 74.7666 92.0927 77.3564 90.1439V86.2587H68.4521Z" fill="#D80027"/>
</g>
<defs>
<clipPath id="clip0_97_10954">
<rect width="128" height="128" fill="white"/>
</clipPath>
</defs>
</svg>
