<svg width="128" height="128" viewBox="0 0 128 128" fill="none" xmlns="http://www.w3.org/2000/svg">
<g clip-path="url(#clip0_97_10979)">
<path d="M0.00025 11.1307H0V116.87H0.00025V64.0005V11.1307Z" fill="#FF9811"/>
<path d="M63.9997 128C99.3458 128 127.999 99.3463 127.999 64.0002C127.999 28.6542 99.3458 0.000488281 63.9997 0.000488281C28.6537 0.000488281 0 28.6542 0 64.0002C0 99.3463 28.6537 128 63.9997 128Z" fill="#F0F0F0"/>
<path d="M64.0011 0.000854492C43.0631 0.000854492 24.4746 10.0566 12.7983 25.6009H115.204C103.528 10.0564 84.9388 0.000854492 64.0011 0.000854492Z" fill="#0052B4"/>
<path d="M64.0011 128C84.9391 128 103.528 117.944 115.204 102.4H12.7983C24.4743 117.945 43.0631 128 64.0011 128Z" fill="#0052B4"/>
<path d="M0.000976562 64.0006C0.000976562 68.3843 0.442977 72.6648 1.28273 76.8006H126.719C127.559 72.6648 128.001 68.3843 128.001 64.0006C128.001 59.6168 127.559 55.3363 126.719 51.2006H1.28273C0.442977 55.3363 0.000976562 59.6168 0.000976562 64.0006Z" fill="#0052B4"/>
<path d="M18.7449 18.7457C-6.24831 43.739 -6.24831 84.2617 18.7449 109.255C29.0732 98.9272 39.0062 88.994 63.9997 64.0007L18.7449 18.7457Z" fill="#D80027"/>
<path d="M25.9024 47.3049L30.0459 60.0587H43.4574L32.6082 67.9417L36.7517 80.6957L25.9024 72.8132L15.0527 80.6957L19.1972 67.9417L8.34766 60.0587H21.7582L25.9024 47.3049Z" fill="#F0F0F0"/>
</g>
<defs>
<clipPath id="clip0_97_10979">
<rect width="128" height="128" fill="white"/>
</clipPath>
</defs>
</svg>
