<svg width="128" height="128" viewBox="0 0 128 128" fill="none" xmlns="http://www.w3.org/2000/svg">
<g clip-path="url(#clip0_97_10988)">
<path d="M64 128C99.3462 128 128 99.3465 128 64.0002C128 28.654 99.3462 0.000244141 64 0.000244141C28.6538 0.000244141 0 28.654 0 64.0002C0 99.3465 28.6538 128 64 128Z" fill="#FFDA44"/>
<path d="M64.0001 128C85.0001 128 103.637 117.886 115.307 102.263H12.6929C24.3629 117.886 43.0001 128 64.0001 128Z" fill="#0052B4"/>
<path d="M128 64.0005C128 28.6545 99.346 0.000488281 64 0.000488281C28.654 0.000488281 0 28.6545 0 64.0005C0 71.5687 1.31725 78.8285 3.729 85.5677H124.271C126.683 78.8285 128 71.5687 128 64.0005Z" fill="#0052B4"/>
<path d="M43.8055 41.0459L47.2588 51.6739H58.4348L49.3935 58.2434L52.8468 68.8719L43.8055 62.3029L34.7643 68.8719L38.218 58.2434L29.1768 51.6739H40.3523L43.8055 41.0459Z" fill="#F0F0F0"/>
<path d="M24.6134 29.9155L26.6854 36.2925H33.3912L27.9664 40.234L30.0384 46.6113L24.6134 42.6698L19.1887 46.6113L21.2609 40.234L15.8364 36.2925H22.5419L24.6134 29.9155Z" fill="#F0F0F0"/>
</g>
<defs>
<clipPath id="clip0_97_10988">
<rect width="128" height="128" fill="white"/>
</clipPath>
</defs>
</svg>
