<svg width="128" height="128" viewBox="0 0 128 128" fill="none" xmlns="http://www.w3.org/2000/svg">
<g clip-path="url(#clip0_97_10996)">
<path d="M64 128C99.3462 128 128 99.3465 128 64.0002C128 28.654 99.3462 0.000244141 64 0.000244141C28.6538 0.000244141 0 28.654 0 64.0002C0 99.3465 28.6538 128 64 128Z" fill="#FCFCFC"/>
<path d="M100.174 55.6525C98.2259 55.6525 95.8142 55.6525 91.8259 55.6525C91.8259 71.0205 79.3674 83.4785 63.9999 83.4785C48.6317 83.4785 36.1739 71.0205 36.1739 55.6525C33.4839 55.6525 30.5157 55.6525 27.8262 55.6525C27.8262 72.2062 38.9452 86.163 54.1227 90.4612C52.4587 93.6222 52.7122 97.602 55.0892 100.568C58.2112 98.066 61.4434 95.4757 64.1854 93.2787C66.9274 95.476 70.1599 98.0662 73.2817 100.568C75.6822 97.5725 75.9184 93.5422 74.1992 90.366C89.2104 85.9622 100.174 72.0885 100.174 55.6525Z" fill="#6DA544"/>
<path d="M41.7393 52.8697C41.7393 52.8697 41.7393 66.7827 55.6523 66.7827L58.4348 69.5652H64C64 69.5652 66.7825 61.2175 72.3478 61.2175C72.3478 61.2175 72.3478 55.6522 77.913 55.6522C83.4783 55.6522 86.2608 55.6522 86.2608 55.6522C86.2608 55.6522 83.4783 44.5217 97.3913 36.174L91.826 33.3915C91.826 33.3915 72.3478 47.3045 58.4348 44.522V50.0872H52.8695L50.087 47.3047L41.7393 52.8697Z" fill="#FFDA44"/>
</g>
<defs>
<clipPath id="clip0_97_10996">
<rect width="128" height="128" fill="white"/>
</clipPath>
</defs>
</svg>
