<svg width="128" height="128" viewBox="0 0 128 128" fill="none" xmlns="http://www.w3.org/2000/svg">
<g clip-path="url(#clip0_97_11000)">
<path d="M64 128C99.3462 128 128 99.3465 128 64.0002C128 28.654 99.3462 0.000244141 64 0.000244141C28.6538 0.000244141 0 28.654 0 64.0002C0 99.3465 28.6538 128 64 128Z" fill="#F0F0F0"/>
<path d="M58.4349 64.0002C58.4349 64.0002 18.7826 109.264 18.7451 109.255C30.3266 120.837 46.3269 128 64.0001 128C99.3461 128 128 99.3462 128 64.0002H58.4349Z" fill="#D80027"/>
<path d="M18.7451 18.7452C-6.24837 43.7387 -6.24837 84.2615 18.7451 109.255C29.0734 98.927 39.0066 88.9937 64.0001 64.0002L18.7451 18.7452Z" fill="#0052B4"/>
</g>
<defs>
<clipPath id="clip0_97_11000">
<rect width="128" height="128" fill="white"/>
</clipPath>
</defs>
</svg>
