<svg width="128" height="128" viewBox="0 0 128 128" fill="none" xmlns="http://www.w3.org/2000/svg">
<g clip-path="url(#clip0_97_11004)">
<path d="M120.893 34.6542C117.936 28.9244 114.06 23.5464 109.257 18.7434C104.454 13.9402 99.0754 10.0639 93.3459 7.10693L48.2587 48.2584L7.10693 93.3457C10.0642 99.0754 13.9404 104.454 18.7434 109.257C23.5464 114.06 28.9247 117.936 34.6542 120.893L79.7414 79.7414L120.893 34.6542Z" fill="#FFDA44"/>
<path d="M18.7436 109.257C21.4284 111.942 24.2931 114.336 27.2979 116.445L116.444 27.298C114.336 24.2933 111.942 21.4285 109.257 18.7438C106.572 16.059 103.707 13.6648 100.703 11.5568L11.5566 100.703C13.6644 103.707 16.0586 106.572 18.7436 109.257Z" fill="#D80027"/>
<path d="M18.7435 18.7433C-1.44822 38.9351 -5.32447 69.2596 7.10703 93.3458L93.346 7.1071C69.2595 -5.32415 38.935 -1.4474 18.7435 18.7433Z" fill="#338AF3"/>
<path d="M109.257 109.257C129.448 89.0657 133.324 58.7412 120.893 34.6549L34.6543 120.894C58.7405 133.325 89.0653 129.449 109.257 109.257Z" fill="#338AF3"/>
<path d="M34.1066 19.4764L37.5601 30.1057H48.7361L39.6946 36.6747L43.1481 47.3037L34.1066 40.7344L25.0646 47.3037L28.5186 36.6747L19.4766 30.1057H30.6526L34.1066 19.4764Z" fill="#FFDA44"/>
</g>
<defs>
<clipPath id="clip0_97_11004">
<rect width="128" height="128" fill="white"/>
</clipPath>
</defs>
</svg>
