<svg width="128" height="128" viewBox="0 0 128 128" fill="none" xmlns="http://www.w3.org/2000/svg">
<g clip-path="url(#clip0_97_11011)">
<path d="M64 128C99.3462 128 128 99.3465 128 64.0002C128 28.654 99.3462 0.000244141 64 0.000244141C28.6538 0.000244141 0 28.654 0 64.0002C0 99.3465 28.6538 128 64 128Z" fill="#F0F0F0"/>
<path d="M50.0862 55.6526H127.457C123.366 24.2509 96.5157 0.000366211 63.9989 0.000366211C59.2202 0.000366211 54.5659 0.528616 50.0859 1.52162V55.6526H50.0862Z" fill="#D80027"/>
<path d="M33.3905 55.6524V7.7821C15.8173 17.3706 3.23677 34.9584 0.541016 55.6526H33.3905V55.6524Z" fill="#D80027"/>
<path d="M33.3903 72.3481H0.541016C3.23677 93.0424 15.8173 110.63 33.3905 120.218L33.3903 72.3481Z" fill="#D80027"/>
<path d="M50.0859 72.3484V126.479C54.5659 127.472 59.2202 128 63.9989 128C96.5157 128 123.366 103.75 127.457 72.3481H50.0859V72.3484Z" fill="#D80027"/>
</g>
<defs>
<clipPath id="clip0_97_11011">
<rect width="128" height="128" fill="white"/>
</clipPath>
</defs>
</svg>
