<svg width="128" height="128" viewBox="0 0 128 128" fill="none" xmlns="http://www.w3.org/2000/svg">
<g clip-path="url(#clip0_97_11018)">
<path d="M58.4349 69.5655C58.4349 69.5655 18.7826 18.7365 18.7451 18.7455C30.3266 7.16374 46.3269 0.000244141 64.0001 0.000244141C99.3461 0.000244141 128 28.6542 128 64.0002L58.4349 69.5655Z" fill="#338AF3"/>
<path d="M58.4349 64.0002C58.4349 64.0002 18.7826 109.264 18.7451 109.255C30.3266 120.837 46.3269 128 64.0001 128C99.3461 128 128 99.3462 128 64.0002H58.4349Z" fill="#6DA544"/>
<path d="M18.7451 18.7452C-6.24837 43.7387 -6.24837 84.2615 18.7451 109.255C29.0734 98.927 39.0066 88.9937 64.0001 64.0002L18.7451 18.7452Z" fill="#F0F0F0"/>
<path d="M25.9024 47.3044L30.0462 60.0584H43.4577L32.6082 67.9414L36.7517 80.6959L25.9024 72.8132L15.0527 80.6959L19.1972 67.9414L8.34766 60.0584H21.7582L25.9024 47.3044Z" fill="#D80027"/>
</g>
<defs>
<clipPath id="clip0_97_11018">
<rect width="128" height="128" fill="white"/>
</clipPath>
</defs>
</svg>
