<svg width="128" height="128" viewBox="0 0 128 128" fill="none" xmlns="http://www.w3.org/2000/svg">
<g clip-path="url(#clip0_97_11023)">
<path d="M64 128C99.3462 128 128 99.346 128 63.9998C128 28.6535 99.3462 -0.000244141 64 -0.000244141C28.6538 -0.000244141 0 28.6535 0 63.9998C0 99.346 28.6538 128 64 128Z" fill="#F0F0F0"/>
<path d="M76.5215 126.772C101.822 121.753 121.752 101.822 126.771 76.5216H76.5215V126.772Z" fill="#496E2D"/>
<path d="M1.22803 76.5216C6.24678 101.822 26.1773 121.753 51.478 126.772V76.5216H1.22803Z" fill="#496E2D"/>
<path d="M126.771 51.4781C121.752 26.1776 101.822 6.24715 76.5215 1.22815V51.4781H126.771Z" fill="#496E2D"/>
<path d="M51.478 1.22827C26.1773 6.24727 6.24678 26.1778 1.22803 51.4783H51.478V1.22827Z" fill="#496E2D"/>
<path d="M59.8258 76.5214H51.478V126.771C54.2023 127.312 56.989 127.678 59.8258 127.86V76.5214Z" fill="#FFDA44"/>
<path d="M59.8258 51.478V0.139038C56.989 0.321538 54.202 0.687788 51.478 1.22804V51.478H59.8258Z" fill="#FFDA44"/>
<path d="M68.1742 0.139006C66.7937 0.0497559 65.4029 -0.000244141 64.0002 -0.000244141C62.5974 -0.000244141 61.2067 0.0497559 59.8262 0.139006V51.4783H68.1739V0.139006H68.1742Z" fill="black"/>
<path d="M59.8262 127.86C61.2067 127.95 62.5974 128 64.0002 128C65.4029 128 66.7937 127.95 68.1742 127.86V76.5215H59.8264V127.86H59.8262Z" fill="black"/>
<path d="M51.4786 59.8259V51.4781H1.22865C0.688148 54.2026 0.322148 56.9892 0.139648 59.8259H51.4786Z" fill="#FFDA44"/>
<path d="M76.5225 59.8259H127.862C127.679 56.9892 127.313 54.2026 126.773 51.4781H76.5227V59.8259H76.5225Z" fill="#FFDA44"/>
<path d="M76.5215 68.1738H127.861C127.95 66.7936 128 65.4026 128 63.9998C128 62.5971 127.95 61.2061 127.86 59.8258H76.5215V68.1738Z" fill="black"/>
<path d="M0.13925 59.8258C0.05025 61.2061 0 62.5971 0 63.9998C0 65.4026 0.05025 66.7936 0.13925 68.1738H51.4785V59.8261H0.13925V59.8258Z" fill="black"/>
<path d="M64.0004 94.6085C80.9051 94.6085 94.6091 80.9045 94.6091 63.9997C94.6091 47.095 80.9051 33.391 64.0004 33.391C47.0956 33.391 33.3916 47.095 33.3916 63.9997C33.3916 80.9045 47.0956 94.6085 64.0004 94.6085Z" fill="#D80027"/>
<path d="M70.9737 67.4146C68.697 62.8614 65.7377 58.2464 65.7377 58.2464C65.7377 58.2464 65.8112 56.1452 65.8112 54.8932C65.8112 53.0072 64.2822 51.4781 62.3962 51.4781C60.6095 51.4781 59.1455 52.8509 58.9962 54.5986C57.5912 54.6904 56.4795 55.8559 56.4795 57.2839C56.4795 58.3221 57.0677 59.2219 57.9287 59.6716C58.3567 58.6707 59.1947 57.8891 60.2312 57.5329C60.4002 57.6711 60.5817 57.7946 60.7755 57.8994L61.213 58.1089C61.213 58.1089 59.5907 62.6816 59.5907 65.1381C59.5907 72.0441 64.1442 74.1739 64.1442 74.1739V74.2451L61.8675 76.5217H66.4207V71.9681L68.6975 74.2449C68.7175 74.2021 73.01 71.4874 70.9737 67.4146Z" fill="#496E2D"/>
<path d="M64.0003 38.9562L65.0363 42.1447H68.3888L65.6766 44.1154L66.7128 47.3039L64.0003 45.3334L61.2878 47.3039L62.3241 44.1154L59.6118 42.1447H62.9643L64.0003 38.9562Z" fill="#496E2D"/>
<path d="M49.28 43.7391L51.992 45.7099L54.7045 43.7389L53.6685 46.9279L56.381 48.8981L53.0283 48.8984L51.9923 52.0869L50.956 48.8984L47.6035 48.8981L50.3158 46.9274L49.28 43.7391Z" fill="#496E2D"/>
<path d="M40.1826 56.2609H43.5349L44.5711 53.0724L45.6071 56.2609L48.9599 56.2606L46.2476 58.2316L47.2839 61.4201L44.5711 59.4494L41.8589 61.4199L42.8946 58.2314L40.1826 56.2609Z" fill="#496E2D"/>
<path d="M40.1826 71.7385L42.8946 69.7682L41.8586 66.5795L44.5711 68.5502L47.2836 66.5795L46.2476 69.768L48.9601 71.7387L45.6071 71.739L44.5711 74.9272L43.5349 71.7385H40.1826Z" fill="#496E2D"/>
<path d="M49.2803 84.2602L50.316 81.0722L47.6035 79.1015H50.9563L51.9925 75.9127L53.0285 79.1012H56.3813L53.6688 81.0722L54.7048 84.2605L51.9923 82.2897L49.2803 84.2602Z" fill="#496E2D"/>
<path d="M64.0003 89.0432L62.9643 85.8552H59.6118L62.3241 83.8842L61.2878 80.6957L64.0003 82.6659L66.7126 80.6954L65.6766 83.8842L68.3888 85.8549L65.0363 85.8552L64.0003 89.0432Z" fill="#496E2D"/>
<path d="M78.7201 84.2602L76.0081 82.2897L73.2959 84.2607L74.3316 81.0722L71.6191 79.1015L74.9719 79.1012L76.0076 75.9127L77.0441 79.1015H80.3966L77.6844 81.0722L78.7201 84.2602Z" fill="#496E2D"/>
<path d="M87.818 71.7385H84.4658L83.4295 74.9272L82.3935 71.739H79.0405L81.753 69.768L80.7168 66.5797L83.4295 68.5502L86.1415 66.5797L85.106 69.7682L87.818 71.7385Z" fill="#496E2D"/>
<path d="M87.818 56.2609L85.106 58.2314L86.1418 61.4199L83.4295 59.4494L80.717 61.4204L81.753 58.2316L79.0405 56.2611L82.3935 56.2606L83.4293 53.0726L84.4658 56.2609H87.818Z" fill="#496E2D"/>
<path d="M78.7201 43.7391L77.6844 46.9274L80.3966 48.8981H77.0441L76.0081 52.0869L74.9719 48.8984L71.6191 48.8986L74.3316 46.9274L73.2956 43.7394L76.0081 45.7096L78.7201 43.7391Z" fill="#496E2D"/>
</g>
<defs>
<clipPath id="clip0_97_11023">
<rect width="128" height="128" fill="white"/>
</clipPath>
</defs>
</svg>
