<svg width="128" height="128" viewBox="0 0 128 128" fill="none" xmlns="http://www.w3.org/2000/svg">
<g clip-path="url(#clip0_97_11053)">
<path d="M64 128C99.3462 128 128 99.3465 128 64.0002C128 28.654 99.3462 0.000244141 64 0.000244141C28.6538 0.000244141 0 28.654 0 64.0002C0 99.3465 28.6538 128 64 128Z" fill="#F0F0F0"/>
<path d="M2.20508 80.696C8.11458 102.622 25.3788 119.886 47.3048 125.796V80.696H2.20508Z" fill="#D80027"/>
<path d="M47.3046 2.20496C25.3788 8.11421 8.11433 25.3787 2.20508 47.3045H47.3048V2.20496H47.3046Z" fill="#0052B4"/>
<path d="M125.795 47.3045C119.886 25.3787 102.622 8.11421 80.6958 2.20496V47.3047H125.795V47.3045Z" fill="#D80027"/>
<path d="M80.6958 125.796C102.622 119.886 119.886 102.622 125.796 80.6958H80.6958V125.796Z" fill="#0052B4"/>
<path d="M80.6957 64.0002C80.6957 73.2212 73.221 80.6959 64 80.6959C54.7792 80.6959 47.3042 73.2212 47.3042 64.0002C47.3042 54.7792 64 47.3044 64 47.3044C64 47.3044 80.6957 54.7792 80.6957 64.0002Z" fill="#496E2D"/>
<path d="M47.3042 64.0002C47.3042 54.7792 54.7792 47.3044 64 47.3044C73.221 47.3044 80.6957 54.7792 80.6957 64.0002" fill="#0052B4"/>
<path d="M54.6084 55.6525V66.0872C54.6084 71.274 58.8129 75.4785 63.9996 75.4785C69.1864 75.4785 73.3909 71.274 73.3909 66.0872V55.6525H54.6084Z" fill="#D80027"/>
</g>
<defs>
<clipPath id="clip0_97_11053">
<rect width="128" height="128" fill="white"/>
</clipPath>
</defs>
</svg>
