<svg width="128" height="128" viewBox="0 0 128 128" fill="none" xmlns="http://www.w3.org/2000/svg">
<g clip-path="url(#clip0_97_11062)">
<path d="M64 128C99.3462 128 128 99.346 128 63.9998C128 28.6535 99.3462 -0.000244141 64 -0.000244141C28.6538 -0.000244141 0 28.6535 0 63.9998C0 99.346 28.6538 128 64 128Z" fill="#FFDA44"/>
<path d="M63.9998 -0.000244141C48.3305 -0.000244141 33.979 5.63401 22.8535 14.9833L91.8258 63.9998L22.8535 113.016C33.979 122.366 48.3305 128 63.9998 128C99.3458 128 128 99.3458 128 63.9998C128 28.6538 99.3458 -0.000244141 63.9998 -0.000244141Z" fill="#D80027"/>
<path d="M18.7451 18.7448C-6.24837 43.7383 -6.24837 84.261 18.7451 109.255C29.0734 98.9265 39.0066 88.9932 64.0001 63.9997L18.7451 18.7448Z" fill="black"/>
<path d="M17.7449 49.3385L27.4849 58.5565L39.2619 52.1405L33.5057 64.253L43.2459 73.4712L29.9474 71.7393L24.1904 83.8515L21.7287 70.6685L8.43018 68.936L20.2067 62.5208L17.7449 49.3385Z" fill="#F0F0F0"/>
</g>
<defs>
<clipPath id="clip0_97_11062">
<rect width="128" height="128" fill="white"/>
</clipPath>
</defs>
</svg>
