<svg width="128" height="128" viewBox="0 0 128 128" fill="none" xmlns="http://www.w3.org/2000/svg">
<g clip-path="url(#clip0_97_11067)">
<path d="M0 64.0002C0 28.6542 28.654 0.000244141 64 0.000244141C99.346 0.000244141 128 28.6542 128 64.0002L64 69.5655L0 64.0002Z" fill="#FFDA44"/>
<path d="M8.56396 96.0003C19.6302 115.129 40.3112 128 64 128C87.6887 128 108.37 115.129 119.436 96.0003L64 91.8263L8.56396 96.0003Z" fill="#D80027"/>
<path d="M119.436 96.0002C124.882 86.5867 128 75.658 128 64.0002H0C0 75.658 3.1185 86.5867 8.564 96.0002H119.436Z" fill="#0052B4"/>
<path d="M64 86.261C76.2943 86.261 86.2608 76.2945 86.2608 64.0003C86.2608 51.706 76.2943 41.7395 64 41.7395C51.7057 41.7395 41.7393 51.706 41.7393 64.0003C41.7393 76.2945 51.7057 86.261 64 86.261Z" fill="#FFDA44"/>
<path d="M63.9999 77.9133C56.3282 77.9133 50.0869 71.6718 50.0869 64.0003V55.6525C50.0869 47.9808 56.3284 41.7395 63.9999 41.7395C71.6714 41.7395 77.9129 47.981 77.9129 55.6525V64.0003C77.9129 71.672 71.6717 77.9133 63.9999 77.9133Z" fill="#338AF3"/>
<path d="M86.2608 30.6089H69.565C69.565 27.5354 67.0733 25.0437 63.9998 25.0437C60.9263 25.0437 58.4345 27.5354 58.4345 30.6089H41.7388C41.7388 33.6827 44.416 36.1742 47.4893 36.1742H47.304C47.304 39.2479 49.7955 41.7395 52.8693 41.7395C52.8693 44.8132 55.3608 47.3047 58.4345 47.3047H69.565C72.6388 47.3047 75.1303 44.8132 75.1303 41.7395C78.204 41.7395 80.6955 39.2479 80.6955 36.1742H80.5103C83.5838 36.1742 86.2608 33.6824 86.2608 30.6089Z" fill="black"/>
</g>
<defs>
<clipPath id="clip0_97_11067">
<rect width="128" height="128" fill="white"/>
</clipPath>
</defs>
</svg>
