<svg width="128" height="128" viewBox="0 0 128 128" fill="none" xmlns="http://www.w3.org/2000/svg">
<g clip-path="url(#clip0_97_11074)">
<path d="M64 128C99.3462 128 128 99.3465 128 64.0002C128 28.654 99.3462 0.000244141 64 0.000244141C28.6538 0.000244141 0 28.654 0 64.0002C0 99.3465 28.6538 128 64 128Z" fill="#F0F0F0"/>
<path d="M63.9997 0.000244141C36.482 0.000244141 13.0232 17.3682 3.98047 41.7395H124.019C114.976 17.3682 91.5175 0.000244141 63.9997 0.000244141Z" fill="#D80027"/>
<path d="M63.9997 128C91.5175 128 114.976 110.632 124.019 86.261H3.98047C13.0232 110.632 36.482 128 63.9997 128Z" fill="black"/>
<path d="M86.2608 57.0438H69.565C69.565 53.9703 67.0733 51.4785 63.9998 51.4785C60.9263 51.4785 58.4345 53.9703 58.4345 57.0438H41.7388C41.7388 60.1175 44.416 62.609 47.4895 62.609H47.304C47.304 65.6828 49.7955 68.1743 52.8693 68.1743C52.8693 71.248 55.3608 73.7395 58.4345 73.7395H69.565C72.6388 73.7395 75.1303 71.248 75.1303 68.1743C78.204 68.1743 80.6955 65.6828 80.6955 62.609H80.5103C83.5838 62.609 86.2608 60.1175 86.2608 57.0438Z" fill="#FF9811"/>
</g>
<defs>
<clipPath id="clip0_97_11074">
<rect width="128" height="128" fill="white"/>
</clipPath>
</defs>
</svg>
