<svg width="128" height="128" viewBox="0 0 128 128" fill="none" xmlns="http://www.w3.org/2000/svg">
<g clip-path="url(#clip0_97_11087)">
<path d="M64 128C99.3462 128 128 99.3465 128 64.0002C128 28.654 99.3462 0.000244141 64 0.000244141C28.6538 0.000244141 0 28.654 0 64.0002C0 99.3465 28.6538 128 64 128Z" fill="#F0F0F0"/>
<path d="M127.458 55.6525H72.3483H72.348V0.541994C69.6152 0.186244 66.8292 0.000244141 64 0.000244141C61.1707 0.000244141 58.3848 0.186244 55.6522 0.541994V55.652V55.6522H0.54175C0.186 58.385 0 61.1705 0 64.0002C0 66.83 0.186 69.6155 0.54175 72.348H55.6517H55.652V127.458C58.3848 127.814 61.1707 128 64 128C66.8292 128 69.6152 127.814 72.3477 127.458V72.3485V72.3482H127.458C127.814 69.6155 128 66.83 128 64.0002C128 61.1705 127.814 58.385 127.458 55.6525Z" fill="#D80027"/>
</g>
<defs>
<clipPath id="clip0_97_11087">
<rect width="128" height="128" fill="white"/>
</clipPath>
</defs>
</svg>
