<svg width="128" height="128" viewBox="0 0 128 128" fill="none" xmlns="http://www.w3.org/2000/svg">
<g clip-path="url(#clip0_97_11090)">
<path d="M64 128C99.3462 128 128 99.3465 128 64.0002C128 28.654 99.3462 0.000244141 64 0.000244141C28.6538 0.000244141 0 28.654 0 64.0002C0 99.3465 28.6538 128 64 128Z" fill="#F0F0F0"/>
<path d="M38.9563 41.7395H124.019C114.976 17.3682 91.5173 0.000244141 63.9998 0.000244141C46.3263 0.000244141 30.3281 7.16499 18.7471 18.7475L38.9563 41.7395Z" fill="#6DA544"/>
<path d="M38.9563 86.261H124.019C114.976 110.632 91.5173 128 63.9998 128C46.3263 128 30.3281 120.835 18.7471 109.253L38.9563 86.261Z" fill="#D80027"/>
<path d="M18.7451 18.7452C-6.24837 43.7387 -6.24837 84.2615 18.7451 109.255C29.0734 98.927 39.0066 88.9937 64.0001 64.0002L18.7451 18.7452Z" fill="#0052B4"/>
<path d="M75.1309 52.8698V66.7828C75.1309 75.3028 86.2614 77.9135 86.2614 77.9135C86.2614 77.9135 97.3919 75.3028 97.3919 66.7828V52.8698H75.1309Z" fill="#DEDDE0"/>
<path d="M83.4785 64.2784H89.0438V72.3479H83.4785V64.2784Z" fill="#786145"/>
<path d="M91.8261 61.2177C91.8261 58.144 89.3346 55.6525 86.2608 55.6525C83.1871 55.6525 80.6956 58.144 80.6956 61.2177C79.1588 61.2177 77.9131 62.4635 77.9131 64.0002C77.9131 65.537 79.1588 66.7827 80.6956 66.7827H91.8261C93.3628 66.7827 94.6086 65.537 94.6086 64.0002C94.6086 62.4635 93.3631 61.2177 91.8261 61.2177Z" fill="#6DA544"/>
</g>
<defs>
<clipPath id="clip0_97_11090">
<rect width="128" height="128" fill="white"/>
</clipPath>
</defs>
</svg>
