<svg width="128" height="128" viewBox="0 0 128 128" fill="none" xmlns="http://www.w3.org/2000/svg">
<g clip-path="url(#clip0_97_11098)">
<path d="M58.4349 58.4349C58.4349 58.4349 18.7826 109.264 18.7451 109.255C30.3266 120.837 46.3269 128 64.0001 128C99.3461 128 128 99.3462 128 64.0002L58.4349 58.4349Z" fill="#338AF3"/>
<path d="M58.4349 64.0002C58.4349 64.0002 18.7826 18.7365 18.7451 18.7455C30.3266 7.16374 46.3269 0.000244141 64.0001 0.000244141C99.3461 0.000244141 128 28.6542 128 64.0002H58.4349Z" fill="#6DA544"/>
<path d="M18.7451 18.7452C-6.24837 43.7387 -6.24837 84.2615 18.7451 109.255C18.7434 109.265 128 64.0002 128 64.0002L18.7451 18.7452Z" fill="#D80027"/>
<path d="M33.3916 37.5656C21.1169 37.5656 11.1309 47.5518 11.1309 59.8263V68.1741C11.1309 80.4488 21.1171 90.4348 33.3916 90.4348C45.6661 90.4348 55.6524 80.4486 55.6524 68.1741V59.8263C55.6526 47.5518 45.6664 37.5656 33.3916 37.5656ZM47.3046 68.1743C47.3046 74.3923 43.2041 79.6696 37.5654 81.4468V72.3483L43.4714 66.4423L37.5686 60.5396L37.5654 58.4388V55.6528H29.2179V64.0003L23.3159 69.9021L29.2179 75.8038V81.447C23.5791 79.6698 19.4786 74.3925 19.4786 68.1745V59.8268C19.4786 52.1551 25.7201 45.9138 33.3916 45.9138C41.0631 45.9138 47.3046 52.1553 47.3046 59.8268V68.1743Z" fill="#FFDA44"/>
</g>
<defs>
<clipPath id="clip0_97_11098">
<rect width="128" height="128" fill="white"/>
</clipPath>
</defs>
</svg>
