<svg width="128" height="128" viewBox="0 0 128 128" fill="none" xmlns="http://www.w3.org/2000/svg">
<g clip-path="url(#clip0_97_11107)">
<path d="M0 63.9997C0 71.8287 1.40825 79.3277 3.981 86.2612L64 91.8257L124.019 86.261C126.592 79.3277 128 71.8285 128 63.9997C128 56.2785 126.632 48.8767 124.127 42.0235L64 36.1737L3.8735 42.0237C1.36775 48.8767 0 56.2785 0 63.9997H0Z" fill="#FFDA44"/>
<path d="M63.9997 128C91.5175 128 114.976 110.632 124.019 86.2605H3.98047C13.0232 110.632 36.482 128 63.9997 128Z" fill="#D80027"/>
<path d="M63.9997 -0.000244141C36.482 -0.000244141 13.0232 17.3678 3.98047 41.739H124.019C114.976 17.3678 91.5175 -0.000244141 63.9997 -0.000244141Z" fill="#6DA544"/>
<path d="M64.0004 94.6085C80.9051 94.6085 94.6091 80.9045 94.6091 63.9997C94.6091 47.095 80.9051 33.391 64.0004 33.391C47.0956 33.391 33.3916 47.095 33.3916 63.9997C33.3916 80.9045 47.0956 94.6085 64.0004 94.6085Z" fill="#0052B4"/>
<path d="M63.993 40.2976L69.5185 57.3031H87.4278L72.9333 67.8134L78.5023 84.8694L63.993 74.3091L49.506 84.8499L55.0525 67.8134L40.5713 57.3031H58.4675L63.993 40.2976Z" fill="#FFDA44"/>
<path d="M86.0307 68.2324L68.5017 62.5364L79.335 47.6264L74.833 44.3549L63.9992 59.2659L53.1665 44.3551L48.664 47.6261L59.497 62.5374L41.9688 68.2321L43.6882 73.5254L61.2172 67.8301V86.2606H66.7822V67.8299L84.3105 73.5254L86.0307 68.2324Z" fill="#FFDA44"/>
</g>
<defs>
<clipPath id="clip0_97_11107">
<rect width="128" height="128" fill="white"/>
</clipPath>
</defs>
</svg>
