<svg width="128" height="128" viewBox="0 0 128 128" fill="none" xmlns="http://www.w3.org/2000/svg">
<g clip-path="url(#clip0_97_11115)">
<path d="M64 128C99.3462 128 128 99.3465 128 64.0002C128 28.654 99.3462 0.000244141 64 0.000244141C28.6538 0.000244141 0 28.654 0 64.0002C0 99.3465 28.6538 128 64 128Z" fill="#0052B4"/>
<path d="M64.0002 25.0438L66.0724 31.4211H72.7774L67.3527 35.3623L69.4249 41.7396L64.0002 37.7981L58.5752 41.7396L60.6474 35.3623L55.2227 31.4211H61.9279L64.0002 25.0438Z" fill="#FFDA44"/>
<path d="M36.4531 36.4538L42.4281 39.4978L47.1693 34.7568L46.1201 41.3793L52.0948 44.4236L45.4721 45.4726L44.4231 52.0956L41.3788 46.1208L34.7563 47.1701L39.4976 42.4288L36.4531 36.4538Z" fill="#FFDA44"/>
<path d="M25.0435 64.0003L31.4207 61.928V55.2228L35.3617 60.6478L41.7392 58.5755L37.7975 64.0003L41.7392 69.425L35.3617 67.353L31.4207 72.7778V66.0725L25.0435 64.0003Z" fill="#FFDA44"/>
<path d="M36.4531 91.5468L39.4973 85.5718L34.7563 80.8305L41.3791 81.88L44.4228 75.9053L45.4721 82.528L52.0946 83.577L46.1206 86.6213L47.1693 93.2438L42.4281 88.5025L36.4531 91.5468Z" fill="#FFDA44"/>
<path d="M64.0002 102.957L61.9277 96.5796H55.2227L60.6477 92.6383L58.5752 86.2616L64.0002 90.2026L69.4249 86.2616L67.3527 92.6383L72.7774 96.5796H66.0722L64.0002 102.957Z" fill="#FFDA44"/>
<path d="M91.5465 91.5468L85.5718 88.5028L80.8303 93.244L81.8795 86.621L75.9053 83.577L82.5278 82.528L83.5768 75.9053L86.6208 81.88L93.2433 80.8305L88.502 85.5723L91.5465 91.5468Z" fill="#FFDA44"/>
<path d="M102.956 64.0003L96.5787 66.0725V72.7778L92.6375 67.3528L86.2607 69.425L90.202 64.0003L86.2607 58.5755L92.6377 60.6478L96.5787 55.2228V61.9283L102.956 64.0003Z" fill="#FFDA44"/>
<path d="M91.5465 36.4538L88.5023 42.4288L93.2435 47.1701L86.6205 46.1206L83.5768 52.0953L82.5278 45.4726L75.9053 44.4233L81.8795 41.3793L80.8303 34.7571L85.572 39.4981L91.5465 36.4538Z" fill="#FFDA44"/>
</g>
<defs>
<clipPath id="clip0_97_11115">
<rect width="128" height="128" fill="white"/>
</clipPath>
</defs>
</svg>
