<svg width="128" height="128" viewBox="0 0 128 128" fill="none" xmlns="http://www.w3.org/2000/svg">
<g clip-path="url(#clip0_97_11126)">
<path d="M128 63.9998C128 99.3458 99.346 128 64 128C28.654 128 0 99.3458 0 63.9998C0 64.015 64 0.00675586 64 -0.000244141C99.346 -0.000244141 128 28.6538 128 63.9998Z" fill="#0052B4"/>
<path d="M63.8286 63.9996H63.9999C63.9999 63.9421 63.9999 63.8861 63.9999 63.8284C63.9429 63.8856 63.8859 63.9426 63.8286 63.9996Z" fill="#F0F0F0"/>
<path d="M64 33.3908C64 22.1295 64 14.7508 64 -0.000488281H63.9893C28.648 0.00551172 0 28.6568 0 63.9995H33.3913V45.1968L52.1942 63.9995H63.829L64.0003 63.8283C64.0003 59.5165 64.0003 55.6693 64.0003 52.194L45.197 33.3908H64Z" fill="#F0F0F0"/>
<path d="M32.3787 8.34753C22.3689 14.0473 14.0474 22.3688 8.34766 32.3785V63.9998H25.0434V25.0438V25.0433H63.9999C63.9999 19.7775 63.9999 14.761 63.9999 8.34753H32.3787Z" fill="#D80027"/>
<path d="M64.0001 56.1294L41.2619 33.3911H33.3916V33.3916L63.9996 63.9996H64.0001C64.0001 63.9996 64.0001 58.5729 64.0001 56.1294Z" fill="#D80027"/>
<path d="M102.956 75.1302V77.9128H80.6957V75.1302H72.3477V86.2605H77.9129V89.0433H105.739V86.2605H111.304V75.1302H102.956Z" fill="#FFDA44"/>
<path d="M72.3477 33.391V63.9997C72.3477 78.9095 91.8259 83.478 91.8259 83.478C91.8259 83.478 111.304 78.9095 111.304 63.9997V33.391H72.3477Z" fill="#338AF3"/>
<path d="M91.8261 56.2218C86.9569 56.2218 86.9569 60.674 82.0876 60.674C77.2184 60.674 77.2184 56.2218 72.3491 56.2218V64.013C77.2184 64.013 77.2184 68.4653 82.0876 68.4653C86.9569 68.4653 86.9569 64.013 91.8261 64.013C96.6959 64.013 96.6959 68.4653 101.566 68.4653C106.436 68.4653 106.436 64.013 111.306 64.013V56.2218C106.436 56.2218 106.436 60.674 101.566 60.674C96.6959 60.674 96.6959 56.2218 91.8261 56.2218Z" fill="#F3F3F3"/>
<path d="M91.8261 40.6255C86.9569 40.6255 86.9569 45.0777 82.0876 45.0777C77.2184 45.0777 77.2184 40.6255 72.3491 40.6255V48.4167C77.2184 48.4167 77.2184 52.869 82.0876 52.869C86.9569 52.869 86.9569 48.4167 91.8261 48.4167C96.6959 48.4167 96.6959 52.869 101.566 52.869C106.436 52.869 106.436 48.4167 111.306 48.4167V40.6255C106.436 40.6255 106.436 45.0777 101.566 45.0777C96.6959 45.0777 96.6959 40.6255 91.8261 40.6255Z" fill="#F3F3F3"/>
</g>
<defs>
<clipPath id="clip0_97_11126">
<rect width="128" height="128" fill="white"/>
</clipPath>
</defs>
</svg>
