<svg width="128" height="128" viewBox="0 0 128 128" fill="none" xmlns="http://www.w3.org/2000/svg">
<g clip-path="url(#clip0_97_11140)">
<path d="M64 128C99.3462 128 128 99.3465 128 64.0002C128 28.654 99.3462 0.000244141 64 0.000244141C28.6538 0.000244141 0 28.654 0 64.0002C0 99.3465 28.6538 128 64 128Z" fill="#F0F0F0"/>
<path d="M125.218 64.0003L127.457 55.6525C127.085 52.8073 126.527 50.0203 125.796 47.3048H58.435V0.243774C55.595 0.488274 52.8087 0.920524 50.0872 1.52402L38.9567 8.34802L33.3915 7.78627C30.4627 9.38427 27.6725 11.2043 25.0437 13.224V47.3045H2.20497C1.47322 50.02 0.915219 52.807 0.543219 55.6523L2.78272 64.0003L0.542969 72.348C0.914969 75.1933 1.47297 77.9803 2.20472 80.6958H25.0435V114.776C27.6722 116.796 30.4627 118.616 33.3912 120.214L41.739 119.652L50.0867 126.476C52.8085 127.08 55.5947 127.512 58.4345 127.757V80.696H125.795C126.527 77.9805 127.085 75.1935 127.457 72.3483L125.218 64.0003Z" fill="#0052B4"/>
<path d="M127.458 55.6525H50.0872H50.087V1.52148C44.1725 2.83298 38.5653 4.95873 33.3913 7.78198V55.6522H0.54175C0.186 58.385 0 61.171 0 64.0002C0 66.8295 0.186 69.6155 0.54175 72.348H33.391H33.3913V120.218C38.5653 123.041 44.1725 125.167 50.087 126.479V72.3487V72.3482H127.458C127.814 69.6155 128 66.8295 128 64.0002C128 61.171 127.814 58.385 127.458 55.6525Z" fill="#D80027"/>
</g>
<defs>
<clipPath id="clip0_97_11140">
<rect width="128" height="128" fill="white"/>
</clipPath>
</defs>
</svg>
