<svg width="128" height="128" viewBox="0 0 128 128" fill="none" xmlns="http://www.w3.org/2000/svg">
<g clip-path="url(#clip0_97_11144)">
<path d="M128 64.0002C128 99.3462 99.346 128 64 128C28.654 128 0 99.3462 0 64.0002C0 64.0155 64 0.00724414 64 0.000244141C99.346 0.000244141 128 28.6542 128 64.0002Z" fill="#338AF3"/>
<path d="M64.001 30.6091V52.1949L41.7402 30.6091H64.001Z" fill="#0052B4"/>
<path d="M33.3919 64.0004H52.1949L33.3919 38.9569L30.6094 58.4352L33.3919 64.0004Z" fill="#0052B4"/>
<path d="M63.8291 64.0004H64.0004C64.0004 63.9429 64.0004 63.8869 64.0004 63.8291C63.9434 63.8864 63.8864 63.9434 63.8291 64.0004Z" fill="#F0F0F0"/>
<path d="M64 33.3917C64 22.1305 64 14.7517 64 0.000488281H63.9893C28.648 0.00648828 0 28.6577 0 64.0005H33.3913V45.1977L52.1942 64.0005H63.8293C63.8862 63.9435 63.9433 63.8865 64.0005 63.8292C64.0005 59.5175 64.0005 55.6702 64.0005 52.195L45.197 33.3917H64Z" fill="#F0F0F0"/>
<path d="M32.3787 8.34802C22.3689 14.0478 14.0474 22.3693 8.34766 32.379V64.0003H25.0434V25.0443V25.0438H63.9999C63.9999 19.778 63.9999 14.7615 63.9999 8.34802H32.3787Z" fill="#D80027"/>
<path d="M64.0001 56.1299L41.2619 33.3916H33.3916V33.3921L63.9996 64.0001H64.0001C64.0001 64.0001 64.0001 58.5734 64.0001 56.1299Z" fill="#D80027"/>
<path d="M72.3477 41.7394V63.9999C72.3477 78.9099 91.8259 83.4784 91.8259 83.4784C91.8259 83.4784 111.304 78.9099 111.304 63.9999V41.7394L91.8259 36.1742L72.3477 41.7394Z" fill="#F3F3F3"/>
<path d="M111.304 41.7395V33.3917H72.3477V41.7395H89.0429V58.4355H72.3477V64.0002V64.0007L89.0429 64.001V82.6252C90.7224 83.2192 91.8259 83.4787 91.8259 83.4787C91.8259 83.4787 92.9289 83.2197 94.6082 82.6252V64.0007H111.304V64.0002V58.4352H94.6082V41.7392H111.304V41.7395Z" fill="#D80027"/>
</g>
<defs>
<clipPath id="clip0_97_11144">
<rect width="128" height="128" fill="white"/>
</clipPath>
</defs>
</svg>
