<svg width="128" height="128" viewBox="0 0 128 128" fill="none" xmlns="http://www.w3.org/2000/svg">
<g clip-path="url(#clip0_97_11158)">
<path d="M64 128C99.3462 128 128 99.3465 128 64.0002C128 28.654 99.3462 0.000244141 64 0.000244141C28.6538 0.000244141 0 28.654 0 64.0002C0 99.3465 28.6538 128 64 128Z" fill="#F0F0F0"/>
<path d="M127.458 55.6525H50.0872H50.087V1.52148C44.1725 2.83298 38.5653 4.95873 33.3913 7.78198V55.652V55.6522H0.54175C0.1855 58.385 0 61.171 0 64.0002C0 66.8295 0.1855 69.6155 0.54175 72.348H33.391H33.3913V120.218C38.5653 123.041 44.1725 125.167 50.087 126.479V72.3487V72.3482H127.458C127.814 69.6155 128 66.8295 128 64.0002C128 61.171 127.814 58.385 127.458 55.6525Z" fill="#0052B4"/>
</g>
<defs>
<clipPath id="clip0_97_11158">
<rect width="128" height="128" fill="white"/>
</clipPath>
</defs>
</svg>
