<svg width="128" height="128" viewBox="0 0 128 128" fill="none" xmlns="http://www.w3.org/2000/svg">
<g clip-path="url(#clip0_97_11161)">
<path d="M64 128C99.3462 128 128 99.3465 128 64.0002C128 28.654 99.3462 0.000244141 64 0.000244141C28.6538 0.000244141 0 28.654 0 64.0002C0 99.3465 28.6538 128 64 128Z" fill="#F0F0F0"/>
<path d="M128 64.0002C128 36.4825 110.632 13.0237 86.2607 3.98096V124.02C110.632 114.977 128 91.518 128 64.0002Z" fill="#D80027"/>
<path d="M0 64.0002C0 91.518 17.3682 114.977 41.7393 124.019V3.98096C17.3682 13.0237 0 36.4825 0 64.0002Z" fill="#0052B4"/>
</g>
<defs>
<clipPath id="clip0_97_11161">
<rect width="128" height="128" fill="white"/>
</clipPath>
</defs>
</svg>
