<svg width="128" height="128" viewBox="0 0 128 128" fill="none" xmlns="http://www.w3.org/2000/svg">
<g clip-path="url(#clip0_97_11165)">
<path d="M64 128C99.3462 128 128 99.3465 128 64.0002C128 28.654 99.3462 0.000244141 64 0.000244141C28.6538 0.000244141 0 28.654 0 64.0002C0 99.3465 28.6538 128 64 128Z" fill="#F0F0F0"/>
<path d="M7.78174 33.3917H120.218C109.363 13.4977 88.2587 0.000488281 64 0.000488281C39.7412 0.000488281 18.6365 13.4977 7.78174 33.3917Z" fill="#D80027"/>
<path d="M64 128C88.2587 128 109.363 114.503 120.218 94.6091H7.78174C18.6365 114.503 39.7412 128 64 128Z" fill="#D80027"/>
<path d="M86.2608 64.0003C86.2608 76.2948 76.2943 83.4785 64 83.4785C51.7058 83.4785 41.7393 76.2948 41.7393 64.0003C41.7393 51.7058 51.7058 41.7395 64 41.7395C76.2943 41.7395 86.2608 51.7058 86.2608 64.0003Z" fill="#FFDA44"/>
<path d="M86.2608 64.0002C86.2608 76.2947 76.2943 86.261 64 86.261C51.7058 86.261 41.7393 76.2947 41.7393 64.0002" fill="#0052B4"/>
<path d="M50.0869 58.4349H55.6522V69.5654H50.0869V58.4349Z" fill="#D80027"/>
<path d="M72.3477 58.4349H77.9129V69.5654H72.3477V58.4349Z" fill="#D80027"/>
<path d="M61.2178 50.0872H66.783V69.5654H61.2178V50.0872Z" fill="#D80027"/>
</g>
<defs>
<clipPath id="clip0_97_11165">
<rect width="128" height="128" fill="white"/>
</clipPath>
</defs>
</svg>
