<svg width="128" height="128" viewBox="0 0 128 128" fill="none" xmlns="http://www.w3.org/2000/svg">
<g clip-path="url(#clip0_97_11176)">
<path d="M124.019 86.2609C126.592 79.3279 128 71.8287 128 64.0002C128 56.1717 126.592 48.6729 124.019 41.7394L64 36.1742L3.98075 41.7394C1.40825 48.6729 0 56.1717 0 64.0002C0 71.8287 1.40825 79.3279 3.98075 86.2609L64 91.8262L124.019 86.2609Z" fill="#FFDA44"/>
<path d="M64 128C91.5175 128 114.976 110.632 124.019 86.261H3.98047C13.0235 110.632 36.482 128 64 128Z" fill="#0052B4"/>
<path d="M64 0.000244141C36.482 0.000244141 13.0235 17.3682 3.98047 41.7395H124.019C114.976 17.3682 91.5175 0.000244141 64 0.000244141Z" fill="#6DA544"/>
</g>
<defs>
<clipPath id="clip0_97_11176">
<rect width="128" height="128" fill="white"/>
</clipPath>
</defs>
</svg>
