<svg width="128" height="128" viewBox="0 0 128 128" fill="none" xmlns="http://www.w3.org/2000/svg">
<g clip-path="url(#clip0_97_11180)">
<path d="M128 64.0003C128 56.1718 126.592 48.6725 124.019 41.7395L64 38.9568L3.98075 41.7393C1.40825 48.6725 0 56.1718 0 64.0003C0 71.8288 1.40825 79.328 3.98075 86.261L64 89.0438L124.019 86.2613C126.592 79.328 128 71.8288 128 64.0003Z" fill="#F0F0F0"/>
<path d="M63.9997 128C91.5175 128 114.976 110.632 124.019 86.261H3.98047C13.0232 110.632 36.482 128 63.9997 128Z" fill="#0052B4"/>
<path d="M3.98047 41.7395H124.019C114.976 17.3682 91.5175 0.000244141 63.9997 0.000244141C36.482 0.000244141 13.0232 17.3682 3.98047 41.7395Z" fill="#6DA544"/>
</g>
<defs>
<clipPath id="clip0_97_11180">
<rect width="128" height="128" fill="white"/>
</clipPath>
</defs>
</svg>
