<svg width="128" height="128" viewBox="0 0 128 128" fill="none" xmlns="http://www.w3.org/2000/svg">
<g clip-path="url(#clip0_97_11184)">
<path d="M64 128C99.3462 128 128 99.346 128 63.9998C128 28.6535 99.3462 -0.000244141 64 -0.000244141C28.6538 -0.000244141 0 28.6535 0 63.9998C0 99.346 28.6538 128 64 128Z" fill="#F0F0F0"/>
<path d="M63.9999 -0.000244141C37.5412 -0.000244141 14.8342 16.0563 5.08691 38.9563H122.913C113.166 16.0563 90.4587 -0.000244141 63.9999 -0.000244141Z" fill="#A2001D"/>
<path d="M63.9999 128C90.4587 128 113.166 111.943 122.913 89.0432H5.08691C14.8342 111.943 37.5412 128 63.9999 128Z" fill="#496E2D"/>
<path d="M125.795 47.304H2.20475C0.77 52.6272 0 58.223 0 63.9997C0 69.7765 0.77 75.3722 2.20475 80.6955H125.796C127.23 75.3722 128 69.7765 128 63.9997C128 58.223 127.23 52.6272 125.795 47.304Z" fill="#0052B4"/>
</g>
<defs>
<clipPath id="clip0_97_11184">
<rect width="128" height="128" fill="white"/>
</clipPath>
</defs>
</svg>
