<svg width="128" height="128" viewBox="0 0 128 128" fill="none" xmlns="http://www.w3.org/2000/svg">
<g clip-path="url(#clip0_97_11189)">
<path d="M64 128C99.3462 128 128 99.3465 128 64.0002C128 28.654 99.3462 0.000244141 64 0.000244141C28.6538 0.000244141 0 28.654 0 64.0002C0 99.3465 28.6538 128 64 128Z" fill="#F0F0F0"/>
<path d="M127.458 55.6527H72.3483H72.348V0.542238C69.6152 0.186488 66.8292 0.000488281 64 0.000488281C61.1707 0.000488281 58.3848 0.186488 55.6522 0.542238V55.6522V55.6525H0.54175C0.186 58.3852 0 61.1712 0 64.0005C0 66.8302 0.186 69.6157 0.54175 72.3482H55.6517H55.652V127.459C58.3848 127.814 61.1707 128 64 128C66.8292 128 69.6152 127.815 72.3477 127.459V72.3487V72.3485H127.458C127.814 69.6157 128 66.8302 128 64.0005C128 61.1712 127.814 58.3852 127.458 55.6527Z" fill="#D80027"/>
<path d="M38.9565 30.6091V22.2611H30.6087V30.6091H22.2607V38.9569H30.6087V47.3046H38.9565V38.9569H47.3042V30.6091H38.9565Z" fill="#D80027"/>
<path d="M97.3913 30.6091V22.2611H89.0436V30.6091H80.6958V38.9569H89.0436V47.3046H97.3913V38.9569H105.739V30.6091H97.3913Z" fill="#D80027"/>
<path d="M38.9565 89.0439V80.6962H30.6087V89.0439H22.2607V97.3917H30.6087V105.74H38.9565V97.3917H47.3042V89.0439H38.9565Z" fill="#D80027"/>
<path d="M97.3913 89.0439V80.6962H89.0436V89.0439H80.6958V97.3917H89.0436V105.74H97.3913V97.3917H105.739V89.0439H97.3913Z" fill="#D80027"/>
</g>
<defs>
<clipPath id="clip0_97_11189">
<rect width="128" height="128" fill="white"/>
</clipPath>
</defs>
</svg>
