<svg width="128" height="128" viewBox="0 0 128 128" fill="none" xmlns="http://www.w3.org/2000/svg">
<g clip-path="url(#clip0_97_11197)">
<path d="M3.98096 86.2606C13.0237 110.632 36.4825 128 64.0002 128C91.518 128 114.977 110.632 124.019 86.2606L64.0002 80.6956L3.98096 86.2606Z" fill="#FFDA44"/>
<path d="M64.0002 -0.000244141C36.4825 -0.000244141 13.0237 17.3678 3.98096 41.739L64.0002 47.304L124.019 41.7388C114.977 17.3678 91.518 -0.000244141 64.0002 -0.000244141Z" fill="black"/>
<path d="M3.98075 41.739C1.40825 48.6723 0 56.1713 0 63.9998C0 71.8283 1.40825 79.3273 3.98075 86.2605H124.02C126.592 79.3273 128 71.8283 128 63.9998C128 56.1713 126.592 48.6723 124.019 41.739H3.98075Z" fill="#D80027"/>
</g>
<defs>
<clipPath id="clip0_97_11197">
<rect width="128" height="128" fill="white"/>
</clipPath>
</defs>
</svg>
