<svg width="128" height="128" viewBox="0 0 128 128" fill="none" xmlns="http://www.w3.org/2000/svg">
<g clip-path="url(#clip0_97_11201)">
<path d="M0 64.0002C0 71.8287 1.40825 79.3277 3.98075 86.2609L64 89.0437L124.019 86.2612C126.592 79.3277 128 71.8287 128 64.0002C128 56.1717 126.592 48.6727 124.019 41.7394L64 38.9567L3.98075 41.7392C1.40825 48.6727 0 56.1717 0 64.0002H0Z" fill="#FFDA44"/>
<path d="M63.9997 0.00012207C36.482 0.00012207 13.0232 17.3681 3.98047 41.7394H124.019C114.976 17.3681 91.5175 0.00012207 63.9997 0.00012207Z" fill="#D80027"/>
<path d="M124.019 86.2607H3.98047C13.0232 110.632 36.482 128 63.9997 128C91.5175 128 114.976 110.632 124.019 86.2607Z" fill="#496E2D"/>
<path d="M63.9998 41.7394L69.5247 58.7444H87.4068L72.941 69.2551L78.466 86.2609L63.9998 75.7509L49.5335 86.2609L55.0595 69.2551L40.5938 58.7444H58.4748L63.9998 41.7394Z" fill="black"/>
</g>
<defs>
<clipPath id="clip0_97_11201">
<rect width="128" height="128" fill="white"/>
</clipPath>
</defs>
</svg>
