<svg width="128" height="128" viewBox="0 0 128 128" fill="none" xmlns="http://www.w3.org/2000/svg">
<g clip-path="url(#clip0_97_11206)">
<path d="M64 128C99.3462 128 128 99.3465 128 64.0002C128 28.654 99.3462 0.000244141 64 0.000244141C28.6538 0.000244141 0 28.654 0 64.0002C0 99.3465 28.6538 128 64 128Z" fill="#F9F9F9"/>
<path d="M64 128C91.5175 128 114.976 110.632 124.019 86.261H3.98047C13.0235 110.632 36.482 128 64 128Z" fill="#D80027"/>
<path d="M89.0434 52.8697V44.5219H91.8259V38.9567H86.2606V41.7394H80.6956V38.9567H75.1304V44.5219H77.9129V52.8697H72.3476V33.3919H75.1304V27.8269H69.5651V30.6089H66.7824V27.8269H61.2174V30.6089H58.4346V27.8269H52.8694V33.3919H55.6521V52.8697H50.0869V44.5219H52.8694V38.9567H47.3041V41.7394H41.7391V38.9567H36.1739V44.5219H38.9564V52.8697H33.3911V75.1307H94.6086V52.8697H89.0434Z" fill="#D80027"/>
<path d="M63.9999 72.3477C59.3896 72.3477 55.6521 76.0852 55.6521 80.6954C55.6521 84.3294 57.9756 87.4204 61.2174 88.5664V100.174H52.8696V111.304H66.7826V88.5667C70.0244 87.4207 72.3479 84.3299 72.3479 80.6957C72.3476 76.0854 68.6101 72.3477 63.9999 72.3477ZM63.9999 83.4782C62.4631 83.4782 61.2174 82.2322 61.2174 80.6957C61.2174 79.1589 62.4631 77.9132 63.9999 77.9132C65.5366 77.9132 66.7824 79.1589 66.7824 80.6957C66.7824 82.2322 65.5366 83.4782 63.9999 83.4782Z" fill="#FFDA44"/>
</g>
<defs>
<clipPath id="clip0_97_11206">
<rect width="128" height="128" fill="white"/>
</clipPath>
</defs>
</svg>
