<svg width="128" height="128" viewBox="0 0 128 128" fill="none" xmlns="http://www.w3.org/2000/svg">
<g clip-path="url(#clip0_97_11212)">
<path d="M64 128C99.3462 128 128 99.3465 128 64.0002C128 28.654 99.3462 0.000244141 64 0.000244141C28.6538 0.000244141 0 28.654 0 64.0002C0 99.3465 28.6538 128 64 128Z" fill="#F0F0F0"/>
<path d="M64 47.3043H125.795C124.19 41.3508 121.751 35.7405 118.606 30.6085H64V47.3043Z" fill="#338AF3"/>
<path d="M24.1608 114.087H103.839C109.68 109.435 114.689 103.785 118.606 97.3916H9.39355C13.3113 103.785 18.3203 109.435 24.1608 114.087Z" fill="#338AF3"/>
<path d="M22.2608 15.485C17.2293 19.8177 12.8796 24.92 9.39355 30.609H22.2608V15.485Z" fill="#338AF3"/>
<path d="M64 64C64 57.481 64 52.0252 64 47.3042H38.9565V64H22.2607V47.3042H2.20475C0.77 52.6277 0 58.2232 0 64C0 69.7767 0.77 75.3722 2.20475 80.6957H125.796C127.23 75.3722 128 69.7767 128 64H64Z" fill="#338AF3"/>
<path d="M64 0.00012207C55.1128 0.00012207 46.649 1.81337 38.9565 5.08712V30.6089H64C64 24.7809 64 19.8241 64 13.9131H103.839C92.9065 5.20612 79.0623 0.00012207 64 0.00012207Z" fill="#338AF3"/>
</g>
<defs>
<clipPath id="clip0_97_11212">
<rect width="128" height="128" fill="white"/>
</clipPath>
</defs>
</svg>
