<svg width="128" height="128" viewBox="0 0 128 128" fill="none" xmlns="http://www.w3.org/2000/svg">
<g clip-path="url(#clip0_97_11220)">
<path d="M0 64.0002C0 28.6542 28.654 0.000244141 64 0.000244141C99.346 0.000244141 128 28.6542 128 64.0002C125.217 64.0002 64 72.348 64 72.348L0 64.0002Z" fill="#F0F0F0"/>
<path d="M128 64C128 99.346 99.346 128 64 128C28.654 128 0 99.346 0 64" fill="#D80027"/>
<path d="M44.5218 94.6092C61.4266 94.6092 75.1306 80.9052 75.1306 64.0005C75.1306 47.0957 61.4266 33.3917 44.5218 33.3917C27.6171 33.3917 13.9131 47.0957 13.9131 64.0005C13.9131 80.9052 27.6171 94.6092 44.5218 94.6092Z" fill="#F0F0F0"/>
<path d="M13.9131 64.0005C13.9131 47.0962 27.6171 33.3917 44.5218 33.3917C61.4268 33.3917 75.1306 47.096 75.1306 64.0005" fill="#D80027"/>
</g>
<defs>
<clipPath id="clip0_97_11220">
<rect width="128" height="128" fill="white"/>
</clipPath>
</defs>
</svg>
