<svg width="128" height="128" viewBox="0 0 128 128" fill="none" xmlns="http://www.w3.org/2000/svg">
<g clip-path="url(#clip0_97_11225)">
<path d="M64 128C99.3462 128 128 99.3465 128 64.0002C128 28.654 99.3462 0.000244141 64 0.000244141C28.6538 0.000244141 0 28.654 0 64.0002C0 99.3465 28.6538 128 64 128Z" fill="#FFDA44"/>
<path d="M27.9282 11.1306C38.1995 4.10912 50.619 0.00012207 64 0.00012207C77.381 0.00012207 89.8005 4.10912 100.072 11.1306L64 13.9131L27.9282 11.1306Z" fill="#A2001D"/>
<path d="M64.0001 64L59.9156 59.9155L58.8311 61.8583L64.0001 64Z" fill="#0052B4"/>
<path d="M18.7441 18.7455C-6.24935 43.739 -6.24935 84.2617 18.7441 109.255C29.0724 98.9272 39.0056 88.994 63.9991 64.0005L18.7441 18.7455Z" fill="#496E2D"/>
<path d="M109.254 18.7454C134.248 43.7389 134.248 84.2616 109.254 109.255C98.9258 98.9271 88.9925 88.9939 63.999 64.0004L109.254 18.7454Z" fill="#496E2D"/>
<path d="M64 86.2609C76.2943 86.2609 86.2608 76.2944 86.2608 64.0001C86.2608 51.7059 76.2943 41.7394 64 41.7394C51.7057 41.7394 41.7393 51.7059 41.7393 64.0001C41.7393 76.2944 51.7057 86.2609 64 86.2609Z" fill="#A2001D"/>
<path d="M63.9991 41.7395L68.9889 57.0968H85.1384L72.0739 66.59L77.0636 81.948L63.9991 72.4565L50.9341 81.948L55.9249 66.59L42.8604 57.0968H59.0089L63.9991 41.7395Z" fill="#FFDA44"/>
<path d="M63.999 0.000244141C63.9918 0.000244141 63.9848 0.000744141 63.9775 0.000744141H64.0203C64.0133 0.000744141 64.0063 0.000244141 63.999 0.000244141Z" fill="#FFDA44"/>
<path d="M64.0215 0.000366211H63.9788C46.3155 0.00611621 30.3253 7.16687 18.7485 18.7424H109.252C97.6748 7.16687 81.6845 0.00611621 64.0215 0.000366211Z" fill="#A2001D"/>
<path d="M18.749 109.259C30.3305 120.838 46.329 128 64.0003 128C81.6715 128 97.67 120.838 109.252 109.259H18.749Z" fill="#A2001D"/>
<path d="M64.0001 6.95679L65.0363 10.1453H68.3888L65.6766 12.116L66.7128 15.3045L64.0001 13.334L61.2878 15.3045L62.3241 12.116L59.6113 10.1453H62.9638L64.0001 6.95679Z" fill="#FFDA44"/>
<path d="M48.4805 6.95679L49.5168 10.1453H52.8693L50.157 12.116L51.1933 15.3045L48.4805 13.334L45.7685 15.3045L46.8045 12.116L44.0918 10.1453H47.4443L48.4805 6.95679Z" fill="#FFDA44"/>
<path d="M79.5196 6.95679L80.5559 10.1453H83.9084L81.1961 12.116L82.2324 15.3045L79.5196 13.334L76.8074 15.3045L77.8436 12.116L75.1309 10.1453H78.4834L79.5196 6.95679Z" fill="#FFDA44"/>
<path d="M64.0001 112.696L65.0363 115.885H68.3888L65.6766 117.855L66.7128 121.044L64.0001 119.073L61.2878 121.044L62.3241 117.855L59.6113 115.885H62.9638L64.0001 112.696Z" fill="#FFDA44"/>
<path d="M48.4805 112.696L49.5168 115.885H52.8693L50.157 117.855L51.1933 121.044L48.4805 119.073L45.7685 121.044L46.8045 117.855L44.0918 115.885H47.4443L48.4805 112.696Z" fill="#FFDA44"/>
<path d="M79.5196 112.696L80.5559 115.885H83.9084L81.1961 117.855L82.2324 121.044L79.5196 119.073L76.8074 121.044L77.8436 117.855L75.1309 115.885H78.4834L79.5196 112.696Z" fill="#FFDA44"/>
<path d="M19.5008 62.9434C21.1445 65.5406 20.372 68.9784 17.7748 70.6224C15.1778 72.2664 11.7398 71.4939 10.0958 68.8966C7.1195 64.1946 8.84525 56.5154 8.84525 56.5154C8.84525 56.5154 16.5243 58.2411 19.5008 62.9434Z" fill="#FFDA44"/>
<path d="M16.2864 71.0538C17.8231 71.0538 19.0689 69.808 19.0689 68.2713C19.0689 66.7345 17.8231 65.4888 16.2864 65.4888C14.7497 65.4888 13.5039 66.7345 13.5039 68.2713C13.5039 69.808 14.7497 71.0538 16.2864 71.0538Z" fill="#A2001D"/>
</g>
<defs>
<clipPath id="clip0_97_11225">
<rect width="128" height="128" fill="white"/>
</clipPath>
</defs>
</svg>
