<svg width="128" height="128" viewBox="0 0 128 128" fill="none" xmlns="http://www.w3.org/2000/svg">
<g clip-path="url(#clip0_97_11248)">
<path d="M27.9282 116.87C38.1992 123.891 50.6192 128 64 128C77.3807 128 89.8005 123.891 100.072 116.87L64 111.304L27.9282 116.87Z" fill="#D80027"/>
<path d="M100.072 11.1309C89.8005 4.10962 77.3807 0.000366211 64 0.000366211C50.6192 0.000366211 38.1992 4.10962 27.9282 11.1309L64 16.6961L100.072 11.1309Z" fill="#D80027"/>
<path d="M128 64.0005C128 42.823 115.321 21.5555 100.072 11.131H27.9282C11.0675 22.657 0 42.0355 0 64.0005C0 85.9662 11.0675 105.344 27.9282 116.87H100.072C116.933 105.344 128 85.9662 128 64.0005Z" fill="#0052B4"/>
<path d="M60.3783 104.4C59.5038 103.65 38.9565 85.7877 38.9565 64.0005C38.9565 42.2132 59.5035 24.351 60.3783 23.6012L64 20.4967L67.6218 23.601C68.4963 24.351 89.0435 42.213 89.0435 64.0005C89.0435 85.788 68.4965 103.65 67.6218 104.4L64 107.504L60.3783 104.4Z" fill="#D80027"/>
<path d="M83.478 64.0003C83.478 44.522 63.9997 27.8263 63.9997 27.8263C63.9997 27.8263 44.5215 44.5225 44.5215 64.0003C44.5215 69.959 46.3457 75.6563 48.8762 80.696H79.1232C81.6537 75.6563 83.478 69.959 83.478 64.0003Z" fill="#338AF3"/>
<path d="M83.478 64C83.478 69.9587 81.6537 75.656 79.1232 80.6957L63.9997 83.4782L48.8762 80.6957C46.3457 75.6562 44.5215 69.9587 44.5215 64H83.478Z" fill="#0052B4"/>
<path d="M64 100.174C64 100.174 73.382 92.1298 79.1235 80.6958H48.8765C54.618 92.1298 64 100.174 64 100.174Z" fill="#FFDA44"/>
<path d="M51.4785 52.8696H76.522L64.0003 65.3914L51.4785 52.8696Z" fill="#6DA544"/>
<path d="M59.8262 61.2178H68.1739V86.2613H59.8262V61.2178Z" fill="#A2001D"/>
</g>
<defs>
<clipPath id="clip0_97_11248">
<rect width="128" height="128" fill="white"/>
</clipPath>
</defs>
</svg>
