<svg width="128" height="128" viewBox="0 0 128 128" fill="none" xmlns="http://www.w3.org/2000/svg">
<g clip-path="url(#clip0_97_11259)">
<path d="M64 128C99.3462 128 128 99.3465 128 64.0002C128 28.654 99.3462 0.000244141 64 0.000244141C28.6538 0.000244141 0 28.654 0 64.0002C0 99.3465 28.6538 128 64 128Z" fill="#F0F0F0"/>
<path d="M128 64.0003C128 38.6268 113.234 16.7028 91.8262 6.35083V121.65C113.234 111.298 128 89.3736 128 64.0003Z" fill="#338AF3"/>
<path d="M0 64.0005C0 89.3737 14.7663 111.298 36.174 121.65V6.35095C14.7663 16.703 0 38.6269 0 64.0005Z" fill="#338AF3"/>
<path d="M80.7246 74.8223L69.9031 64.0008L80.2039 53.6996L79.7371 48.2591L76.7881 45.3096L64.0001 58.0976L51.2121 45.3096L48.2631 48.2591L47.7964 53.6996L58.0971 64.0008L47.2754 74.8223L53.1784 80.7248L64.0001 69.9036L74.8219 80.7248L80.7246 74.8223Z" fill="#ACABB1"/>
<path d="M79.7408 48.2593L73.838 54.162C76.3558 56.6798 77.9133 60.158 77.9133 64C77.9133 71.684 71.684 77.913 64.0003 77.913C56.3165 77.913 50.087 71.684 50.087 64C50.087 60.158 51.6445 56.6798 54.1623 54.162L48.2595 48.2593C44.2308 52.2873 41.7393 57.8525 41.7393 64C41.7393 76.2945 51.7058 86.2608 64 86.2608C76.2943 86.2608 86.2608 76.2943 86.2608 64C86.2608 57.8528 83.7693 52.2875 79.7408 48.2593Z" fill="#6DA544"/>
</g>
<defs>
<clipPath id="clip0_97_11259">
<rect width="128" height="128" fill="white"/>
</clipPath>
</defs>
</svg>
