<svg width="128" height="128" viewBox="0 0 128 128" fill="none" xmlns="http://www.w3.org/2000/svg">
<g clip-path="url(#clip0_97_11277)">
<path d="M86.2615 3.98112C79.328 1.40837 71.8288 0.00012207 64 0.00012207C56.1718 0.00012207 48.6728 1.40837 41.7398 3.98062L38.957 64.0001L41.7395 124.02C48.6728 126.592 56.1718 128 64 128C71.829 128 79.328 126.592 86.2615 124.019L89.044 64.0001L86.2615 3.98112Z" fill="#FFDA44"/>
<path d="M0 64.0001C0 91.5176 17.368 114.977 41.7393 124.019V3.98059C17.368 13.0236 0 36.4821 0 64.0001Z" fill="#D80027"/>
<path d="M128 64.0001C128 36.4821 110.632 13.0236 86.2607 3.98059V124.019C110.632 114.977 128 91.5176 128 64.0001Z" fill="#6DA544"/>
</g>
<defs>
<clipPath id="clip0_97_11277">
<rect width="128" height="128" fill="white"/>
</clipPath>
</defs>
</svg>
