<svg width="128" height="128" viewBox="0 0 128 128" fill="none" xmlns="http://www.w3.org/2000/svg">
<g clip-path="url(#clip0_97_11270)">
<path d="M64 0.00012207C58.2235 0.00012207 52.6275 0.770122 47.3043 2.20487L41.7393 64.0001L47.3045 125.795C52.6275 127.23 58.2235 128 64 128C99.346 128 128 99.3461 128 64.0001C128 28.6541 99.346 0.00012207 64 0.00012207Z" fill="#FFDA44"/>
<path d="M41.7393 64L47.3045 125.795C52.6275 127.23 58.2235 128 64 128C99.346 128 128 99.346 128 64H41.7393Z" fill="#6DA544"/>
<path d="M0 64.0002C0 88.259 13.4975 109.364 33.3913 120.218V7.78198C13.4975 18.6365 0 39.7415 0 64.0002Z" fill="#D80027"/>
<path d="M0 64.0006C0 93.5703 20.0552 118.452 47.3042 125.796V2.20532C20.0552 9.54932 0 34.4308 0 64.0006Z" fill="#D80027"/>
<path d="M24.1837 47.3042L28.3274 60.0582H41.7389L30.8894 67.9412L35.0329 80.6957L24.1837 72.813L13.3339 80.6957L17.4784 67.9412L6.62891 60.0582H20.0397L24.1837 47.3042Z" fill="black"/>
</g>
<defs>
<clipPath id="clip0_97_11270">
<rect width="128" height="128" fill="white"/>
</clipPath>
</defs>
</svg>
