<svg width="128" height="128" viewBox="0 0 128 128" fill="none" xmlns="http://www.w3.org/2000/svg">
<g clip-path="url(#clip0_97_11281)">
<path d="M64 128C99.3462 128 128 99.3465 128 64.0002C128 28.654 99.3462 0.000244141 64 0.000244141C28.6538 0.000244141 0 28.654 0 64.0002C0 99.3465 28.6538 128 64 128Z" fill="#F0F0F0"/>
<path d="M64.0002 0C52.685 0 42.058 2.9405 32.835 8.093V119.907C42.0582 125.059 52.685 128 64.0002 128C99.3462 128 128 99.346 128 64C128 28.654 99.3462 0 64.0002 0Z" fill="#6DA544"/>
<path d="M33.023 7.98779C28.9967 10.219 25.2372 12.871 21.8025 15.886C22.1497 15.5815 22.5005 15.2805 22.854 14.9835L71.8702 64L22.8537 113.017C22.5 112.72 22.1495 112.419 21.8022 112.114C25.237 115.129 28.9967 117.781 33.0227 120.012L128 64L33.023 7.98779Z" fill="#F0F0F0"/>
<path d="M27.6176 11.3457C25.6659 12.6972 23.7914 14.1515 22.0051 15.7057L64.0001 64.0002L22.0049 112.295C23.7911 113.849 25.6656 115.303 27.6174 116.655L117.045 64.0002L27.6176 11.3457Z" fill="#FFDA44"/>
<path d="M22.8539 14.9834C21.4311 16.1789 20.0581 17.4321 18.7451 18.7449L58.4349 63.9999L18.7451 109.255C20.0581 110.568 21.4309 111.821 22.8539 113.016L71.8704 63.9999L22.8539 14.9834Z" fill="black"/>
<path d="M18.7451 18.7451C-6.24837 43.7386 -6.24837 84.2614 18.7451 109.255C29.0734 98.9269 39.0066 88.9936 64.0001 64.0001L18.7451 18.7451Z" fill="#D80027"/>
</g>
<defs>
<clipPath id="clip0_97_11281">
<rect width="128" height="128" fill="white"/>
</clipPath>
</defs>
</svg>
