<svg width="128" height="128" viewBox="0 0 128 128" fill="none" xmlns="http://www.w3.org/2000/svg">
<g clip-path="url(#clip0_97_11288)">
<path d="M128 64.0002C128 99.3462 99.346 128 64 128C28.654 128 0 99.3462 0 64.0002C0 28.6542 64 0.000244141 64 0.000244141C64 0.000244141 128 28.6542 128 64.0002Z" fill="#A2001D"/>
<path d="M0 64.0002C0 28.6542 28.654 0.000244141 64 0.000244141C99.346 0.000244141 128 28.6542 128 64.0002" fill="#0052B4"/>
<path d="M86.2608 80.6957L64 77.913L41.7393 80.6957V47.3042H86.2608V80.6957Z" fill="#F0F0F0"/>
<path d="M63.9996 77.9133C70.1468 77.9133 75.1301 72.93 75.1301 66.7828C75.1301 60.6356 70.1468 55.6523 63.9996 55.6523C57.8524 55.6523 52.8691 60.6356 52.8691 66.7828C52.8691 72.93 57.8524 77.9133 63.9996 77.9133Z" fill="#0052B4"/>
<path d="M63.9998 72.3478C67.0734 72.3478 69.5651 69.8561 69.5651 66.7825C69.5651 63.7089 67.0734 61.2173 63.9998 61.2173C60.9262 61.2173 58.4346 63.7089 58.4346 66.7825C58.4346 69.8561 60.9262 72.3478 63.9998 72.3478Z" fill="#A2001D"/>
<path d="M55.6523 52.8696H72.3478L64.0001 61.2176L55.6523 52.8696Z" fill="#6DA544"/>
<path d="M61.2178 58.4351H66.783V75.1308H61.2178V58.4351Z" fill="#FFDA44"/>
<path d="M72.9043 73.4609H55.0953L41.7393 80.6959H86.2608L72.9043 73.4609Z" fill="#6DA544"/>
</g>
<defs>
<clipPath id="clip0_97_11288">
<rect width="128" height="128" fill="white"/>
</clipPath>
</defs>
</svg>
