<svg width="128" height="128" viewBox="0 0 128 128" fill="none" xmlns="http://www.w3.org/2000/svg">
<g clip-path="url(#clip0_97_11297)">
<path d="M64 128C99.3462 128 128 99.3465 128 64.0002C128 28.654 99.3462 0.000244141 64 0.000244141C28.6538 0.000244141 0 28.654 0 64.0002C0 99.3465 28.6538 128 64 128Z" fill="#F0F0F0"/>
<path d="M64.0003 128C80.2296 128 95.0451 121.956 106.327 112H21.6738C32.9556 121.956 47.7711 128 64.0003 128Z" fill="#D80027"/>
<path d="M2.01562 80.0004C3.47687 85.6769 5.69838 91.0479 8.56338 96.0004H119.435C122.3 91.0479 124.522 85.6769 125.983 80.0004L63.9994 75.1309L2.01562 80.0004Z" fill="#0052B4"/>
<path d="M125.983 48C124.522 42.3235 122.3 36.9525 119.435 32L63.9994 30.6087C63.9994 19.4305 63.9994 8.86625 63.9994 0C59.2452 0 54.6117 0.51875 50.1529 1.502C50.0674 1.521 8.34717 34.4295 8.34717 64C9.41392 64.1855 63.9994 69.5652 63.9994 69.5652C63.9994 69.5652 63.9994 57.375 63.9994 48H125.983Z" fill="#0052B4"/>
<path d="M64 39.9306V7.9306H43.7313L50.1555 1.50635C23.7827 7.32285 3.519 29.4039 0.4175 56.6959C0.145 59.0933 0 61.5296 0 64.0001H32.4175V51.2444L45.2995 64.0001H68.1957L43.731 39.9306H64Z" fill="#F0F0F0"/>
<path d="M64.0293 64.0003L39.9598 39.9308H32.4175V39.931L56.4868 64.0003H24.3477V32.0003H119.436C115.951 25.977 111.512 20.576 106.327 16.0003H24.3477V13.769C17.8908 18.8733 12.4427 25.1953 8.34775 32.3888V64.0003H0C0 69.525 0.7 74.8865 2.01625 80.0003H125.984C127.3 74.8863 128 69.525 128 64.0003H64.0293Z" fill="#D80027"/>
</g>
<defs>
<clipPath id="clip0_97_11297">
<rect width="128" height="128" fill="white"/>
</clipPath>
</defs>
</svg>
