<svg width="128" height="128" viewBox="0 0 128 128" fill="none" xmlns="http://www.w3.org/2000/svg">
<g clip-path="url(#clip0_97_11305)">
<path d="M64 128C99.3462 128 128 99.3465 128 64.0002C128 28.654 99.3462 0.000244141 64 0.000244141C28.6538 0.000244141 0 28.654 0 64.0002C0 99.3465 28.6538 128 64 128Z" fill="#F0F0F0"/>
<path d="M64.0001 128.001C89.3733 128.001 111.298 113.234 121.65 91.8267H6.35059C16.7026 113.234 38.6266 128.001 64.0001 128.001Z" fill="#338AF3"/>
<path d="M64.0001 0.000488281C38.6266 0.000488281 16.7026 14.7667 6.35059 36.1745H121.649C111.298 14.7667 89.3733 0.000488281 64.0001 0.000488281Z" fill="#338AF3"/>
<path d="M39.3864 41.7397L41.4584 48.117H48.1636L42.7391 52.058L44.8114 58.4352L39.3864 54.494L33.9614 58.4352L36.0336 52.058L30.6089 48.117H37.3141L39.3864 41.7397Z" fill="#338AF3"/>
<path d="M39.3864 69.5659L41.4584 75.9434H48.1636L42.7391 79.8844L44.8114 86.2614L39.3864 82.3202L33.9614 86.2614L36.0336 79.8844L30.6089 75.9434H37.3141L39.3864 69.5659Z" fill="#338AF3"/>
<path d="M88.6139 41.7397L90.6862 48.117H97.3914L91.9667 52.058L94.0389 58.4352L88.6139 54.494L83.1889 58.4352L85.2612 52.058L79.8364 48.117H86.5419L88.6139 41.7397Z" fill="#338AF3"/>
<path d="M88.6139 69.5659L90.6862 75.9434H97.3914L91.9667 79.8844L94.0389 86.2614L88.6139 82.3202L83.1889 86.2614L85.2612 79.8844L79.8364 75.9434H86.5419L88.6139 69.5659Z" fill="#338AF3"/>
<path d="M64.0002 55.6528L66.0724 62.0303H72.7777L67.3529 65.9713L69.4252 72.3483L64.0002 68.4071L58.5752 72.3483L60.6474 65.9713L55.2227 62.0303H61.9279L64.0002 55.6528Z" fill="#338AF3"/>
</g>
<defs>
<clipPath id="clip0_97_11305">
<rect width="128" height="128" fill="white"/>
</clipPath>
</defs>
</svg>
