<svg width="128" height="128" viewBox="0 0 128 128" fill="none" xmlns="http://www.w3.org/2000/svg">
<g clip-path="url(#clip0_97_11315)">
<path d="M64 128C99.3462 128 128 99.3465 128 64.0002C128 28.654 99.3462 0.000244141 64 0.000244141C28.6538 0.000244141 0 28.654 0 64.0002C0 99.3465 28.6538 128 64 128Z" fill="#D80027"/>
<path d="M70.6079 48.4172C69.1534 54.4669 66.5691 53.3132 65.3009 58.5892C57.8301 56.7929 53.2291 49.2804 55.0254 41.8092C56.8209 34.3384 64.3341 29.7374 71.8051 31.5337C69.2684 42.0854 71.9091 43.0064 70.6079 48.4172Z" fill="#F0F0F0"/>
<path d="M51.2224 52.8999C56.5266 56.1524 54.6306 58.2542 59.2561 61.0909C55.2391 67.6412 46.6729 69.6949 40.1224 65.6782C33.5721 61.6614 31.5179 53.0947 35.5349 46.5444C44.7864 52.2174 46.4776 49.9907 51.2224 52.8999Z" fill="#F0F0F0"/>
<path d="M49.495 72.7233C54.2278 68.6838 55.64 71.1363 59.7673 67.6138C64.756 73.458 64.062 82.24 58.218 87.2288C52.3735 92.2175 43.5915 91.5228 38.6035 85.679C46.857 78.6333 45.2618 76.336 49.495 72.7233Z" fill="#F0F0F0"/>
<path d="M67.8142 80.4911C65.4342 74.7418 68.2032 74.1558 66.1284 69.1426C73.2282 66.2043 81.3662 69.5778 84.3047 76.6776C87.2429 83.7773 83.8689 91.9151 76.7692 94.8536C72.6199 84.8263 69.9427 85.6336 67.8142 80.4911Z" fill="#F0F0F0"/>
<path d="M80.8634 65.4691C74.6601 65.9559 74.9579 63.1409 69.5491 63.5654C68.9484 55.9056 74.6719 49.2079 82.3321 48.6066C89.9921 48.0069 96.6896 53.7299 97.2901 61.3904C86.4709 62.2386 86.4111 65.0344 80.8634 65.4691Z" fill="#F0F0F0"/>
</g>
<defs>
<clipPath id="clip0_97_11315">
<rect width="128" height="128" fill="white"/>
</clipPath>
</defs>
</svg>
