<svg width="128" height="128" viewBox="0 0 128 128" fill="none" xmlns="http://www.w3.org/2000/svg">
<g clip-path="url(#clip0_97_11323)">
<path d="M3.98075 41.7396C1.40825 48.6731 0 56.1718 0 64.0003C0 71.8288 1.40825 79.3281 3.98075 86.2611L64 91.8263L124.019 86.2611C126.592 79.3281 128 71.8288 128 64.0003C128 56.1718 126.592 48.6731 124.019 41.7396L64 36.1743L3.98075 41.7396Z" fill="#F0F0F0"/>
<path d="M64 0C36.4825 0 13.0235 17.368 3.98096 41.7393H124.02C114.976 17.368 91.518 0 64 0Z" fill="#D80027"/>
<path d="M64 128C91.518 128 114.976 110.632 124.019 86.2607H3.98096C13.0235 110.632 36.4825 128 64 128Z" fill="#6DA544"/>
</g>
<defs>
<clipPath id="clip0_97_11323">
<rect width="128" height="128" fill="white"/>
</clipPath>
</defs>
</svg>
