<svg width="128" height="128" viewBox="0 0 128 128" fill="none" xmlns="http://www.w3.org/2000/svg">
<g clip-path="url(#clip0_97_11327)">
<path d="M64 128C99.3462 128 128 99.3465 128 64.0002C128 28.654 99.3462 0.000244141 64 0.000244141C28.6538 0.000244141 0 28.654 0 64.0002C0 99.3465 28.6538 128 64 128Z" fill="#F0F0F0"/>
<path d="M2.2041 80.6958C5.9071 94.4356 14.0684 106.344 25.0429 114.776V80.6958H2.2041Z" fill="#0052B4"/>
<path d="M58.4341 127.757C60.2686 127.915 62.1238 128 63.9993 128C93.5691 128 118.451 107.945 125.795 80.6958H58.4341V127.757Z" fill="#0052B4"/>
<path d="M125.795 47.3042C118.451 20.0552 93.5691 0 63.9993 0C62.1238 0 60.2686 0.0855 58.4341 0.2435V47.3042H125.795Z" fill="#0052B4"/>
<path d="M25.0429 13.2236C14.0684 21.6561 5.9071 33.5644 2.2041 47.3041H25.0429V13.2236Z" fill="#0052B4"/>
<path d="M127.458 55.6525H50.0872H50.087V1.52148C44.1725 2.83298 38.5653 4.95873 33.3913 7.78198V55.6522H0.54175C0.1855 58.385 0 61.171 0 64.0002C0 66.8295 0.1855 69.6155 0.54175 72.348H33.391H33.3913V120.218C38.5653 123.041 44.1725 125.167 50.087 126.479V72.3487V72.3482H127.458C127.814 69.6155 128 66.8295 128 64.0002C128 61.171 127.814 58.385 127.458 55.6525Z" fill="#D80027"/>
</g>
<defs>
<clipPath id="clip0_97_11327">
<rect width="128" height="128" fill="white"/>
</clipPath>
</defs>
</svg>
