<svg width="128" height="128" viewBox="0 0 128 128" fill="none" xmlns="http://www.w3.org/2000/svg">
<g clip-path="url(#clip0_97_11335)">
<path d="M64 128C99.3462 128 128 99.3465 128 64.0002C128 28.654 99.3462 0.000244141 64 0.000244141C28.6538 0.000244141 0 28.654 0 64.0002C0 99.3465 28.6538 128 64 128Z" fill="#F0F0F0"/>
<path d="M64.0001 0C38.6266 0 16.7026 14.7663 6.35059 36.174H121.649C111.298 14.7663 89.3733 0 64.0001 0Z" fill="#FF9811"/>
<path d="M64.0001 128C89.3733 128 111.298 113.234 121.65 91.8262H6.35059C16.7026 113.234 38.6266 128 64.0001 128Z" fill="#6DA544"/>
<path d="M64 86.2608C76.2943 86.2608 86.2608 76.2943 86.2608 64C86.2608 51.7057 76.2943 41.7393 64 41.7393C51.7057 41.7393 41.7393 51.7057 41.7393 64C41.7393 76.2943 51.7057 86.2608 64 86.2608Z" fill="#0052B4"/>
<path d="M63.9999 77.9129C71.6838 77.9129 77.9129 71.6838 77.9129 63.9999C77.9129 56.316 71.6838 50.0869 63.9999 50.0869C56.316 50.0869 50.0869 56.316 50.0869 63.9999C50.0869 71.6838 56.316 77.9129 63.9999 77.9129Z" fill="#F0F0F0"/>
<path d="M64.0001 46.8315L68.2923 56.566L78.8683 55.4158L72.5843 64L78.8683 72.5843L68.2923 71.434L64.0001 81.1685L59.7078 71.434L49.1318 72.584L55.4158 64L49.1318 55.4158L59.7078 56.566L64.0001 46.8315Z" fill="#0052B4"/>
</g>
<defs>
<clipPath id="clip0_97_11335">
<rect width="128" height="128" fill="white"/>
</clipPath>
</defs>
</svg>
