<svg width="128" height="128" viewBox="0 0 128 128" fill="none" xmlns="http://www.w3.org/2000/svg">
<g clip-path="url(#clip0_97_11345)">
<path d="M64 128C99.3462 128 128 99.3465 128 64.0002C128 28.654 99.3462 0.000244141 64 0.000244141C28.6538 0.000244141 0 28.654 0 64.0002C0 99.3465 28.6538 128 64 128Z" fill="#F0F0F0"/>
<path d="M84.7866 47.3044H76.4131C76.4824 48.2247 76.5216 49.1532 76.5216 50.0869C76.5216 56.2779 74.9741 62.2787 72.2764 66.5502C71.4441 67.8677 70.0456 69.7282 68.1736 70.9832V47.3042H59.8259V70.9832C57.9541 69.7282 56.5554 67.868 55.7231 66.5502C53.0251 62.2787 51.4779 56.2779 51.4779 50.0869C51.4779 49.1532 51.5174 48.2244 51.5864 47.3044H43.2129C43.1591 48.2202 43.1299 49.1477 43.1299 50.0869C43.1299 67.2509 52.2969 80.6957 63.9994 80.6957C75.7019 80.6957 84.8689 67.2509 84.8689 50.0869C84.8694 49.1477 84.8401 48.2202 84.7866 47.3044Z" fill="#D80027"/>
<path d="M26.4348 30.6087H34.7826V36.174H43.1303V30.6087H51.4781V36.174H59.8258V30.6087H68.1736V36.174H76.5213V30.6087H84.8691V36.174H93.2168V30.6087H101.565V36.174H121.649C111.298 14.7663 89.3733 0 64.0001 0C38.6268 0 16.7026 14.7663 6.35059 36.174H26.4348V30.6087Z" fill="#6DA544"/>
<path d="M101.565 91.8262V97.3914H93.2176V91.8262H84.8698V97.3914H76.5221V91.8262H68.1743V97.3914H59.8266V91.8262H51.4788V97.3914H43.1311V91.8262H34.7826V97.3914H26.4348V91.8262H6.35059C16.7026 113.234 38.6266 128 64.0001 128C89.3736 128 111.298 113.234 121.65 91.8262H101.565Z" fill="#D80027"/>
</g>
<defs>
<clipPath id="clip0_97_11345">
<rect width="128" height="128" fill="white"/>
</clipPath>
</defs>
</svg>
