<svg width="128" height="128" viewBox="0 0 128 128" fill="none" xmlns="http://www.w3.org/2000/svg">
<g clip-path="url(#clip0_97_11350)">
<path d="M64 128C99.3462 128 128 99.3465 128 64.0002C128 28.654 99.3462 0.000244141 64 0.000244141C28.6538 0.000244141 0 28.654 0 64.0002C0 99.3465 28.6538 128 64 128Z" fill="#F0F0F0"/>
<path d="M63.9997 0C36.482 0 13.0232 17.368 3.98047 41.7393H124.019C114.976 17.368 91.5175 0 63.9997 0Z" fill="#A2001D"/>
<path d="M63.9997 128C91.5175 128 114.976 110.632 124.019 86.2607H3.98047C13.0232 110.632 36.482 128 63.9997 128Z" fill="black"/>
<path d="M48.6957 59.8262C48.6607 59.8262 48.6265 59.8284 48.5915 59.8289V59.8262H36.3572C36.9775 57.4297 39.152 55.6522 41.7392 55.6522V47.3044C34.0675 47.3044 27.8262 53.5459 27.8262 61.2174V68.0349V68.1742H48.5915H48.6957C49.463 68.1742 50.087 68.7984 50.087 69.5654V72.3479H22.2607V80.6957H58.4347V69.5652C58.4347 64.1952 54.0657 59.8262 48.6957 59.8262Z" fill="#496E2D"/>
<path d="M69.5655 72.3477V47.3042H61.2178V80.6957H75.1308V72.3477H69.5655Z" fill="#496E2D"/>
<path d="M97.3913 72.3479V47.3042H89.0436V72.3479H86.2608V64.0002H77.9131V80.6959H102.957V72.3479H97.3913Z" fill="#496E2D"/>
</g>
<defs>
<clipPath id="clip0_97_11350">
<rect width="128" height="128" fill="white"/>
</clipPath>
</defs>
</svg>
