<svg width="128" height="128" viewBox="0 0 128 128" fill="none" xmlns="http://www.w3.org/2000/svg">
<g clip-path="url(#clip0_97_11362)">
<path d="M64 128C99.3462 128 128 99.3465 128 64.0002C128 28.654 99.3462 0.000244141 64 0.000244141C28.6538 0.000244141 0 28.654 0 64.0002C0 99.3465 28.6538 128 64 128Z" fill="#D80027"/>
<path d="M87.6971 42.903L83.1736 59.0458L69.6011 56.5395L60.8646 38.5308L37.2628 46.906L35.4016 41.661L29.2266 40.9003L33.8793 54.0125L50.1216 49.8588L54.7373 62.866L43.5093 79.4365L62.5636 95.688L58.9521 99.9223L61.3806 105.651L70.4101 95.0648L58.6916 83.0755L67.6483 72.5748L87.6128 74.0133L92.1601 49.3858L97.6328 50.3965L101.38 45.429L87.6971 42.903Z" fill="#F0F0F0"/>
</g>
<defs>
<clipPath id="clip0_97_11362">
<rect width="128" height="128" fill="white"/>
</clipPath>
</defs>
</svg>
