<svg width="128" height="128" viewBox="0 0 128 128" fill="none" xmlns="http://www.w3.org/2000/svg">
<g clip-path="url(#clip0_97_11365)">
<path d="M64 128C99.3462 128 128 99.3465 128 64.0002C128 28.654 99.3462 0.000244141 64 0.000244141C28.6538 0.000244141 0 28.654 0 64.0002C0 99.3465 28.6538 128 64 128Z" fill="#F0F0F0"/>
<path d="M88.0984 50.0878H72.0326L64.0001 36.1748L55.9679 50.0878H39.9019L47.9354 64.0008L39.9019 77.9138H55.9679L64.0001 91.8268L72.0326 77.9138H88.0984L80.0649 64.0008L88.0984 50.0878ZM73.8689 64.0008L68.9349 72.5478H59.0661L54.1314 64.0008L59.0659 55.4538H68.9346L73.8689 64.0008ZM64.0001 46.9066L65.8366 50.0876H62.1641L64.0001 46.9066ZM49.1966 55.4538H52.8696L51.0331 58.6348L49.1966 55.4538ZM49.1966 72.5478L51.0334 69.3668L52.8699 72.5478H49.1966ZM64.0001 81.0948L62.1639 77.9138H65.8366L64.0001 81.0948ZM78.8036 72.5478H75.1306L76.9674 69.3668L78.8036 72.5478ZM75.1306 55.4538H78.8036L76.9671 58.6348L75.1306 55.4538Z" fill="#0052B4"/>
<path d="M103.839 13.9136H24.1608C18.3201 18.5656 13.3111 24.2161 9.39355 30.6093H118.607C114.689 24.2163 109.68 18.5656 103.839 13.9136Z" fill="#0052B4"/>
<path d="M24.1608 114.088H103.839C109.68 109.436 114.689 103.785 118.606 97.3921H9.39355C13.3113 103.785 18.3203 109.436 24.1608 114.088Z" fill="#0052B4"/>
</g>
<defs>
<clipPath id="clip0_97_11365">
<rect width="128" height="128" fill="white"/>
</clipPath>
</defs>
</svg>
