<svg width="128" height="128" viewBox="0 0 128 128" fill="none" xmlns="http://www.w3.org/2000/svg">
<g clip-path="url(#clip0_97_11375)">
<path d="M64 128C71.8285 128 79.3278 126.592 86.2608 124.019L89.0435 64L86.261 3.98075C79.3278 1.40825 71.8285 0 64 0C56.1715 0 48.6723 1.40825 41.7393 3.98075L38.9565 64L41.739 124.019C48.6723 126.592 56.1715 128 64 128Z" fill="#F0F0F0"/>
<path d="M0 64.0002C0 91.518 17.368 114.977 41.7393 124.019V3.98096C17.368 13.0237 0 36.4825 0 64.0002Z" fill="#FF9811"/>
<path d="M86.2607 3.98096V124.02C110.632 114.977 128 91.518 128 64.0002C128 36.4825 110.632 13.0237 86.2607 3.98096Z" fill="#6DA544"/>
</g>
<defs>
<clipPath id="clip0_97_11375">
<rect width="128" height="128" fill="white"/>
</clipPath>
</defs>
</svg>
