<svg width="128" height="128" viewBox="0 0 128 128" fill="none" xmlns="http://www.w3.org/2000/svg">
<g clip-path="url(#clip0_97_11379)">
<path d="M64 128C99.3462 128 128 99.3465 128 64.0002C128 28.654 99.3462 0.000244141 64 0.000244141C28.6538 0.000244141 0 28.654 0 64.0002C0 99.3465 28.6538 128 64 128Z" fill="#FFDA44"/>
<path d="M102.964 13.23C92.1721 4.93475 78.6634 0 63.9999 0C49.3364 0 35.8274 4.935 25.0356 13.23L63.9999 52.194L102.964 13.23Z" fill="#6DA544"/>
<path d="M13.2297 25.0361C4.935 35.8279 0 49.3366 0 64.0001C0 78.6636 4.935 92.1726 13.23 102.965L52.1942 64.0001L13.2297 25.0361Z" fill="black"/>
<path d="M25.0356 114.77C35.8276 123.065 49.3364 128 63.9999 128C78.6634 128 92.1721 123.065 102.964 114.77L63.9999 75.8062L25.0356 114.77Z" fill="#6DA544"/>
<path d="M114.77 102.964C123.065 92.1724 128 78.6636 128 64.0001C128 49.3366 123.065 35.8279 114.77 25.0361L75.8057 64.0001L114.77 102.964Z" fill="black"/>
</g>
<defs>
<clipPath id="clip0_97_11379">
<rect width="128" height="128" fill="white"/>
</clipPath>
</defs>
</svg>
