<svg width="128" height="128" viewBox="0 0 128 128" fill="none" xmlns="http://www.w3.org/2000/svg">
<g clip-path="url(#clip0_97_11388)">
<path d="M64 128C99.3462 128 128 99.3465 128 64.0002C128 28.654 99.3462 0.000244141 64 0.000244141C28.6538 0.000244141 0 28.654 0 64.0002C0 99.3465 28.6538 128 64 128Z" fill="#F0F0F0"/>
<path d="M114.775 102.969L75.8058 64.0003H75.8056L114.775 25.0311C113.094 22.8471 111.255 20.7458 109.255 18.7451C107.254 16.7446 105.153 14.9058 102.969 13.2256L64.0003 52.1943L64.0001 52.1946L25.0313 13.2256C22.8476 14.9061 20.7461 16.7443 18.7453 18.7451C16.7446 20.7458 14.9061 22.8471 13.2258 25.0311L52.1946 63.9996L52.1948 63.9998L13.2256 102.969C14.9063 105.153 16.7448 107.254 18.7451 109.255C20.7458 111.256 22.8468 113.094 25.0311 114.775L64.0001 75.8058L64.0003 75.8056L102.969 114.774C105.153 113.094 107.254 111.255 109.255 109.255C111.256 107.254 113.094 105.153 114.775 102.969Z" fill="#D80027"/>
<path d="M52.8691 19.4784L63.9996 22.2609L75.1301 19.4784V10.0177L70.6779 12.2437L63.9996 5.56543L57.3214 12.2437L52.8691 10.0177V19.4784Z" fill="#FFDA44"/>
<path d="M52.8691 19.4785V26.4355C52.8691 34.9555 63.9996 37.566 63.9996 37.566C63.9996 37.566 75.1301 34.9553 75.1301 26.4355V19.4785H52.8691Z" fill="#D80027"/>
</g>
<defs>
<clipPath id="clip0_97_11388">
<rect width="128" height="128" fill="white"/>
</clipPath>
</defs>
</svg>
