<svg width="128" height="128" viewBox="0 0 128 128" fill="none" xmlns="http://www.w3.org/2000/svg">
<g clip-path="url(#clip0_97_11393)">
<path d="M64 128C99.3462 128 128 99.3465 128 64.0002C128 28.654 99.3462 0.000244141 64 0.000244141C28.6538 0.000244141 0 28.654 0 64.0002C0 99.3465 28.6538 128 64 128Z" fill="#F0F0F0"/>
<path d="M38.9563 41.7393H124.019C114.976 17.368 91.5173 0 63.9998 0C46.3263 0 30.3281 7.16475 18.7471 18.7472L38.9563 41.7393Z" fill="black"/>
<path d="M38.9563 86.2607H124.019C114.976 110.632 91.5173 128 63.9998 128C46.3263 128 30.3281 120.835 18.7471 109.253L38.9563 86.2607Z" fill="#6DA544"/>
<path d="M18.7451 18.7451C-6.24837 43.7386 -6.24837 84.2614 18.7451 109.255C29.0734 98.9269 39.0066 88.9936 64.0001 64.0001L18.7451 18.7451Z" fill="#D80027"/>
<path d="M25.4011 50.0869L28.9134 57.4317L36.8456 55.5984L33.2931 62.9237L39.6719 67.9822L31.7301 69.7719L31.7521 77.9129L25.4011 72.8197L19.0499 77.9129L19.0721 69.7719L11.1304 67.9822L17.5089 62.9237L13.9569 55.5984L21.8886 57.4317L25.4011 50.0869Z" fill="#F0F0F0"/>
</g>
<defs>
<clipPath id="clip0_97_11393">
<rect width="128" height="128" fill="white"/>
</clipPath>
</defs>
</svg>
