<svg width="128" height="128" viewBox="0 0 128 128" fill="none" xmlns="http://www.w3.org/2000/svg">
<g clip-path="url(#clip0_97_11399)">
<path d="M64 128C99.3462 128 128 99.3465 128 64.0002C128 28.654 99.3462 0.000244141 64 0.000244141C28.6538 0.000244141 0 28.654 0 64.0002C0 99.3465 28.6538 128 64 128Z" fill="#338AF3"/>
<path d="M100.174 64.6958H27.8262C27.8262 69.6906 32.1764 73.7393 37.1707 73.7393H36.8697C36.8697 78.7341 40.9184 82.7828 45.9132 82.7828C45.9132 87.7776 49.9619 91.8263 54.9567 91.8263H73.0437C78.0384 91.8263 82.0872 87.7776 82.0872 82.7828C87.0819 82.7828 91.1307 78.7341 91.1307 73.7393H90.8297C95.8234 73.7393 100.174 69.6906 100.174 64.6958Z" fill="#FFDA44"/>
<path d="M89.0435 52.8696C89.0435 66.7006 77.831 77.9131 64 77.9131C50.1688 77.9131 38.9565 66.7006 38.9565 52.8696" fill="#338AF3"/>
<path d="M83.1286 52.8696L75.3123 56.5464L79.4746 64.1164L70.9871 62.4926L69.9116 71.0666L63.9998 64.7603L58.0878 71.0666L57.0126 62.4926L48.5251 64.1159L52.6871 56.5461L44.8711 52.8696L52.6873 49.1931L48.5251 41.6234L57.0123 43.2469L58.0881 34.6729L63.9998 40.9791L69.9118 34.6729L70.9871 43.2469L79.4748 41.6234L75.3126 49.1934L83.1286 52.8696Z" fill="#FFDA44"/>
</g>
<defs>
<clipPath id="clip0_97_11399">
<rect width="128" height="128" fill="white"/>
</clipPath>
</defs>
</svg>
