<svg width="128" height="128" viewBox="0 0 128 128" fill="none" xmlns="http://www.w3.org/2000/svg">
<g clip-path="url(#clip0_97_11404)">
<path d="M64 128C99.3462 128 128 99.3465 128 64.0002C128 28.654 99.3462 0.000244141 64 0.000244141C28.6538 0.000244141 0 28.654 0 64.0002C0 99.3465 28.6538 128 64 128Z" fill="#F0F0F0"/>
<path d="M64.0001 0C38.6266 0 16.7026 14.7663 6.35059 36.174H121.649C111.298 14.7663 89.3733 0 64.0001 0Z" fill="black"/>
<path d="M64.0001 128C38.6266 128 16.7026 113.234 6.35059 91.8262H121.649C111.298 113.234 89.3733 128 64.0001 128Z" fill="#496E2D"/>
<path d="M124.978 44.522H3.02225C1.06175 50.6642 0 57.208 0 64.0002C0 70.7925 1.06175 77.3362 3.02225 83.4785H124.978C126.938 77.3362 128 70.7925 128 64.0002C128 57.208 126.938 50.6642 124.978 44.522Z" fill="#A2001D"/>
<path d="M83.9288 29.5754L76.3495 26.0771L64 54.0399L51.6505 26.0771L44.0713 29.5754L59.4033 64.0001L44.0713 98.4249L51.6505 101.923L64 73.9604L76.3495 101.923L83.9288 98.4249L68.5968 64.0001L83.9288 29.5754Z" fill="#F0F0F0"/>
<path d="M69.148 32.8724C66.214 29.6682 64.0003 27.8262 64.0003 27.8262C64.0003 27.8262 61.7865 29.6679 58.8525 32.8724V95.1274C61.7865 98.3322 64.0003 100.174 64.0003 100.174C64.0003 100.174 66.214 98.3324 69.148 95.1277V32.8724Z" fill="#F0F0F0"/>
<path d="M50.0869 44.8111V83.1891C53.1874 88.6829 56.9822 93.1858 59.8262 96.1713V31.8291C56.9822 34.8144 53.1872 39.3176 50.0869 44.8111Z" fill="#A2001D"/>
<path d="M77.9131 44.8111C74.8123 39.3173 71.0178 34.8144 68.1738 31.8291V96.1713C71.0176 93.1858 74.8123 88.6829 77.9131 83.1891V44.8111Z" fill="#A2001D"/>
<path d="M77.9131 44.811V83.189C81.0518 77.6268 83.4783 71.0495 83.4783 64.0003C83.4783 56.951 81.0518 50.3735 77.9131 44.811Z" fill="black"/>
<path d="M50.0867 44.811V83.189C46.948 77.6268 44.5215 71.0495 44.5215 64.0003C44.5215 56.951 46.948 50.3735 50.0867 44.811Z" fill="black"/>
</g>
<defs>
<clipPath id="clip0_97_11404">
<rect width="128" height="128" fill="white"/>
</clipPath>
</defs>
</svg>
