<svg width="128" height="128" viewBox="0 0 128 128" fill="none" xmlns="http://www.w3.org/2000/svg">
<g clip-path="url(#clip0_97_11417)">
<path d="M0 64.0002C0 28.6542 28.654 0.000244141 64 0.000244141C99.346 0.000244141 128 28.6542 128 64.0002" fill="#D80027"/>
<path d="M86.2608 59.5195L77.1645 63.7978L82.0085 72.6075L72.1313 70.7178L70.8798 80.6958L64 73.357L57.12 80.6958L55.8688 70.7178L45.9915 72.607L50.8353 63.7978L41.7393 59.5195L50.8353 55.2405L45.9915 46.4318L55.8685 48.3208L57.1203 38.3433L64 45.6815L70.88 38.3433L72.1313 48.3208L82.0088 46.4318L77.1653 55.2413L86.2608 59.5195Z" fill="#FFDA44"/>
<path d="M80.6957 20.8698H68.174C68.174 18.5651 66.305 16.6958 64 16.6958C61.695 16.6958 59.826 18.5648 59.826 20.8698H47.3042C47.3042 23.1748 49.3122 25.0438 51.6172 25.0438H51.478C51.478 27.3488 53.3465 29.2178 55.652 29.2178C55.652 31.5228 57.5205 33.3918 59.826 33.3918H68.1737C70.4785 33.3918 72.3477 31.5231 72.3477 29.2178C74.6524 29.2178 76.5217 27.3491 76.5217 25.0438H76.3825C78.6877 25.0438 80.6957 23.1751 80.6957 20.8698Z" fill="#FFDA44"/>
<path d="M128 64C128 99.346 99.346 128 64 128C28.654 128 0 99.346 0 64H128Z" fill="#F0F0F0"/>
<path d="M64.0007 128C84.0062 128 101.865 118.819 113.601 104.443C111.49 103.004 110.35 100.677 106.666 100.677C101.333 100.677 101.333 105.554 96.0002 105.554C90.6672 105.554 90.6669 100.677 85.3339 100.677C80.0007 100.677 80.0007 105.554 74.6672 105.554C69.3337 105.554 69.3334 100.677 63.9997 100.677C58.6664 100.677 58.6664 105.554 53.3334 105.554C48.0009 105.554 48.0009 100.677 42.6677 100.677C37.3339 100.677 37.3339 105.554 32.0002 105.554C26.6664 105.554 26.6664 100.677 21.3327 100.677C17.6492 100.677 16.5094 103.003 14.3994 104.442C26.1354 118.819 43.9949 128 64.0007 128Z" fill="#0052B4"/>
<path d="M117.333 72.1626C112 72.1626 112 67.2861 106.666 67.2861C101.333 67.2861 101.333 72.1626 96.0002 72.1626C90.6672 72.1626 90.667 67.2861 85.334 67.2861C80.0007 67.2861 80.0007 72.1626 74.6672 72.1626C69.3337 72.1626 69.3335 67.2861 63.9997 67.2861C58.6665 67.2861 58.6665 72.1626 53.3335 72.1626C48.001 72.1626 48.001 67.2861 42.6677 67.2861C37.334 67.2861 37.334 72.1626 32.0002 72.1626C26.6665 72.1626 26.6665 67.2861 21.3327 67.2861C16.0002 67.2861 16.0002 72.1626 10.667 72.1626C5.36248 72.1626 5.33173 67.3399 0.0839844 67.2884C0.231734 70.2159 0.581234 73.0899 1.10973 75.9004C5.36073 76.5251 5.73298 80.6959 10.6672 80.6959C16.0005 80.6959 16.0005 75.8199 21.333 75.8199C26.6667 75.8199 26.6667 80.6959 32.0005 80.6959C37.3342 80.6959 37.3342 75.8199 42.668 75.8199C48.0012 75.8199 48.0012 80.6959 53.3337 80.6959C58.667 80.6959 58.667 75.8199 64 75.8199C69.3337 75.8199 69.3337 80.6959 74.6675 80.6959C80.0012 80.6959 80.0012 75.8199 85.3342 75.8199C90.6675 75.8199 90.6675 80.6959 96.0005 80.6959C101.333 80.6959 101.334 75.8199 106.667 75.8199C112 75.8199 112 80.6959 117.333 80.6959C122.268 80.6959 122.64 76.5254 126.892 75.9006C127.42 73.0899 127.769 70.2161 127.918 67.2886C122.669 67.3404 122.638 72.1626 117.333 72.1626Z" fill="#0052B4"/>
<path d="M106.667 83.9819C101.333 83.9819 101.333 88.8584 96.0005 88.8584C90.6675 88.8584 90.6672 83.9819 85.3342 83.9819C80.001 83.9819 80.001 88.8584 74.6675 88.8584C69.3337 88.8584 69.3337 83.9819 64 83.9819C58.6667 83.9819 58.6667 88.8584 53.3337 88.8584C48.0012 88.8584 48.0012 83.9819 42.668 83.9819C37.3342 83.9819 37.3342 88.8584 32.0005 88.8584C26.6667 88.8584 26.6667 83.9819 21.333 83.9819C16.0005 83.9819 16.0005 88.8584 10.6672 88.8584C6.85647 88.8584 5.76797 86.3694 3.51172 84.9474C5.01372 89.2872 6.96772 93.4154 9.32097 97.2744C9.73022 97.3499 10.1757 97.3917 10.6672 97.3917C16.0005 97.3917 16.0005 92.5157 21.333 92.5157C26.6667 92.5157 26.6667 97.3917 32.0005 97.3917C37.3342 97.3917 37.3342 92.5157 42.668 92.5157C48.0012 92.5157 48.0012 97.3917 53.3337 97.3917C58.667 97.3917 58.667 92.5157 64 92.5157C69.3337 92.5157 69.3337 97.3917 74.6675 97.3917C80.0012 97.3917 80.0012 92.5157 85.3342 92.5157C90.6675 92.5157 90.6675 97.3917 96.0005 97.3917C101.333 97.3917 101.334 92.5157 106.667 92.5157C112 92.5157 112 97.3917 117.333 97.3917C117.825 97.3917 118.271 97.3499 118.68 97.2742C121.033 93.4154 122.987 89.2872 124.49 84.9477C122.233 86.3689 121.145 88.8584 117.333 88.8584C112 88.8584 112 83.9819 106.667 83.9819Z" fill="#0052B4"/>
<path d="M127.801 58.944C122.669 59.0652 122.598 63.815 117.332 63.815C111.999 63.815 111.999 58.9385 106.666 58.9385C101.332 58.9385 101.332 63.815 95.9995 63.815C90.6665 63.815 90.6663 58.9385 85.3333 58.9385C80 58.9385 80 63.815 74.6665 63.815C69.333 63.815 69.3327 58.9385 63.999 58.9385C58.6657 58.9385 58.6657 63.815 53.3327 63.815C48.0002 63.815 48.0003 58.9385 42.667 58.9385C37.3333 58.9385 37.3333 63.815 31.9995 63.815C26.6658 63.815 26.6658 58.9385 21.332 58.9385C15.9995 58.9385 15.9995 63.815 10.6663 63.815C5.4015 63.815 5.33025 59.0657 0.19825 58.944C0.068 60.6125 0 62.2985 0 64.0002C0 65.166 0.033 66.3242 0.09525 67.4745C5.331 67.5332 5.36575 72.348 10.6665 72.348C15.9998 72.348 15.9998 67.472 21.3323 67.472C26.666 67.472 26.666 72.348 31.9998 72.348C37.3335 72.348 37.3335 67.472 42.6673 67.472C48.0005 67.472 48.0005 72.348 53.333 72.348C58.6663 72.348 58.6662 67.472 63.9992 67.472C69.333 67.472 69.333 72.348 74.6667 72.348C80.0005 72.348 80.0005 67.472 85.3335 67.472C90.6668 67.472 90.6667 72.348 95.9997 72.348C101.333 72.348 101.333 67.472 106.666 67.472C112 67.472 112 72.348 117.333 72.348C122.634 72.348 122.669 67.5332 127.906 67.4745C127.967 66.324 128 65.166 128 64.0002C128 62.2985 127.932 60.6125 127.801 58.944Z" fill="#F0F0F0"/>
</g>
<defs>
<clipPath id="clip0_97_11417">
<rect width="128" height="128" fill="white"/>
</clipPath>
</defs>
</svg>
