<svg width="128" height="128" viewBox="0 0 128 128" fill="none" xmlns="http://www.w3.org/2000/svg">
<g clip-path="url(#clip0_97_11428)">
<path d="M64 128C99.3462 128 128 99.3465 128 64.0002C128 28.654 99.3462 0.000244141 64 0.000244141C28.6538 0.000244141 0 28.654 0 64.0002C0 99.3465 28.6538 128 64 128Z" fill="#0052B4"/>
<path d="M28.1122 38.9565L29.4937 43.2085H33.9637L30.3475 45.8358L31.7287 50.087L28.1122 47.4598L24.4955 50.087L25.8772 45.8358L22.2607 43.2085H26.7305L28.1122 38.9565Z" fill="#F0F0F0"/>
<path d="M42.0251 34.7832L43.4066 39.035H47.8766L44.2603 41.6622L45.6416 45.9135L42.0251 43.2862L38.4086 45.9135L39.7901 41.6622L36.1738 39.035H40.6438L42.0251 34.7832Z" fill="#F0F0F0"/>
<path d="M55.9382 30.6089L57.3197 34.8606H61.7897L58.1734 37.4881L59.5547 41.7394L55.9382 39.1119L52.3217 41.7394L53.7032 37.4881L50.0869 34.8606H54.5569L55.9382 30.6089Z" fill="#F0F0F0"/>
<path d="M99.8876 38.9565L98.5061 43.2085H94.0361L97.6526 45.8358L96.2711 50.087L99.8876 47.4598L103.504 50.087L102.123 45.8358L105.739 43.2085H101.269L99.8876 38.9565Z" fill="#F0F0F0"/>
<path d="M85.9745 34.7832L84.593 39.035H80.123L83.7395 41.6622L82.358 45.9135L85.9745 43.2862L89.591 45.9135L88.2095 41.6622L91.8258 39.035H87.3558L85.9745 34.7832Z" fill="#F0F0F0"/>
<path d="M72.0615 30.6089L70.68 34.8606H66.21L69.8262 37.4881L68.445 41.7394L72.0615 39.1119L75.678 41.7394L74.2965 37.4881L77.9127 34.8606H73.4427L72.0615 30.6089Z" fill="#F0F0F0"/>
<path d="M75.1302 66.7826L63.9997 52.8696L58.4345 55.6521V61.2174L50.0867 66.7826H44.5215V73.9724C52.6785 77.2754 58.4345 85.2676 58.4345 94.6089H63.9997V89.0436L69.565 83.4784L75.1302 89.0436L80.6955 83.4784V77.9131L86.2607 69.5654L75.1302 66.7826Z" fill="#FFDA44"/>
</g>
<defs>
<clipPath id="clip0_97_11428">
<rect width="128" height="128" fill="white"/>
</clipPath>
</defs>
</svg>
