<svg width="128" height="128" viewBox="0 0 128 128" fill="none" xmlns="http://www.w3.org/2000/svg">
<g clip-path="url(#clip0_97_11443)">
<path d="M64 128C99.3462 128 128 99.3465 128 64.0002C128 28.654 99.3462 0.000244141 64 0.000244141C28.6538 0.000244141 0 28.654 0 64.0002C0 99.3465 28.6538 128 64 128Z" fill="#D80027"/>
<path d="M95.2992 64.0001L82.5104 70.0156L89.3207 82.4023L75.4324 79.7451L73.6734 93.7741L63.9997 83.4566L54.3267 93.7741L52.5669 79.7451L38.6799 82.4018L45.4899 70.0151L32.7007 64.0001L45.4899 57.9848L38.6799 45.5978L52.5664 48.2553L54.3272 34.2261L63.9997 44.5438L73.6739 34.2261L75.4324 48.2553L89.3212 45.5978L82.5107 57.9856L95.2992 64.0001Z" fill="#FFDA44"/>
<path d="M63.9997 83.4785C74.7573 83.4785 83.478 74.7578 83.478 64.0002C83.478 53.2427 74.7573 44.522 63.9997 44.522C53.2422 44.522 44.5215 53.2427 44.5215 64.0002C44.5215 74.7578 53.2422 83.4785 63.9997 83.4785Z" fill="#D80027"/>
<path d="M54.2608 64C53.7916 64 53.3283 64.024 52.8711 64.0695C52.8878 66.7673 53.8638 69.2365 55.4758 71.1547C56.3358 68.8405 57.6198 66.7302 59.2391 64.9242C57.6926 64.3295 56.0148 64 54.2608 64Z" fill="#FFDA44"/>
<path d="M60.2563 74.4832C61.4263 74.9012 62.6861 75.1305 64.0001 75.1305C65.3141 75.1305 66.5739 74.9012 67.7439 74.4832C67.1061 71.9802 65.7893 69.7457 64.0001 67.9897C62.2108 69.7455 60.8941 71.9802 60.2563 74.4832Z" fill="#FFDA44"/>
<path d="M73.6388 58.4366C71.7143 55.1101 68.1201 52.8696 64.0001 52.8696C59.8801 52.8696 56.2858 55.1099 54.3613 58.4366C57.8698 58.4544 61.1598 59.4084 64.0001 61.0556C66.8403 59.4084 70.1298 58.4544 73.6388 58.4366Z" fill="#FFDA44"/>
<path d="M68.7607 64.9247C70.38 66.7305 71.664 68.8407 72.524 71.1552C74.136 69.237 75.112 66.7677 75.1287 64.07C74.6712 64.0242 74.208 64.0005 73.739 64.0005C71.9855 64.0002 70.3077 64.3297 68.7607 64.9247Z" fill="#FFDA44"/>
</g>
<defs>
<clipPath id="clip0_97_11443">
<rect width="128" height="128" fill="white"/>
</clipPath>
</defs>
</svg>
