<svg width="128" height="128" viewBox="0 0 128 128" fill="none" xmlns="http://www.w3.org/2000/svg">
<g clip-path="url(#clip0_97_11452)">
<path d="M121.65 36.1742C111.298 14.7665 89.3736 0.000244141 64.0001 0.000244141C38.6266 0.000244141 16.7026 14.7665 6.35059 36.1742L64.0001 41.7395L121.65 36.1742Z" fill="#D80027"/>
<path d="M6.35059 91.826C16.7026 113.234 38.6266 128 64.0001 128C89.3736 128 111.298 113.234 121.65 91.826L64.0001 86.2607L6.35059 91.826Z" fill="#D80027"/>
<path d="M121.649 36.1743H6.3505C2.282 44.5881 0 54.0276 0 64.0003C0 73.9731 2.282 83.4126 6.3505 91.8263H121.649C125.718 83.4126 128 73.9731 128 64.0003C128 54.0276 125.718 44.5881 121.649 36.1743Z" fill="#0052B4"/>
<path d="M64 86.2608C76.2943 86.2608 86.2608 76.2943 86.2608 64C86.2608 51.7057 76.2943 41.7393 64 41.7393C51.7057 41.7393 41.7393 51.7057 41.7393 64C41.7393 76.2943 51.7057 86.2608 64 86.2608Z" fill="#F0F0F0"/>
</g>
<defs>
<clipPath id="clip0_97_11452">
<rect width="128" height="128" fill="white"/>
</clipPath>
</defs>
</svg>
