<svg width="128" height="128" viewBox="0 0 128 128" fill="none" xmlns="http://www.w3.org/2000/svg">
<g clip-path="url(#clip0_97_11458)">
<path d="M64 128C99.3462 128 128 99.3465 128 64.0002C128 28.654 99.3462 0.000244141 64 0.000244141C28.6538 0.000244141 0 28.654 0 64.0002C0 99.3465 28.6538 128 64 128Z" fill="#F0F0F0"/>
<path d="M63.9998 0.000244141C34.4301 0.000244141 9.54859 20.0555 2.20459 47.3045H125.795C118.451 20.0555 93.5696 0.000244141 63.9998 0.000244141Z" fill="#A2001D"/>
<path d="M63.9998 128C93.5696 128 118.451 107.945 125.795 80.6958H2.20459C9.54859 107.945 34.4301 128 63.9998 128Z" fill="#A2001D"/>
</g>
<defs>
<clipPath id="clip0_97_11458">
<rect width="128" height="128" fill="white"/>
</clipPath>
</defs>
</svg>
