<svg width="128" height="128" viewBox="0 0 128 128" fill="none" xmlns="http://www.w3.org/2000/svg">
<g clip-path="url(#clip0_97_11463)">
<path d="M64 128C99.3462 128 128 99.3465 128 64.0002C128 28.654 99.3462 0.000244141 64 0.000244141C28.6538 0.000244141 0 28.654 0 64.0002C0 99.3465 28.6538 128 64 128Z" fill="#F0F0F0"/>
<path d="M64.0001 0.000244141C38.6266 0.000244141 16.7026 14.7665 6.35059 36.1742H121.649C111.298 14.7665 89.3733 0.000244141 64.0001 0.000244141Z" fill="#D80027"/>
<path d="M64.0001 128C89.3733 128 111.298 113.234 121.65 91.8262H6.35059C16.7026 113.234 38.6266 128 64.0001 128Z" fill="#D80027"/>
<path d="M80.6957 75.1307L64 44.522L47.3042 75.1307H59.826V83.4785H68.174V75.1307H80.6957Z" fill="#6DA544"/>
</g>
<defs>
<clipPath id="clip0_97_11463">
<rect width="128" height="128" fill="white"/>
</clipPath>
</defs>
</svg>
