<svg width="128" height="128" viewBox="0 0 128 128" fill="none" xmlns="http://www.w3.org/2000/svg">
<g clip-path="url(#clip0_97_11469)">
<path d="M0 64.0004C0 73.9729 2.28175 83.4123 6.3505 91.8263L64 94.6091L121.649 91.8266C125.718 83.4123 128 73.9729 128 64.0004C128 54.0279 125.718 44.5884 121.649 36.1744L64 33.3916L6.3505 36.1741C2.28175 44.5884 0 54.0279 0 64.0004H0Z" fill="#F0F0F0"/>
<path d="M64.0001 128C89.3733 128 111.298 113.234 121.65 91.8262H6.35059C16.7026 113.234 38.6266 128 64.0001 128Z" fill="#6DA544"/>
<path d="M64.0001 0C38.6266 0 16.7026 14.7663 6.35059 36.174H121.649C111.298 14.7663 89.3733 0 64.0001 0Z" fill="#0052B4"/>
<path d="M68.1739 62.6089V47.3047H59.8261V62.6089L49.7437 72.6917C52.6759 77.4917 57.9637 80.6959 64.0002 80.6959C70.0367 80.6959 75.3242 77.4917 78.2567 72.6917L68.1739 62.6089Z" fill="black"/>
</g>
<defs>
<clipPath id="clip0_97_11469">
<rect width="128" height="128" fill="white"/>
</clipPath>
</defs>
</svg>
