<svg width="128" height="128" viewBox="0 0 128 128" fill="none" xmlns="http://www.w3.org/2000/svg">
<g clip-path="url(#clip0_97_11474)">
<path d="M64 128C99.3462 128 128 99.3462 128 64C128 28.6538 99.3462 0 64 0C28.6538 0 0 28.6538 0 64C0 99.3462 28.6538 128 64 128Z" fill="#F0F0F0"/>
<path d="M14.6289 23.273H113.371C109.724 18.8567 105.494 14.9405 100.802 11.6367H27.1982C22.5059 14.94 18.2762 18.8565 14.6289 23.273Z" fill="#F0F0F0"/>
<path d="M0 64C0 65.9618 0.09325 67.9013 0.266 69.8183H127.734C127.907 67.9013 128 65.9618 128 64C128 62.0382 127.907 60.0987 127.734 58.182H0.266C0.09325 60.0987 0 62.0382 0 64H0Z" fill="#F0F0F0"/>
<path d="M6.97916 93.0908H121.021C122.906 89.4043 124.443 85.5115 125.59 81.4548H2.41016C3.55741 85.5115 5.09491 89.4045 6.97916 93.0908Z" fill="#F0F0F0"/>
<path d="M27.1982 116.364H100.801C105.494 113.06 109.724 109.144 113.371 104.728H14.6289C18.2762 109.143 22.5059 113.06 27.1982 116.364Z" fill="#F0F0F0"/>
<path d="M2.40967 46.5455H125.59C124.443 42.4885 122.905 38.5955 121.021 34.9092H6.97892C5.09467 38.5955 3.55717 42.4885 2.40967 46.5455Z" fill="#F0F0F0"/>
<path d="M30.6099 11.6362H100.803C90.3929 4.30675 77.7004 0 64.0011 0C55.6534 0 41.0199 4.30675 30.6099 11.6362Z" fill="#D80027"/>
<path d="M61.2188 34.9092H121.022C118.894 30.746 116.324 26.8463 113.372 23.273H61.2188V34.9092Z" fill="#D80027"/>
<path d="M61.2188 58.182H127.735C127.375 54.1865 126.652 50.2955 125.591 46.5457H61.2188V58.182Z" fill="#D80027"/>
<path d="M2.41109 81.4548H125.591C126.652 77.7052 127.375 73.814 127.735 69.8185H0.26709C0.62709 73.814 1.35059 77.705 2.41109 81.4548Z" fill="#D80027"/>
<path d="M14.63 104.727H113.372C116.323 101.153 118.894 97.2538 121.022 93.0908H6.97998C9.10823 97.254 11.6787 101.154 14.63 104.727Z" fill="#D80027"/>
<path d="M64.001 128C77.7002 128 90.3927 123.693 100.803 116.364H27.1992C37.6092 123.693 50.3017 128 64.001 128Z" fill="#D80027"/>
<path d="M2.40986 46.5455C1.34936 50.2955 0.626113 54.1863 0.266113 58.1818H64.0001V0C34.7051 0 10.0079 19.683 2.40986 46.5455Z" fill="#0052B4"/>
<path d="M38.0972 16.6957L42.241 29.4495H55.6525L44.803 37.3325L48.9465 50.087L38.0972 42.2045L27.2475 50.087L31.392 37.3325L20.5425 29.4495H33.9532L38.0972 16.6957Z" fill="#F0F0F0"/>
</g>
<defs>
<clipPath id="clip0_97_11474">
<rect width="128" height="128" fill="white"/>
</clipPath>
</defs>
</svg>
