<svg width="128" height="128" viewBox="0 0 128 128" fill="none" xmlns="http://www.w3.org/2000/svg">
<g clip-path="url(#clip0_97_11491)">
<path d="M6.3505 36.174C2.282 44.588 0 54.0273 0 64C0 73.9727 2.282 83.412 6.3505 91.826L64 97.3913L121.649 91.826C125.718 83.412 128 73.9727 128 64C128 54.0273 125.718 44.588 121.649 36.174L64 30.6087L6.3505 36.174Z" fill="black"/>
<path d="M6.35254 91.826C16.704 113.234 38.6263 128 63.9998 128C89.373 128 111.296 113.234 121.647 91.826H6.35254Z" fill="#496E2D"/>
<path d="M6.35254 36.174H121.647C111.296 14.7663 89.373 0 63.9998 0C38.6263 0 16.704 14.7663 6.35254 36.174Z" fill="#D80027"/>
<path d="M78.8975 52.2965L84.1485 59.5327L92.6527 56.7752L87.3932 64.0052L92.6437 71.2412L84.1427 68.4732L78.8832 75.7032L78.8887 66.763L70.3872 63.995L78.8917 61.2375L78.8975 52.2965Z" fill="#F0F0F0"/>
<path d="M64.5664 82.087C54.5774 82.087 46.4794 73.989 46.4794 64C46.4794 54.011 54.5774 45.913 64.5664 45.913C67.6809 45.913 70.6116 46.7005 73.1701 48.087C69.1561 44.1617 63.6671 41.739 57.6099 41.739C45.3154 41.739 35.3491 51.7055 35.3491 63.9997C35.3491 76.294 45.3156 86.2605 57.6099 86.2605C63.6674 86.2605 69.1564 83.8377 73.1701 79.9125C70.6114 81.2995 67.6811 82.087 64.5664 82.087Z" fill="#F0F0F0"/>
</g>
<defs>
<clipPath id="clip0_97_11491">
<rect width="128" height="128" fill="white"/>
</clipPath>
</defs>
</svg>
