<svg width="128" height="128" viewBox="0 0 128 128" fill="none" xmlns="http://www.w3.org/2000/svg">
<g clip-path="url(#clip0_97_11498)">
<path d="M128 64C128 99.346 99.346 128 64 128C28.654 128 0 99.346 0 64C2.7825 64 64 55.6522 64 55.6522L128 64Z" fill="#D80027"/>
<path d="M0 64C0 28.654 28.654 0 64 0C99.346 0 128 28.654 128 64" fill="#0052B4"/>
<path d="M47.3043 44.5218C47.3043 39.9115 43.5668 36.174 38.9566 36.174C36.8178 36.174 34.8686 36.979 33.3913 38.3013V33.3913H36.1738V27.826H33.3913V25.0435H27.8261V27.826H25.0436V33.3913H27.8261V38.3013C26.3488 36.979 24.3996 36.174 22.2608 36.174C17.6506 36.174 13.9131 39.9115 13.9131 44.5218C13.9131 46.9935 14.9883 49.2135 16.6956 50.7422V55.6522H44.5216V50.7422C46.2293 49.2135 47.3043 46.9935 47.3043 44.5218Z" fill="#FFDA44"/>
</g>
<defs>
<clipPath id="clip0_97_11498">
<rect width="128" height="128" fill="white"/>
</clipPath>
</defs>
</svg>
