<svg width="128" height="128" viewBox="0 0 128 128" fill="none" xmlns="http://www.w3.org/2000/svg">
<g clip-path="url(#clip0_97_11502)">
<path d="M124.019 86.2607C126.592 79.3278 128 71.8285 128 64C128 56.1715 126.592 48.6723 124.019 41.7393L64 36.174L3.98075 41.7393C1.408 48.6723 0 56.1715 0 64C0 71.8285 1.408 79.3278 3.98075 86.2607L64 91.826L124.019 86.2607Z" fill="#6DA544"/>
<path d="M124.019 41.7393C114.977 17.368 91.518 0 64.0002 0C36.4825 0 13.0237 17.368 3.98096 41.7393H124.019Z" fill="#FFDA44"/>
<path d="M64.0002 128C91.518 128 114.977 110.632 124.019 86.2607H3.98096C13.0237 110.632 36.4825 128 64.0002 128Z" fill="#D80027"/>
</g>
<defs>
<clipPath id="clip0_97_11502">
<rect width="128" height="128" fill="white"/>
</clipPath>
</defs>
</svg>
