<svg width="128" height="128" viewBox="0 0 128 128" fill="none" xmlns="http://www.w3.org/2000/svg">
<g clip-path="url(#clip0_97_11506)">
<path d="M64 128C99.3462 128 128 99.3462 128 64C128 28.6538 99.3462 0 64 0C28.6538 0 0 28.6538 0 64C0 99.3462 28.6538 128 64 128Z" fill="#F0F0F0"/>
<path d="M64.0002 0C36.4825 0 13.0237 17.368 3.98096 41.7393H124.02C114.977 17.368 91.518 0 64.0002 0Z" fill="#D80027"/>
<path d="M64.0002 128C91.518 128 114.977 110.632 124.019 86.2607H3.98096C13.0237 110.632 36.4825 128 64.0002 128Z" fill="#338AF3"/>
</g>
<defs>
<clipPath id="clip0_97_11506">
<rect width="128" height="128" fill="white"/>
</clipPath>
</defs>
</svg>
