<svg width="128" height="128" viewBox="0 0 128 128" fill="none" xmlns="http://www.w3.org/2000/svg">
<g clip-path="url(#clip0_97_11510)">
<path d="M64 128C99.3462 128 128 99.3462 128 64C128 28.6538 99.3462 0 64 0C28.6538 0 0 28.6538 0 64C0 99.3462 28.6538 128 64 128Z" fill="#496E2D"/>
<path d="M75.1305 61.3312C73.5595 61.3312 72.068 61.6445 70.683 62.143C71.4418 60.452 71.9505 58.5705 71.9505 56.5612C71.9505 48.611 64.0003 42.6483 64.0003 42.6483C64.0003 42.6483 56.05 48.611 56.05 56.5612C56.05 58.5702 56.5588 60.452 57.3175 62.143C55.9323 61.645 54.4408 61.3312 52.87 61.3312C44.9198 61.3312 38.957 69.2815 38.957 69.2815C38.957 69.2815 44.9198 77.232 52.87 77.232C57.5313 77.232 61.5068 74.5 64.0005 72.2385C66.4943 74.4998 70.4698 77.232 75.131 77.232C83.0813 77.232 89.044 69.2815 89.044 69.2815C89.044 69.2815 83.0808 61.3312 75.1305 61.3312Z" fill="#F0F0F0"/>
<path d="M64.0009 25.0436L65.6432 30.0976H70.9574L66.6587 33.2216L68.2997 38.2756L64.0009 35.1516L59.7022 38.2756L61.3432 33.2216L57.0444 30.0976H62.3587L64.0009 25.0436Z" fill="#FFDA44"/>
<path d="M43.7929 33.8833L46.9524 36.7278L50.6341 34.6023L48.9051 38.4861L52.0644 41.3311L47.8364 40.8866L46.1074 44.7703L45.2229 40.6121L40.9951 40.1676L44.6766 38.0416L43.7929 33.8833Z" fill="#FFDA44"/>
<path d="M28.9995 48.6768L33.158 49.5606L35.2838 45.8788L35.7283 50.1066L39.8863 50.9911L36.0028 52.7203L36.4473 56.9478L33.602 53.7891L29.7185 55.5181L31.8443 51.8361L28.9995 48.6768Z" fill="#FFDA44"/>
<path d="M84.2092 33.8833L81.05 36.7278L77.3682 34.6023L79.097 38.4861L75.938 41.3311L80.166 40.8866L81.895 44.7703L82.7795 40.6121L87.0072 40.1676L83.3257 38.0416L84.2092 33.8833Z" fill="#FFDA44"/>
<path d="M99.003 48.6768L94.8445 49.5606L92.719 45.8788L92.2742 50.1066L88.1162 50.9911L91.9997 52.7203L91.5552 56.9478L94.4005 53.7891L98.284 55.5181L96.1582 51.8361L99.003 48.6768Z" fill="#FFDA44"/>
<path d="M63.9989 99.493C70.3141 99.493 76.1351 97.386 80.8046 93.8408H47.1934C51.8629 97.3858 57.6836 99.493 63.9989 99.493Z" fill="#F0F0F0"/>
<path d="M38.4907 82.7973C39.374 84.8188 40.494 86.712 41.8095 88.4495H86.189C87.5045 86.7123 88.6245 84.8188 89.5077 82.7973H38.4907Z" fill="#F0F0F0"/>
</g>
<defs>
<clipPath id="clip0_97_11510">
<rect width="128" height="128" fill="white"/>
</clipPath>
</defs>
</svg>
