<svg width="128" height="128" viewBox="0 0 128 128" fill="none" xmlns="http://www.w3.org/2000/svg">
<g clip-path="url(#clip0_97_11522)">
<path d="M64 128C99.3462 128 128 99.3462 128 64C128 28.6538 99.3462 0 64 0C28.6538 0 0 28.6538 0 64C0 99.3462 28.6538 128 64 128Z" fill="#F0F0F0"/>
<path d="M41.7393 64V124.019C48.6723 126.592 56.1715 128 64 128C99.346 128 128 99.346 128 64C128 28.654 41.7393 64 41.7393 64Z" fill="#6DA544"/>
<path d="M64 0C56.1715 0 48.6723 1.40825 41.7393 3.98075V64H128C128 28.654 99.346 0 64 0Z" fill="#D80027"/>
</g>
<defs>
<clipPath id="clip0_97_11522">
<rect width="128" height="128" fill="white"/>
</clipPath>
</defs>
</svg>
