<svg width="128" height="128" viewBox="0 0 128 128" fill="none" xmlns="http://www.w3.org/2000/svg">
<g clip-path="url(#clip0_97_11526)">
<path d="M91.8266 6.3505C83.4126 2.282 73.9734 0 64.0006 0C54.0279 0 44.5886 2.282 36.1746 6.3505L30.6094 64L36.1746 121.649C44.5886 125.718 54.0279 128 64.0006 128C73.9734 128 83.4126 125.718 91.8266 121.649L97.3919 64L91.8266 6.3505Z" fill="#FFDA44"/>
<path d="M36.174 6.35275C14.7663 16.7045 0 38.6268 0 64C0 89.3732 14.7663 111.295 36.174 121.647V6.35275Z" fill="#0052B4"/>
<path d="M91.8262 6.35268V121.647C113.234 111.295 128 89.3732 128 63.9999C128 38.6267 113.234 16.7044 91.8262 6.35268Z" fill="#0052B4"/>
<path d="M82.087 69.5652L86.2608 75.1305V52.8695L82.087 58.4347H69.5653V45.913L75.1305 41.7393H52.8695L58.4348 45.913V58.4347H45.913L41.7393 52.8695V75.1305L45.913 69.5652H58.4348V82.087L52.8695 86.2607H75.1305L69.5653 82.087V69.5652H82.087Z" fill="#D80027"/>
<path d="M80.6962 61.2175H66.7829V47.3042H61.2179V61.2175H47.3047V66.7825H61.2179V80.6957H66.7829V66.7825H80.6962V61.2175Z" fill="#F0F0F0"/>
</g>
<defs>
<clipPath id="clip0_97_11526">
<rect width="128" height="128" fill="white"/>
</clipPath>
</defs>
</svg>
