<svg width="128" height="128" viewBox="0 0 128 128" fill="none" xmlns="http://www.w3.org/2000/svg">
<g clip-path="url(#clip0_97_11538)">
<path d="M64 128C99.3462 128 128 99.3462 128 64C128 28.6538 99.3462 0 64 0C28.6538 0 0 28.6538 0 64C0 99.3462 28.6538 128 64 128Z" fill="#F0F0F0"/>
<path d="M61.2158 64.0001H127.998C127.998 58.2233 127.228 52.6278 125.794 47.3043H61.2158V64.0001Z" fill="#D80027"/>
<path d="M61.2158 30.6088H118.605C114.687 24.2158 109.678 18.5651 103.838 13.9131H61.2158V30.6088Z" fill="#D80027"/>
<path d="M63.9984 128C79.0607 128 92.9049 122.794 103.838 114.087H24.1592C35.0919 122.794 48.9362 128 63.9984 128Z" fill="#D80027"/>
<path d="M9.39188 97.3913H118.605C121.75 92.2593 124.189 86.6491 125.794 80.6956H2.20312C3.80737 86.6491 6.24662 92.2593 9.39188 97.3913Z" fill="#D80027"/>
<path d="M64 64C64 28.654 64 24.487 64 0C28.654 0 0 28.654 0 64H64Z" fill="#0052B4"/>
<path d="M42.5584 54.7825C33.8179 54.7825 26.7324 47.6968 26.7324 38.9565C26.7324 30.2163 33.8182 23.1305 42.5584 23.1305C45.2837 23.1305 47.8479 23.8197 50.0867 25.0327C46.5747 21.5985 41.7717 19.4785 36.4714 19.4785C25.7142 19.4785 16.9932 28.1992 16.9932 38.9567C16.9932 49.7142 25.7142 58.435 36.4714 58.435C41.7717 58.435 46.5747 56.315 50.0867 52.8807C47.8479 54.0933 45.2839 54.7825 42.5584 54.7825Z" fill="#FFDA44"/>
<path d="M47.0186 27.826L49.8283 33.7015L56.1736 32.2355L53.3321 38.0952L58.4351 42.142L52.0816 43.5742L52.0993 50.087L47.0186 46.0125L41.9376 50.087L41.9551 43.5742L35.6016 42.142L40.7046 38.0952L37.8628 32.2355L44.2086 33.7015L47.0186 27.826Z" fill="#FFDA44"/>
</g>
<defs>
<clipPath id="clip0_97_11538">
<rect width="128" height="128" fill="white"/>
</clipPath>
</defs>
</svg>
