<svg width="128" height="128" viewBox="0 0 128 128" fill="none" xmlns="http://www.w3.org/2000/svg">
<g clip-path="url(#clip0_97_11533)">
<path d="M0 64C0 71.8285 1.40825 79.3275 3.98075 86.2607L64 89.0435L124.019 86.261C126.592 79.3275 128 71.8285 128 64C128 56.1715 126.592 48.6725 124.019 41.7393L64 38.9565L3.98075 41.739C1.40825 48.6725 0 56.1715 0 64H0Z" fill="#D80027"/>
<path d="M63.9997 0C36.482 0 13.0232 17.368 3.98047 41.7393H124.019C114.976 17.368 91.5175 0 63.9997 0Z" fill="black"/>
<path d="M124.019 86.2607H3.98047C13.0232 110.632 36.482 128 63.9997 128C91.5175 128 114.976 110.632 124.019 86.2607Z" fill="#496E2D"/>
<path d="M83.1286 30.6087L75.3126 26.9323L79.4748 19.3625L70.9873 20.9863L69.9118 12.4118L63.9998 18.718L58.0881 12.4118L57.0123 20.9863L48.5251 19.3625L52.6873 26.9323L44.8711 30.6087H83.1286Z" fill="#D80027"/>
</g>
<defs>
<clipPath id="clip0_97_11533">
<rect width="128" height="128" fill="white"/>
</clipPath>
</defs>
</svg>
