<svg width="128" height="128" viewBox="0 0 128 128" fill="none" xmlns="http://www.w3.org/2000/svg">
<g clip-path="url(#clip0_97_11549)">
<path d="M64 128C99.3462 128 128 99.3462 128 64C128 28.6538 99.3462 0 64 0C28.6538 0 0 28.6538 0 64C0 99.3462 28.6538 128 64 128Z" fill="#D80027"/>
<path d="M22.2607 33.3912H105.739V94.6087H22.2607V33.3912Z" fill="#6DA544"/>
<path d="M74.3066 82.087C64.3176 82.087 56.2196 73.989 56.2196 64C56.2196 54.011 64.3176 45.913 74.3066 45.913C77.4211 45.913 80.3519 46.7005 82.9104 48.087C78.8966 44.1618 73.4079 41.739 67.3501 41.739C55.0561 41.739 45.0894 51.7055 45.0894 63.9998C45.0894 76.294 55.0561 86.2605 67.3501 86.2605C73.4079 86.2605 78.8969 83.8378 82.9104 79.9125C80.3519 81.2995 77.4211 82.087 74.3066 82.087Z" fill="#F0F0F0"/>
</g>
<defs>
<clipPath id="clip0_97_11549">
<rect width="128" height="128" fill="white"/>
</clipPath>
</defs>
</svg>
