<svg width="128" height="128" viewBox="0 0 128 128" fill="none" xmlns="http://www.w3.org/2000/svg">
<g clip-path="url(#clip0_97_11553)">
<path d="M86.2606 3.98075C79.3273 1.40825 71.8283 0 63.9998 0C56.1713 0 48.6723 1.40825 41.7391 3.98075L36.1738 64L41.7391 124.019C48.6723 126.592 56.1713 128 63.9998 128C71.8283 128 79.3273 126.592 86.2606 124.019L91.8258 64L86.2606 3.98075Z" fill="#FFDA44"/>
<path d="M128 64C128 36.4825 110.632 13.0235 86.2607 3.981V124.02C110.632 114.977 128 91.518 128 64Z" fill="#D80027"/>
<path d="M0 64C0 91.518 17.368 114.977 41.7393 124.02V3.981C17.368 13.0235 0 36.4825 0 64Z" fill="#6DA544"/>
</g>
<defs>
<clipPath id="clip0_97_11553">
<rect width="128" height="128" fill="white"/>
</clipPath>
</defs>
</svg>
