<svg width="128" height="128" viewBox="0 0 128 128" fill="none" xmlns="http://www.w3.org/2000/svg">
<g clip-path="url(#clip0_97_11561)">
<path d="M64 128C99.346 128 128 99.346 128 64C128 53.2593 125.35 43.1385 120.674 34.25L63.9248 64.075L93.75 7.3255C84.8615 2.65 74.7408 0 64 0C28.654 0 0 28.654 0 64C0 81.6732 7.1635 97.6732 18.745 109.255C30.3268 120.837 46.3268 128 64 128Z" fill="#0052B4"/>
<path d="M120.607 34.3197C117.678 28.7437 113.869 23.5085 109.18 18.82C104.492 14.1315 99.2572 10.3227 93.6807 7.39349L18.6704 109.33L120.607 34.3197Z" fill="#F0F0F0"/>
<path d="M18.6704 109.33L120.607 34.3198C117.678 28.7438 113.869 23.5085 109.18 18.82L18.6704 109.33Z" fill="#FF9811"/>
<path d="M55.5768 37.5305L47.7608 41.207L51.9231 48.777L43.4356 47.1532L42.3601 55.7272L36.4481 49.421L30.5361 55.7272L29.4611 47.1532L20.9736 48.7765L25.1353 41.2067L17.3193 37.5305L25.1356 33.8537L20.9736 26.2842L29.4606 27.9075L30.5363 19.3335L36.4481 25.6397L42.3601 19.3335L43.4356 27.9075L51.9233 26.2842L47.7611 33.854L55.5768 37.5305Z" fill="#F0F0F0"/>
</g>
<defs>
<clipPath id="clip0_97_11561">
<rect width="128" height="128" fill="white"/>
</clipPath>
</defs>
</svg>
