<svg width="128" height="128" viewBox="0 0 128 128" fill="none" xmlns="http://www.w3.org/2000/svg">
<g clip-path="url(#clip0_97_11566)">
<path d="M64 128C99.3462 128 128 99.3462 128 64C128 28.6538 99.3462 0 64 0C28.6538 0 0 28.6538 0 64C0 99.3462 28.6538 128 64 128Z" fill="#F0F0F0"/>
<path d="M127.45 55.6521C125.685 42.1556 119.622 29.1141 109.254 18.7453C98.8849 8.37656 85.8432 2.31381 72.3467 0.548309L72.3469 55.6521H127.45Z" fill="#0052B4"/>
<path d="M55.6511 0.548309C42.1546 2.31381 29.1129 8.37631 18.7441 18.7451C8.37561 29.1141 2.31286 42.1558 0.547363 55.6526L55.6514 55.6523L55.6511 0.548309Z" fill="#0052B4"/>
<path d="M0.547363 72.3481C2.31286 85.8446 8.37561 98.8866 18.7441 109.255C29.1129 119.624 42.1544 125.686 55.6514 127.452L55.6511 72.3486L0.547363 72.3481Z" fill="#0052B4"/>
<path d="M72.3472 127.452C85.8437 125.686 98.8852 119.624 109.254 109.255C119.623 98.8861 125.685 85.8446 127.451 72.3481H72.3472V127.452Z" fill="#0052B4"/>
<path d="M85.8473 40.6094C85.8473 39.7584 86.5391 39.0666 87.3903 39.0666H90.6963C95.9223 39.0666 100.174 34.8151 100.174 29.5894C100.174 24.3636 95.9226 20.1119 90.6963 20.1119H87.5568C86.5321 19.3421 85.1573 18.8674 83.6408 18.8674C80.4776 18.8674 77.9133 20.9186 77.9133 23.4491C77.9133 25.9551 80.4286 27.9881 83.5496 28.0276L83.5481 28.0459H90.6963C91.5476 28.0459 92.2393 28.7379 92.2393 29.5889C92.2393 30.4399 91.5476 31.1316 90.6963 31.1316H87.3903C82.1643 31.1316 77.9131 35.3831 77.9131 40.6089C77.9131 45.8346 82.1641 50.0864 87.3903 50.0864H100.174V42.1519H87.3903C86.5391 42.1521 85.8473 41.4604 85.8473 40.6094Z" fill="#F0F0F0"/>
<path d="M35.7607 40.6094C35.7607 39.7584 36.4524 39.0667 37.3037 39.0667H40.6097C45.8357 39.0667 50.0874 34.8152 50.0874 29.5894C50.0874 24.3637 45.8359 20.1119 40.6097 20.1119H37.4702C36.4454 19.3422 35.0707 18.8674 33.5542 18.8674C30.3909 18.8674 27.8267 20.9187 27.8267 23.4492C27.8267 25.9552 30.3419 27.9882 33.4629 28.0277L33.4614 28.0459H40.6099C41.4612 28.0459 42.1529 28.7379 42.1529 29.5889C42.1529 30.4399 41.4612 31.1317 40.6099 31.1317H37.3039C32.0779 31.1317 27.8267 35.3832 27.8267 40.6089C27.8267 45.8347 32.0777 50.0864 37.3039 50.0864H50.0872V42.1519H37.3037C36.4524 42.1522 35.7607 41.4604 35.7607 40.6094Z" fill="#F0F0F0"/>
<path d="M85.8471 99.6549C85.8471 98.8039 86.5388 98.1121 87.3901 98.1121H90.6961C95.9221 98.1121 100.174 93.8606 100.174 88.6349C100.174 83.4091 95.9223 79.1574 90.6961 79.1574H87.5566C86.5318 78.3876 85.1571 77.9129 83.6406 77.9129C80.4771 77.9129 77.9128 79.9644 77.9128 82.4946C77.9128 85.0006 80.4281 87.0336 83.5491 87.0731L83.5476 87.0914H90.6958C91.5471 87.0914 92.2388 87.7834 92.2388 88.6344C92.2388 89.4854 91.5471 90.1771 90.6958 90.1771H87.3898C82.1638 90.1771 77.9126 94.4286 77.9126 99.6544C77.9126 104.88 82.1636 109.132 87.3898 109.132H100.174V101.198H87.3901C86.5388 101.198 85.8471 100.506 85.8471 99.6549Z" fill="#F0F0F0"/>
<path d="M35.7604 99.6549C35.7604 98.8039 36.4522 98.1121 37.3034 98.1121H40.6094C45.8354 98.1121 50.0872 93.8606 50.0872 88.6349C50.0872 83.4091 45.8357 79.1574 40.6094 79.1574H37.4699C36.4452 78.3876 35.0704 77.9129 33.5539 77.9129C30.3904 77.9129 27.8262 79.9644 27.8262 82.4946C27.8262 85.0006 30.3414 87.0336 33.4624 87.0731L33.4609 87.0914H40.6094C41.4607 87.0914 42.1524 87.7834 42.1524 88.6344C42.1524 89.4854 41.4607 90.1771 40.6094 90.1771H37.3034C32.0774 90.1771 27.8262 94.4286 27.8262 99.6544C27.8262 104.88 32.0772 109.132 37.3034 109.132H50.0869V101.198H37.3034C36.4522 101.198 35.7604 100.506 35.7604 99.6549Z" fill="#F0F0F0"/>
</g>
<defs>
<clipPath id="clip0_97_11566">
<rect width="128" height="128" fill="white"/>
</clipPath>
</defs>
</svg>
