<svg width="128" height="128" viewBox="0 0 128 128" fill="none" xmlns="http://www.w3.org/2000/svg">
<g clip-path="url(#clip0_97_11583)">
<path d="M7.78125 33.3913L63.9995 38.9565L120.218 33.3913C109.363 13.4973 88.2583 0 63.9995 0C39.7407 0 18.636 13.4973 7.78125 33.3913Z" fill="#D80027"/>
<path d="M7.78175 94.6088L64 100.174L120.218 94.6088C125.179 85.516 128 75.0875 128 64L64 58.4348L0 64C0 75.0875 2.82075 85.516 7.78175 94.6088Z" fill="#FFDA44"/>
<path d="M7.78175 33.3912C2.82075 42.484 0 52.9125 0 64H128C128 52.9125 125.179 42.484 120.218 33.3912H64H7.78175Z" fill="#0052B4"/>
<path d="M63.9995 128C88.2583 128 109.363 114.503 120.218 94.6088H7.78125C18.636 114.503 39.7407 128 63.9995 128Z" fill="#6DA544"/>
</g>
<defs>
<clipPath id="clip0_97_11583">
<rect width="128" height="128" fill="white"/>
</clipPath>
</defs>
</svg>
