<svg width="128" height="128" viewBox="0 0 128 128" fill="none" xmlns="http://www.w3.org/2000/svg">
<g clip-path="url(#clip0_97_11578)">
<path d="M64 128C99.3462 128 128 99.3462 128 64C128 28.6538 99.3462 0 64 0C28.6538 0 0 28.6538 0 64C0 99.3462 28.6538 128 64 128Z" fill="#496E2D"/>
<path d="M64 73.9378C53.3435 73.9378 44.441 66.4483 42.2568 56.4471C41.9213 57.9846 41.7393 59.5788 41.7393 61.2173C41.7393 73.5121 51.7055 83.4781 64 83.4781C76.2945 83.4781 86.2608 73.5118 86.2608 61.2173C86.2608 59.5788 86.0788 57.9846 85.7433 56.4468C83.559 66.4486 74.6565 73.9378 64 73.9378Z" fill="#FFDA44"/>
<path d="M63.9999 44.5218L66.0719 50.8991H72.7777L67.3529 54.8403L69.4249 61.2176L63.9999 57.2761L58.5752 61.2176L60.6474 54.8403L55.2227 50.8991H61.9279L63.9999 44.5218Z" fill="#FFDA44"/>
</g>
<defs>
<clipPath id="clip0_97_11578">
<rect width="128" height="128" fill="white"/>
</clipPath>
</defs>
</svg>
