<svg width="128" height="128" viewBox="0 0 128 128" fill="none" xmlns="http://www.w3.org/2000/svg">
<g clip-path="url(#clip0_97_11588)">
<path d="M64 128C99.3462 128 128 99.3462 128 64C128 28.6538 99.3462 0 64 0C28.6538 0 0 28.6538 0 64C0 99.3462 28.6538 128 64 128Z" fill="#338AF3"/>
<path d="M30.6094 69.5652H97.3919V77.913H30.6094V69.5652Z" fill="#818085"/>
<path d="M41.7393 44.5217L64 47.3047L86.2608 44.5217V31.1652L77.3565 35.6175L64 22.2607L50.6435 35.6175L41.7393 31.1652V44.5217Z" fill="#FFDA44"/>
<path d="M36.1742 86.2613H27.8262V70.9567L30.6089 66.7825L27.8262 62.6087V52.8698H36.1742V86.2613Z" fill="#F0F0F0"/>
<path d="M100.174 86.2613H91.8262V52.8698H100.174V62.6085L97.3914 66.8525L100.174 70.9573V86.2613Z" fill="#F0F0F0"/>
<path d="M27.8262 62.6088H100.174V70.9565H27.8262V62.6088Z" fill="#ACABB1"/>
<path d="M64 97.3913C51.7253 97.3913 41.7393 87.405 41.7393 75.1305V44.522H86.261V75.1305C86.2608 87.405 76.2748 97.3913 64 97.3913Z" fill="#F0F0F0"/>
<path d="M63.9999 89.0435C56.3282 89.0435 50.0869 82.802 50.0869 75.1305V52.87H77.9129V75.1305C77.9129 82.802 71.6717 89.0435 63.9999 89.0435Z" fill="#0052B4"/>
<path d="M41.7393 44.5218H50.087V52.8695H41.7393V44.5218Z" fill="#D80027"/>
<path d="M77.9131 44.5218H86.2608V52.8696H77.9131V44.5218Z" fill="#D80027"/>
<path d="M77.9131 62.6088H86.2608V70.9566H77.9131V62.6088Z" fill="#D80027"/>
<path d="M41.7393 62.6088H50.087V70.9566H41.7393V62.6088Z" fill="#D80027"/>
<path d="M59.8262 44.5218H68.1739V52.8696H59.8262V44.5218Z" fill="#D80027"/>
<path d="M64.0002 89.0436C62.5462 89.0436 61.1444 88.8186 59.8262 88.4031V96.9933C61.1792 97.2513 62.5732 97.3916 64.0002 97.3916C65.4272 97.3916 66.8212 97.2513 68.1742 96.9933V88.4031C66.8559 88.8183 65.4542 89.0436 64.0002 89.0436Z" fill="#D80027"/>
<path d="M50.2733 77.3891L43.6113 84.0511C44.7663 86.6808 46.4143 89.0456 48.4398 91.0281L54.3398 85.1281C52.2343 83.0938 50.7676 80.4038 50.2733 77.3891Z" fill="#D80027"/>
<path d="M84.3884 84.0516L77.7264 77.3896C77.2319 80.4041 75.7654 83.0938 73.6602 85.1288L79.5602 91.0288C81.5852 89.0461 83.2334 86.6813 84.3884 84.0516Z" fill="#D80027"/>
</g>
<defs>
<clipPath id="clip0_97_11588">
<rect width="128" height="128" fill="white"/>
</clipPath>
</defs>
</svg>
