<svg width="128" height="128" viewBox="0 0 128 128" fill="none" xmlns="http://www.w3.org/2000/svg">
<g clip-path="url(#clip0_97_11607)">
<path d="M64 128C99.3462 128 128 99.3462 128 64C128 28.6538 99.3462 0 64 0C28.6538 0 0 28.6538 0 64C0 99.3462 28.6538 128 64 128Z" fill="#F0F0F0"/>
<path d="M128 64C128 38.6265 113.234 16.7025 91.8262 6.35049V121.649C113.234 111.297 128 89.3735 128 64Z" fill="#D80027"/>
<path d="M0 64C0 89.3735 14.7663 111.297 36.174 121.649V6.35049C14.7663 16.7025 0 38.6265 0 64Z" fill="#6DA544"/>
<path d="M47.3047 64.0001C47.3047 73.2208 54.7797 80.6958 64.0004 80.6958C73.2212 80.6958 80.6962 73.2208 80.6962 64.0001V58.4348H47.3047V64.0001Z" fill="#6DA544"/>
<path d="M86.2603 52.8695H69.5645C69.5645 49.796 67.0728 47.3043 63.9993 47.3043C60.9258 47.3043 58.434 49.796 58.434 52.8695H41.7383C41.7383 55.9433 44.4155 58.4348 47.4888 58.4348H47.3035C47.3035 61.5085 49.795 64 52.8688 64C52.8688 67.0738 55.3603 69.5653 58.434 69.5653H69.5645C72.6383 69.5653 75.1298 67.0738 75.1298 64C78.2035 64 80.695 61.5085 80.695 58.4348H80.5095C83.5833 58.4348 86.2603 55.9433 86.2603 52.8695Z" fill="#FF9811"/>
</g>
<defs>
<clipPath id="clip0_97_11607">
<rect width="128" height="128" fill="white"/>
</clipPath>
</defs>
</svg>
