<svg width="128" height="128" viewBox="0 0 128 128" fill="none" xmlns="http://www.w3.org/2000/svg">
<g clip-path="url(#clip0_97_11614)">
<path d="M64 128C99.3462 128 128 99.3462 128 64C128 28.6538 99.3462 0 64 0C28.6538 0 0 28.6538 0 64C0 99.3462 28.6538 128 64 128Z" fill="#338AF3"/>
<path d="M64.0001 27.8259L66.7626 36.3289H75.7036L68.4706 41.5841L71.2331 50.0869L64.0001 44.8319L56.7669 50.0869L59.5301 41.5841L52.2969 36.3289H61.2376L64.0001 27.8259Z" fill="#F0F0F0"/>
<path d="M27.8262 64.0004L36.3292 61.2374V52.2964L41.5844 59.5299L50.0872 56.7671L44.8322 64.0004L50.0872 71.2329L41.5844 68.4699L36.3292 75.7031V66.7626L27.8262 64.0004Z" fill="#F0F0F0"/>
<path d="M64.0006 100.174L61.2379 91.6709H52.2969L59.5304 86.4156L56.7676 77.9129L64.0006 83.1679L71.2334 77.9129L68.4704 86.4156L75.7036 91.6709H66.7631L64.0006 100.174Z" fill="#F0F0F0"/>
<path d="M100.174 63.9996L91.6711 66.7624V75.7031L86.4158 68.4699L77.9131 71.2326L83.1681 63.9996L77.9131 56.7669L86.4158 59.5299L91.6711 52.2964V61.2371L100.174 63.9996Z" fill="#F0F0F0"/>
</g>
<defs>
<clipPath id="clip0_97_11614">
<rect width="128" height="128" fill="white"/>
</clipPath>
</defs>
</svg>
