<svg width="128" height="128" viewBox="0 0 128 128" fill="none" xmlns="http://www.w3.org/2000/svg">
<g clip-path="url(#clip0_97_11621)">
<path d="M91.8261 6.3505C83.4121 2.282 73.9726 0 64.0001 0C54.0276 0 44.5881 2.282 36.1741 6.3505L30.6089 64L36.1741 121.649C44.5881 125.718 54.0276 128 64.0001 128C73.9726 128 83.4121 125.718 91.8261 121.649L97.3914 64L91.8261 6.3505Z" fill="#FFDA44"/>
<path d="M36.174 6.35275C14.7665 16.7045 0 38.6268 0 64C0 89.3733 14.7665 111.295 36.174 121.647V6.35275Z" fill="#0052B4"/>
<path d="M91.8262 6.35275V121.647C113.234 111.295 128 89.3733 128 64C128 38.6268 113.234 16.7045 91.8262 6.35275Z" fill="#D80027"/>
<path d="M86.2608 50.3548H70.9565C70.9565 46.5128 67.842 43.3983 64 43.3983C60.158 43.3983 57.0435 46.5128 57.0435 50.3548H41.7393C41.7393 54.1375 45.0345 57.2038 48.8168 57.2038H48.5888C48.5888 60.9868 51.6553 64.0535 55.4383 64.0535C55.4383 67.4028 57.8438 70.1858 61.0208 70.7808L55.6233 82.9663C58.2095 84.0175 61.036 84.6018 64 84.6018C66.9638 84.6018 69.7905 84.0175 72.3765 82.9663L66.9793 70.7808C70.1563 70.1858 72.5618 67.4028 72.5618 64.0535C76.3448 64.0535 79.4113 60.9868 79.4113 57.2038H79.183C82.9658 57.2038 86.2608 54.1373 86.2608 50.3548Z" fill="#FF9811"/>
<path d="M64 59.826L54.9565 64V72.3477L64 77.913L73.0435 72.3477V64L64 59.826Z" fill="#0052B4"/>
<path d="M54.9565 55.6522H73.0435V64H54.9565V55.6522Z" fill="#D80027"/>
</g>
<defs>
<clipPath id="clip0_97_11621">
<rect width="128" height="128" fill="white"/>
</clipPath>
</defs>
</svg>
