<svg width="128" height="128" viewBox="0 0 128 128" fill="none" xmlns="http://www.w3.org/2000/svg">
<g clip-path="url(#clip0_97_11631)">
<path d="M64 128C71.8285 128 79.3278 126.592 86.2608 124.019L89.0435 64L86.261 3.98075C79.3278 1.40825 71.8285 0 64 0C56.1715 0 48.6723 1.40825 41.7393 3.98075L38.9565 64L41.739 124.019C48.6723 126.592 56.1715 128 64 128Z" fill="#0052B4"/>
<path d="M0 64C0 91.5177 17.368 114.976 41.7393 124.019V3.98074C17.368 13.0235 0 36.4822 0 64Z" fill="#A2001D"/>
<path d="M86.2607 3.9808V124.02C110.632 114.977 128 91.5178 128 64.0001C128 36.4823 110.632 13.0236 86.2607 3.9808Z" fill="#A2001D"/>
<path d="M30.6089 64H36.1741V86.2607H30.6089V64Z" fill="#FFDA44"/>
<path d="M8.34766 64H13.9129V86.2607H8.34766V64Z" fill="#FFDA44"/>
<path d="M22.2606 77.913C25.3342 77.913 27.8258 75.4213 27.8258 72.3477C27.8258 69.2741 25.3342 66.7825 22.2606 66.7825C19.187 66.7825 16.6953 69.2741 16.6953 72.3477C16.6953 75.4213 19.187 77.913 22.2606 77.913Z" fill="#FFDA44"/>
<path d="M22.2605 55.652C23.7973 55.652 25.043 54.4062 25.043 52.8695C25.043 51.3327 23.7973 50.087 22.2605 50.087C20.7238 50.087 19.478 51.3327 19.478 52.8695C19.478 54.4062 20.7238 55.652 22.2605 55.652Z" fill="#FFDA44"/>
<path d="M16.6958 80.6957H27.8263V86.261H16.6958V80.6957Z" fill="#FFDA44"/>
<path d="M16.6958 58.4348H27.8263V64H16.6958V58.4348Z" fill="#FFDA44"/>
<path d="M22.2608 33.3912L24.2318 39.4562H30.6088L25.4501 43.2047L27.4196 49.2697L22.2608 45.5212L17.1023 49.2697L19.0718 43.2047L13.9131 39.4562H20.2901L22.2608 33.3912Z" fill="#FFDA44"/>
</g>
<defs>
<clipPath id="clip0_97_11631">
<rect width="128" height="128" fill="white"/>
</clipPath>
</defs>
</svg>
