<svg width="128" height="128" viewBox="0 0 128 128" fill="none" xmlns="http://www.w3.org/2000/svg">
<g clip-path="url(#clip0_97_11652)">
<path d="M128 64C128 99.346 99.346 128 64 128C28.654 128 0 99.346 0 64C0 64.0153 64 0.007 64 0C99.346 0 128 28.654 128 64Z" fill="#0052B4"/>
<path d="M63.8286 64H63.9999C63.9999 63.9425 63.9999 63.8865 63.9999 63.8287C63.9429 63.886 63.8859 63.943 63.8286 64Z" fill="#F0F0F0"/>
<path d="M64 33.3913C64 22.13 64 14.7513 64 0H63.9893C28.6478 0.006 0 28.6572 0 64H33.3913V45.1973L52.194 64H63.829C63.886 63.943 63.943 63.886 64.0003 63.8288C64.0003 59.517 64.0003 55.6698 64.0003 52.1945L45.197 33.3913H64Z" fill="#F0F0F0"/>
<path d="M32.3787 8.34775C22.3689 14.0475 14.0472 22.369 8.34766 32.3787V64H25.0434V25.044V25.0435H63.9999C63.9999 19.7777 63.9999 14.7612 63.9999 8.34775H32.3787Z" fill="#D80027"/>
<path d="M63.9999 56.1297L41.2611 33.3914H33.3911V33.3919L63.9994 64H63.9999C63.9999 64 63.9999 58.5732 63.9999 56.1297Z" fill="#D80027"/>
<path d="M72.3477 33.3912V63.9997C72.3477 78.9097 91.8259 83.4782 91.8259 83.4782C91.8259 83.4782 111.304 78.9097 111.304 63.9997V33.3912H72.3477Z" fill="#338AF3"/>
<path d="M72.3477 63.9998C72.3477 78.9098 91.8259 83.4783 91.8259 83.4783C91.8259 83.4783 111.304 78.9098 111.304 63.9998H72.3477Z" fill="#A2001D"/>
<path d="M100.174 47.3048H94.6083V41.7393H89.043V47.3048H83.478V52.8698H89.043V69.5653H94.6083V52.8698H100.174V47.3048Z" fill="black"/>
</g>
<defs>
<clipPath id="clip0_97_11652">
<rect width="128" height="128" fill="white"/>
</clipPath>
</defs>
</svg>
