<svg width="128" height="128" viewBox="0 0 128 128" fill="none" xmlns="http://www.w3.org/2000/svg">
<g clip-path="url(#clip0_97_11644)">
<path d="M64 128C99.3462 128 128 99.3462 128 64C128 28.6538 99.3462 0 64 0C28.6538 0 0 28.6538 0 64C0 99.3462 28.6538 128 64 128Z" fill="#FFDA44"/>
<path d="M128 64C128 42.0347 116.933 22.6562 100.072 11.1305H27.9282C11.0675 22.6562 0 42.0347 0 64C0 85.9657 11.0675 105.344 27.9282 116.869H100.072C116.933 105.344 128 85.9657 128 64Z" fill="#A2001D"/>
<path d="M50.0869 47.3043H77.9129V36.174L72.3477 38.9565L63.9999 30.6088L55.6522 38.9565L50.0869 36.174V47.3043Z" fill="#FFDA44"/>
<path d="M89.0436 64H75.1358C75.6813 63.0565 75.9983 61.9647 75.9983 60.7967C75.9983 57.25 73.1231 54.3752 69.5768 54.3752C67.1266 54.3752 64.9986 55.7482 63.9158 57.7657C62.8331 55.748 60.7051 54.3752 58.2548 54.3752C54.7086 54.3752 51.8333 57.25 51.8333 60.7967C51.8333 61.965 52.1508 63.0567 52.6958 64H38.9561C38.9561 68.2557 42.6628 71.7055 46.9183 71.7055H46.6618C46.6618 75.1962 48.9836 78.1437 52.1668 79.0905L45.9126 85.3452L51.8153 91.248L60.1886 82.8747C60.5166 82.995 60.8558 83.091 61.2066 83.157L56.1471 94.5807C58.5716 95.5667 61.2213 96.114 64.0001 96.114C66.7786 96.114 69.4283 95.5667 71.8531 94.5807L66.7936 83.157C67.1441 83.0912 67.4833 82.995 67.8111 82.8747L76.1843 91.248L82.0868 85.3452L75.8323 79.0907C79.0153 78.1435 81.3373 75.1965 81.3373 71.7057H81.0806C85.3366 71.7055 89.0436 68.2557 89.0436 64Z" fill="#FFDA44"/>
<path d="M64 68.174L54.9565 72.3478V80.6958L64 86.2608L73.0435 80.6958V72.3478L64 68.174Z" fill="#6DA544"/>
<path d="M54.9565 64H73.0435V75.1305H54.9565V64Z" fill="#0052B4"/>
</g>
<defs>
<clipPath id="clip0_97_11644">
<rect width="128" height="128" fill="white"/>
</clipPath>
</defs>
</svg>
