<svg width="128" height="128" viewBox="0 0 128 128" fill="none" xmlns="http://www.w3.org/2000/svg">
<g clip-path="url(#clip0_97_11664)">
<path d="M64 128C99.3462 128 128 99.3462 128 64C128 28.6538 99.3462 0 64 0C28.6538 0 0 28.6538 0 64C0 99.3462 28.6538 128 64 128Z" fill="#D80027"/>
<path d="M101.822 52.5225H72.9287L64.0002 25.0435L55.0717 52.5225H26.1782L49.5535 69.5055L40.6247 96.9852L64.0002 80.002L87.3757 96.9855L78.447 69.5057L101.822 52.5225ZM56.0957 67.3797L59.115 58.0875H68.8852L71.9047 67.3797V67.38L64.0002 73.1227L56.096 67.38L56.0957 67.3797ZM67.0772 52.5225H60.9235L64.0002 43.0525L67.0772 52.5225ZM76.6385 63.9405L74.7367 58.0877H84.694L76.6385 63.9405ZM53.2635 58.0877L51.3617 63.9405L43.306 58.0877H53.2635ZM51.2105 82.4152L54.2875 72.9455L59.2662 76.5625L51.2105 82.4152ZM68.7342 76.5627L73.713 72.9457L76.79 82.4155L68.7342 76.5627Z" fill="#FFDA44"/>
</g>
<defs>
<clipPath id="clip0_97_11664">
<rect width="128" height="128" fill="white"/>
</clipPath>
</defs>
</svg>
