<svg width="128" height="128" viewBox="0 0 128 128" fill="none" xmlns="http://www.w3.org/2000/svg">
<g clip-path="url(#clip0_97_11667)">
<path d="M64 128C99.3462 128 128 99.3462 128 64C128 28.6538 99.3462 0 64 0C28.6538 0 0 28.6538 0 64C0 99.3462 28.6538 128 64 128Z" fill="#F0F0F0"/>
<path d="M34.5926 89.0435L18.7471 109.253C30.3281 120.835 46.3263 128 63.9998 128C90.4573 128 113.161 111.943 122.908 89.0435H34.5926Z" fill="#FFDA44"/>
<path d="M123.007 39.1883C113.315 16.1655 90.5468 0 63.9998 0C46.3263 0 30.3281 7.16475 18.7471 18.7472L34.7746 39.1883H123.007Z" fill="#496E2D"/>
<path d="M13.9131 47.0725V80.6955H125.796C127.231 75.3728 128 69.7768 128 64C128 58.1395 127.211 52.4645 125.735 47.0725H13.9131Z" fill="black"/>
<path d="M18.7451 18.745C-6.24837 43.7385 -6.24837 84.2612 18.7451 109.255C29.0734 98.9267 39.0066 88.9935 64.0001 64L18.7451 18.745Z" fill="#A2001D"/>
<path d="M25.9024 47.3043L30.0462 60.0583H43.4577L32.6082 67.9413L36.7517 80.6958L25.9024 72.813L15.0527 80.6958L19.1972 67.9413L8.34766 60.0583H21.7582L25.9024 47.3043Z" fill="#FFDA44"/>
<path d="M13.7773 64H38.0333V75.1305H13.7773V64Z" fill="#F0F0F0"/>
<path d="M42.6252 51.2398L38.6899 47.3043L25.9029 60.0913L13.1159 47.3043L9.18066 51.2398L21.9789 64.0153L9.18066 76.8138L13.1159 80.6958L25.9029 67.9318L38.6899 80.6958L42.6252 76.8138L29.8269 64.0153L42.6252 51.2398Z" fill="black"/>
</g>
<defs>
<clipPath id="clip0_97_11667">
<rect width="128" height="128" fill="white"/>
</clipPath>
</defs>
</svg>
