<svg width="128" height="128" viewBox="0 0 128 128" fill="none" xmlns="http://www.w3.org/2000/svg">
<g clip-path="url(#clip0_97_11681)">
<path d="M64 128C99.3462 128 128 99.3462 128 64C128 28.6538 99.3462 0 64 0C28.6538 0 0 28.6538 0 64C0 99.3462 28.6538 128 64 128Z" fill="#F0F0F0"/>
<path d="M18.7453 109.255C21.4301 111.94 24.2946 114.334 27.2993 116.442L116.442 27.2995C114.334 24.2947 111.94 21.4302 109.255 18.7455C106.57 16.0607 103.705 13.6667 100.701 11.5587L11.5586 100.701C13.6663 103.705 16.0606 106.57 18.7453 109.255Z" fill="#A2001D"/>
<path d="M18.7448 18.745C-1.44622 38.936 -5.32222 69.259 7.10853 93.3445L93.344 7.10925C69.2585 -5.3215 38.9353 -1.445 18.7448 18.745Z" fill="#0052B4"/>
<path d="M109.255 109.255C129.445 89.0645 133.321 58.7412 120.891 34.6555L34.6553 120.891C58.7405 133.322 89.0638 129.446 109.255 109.255Z" fill="#496E2D"/>
<path d="M52.8691 36.174L45.6976 39.5472L49.5166 46.4927L41.7293 45.0032L40.7423 52.8695L35.3183 47.0837L29.8941 52.8695L28.9076 45.0032L21.1201 46.4925L24.9388 39.547L17.7676 36.174L24.9391 32.8005L21.1201 25.8555L28.9073 27.345L29.8943 19.4782L35.3183 25.2642L40.7426 19.4782L41.7293 27.345L49.5166 25.8555L45.6981 32.8007L52.8691 36.174Z" fill="#FFDA44"/>
</g>
<defs>
<clipPath id="clip0_97_11681">
<rect width="128" height="128" fill="white"/>
</clipPath>
</defs>
</svg>
