<svg width="128" height="128" viewBox="0 0 128 128" fill="none" xmlns="http://www.w3.org/2000/svg">
<g clip-path="url(#clip0_97_11687)">
<path d="M64 128C99.3462 128 128 99.3462 128 64C128 28.6538 99.3462 0 64 0C28.6538 0 0 28.6538 0 64C0 99.3462 28.6538 128 64 128Z" fill="#0052B4"/>
<path d="M91.4657 68.465C91.7012 67.0107 91.8255 65.5195 91.8255 64C91.8255 65.5195 91.7012 67.0107 91.4657 68.465L102.956 64L91.4657 59.5352L85.1545 57.083L74.9007 53.0987L70.9165 42.845C77.635 45.0472 82.9517 50.364 85.1542 57.0827L91.4655 59.535C89.5582 47.761 80.238 38.4405 68.4642 36.5335L63.9995 25.0435L59.5345 36.5337C47.7605 38.4412 38.4405 47.7612 36.5332 59.5352L25.043 64L36.5335 68.465C38.4407 80.239 47.7607 89.559 59.5347 91.4662L63.9995 102.956L68.4645 91.4662C80.2382 89.559 89.5585 80.2387 91.4657 68.465ZM70.6015 57.3982L63.9995 64H87.5907L70.6012 70.602L63.9995 64V87.5915L57.3975 70.6017L63.9995 64H40.4082L57.3975 57.3982L63.9995 64V40.4087L70.6015 57.3982ZM57.0822 42.8452L53.0977 53.099L42.8445 57.0832C45.0467 50.364 50.3635 45.0477 57.0822 42.8452ZM42.8447 70.9172L53.0977 74.9015L57.0822 85.1547C50.3635 82.9522 45.0472 77.636 42.8447 70.9172ZM70.9167 85.1547L74.901 74.9015L85.1542 70.9172C82.9517 77.636 77.6355 82.9522 70.9167 85.1547Z" fill="#F0F0F0"/>
<path d="M87.5932 63.9999H64.002L70.604 70.6019L87.5932 63.9999Z" fill="#0052B4"/>
<path d="M40.4102 63.9999H64.0014L57.3994 57.3981L40.4102 63.9999Z" fill="#0052B4"/>
<path d="M64.0014 87.5914V63.9999L57.3994 70.6019L64.0014 87.5914Z" fill="#0052B4"/>
<path d="M64.002 63.9999L70.604 57.3981L64.002 40.4086V63.9999Z" fill="#0052B4"/>
<path d="M61.2168 8.34769H66.7821V19.4782H61.2168V8.34769Z" fill="#F0F0F0"/>
<path d="M8.34766 61.2175H19.4782V66.7828H8.34766V61.2175Z" fill="#F0F0F0"/>
<path d="M61.2168 108.522H66.7821V119.652H61.2168V108.522Z" fill="#F0F0F0"/>
<path d="M108.521 61.2175H119.652V66.7828H108.521V61.2175Z" fill="#F0F0F0"/>
</g>
<defs>
<clipPath id="clip0_97_11687">
<rect width="128" height="128" fill="white"/>
</clipPath>
</defs>
</svg>
