<svg width="128" height="128" viewBox="0 0 128 128" fill="none" xmlns="http://www.w3.org/2000/svg">
<g clip-path="url(#clip0_97_11700)">
<path d="M64 128C99.3462 128 128 99.3465 128 64.0002C128 28.654 99.3462 0.000244141 64 0.000244141C28.6538 0.000244141 0 28.654 0 64.0002C0 99.3465 28.6538 128 64 128Z" fill="#0052B4"/>
<path d="M64 128C99.3462 128 128 99.3465 128 64.0002C128 28.654 99.3462 0.000244141 64 0.000244141C28.6538 0.000244141 0 28.654 0 64.0002C0 99.3465 28.6538 128 64 128Z" fill="#FFDA44"/>
<path d="M64.0009 0.000488281C30.5299 0.000488281 3.06538 25.6957 0.244629 58.4352H127.757C124.936 25.6957 97.4719 0.000488281 64.0009 0.000488281Z" fill="#0052B4"/>
<path d="M64.0009 128C97.4719 128 124.936 102.305 127.757 69.5656H0.244629C3.06538 102.305 30.5299 128 64.0009 128Z" fill="#0052B4"/>
<path d="M52.8698 86.261L45.6983 89.6345L49.5171 96.5797L41.7298 95.09L40.7431 102.957L35.3188 97.171L29.8948 102.957L28.9081 95.09L21.1206 96.5795L24.9396 89.6342L17.7681 86.261L24.9398 82.8877L21.1206 75.9427L28.9078 77.4322L29.8951 69.5655L35.3188 75.3512L40.7433 69.5655L41.7298 77.4322L49.5173 75.9427L45.6986 82.888L52.8698 86.261Z" fill="#F0F0F0"/>
</g>
<defs>
<clipPath id="clip0_97_11700">
<rect width="128" height="128" fill="white"/>
</clipPath>
</defs>
</svg>
