<svg width="128" height="128" viewBox="0 0 128 128" fill="none" xmlns="http://www.w3.org/2000/svg">
<g clip-path="url(#clip0_97_11707)">
<path d="M64 128C99.3462 128 128 99.3465 128 64.0002C128 28.654 99.3462 0.000244141 64 0.000244141C28.6538 0.000244141 0 28.654 0 64.0002C0 99.3465 28.6538 128 64 128Z" fill="#F0F0F0"/>
<path d="M127.624 70.9566L127.623 70.9547L127.623 70.9566H127.624Z" fill="#0052B4"/>
<path d="M127.622 70.9565C127.622 70.956 127.623 70.9555 127.623 70.9545L57.4365 0.332764C54.2703 0.655514 51.172 1.20901 48.1592 1.97626C20.4745 9.02501 0 64 0 64C0 64 89.5995 123.959 99.8213 117.041C101.867 115.657 103.828 114.158 105.695 112.553L64.0987 70.9565H127.622Z" fill="#0052B4"/>
<path d="M111.304 64.0003L49.0612 1.75751C20.922 8.48676 0 33.7983 0 64.0003C0 99.3463 28.654 128 64 128C77.4072 128 89.8493 123.875 100.132 116.828L47.3042 64.0003H111.304Z" fill="#D80027"/>
<path d="M60.8681 94.4986L53.0519 90.8221L57.2141 83.2524L48.7266 84.8761L47.6511 76.3016L41.7394 82.6079L35.8276 76.3016L34.7519 84.8761L26.2646 83.2521L30.4269 90.8221L22.6104 94.4986L30.4269 98.1749L26.2646 105.745L34.7524 104.121L35.8274 112.695L41.7394 106.389L47.6511 112.695L48.7266 104.121L57.2139 105.745L53.0516 98.1754L60.8681 94.4986Z" fill="#F0F0F0"/>
<path d="M55.6524 35.4961L49.9674 32.8224L52.9947 27.3166L46.8214 28.4976L46.0392 22.2611L41.7394 26.8479L37.4397 22.2611L36.6572 28.4976L30.4839 27.3166L33.5114 32.8224L27.8262 35.4961L41.7394 38.2791L55.6524 35.4961Z" fill="#F0F0F0"/>
<path d="M58.435 35.4961C58.435 44.7168 50.96 52.1918 41.7392 52.1918C32.5185 52.1918 25.0435 44.7168 25.0435 35.4961" fill="#F0F0F0"/>
</g>
<defs>
<clipPath id="clip0_97_11707">
<rect width="128" height="128" fill="white"/>
</clipPath>
</defs>
</svg>
