<svg width="128" height="128" viewBox="0 0 128 128" fill="none" xmlns="http://www.w3.org/2000/svg">
<g clip-path="url(#clip0_97_11717)">
<path d="M64 128C99.3462 128 128 99.3465 128 64.0002C128 28.654 99.3462 0.000244141 64 0.000244141C28.6538 0.000244141 0 28.654 0 64.0002C0 99.3465 28.6538 128 64 128Z" fill="#F0F0F0"/>
<path d="M64.0002 0.000244141C36.4825 0.000244141 13.0237 17.3682 3.98096 41.7395H124.02C114.977 17.3682 91.518 0.000244141 64.0002 0.000244141Z" fill="#A2001D"/>
<path d="M64.0002 128C91.518 128 114.977 110.632 124.019 86.261H3.98096C13.0237 110.632 36.4825 128 64.0002 128Z" fill="#0052B4"/>
</g>
<defs>
<clipPath id="clip0_97_11717">
<rect width="128" height="128" fill="white"/>
</clipPath>
</defs>
</svg>
