<svg width="128" height="128" viewBox="0 0 128 128" fill="none" xmlns="http://www.w3.org/2000/svg">
<g clip-path="url(#clip0_97_11721)">
<path d="M128 64.0002C128 99.3462 99.346 128 64 128C28.654 128 0 99.3462 0 64.0002C0 64.0155 64 0.00724414 64 0.000244141C99.346 0.000244141 128 28.6542 128 64.0002Z" fill="#0052B4"/>
<path d="M63.8286 64.0004H63.9999C63.9999 63.9429 63.9999 63.8869 63.9999 63.8291C63.9429 63.8864 63.8859 63.9434 63.8286 64.0004Z" fill="#F0F0F0"/>
<path d="M64 33.3917C64 22.1305 64 14.7517 64 0.000488281H63.9893C28.648 0.00648828 0 28.6577 0 64.0005H33.3913V45.1977L52.1942 64.0005H63.829C63.886 63.9435 63.9433 63.8865 64.0003 63.8292C64.0003 59.5175 64.0003 55.6702 64.0003 52.195L45.197 33.3917H64Z" fill="#F0F0F0"/>
<path d="M32.3787 8.34802C22.3689 14.0478 14.0474 22.3693 8.34766 32.379V64.0003H25.0434V25.0443V25.0438H63.9999C63.9999 19.778 63.9999 14.7615 63.9999 8.34802H32.3787Z" fill="#D80027"/>
<path d="M64.0001 56.1299L41.2619 33.3917C41.2619 33.3917 33.3916 33.3922 33.3916 33.3917V33.3922L63.9999 64.0002H64.0001C64.0001 64.0002 64.0001 58.5734 64.0001 56.1299Z" fill="#D80027"/>
<path d="M110.832 47.4899L112.214 51.7414H116.684L113.067 54.3689L114.449 58.6201L110.832 55.9929L107.216 58.6201L108.597 54.3689L104.98 51.7414H109.451L110.832 47.4899Z" fill="#D80027"/>
<path d="M94.8527 78.0984L96.9249 84.4759H103.63L98.2052 88.4169L100.278 94.7941L94.8527 90.8529L89.4277 94.7941L91.5002 88.4169L86.0752 84.4759H92.7804L94.8527 78.0984Z" fill="#D80027"/>
<path d="M95.4563 28.0117L97.1833 33.3264H102.771L98.2501 36.6102L99.9771 41.9247L95.4563 38.6399L90.9358 41.9247L92.6626 36.6102L88.1421 33.3264H93.7296L95.4563 28.0117Z" fill="#D80027"/>
<path d="M80.0802 47.3044L82.1522 53.6819H88.8577L83.4327 57.6229L85.5052 64.0001L80.0802 60.0589L74.6552 64.0001L76.7277 57.6229L71.3027 53.6819H78.008L80.0802 47.3044Z" fill="#D80027"/>
</g>
<defs>
<clipPath id="clip0_97_11721">
<rect width="128" height="128" fill="white"/>
</clipPath>
</defs>
</svg>
