<svg width="128" height="128" viewBox="0 0 128 128" fill="none" xmlns="http://www.w3.org/2000/svg">
<g clip-path="url(#clip0_97_11734)">
<path d="M64 128C99.3462 128 128 99.3465 128 64.0002C128 28.654 99.3462 0.000244141 64 0.000244141C28.6538 0.000244141 0 28.654 0 64.0002C0 99.3465 28.6538 128 64 128Z" fill="#F0F0F0"/>
<path d="M64.0001 0.000488281C38.6266 0.000488281 16.7026 14.7667 6.35059 36.1745H121.649C111.298 14.7667 89.3733 0.000488281 64.0001 0.000488281Z" fill="#338AF3"/>
<path d="M64.0001 128C89.3733 128 111.298 113.234 121.65 91.8264H6.35059C16.7026 113.234 38.6266 128 64.0001 128Z" fill="#338AF3"/>
<path d="M64.0002 44.522C53.2427 44.522 44.522 53.2427 44.522 64.0002C44.522 74.7577 53.2427 83.4785 64.0002 83.4785C74.7577 83.4785 83.4785 74.7577 83.4785 64.0002C83.4785 53.2427 74.7577 44.522 64.0002 44.522ZM64.0002 75.1307C57.8532 75.1307 52.8697 70.1477 52.8697 64.0002C52.8697 57.8527 57.853 52.8697 64.0002 52.8697C70.1475 52.8697 75.1307 57.8527 75.1307 64.0002C75.1307 70.1477 70.1472 75.1307 64.0002 75.1307Z" fill="#FFDA44"/>
<path d="M73.6395 66.7827L64 64.0002L54.3605 66.7827L51.1475 72.348H76.8522L73.6395 66.7827Z" fill="#0052B4"/>
<path d="M64 50.0872L57.5737 61.2177L64 64.0002L70.4262 61.2177L64 50.0872Z" fill="#338AF3"/>
<path d="M54.3604 66.7828H73.6394L70.4261 61.2178H57.5736L54.3604 66.7828Z" fill="#6DA544"/>
</g>
<defs>
<clipPath id="clip0_97_11734">
<rect width="128" height="128" fill="white"/>
</clipPath>
</defs>
</svg>
