<svg width="128" height="128" viewBox="0 0 128 128" fill="none" xmlns="http://www.w3.org/2000/svg">
<g clip-path="url(#clip0_97_11749)">
<path d="M64 128C99.3462 128 128 99.3465 128 64.0002C128 28.654 99.3462 0.000244141 64 0.000244141C28.6538 0.000244141 0 28.654 0 64.0002C0 99.3465 28.6538 128 64 128Z" fill="#F0F0F0"/>
<path d="M0 64.0003C0 91.5183 17.368 114.977 41.7393 124.02V3.98126C17.368 13.0238 0 36.4828 0 64.0003Z" fill="#6DA544"/>
<path d="M128 64.0003C128 36.4828 110.632 13.0238 86.2607 3.98126V124.02C110.632 114.977 128 91.5183 128 64.0003Z" fill="#6DA544"/>
</g>
<defs>
<clipPath id="clip0_97_11749">
<rect width="128" height="128" fill="white"/>
</clipPath>
</defs>
</svg>
