<svg width="128" height="128" viewBox="0 0 128 128" fill="none" xmlns="http://www.w3.org/2000/svg">
<g clip-path="url(#clip0_97_11743)">
<path d="M6.3505 36.1743C2.282 44.5883 0 54.0275 0 64.0003C0 73.973 2.282 83.4123 6.3505 91.8263L64 97.3915L121.649 91.8263C125.718 83.4123 128 73.973 128 64.0003C128 54.0275 125.718 44.5883 121.649 36.1743L64 30.609L6.3505 36.1743Z" fill="#F0F0F0"/>
<path d="M6.35254 91.8262C16.704 113.234 38.6263 128 63.9998 128C89.3733 128 111.296 113.234 121.647 91.8262H6.35254Z" fill="#6DA544"/>
<path d="M6.35254 36.1745H121.647C111.296 14.7667 89.373 0.000488281 63.9998 0.000488281C38.6265 0.000488281 16.704 14.7667 6.35254 36.1745Z" fill="#FF9811"/>
<path d="M64 86.2611C76.2943 86.2611 86.2608 76.2946 86.2608 64.0004C86.2608 51.7061 76.2943 41.7396 64 41.7396C51.7057 41.7396 41.7393 51.7061 41.7393 64.0004C41.7393 76.2946 51.7057 86.2611 64 86.2611Z" fill="#FF9811"/>
</g>
<defs>
<clipPath id="clip0_97_11743">
<rect width="128" height="128" fill="white"/>
</clipPath>
</defs>
</svg>
