<svg width="128" height="128" viewBox="0 0 128 128" fill="none" xmlns="http://www.w3.org/2000/svg">
<g clip-path="url(#clip0_97_11754)">
<path d="M128 64.0002C128 99.3462 99.346 128 64 128C28.654 128 0 99.3462 0 64.0002C0 64.0155 64 0.00724414 64 0.000244141C99.346 0.000244141 128 28.6542 128 64.0002Z" fill="#FFDA44"/>
<path d="M64.002 30.6091V52.1949L41.7412 30.6091H64.002Z" fill="#0052B4"/>
<path d="M33.3929 64.0004H52.1956L33.3929 38.9569L30.6104 58.4352L33.3929 64.0004Z" fill="#0052B4"/>
<path d="M63.8291 64.0004H64.0004C64.0004 63.9429 64.0004 63.8869 64.0004 63.8291C63.9434 63.8864 63.8864 63.9434 63.8291 64.0004Z" fill="#F0F0F0"/>
<path d="M64 33.3917C64 22.1305 64 14.7517 64 0.000488281H63.9893C28.6478 0.00648828 0 28.6577 0 64.0005H33.3913V45.1977L52.194 64.0005H63.829C63.886 63.9435 63.943 63.8865 64.0003 63.8292C64.0003 59.5175 64.0003 55.6702 64.0003 52.195L45.197 33.3917H64Z" fill="#F0F0F0"/>
<path d="M64.0004 56.1299L41.2616 33.3917H33.3916V33.3922L63.9999 64.0002H64.0004C64.0004 64.0002 64.0004 58.5734 64.0004 56.1299Z" fill="#D80027"/>
<path d="M32.3787 8.34802C29.9114 9.75302 27.5477 11.3188 25.2997 13.028H27.9257L20.9852 18.0715L23.6357 26.2308L16.6952 21.1883L15.9567 21.725C13.0749 24.9975 10.5199 28.5645 8.34766 32.379V64.0003H25.0434V25.0443V25.0438H63.9999C63.9999 19.778 63.9999 14.7615 63.9999 8.34802H32.3787Z" fill="#D80027"/>
<path d="M27.3403 11.5383C26.6501 12.0215 25.9696 12.5183 25.2993 13.028L20.9856 18.0715L16.6956 21.188L15.9508 21.729C14.3793 23.514 12.9056 25.387 11.5381 27.3403C13.0968 28.0968 14.8466 28.522 16.6956 28.522C23.2271 28.522 28.5216 23.2275 28.5216 16.696C28.5221 14.8465 28.0971 13.0973 27.3403 11.5383Z" fill="#0052B4"/>
<path d="M15.9502 21.7289L16.6949 21.1879L23.6354 26.2306L20.9847 18.0714L27.9247 13.0279H25.2982C21.8997 15.6126 18.7679 18.5286 15.9502 21.7289Z" fill="#FFDA44"/>
<path d="M44.2338 11.1306L45.6153 15.3819H50.0853L46.4691 18.0096L47.8498 22.2609L44.2338 19.6334L40.6176 22.2609L41.9981 18.0096L38.3818 15.3819H42.8521L44.2338 11.1306Z" fill="#FFDA44"/>
<path d="M16.6945 38.9566L18.076 43.2079H22.546L18.93 45.8359L20.3108 50.0871L16.6945 47.4594L13.078 50.0871L14.4588 45.8359L10.8428 43.2079H15.3128L16.6945 38.9566Z" fill="#FFDA44"/>
</g>
<defs>
<clipPath id="clip0_97_11754">
<rect width="128" height="128" fill="white"/>
</clipPath>
</defs>
</svg>
