<svg width="128" height="128" viewBox="0 0 128 128" fill="none" xmlns="http://www.w3.org/2000/svg">
<g clip-path="url(#clip0_97_11771)">
<path d="M91.8256 6.35074C83.4116 2.28224 73.9724 0.000244141 63.9996 0.000244141C54.0269 0.000244141 44.5876 2.28224 36.1736 6.35074L30.6084 64.0002L36.1736 121.65C44.5876 125.718 54.0269 128 63.9996 128C73.9724 128 83.4116 125.718 91.8256 121.65L97.3909 64.0002L91.8256 6.35074Z" fill="#F0F0F0"/>
<path d="M36.174 6.35297C14.7663 16.7045 0 38.6267 0 64.0002C0 89.3737 14.7663 111.296 36.174 121.647V6.35297Z" fill="#6DA544"/>
<path d="M91.8262 6.35297V121.647C113.234 111.296 128 89.3735 128 64.0002C128 38.627 113.234 16.7045 91.8262 6.35297Z" fill="#6DA544"/>
<path d="M80.6952 83.4784L63.9995 30.6089L47.3037 83.4784H59.8255V97.3914H68.1735V83.4784H80.6952Z" fill="#6DA544"/>
</g>
<defs>
<clipPath id="clip0_97_11771">
<rect width="128" height="128" fill="white"/>
</clipPath>
</defs>
</svg>
