<svg width="128" height="128" viewBox="0 0 128 128" fill="none" xmlns="http://www.w3.org/2000/svg">
<g clip-path="url(#clip0_97_11777)">
<path d="M64 128C99.3462 128 128 99.3465 128 64.0002C128 28.654 99.3462 0.000244141 64 0.000244141C28.6538 0.000244141 0 28.654 0 64.0002C0 99.3465 28.6538 128 64 128Z" fill="#F0F0F0"/>
<path d="M63.9986 0.000488281C44.6009 0.000488281 27.2201 8.63149 15.4834 22.2612H112.514C100.777 8.63149 83.3964 0.000488281 63.9986 0.000488281Z" fill="#0052B4"/>
<path d="M112.514 105.74H15.4834C27.2201 119.369 44.6009 128 63.9986 128C83.3964 128 100.777 119.369 112.514 105.74Z" fill="#0052B4"/>
<path d="M118.606 30.609H9.3935C3.43625 40.3303 0 51.7635 0 64.0003C0 76.237 3.43625 87.6705 9.3935 97.3915H118.606C124.564 87.6705 128 76.237 128 64.0003C128 51.7635 124.564 40.3303 118.606 30.609Z" fill="#D80027"/>
<path d="M39.374 88.6263C52.9746 88.6263 64 77.6008 64 64.0003C64 50.3997 52.9746 39.3743 39.374 39.3743C25.7735 39.3743 14.748 50.3997 14.748 64.0003C14.748 77.6008 25.7735 88.6263 39.374 88.6263Z" fill="#F0F0F0"/>
<path d="M39.3739 39.3743L44.8991 56.3795H62.8086L48.3144 66.89L53.8829 83.946L39.3739 73.3855L24.8869 83.9263L30.4334 66.89L15.9521 56.3795H33.8484L39.3739 39.3743Z" fill="#D80027"/>
</g>
<defs>
<clipPath id="clip0_97_11777">
<rect width="128" height="128" fill="white"/>
</clipPath>
</defs>
</svg>
