<svg width="128" height="128" viewBox="0 0 128 128" fill="none" xmlns="http://www.w3.org/2000/svg">
<g clip-path="url(#clip0_97_11792)">
<path d="M64 128C99.3462 128 128 99.3465 128 64.0002C128 28.654 99.3462 0.000244141 64 0.000244141C28.6538 0.000244141 0 28.654 0 64.0002C0 99.3465 28.6538 128 64 128Z" fill="#338AF3"/>
<path d="M61.9827 104.298C60.2574 104.214 58.8299 103.093 58.2707 101.571C57.2829 102.859 55.5854 103.507 53.9132 103.076C52.2379 102.645 51.0667 101.259 50.8244 99.6507C49.5944 100.714 47.8024 101.003 46.2527 100.243C44.6999 99.481 43.8319 97.8863 43.9209 96.264C42.5047 97.0598 40.6904 96.982 39.3242 95.9245C37.9607 94.867 37.4292 93.1335 37.8409 91.5612C36.2937 92.0565 34.5352 91.617 33.4082 90.3063C32.2812 88.9985 32.1084 87.1925 32.8267 85.7373C31.2127 85.9095 29.5767 85.125 28.7362 83.617C27.8929 82.1088 28.0879 80.303 29.0867 79.0198C27.4699 78.864 26.0229 77.7648 25.5054 76.1175C24.9852 74.4702 25.5417 72.7395 26.7799 71.6848C25.2272 71.2058 24.0362 69.8368 23.8609 68.1203C23.6857 66.4035 24.5762 64.8258 25.9979 64.041C24.5759 63.2617 23.6799 61.6842 23.8497 59.97H23.8524C24.0222 58.2503 25.2132 56.8788 26.7629 56.3943C25.5247 55.3425 24.9627 53.6145 25.4774 51.967C25.9922 50.317 27.4362 49.215 29.0532 49.0535C28.0542 47.7735 27.8539 45.9673 28.6914 44.4568C29.5289 42.9485 31.1652 42.161 32.7819 42.3308C32.0584 40.8755 32.2282 39.0695 33.3524 37.7563C34.4739 36.4458 36.2324 36.0032 37.7824 36.493C37.3649 34.9235 37.8937 33.1873 39.2572 32.1272C40.6179 31.0667 42.4322 30.986 43.8484 31.7762C43.7567 30.1543 44.6219 28.5595 46.1719 27.7943C47.7192 27.0318 49.5139 27.3158 50.7464 28.3785C50.9829 26.7705 52.1544 25.3793 53.8267 24.9448C55.4962 24.5108 57.1937 25.1535 58.1842 26.439C58.7434 24.917 60.1682 23.7927 61.8934 23.7065C63.6159 23.6177 65.1462 24.5858 65.8587 26.0415C66.7102 24.6613 68.3297 23.8432 70.0354 24.102C71.7439 24.358 73.0547 25.6155 73.4609 27.188C74.5739 26.0023 76.3269 25.5323 77.9464 26.1275C79.5687 26.7258 80.5982 28.2228 80.6762 29.8478C82.0034 28.913 83.8177 28.8042 85.2842 29.717C86.7507 30.627 87.4547 32.2992 87.2042 33.9047C88.6929 33.2565 90.4904 33.5152 91.7427 34.7005C92.9949 35.8887 93.3509 37.6667 92.7834 39.1888C94.3722 38.852 96.0809 39.4642 97.0714 40.8805C98.0619 42.294 98.0537 44.1082 97.1939 45.4858C98.8162 45.4745 100.366 46.4207 101.053 48.004C101.738 49.59 101.362 51.3682 100.241 52.5452C101.835 52.8625 103.163 54.1008 103.513 55.7925C103.861 57.4843 103.135 59.1455 101.802 60.0723C103.293 60.7043 104.345 62.1815 104.348 63.9068V63.9625V63.9988C104.348 65.7238 103.302 67.2043 101.81 67.8415C103.146 68.7627 103.878 70.4238 103.53 72.1155C103.185 73.8073 101.86 75.0485 100.266 75.3713C101.39 76.5455 101.771 78.3208 101.09 79.9098C100.408 81.4958 98.8579 82.4447 97.2329 82.4362C98.0954 83.8137 98.1094 85.628 97.1217 87.0443C96.1339 88.461 94.4282 89.0785 92.8392 88.7445C93.4097 90.2637 93.0562 92.0447 91.8069 93.2357C90.5547 94.4242 88.7599 94.6855 87.2712 94.0428C87.5244 95.6455 86.8232 97.3208 85.3594 98.2363C83.8957 99.1517 82.0814 99.0458 80.7514 98.1138C80.6762 99.7388 79.6522 101.239 78.0329 101.84C76.4137 102.441 78.0329 101.84 78.0302 101.84C76.4107 102.438 74.6577 101.971 73.5419 100.788C73.1412 102.363 71.8334 103.624 70.1249 103.885C68.4192 104.144 66.7969 103.331 65.9427 101.951C65.2637 103.351 63.8279 104.303 62.1917 104.303C62.1219 104.304 62.0524 104.301 61.9827 104.298Z" fill="#F3F3F3"/>
<path d="M63.9998 91.8263C79.3677 91.8263 91.8258 79.3681 91.8258 64.0003C91.8258 48.6324 79.3677 36.1743 63.9998 36.1743C48.632 36.1743 36.1738 48.6324 36.1738 64.0003C36.1738 79.3681 48.632 91.8263 63.9998 91.8263Z" fill="#338AF3"/>
<path d="M70.0906 54.555C71.4576 53.541 72.3476 51.9203 72.3476 50.0873V47.3048C72.3476 44.231 69.8561 41.7395 66.7824 41.7395H61.2174C58.1436 41.7395 55.6521 44.231 55.6521 47.3048V50.0873C55.6521 51.9203 56.5421 53.541 57.9091 54.555L52.8696 105.739C52.8696 105.739 55.6521 108.522 64.0001 108.522C72.3481 108.522 75.1306 105.739 75.1306 105.739L70.0906 54.555Z" fill="#BDBCC1"/>
<path d="M63.9995 41.7395L68.834 56.619H84.4803L71.8228 65.816L76.657 80.696L63.9995 71.4997L51.3415 80.696L56.1768 65.816L43.519 56.619H59.1648L63.9995 41.7395Z" fill="#F0F0F0"/>
</g>
<defs>
<clipPath id="clip0_97_11792">
<rect width="128" height="128" fill="white"/>
</clipPath>
</defs>
</svg>
