<svg width="128" height="128" viewBox="0 0 128 128" fill="none" xmlns="http://www.w3.org/2000/svg">
<g clip-path="url(#clip0_97_11785)">
<path d="M64 128C99.3462 128 128 99.3465 128 64.0002C128 28.654 99.3462 0.000244141 64 0.000244141C28.6538 0.000244141 0 28.654 0 64.0002C0 99.3465 28.6538 128 64 128Z" fill="#F0F0F0"/>
<path d="M15.4855 22.2612C13.2398 24.8695 11.201 27.6602 9.39404 30.609H118.607C116.8 27.6602 114.762 24.8692 112.516 22.2612H15.4855Z" fill="#D80027"/>
<path d="M15.4858 105.74H112.516C114.762 103.131 116.801 100.341 118.608 97.3918H9.39453C11.2013 100.34 13.24 103.131 15.4858 105.74Z" fill="#D80027"/>
<path d="M55.8108 52.2969L61.0618 59.5331L69.566 56.7756L64.3068 64.0056L69.5573 71.2416L61.056 68.4736L55.7968 75.7036L55.802 66.7634L47.3008 63.9954L55.8053 61.2379L55.8108 52.2969Z" fill="#D80027"/>
<path d="M41.4795 82.0874C31.4905 82.0874 23.3925 73.9894 23.3925 64.0004C23.3925 54.0114 31.4905 45.9134 41.4795 45.9134C44.594 45.9134 47.5247 46.7009 50.0832 48.0874C46.0695 44.1621 40.5802 41.7394 34.523 41.7394C22.2285 41.7394 12.2622 51.7059 12.2622 64.0001C12.2622 76.2944 22.2287 86.2609 34.523 86.2609C40.5802 86.2609 46.0695 83.8381 50.0832 79.9129C47.5247 81.2999 44.5942 82.0874 41.4795 82.0874Z" fill="#D80027"/>
</g>
<defs>
<clipPath id="clip0_97_11785">
<rect width="128" height="128" fill="white"/>
</clipPath>
</defs>
</svg>
