<svg width="128" height="128" viewBox="0 0 128 128" fill="none" xmlns="http://www.w3.org/2000/svg">
<g clip-path="url(#clip0_97_11798)">
<path d="M64 128C99.3462 128 128 99.3465 128 64.0002C128 28.654 99.3462 0.000244141 64 0.000244141C28.6538 0.000244141 0 28.654 0 64.0002C0 99.3465 28.6538 128 64 128Z" fill="#F0F0F0"/>
<path d="M2.20361 80.6961C5.90661 94.4359 14.0679 106.344 25.0424 114.777V80.6961H2.20361Z" fill="#D80027"/>
<path d="M58.4336 127.757C60.2681 127.915 62.1233 128 63.9988 128C93.5686 128 118.45 107.945 125.794 80.6961H58.4336V127.757Z" fill="#D80027"/>
<path d="M125.794 47.3046C118.45 20.0556 93.5686 0.000366211 63.9988 0.000366211C62.1233 0.000366211 60.2681 0.0858662 58.4336 0.243866V47.3046H125.794Z" fill="#D80027"/>
<path d="M25.0424 13.2241C14.0679 21.6566 5.90661 33.5649 2.20361 47.3046H25.0424V13.2241Z" fill="#D80027"/>
<path d="M127.458 55.6525H50.0872H50.087V1.52148C44.1725 2.83298 38.5653 4.95873 33.3913 7.78198V55.652V55.6522H0.54175C0.1855 58.385 0 61.171 0 64.0002C0 66.8295 0.1855 69.6155 0.54175 72.348H33.391H33.3913V120.218C38.5653 123.041 44.1725 125.167 50.087 126.479V72.3487V72.3482H127.458C127.814 69.6155 128 66.8295 128 64.0002C128 61.171 127.814 58.385 127.458 55.6525Z" fill="#0052B4"/>
</g>
<defs>
<clipPath id="clip0_97_11798">
<rect width="128" height="128" fill="white"/>
</clipPath>
</defs>
</svg>
