<svg width="128" height="128" viewBox="0 0 128 128" fill="none" xmlns="http://www.w3.org/2000/svg">
<g clip-path="url(#clip0_97_11806)">
<path d="M64 128C99.3462 128 128 99.3465 128 64.0002C128 28.654 99.3462 0.000244141 64 0.000244141C28.6538 0.000244141 0 28.654 0 64.0002C0 99.3465 28.6538 128 64 128Z" fill="#F0F0F0"/>
<path d="M0 64.0005C0 88.2592 13.4975 109.364 33.3913 120.219V7.78223C13.4975 18.6367 0 39.7417 0 64.0005Z" fill="#D80027"/>
<path d="M124.02 86.2611C126.592 79.3279 128 71.8289 128 64.0004C128 56.1719 126.592 48.6726 124.02 41.7396H3.981C1.40825 48.6726 0 56.1719 0 64.0004C0 71.8289 1.40825 79.3279 3.981 86.2611L64 91.8264L124.02 86.2611Z" fill="#D80027"/>
<path d="M64 128C91.518 128 114.976 110.632 124.019 86.261H3.98096C13.0235 110.632 36.4825 128 64 128Z" fill="#6DA544"/>
<path d="M0 64.0003C0 93.57 20.0552 118.452 47.3042 125.796V2.20502C20.0552 9.54902 0 34.4305 0 64.0003Z" fill="#D80027"/>
<path d="M39.154 28.1637L33.2513 22.261L29.3163 26.1965L25.3813 22.261L19.4785 28.1637L23.4138 32.099L19.478 36.0345L25.3808 41.9372L29.316 38.0017L33.2513 41.9372L39.154 36.0345L35.2188 32.099L39.154 28.1637Z" fill="#F0F0F0"/>
</g>
<defs>
<clipPath id="clip0_97_11806">
<rect width="128" height="128" fill="white"/>
</clipPath>
</defs>
</svg>
