<svg width="128" height="128" viewBox="0 0 128 128" fill="none" xmlns="http://www.w3.org/2000/svg">
<g clip-path="url(#clip0_97_11822)">
<path d="M124.019 86.261C126.592 79.3278 128 71.8288 128 64.0003C128 56.1718 126.592 48.6728 124.019 41.7395L64 36.1743L3.98075 41.7395C1.40825 48.6728 0 56.1718 0 64.0003C0 71.8288 1.40825 79.3278 3.98075 86.261L64 91.8263L124.019 86.261Z" fill="#D80027"/>
<path d="M64 128C91.5175 128 114.976 110.632 124.019 86.261H3.98047C13.0235 110.632 36.482 128 64 128Z" fill="#FFDA44"/>
<path d="M64 0.000244141C36.482 0.000244141 13.0235 17.3682 3.98047 41.7395H124.019C114.976 17.3682 91.5175 0.000244141 64 0.000244141Z" fill="#F0F0F0"/>
</g>
<defs>
<clipPath id="clip0_97_11822">
<rect width="128" height="128" fill="white"/>
</clipPath>
</defs>
</svg>
