<svg width="128" height="128" viewBox="0 0 128 128" fill="none" xmlns="http://www.w3.org/2000/svg">
<g clip-path="url(#clip0_97_11826)">
<path d="M64 128C99.3462 128 128 99.3467 128 64.0005C128 28.6543 99.3462 0.000488281 64 0.000488281C28.6538 0.000488281 0 28.6543 0 64.0005C0 99.3467 28.6538 128 64 128Z" fill="#F0F0F0"/>
<path d="M0 64.0004C0 88.2591 13.4973 109.364 33.3913 120.219V7.7821C13.4973 18.6369 0 39.7416 0 64.0004Z" fill="#F0F0F0"/>
<path d="M63.9994 0.000244141C52.9119 0.000244141 42.4834 2.82099 33.3906 7.78199V120.218C42.4834 125.179 52.9119 128 63.9994 128C99.3454 128 127.999 99.3462 127.999 64.0002C127.999 28.6542 99.3454 0.000244141 63.9994 0.000244141Z" fill="#496E2D"/>
<path d="M91.3631 74.5846C83.2663 80.4349 71.9598 78.6139 66.1098 70.5174C60.2593 62.4204 62.0806 51.1141 70.1773 45.2641C72.7018 43.4401 75.5383 42.3619 78.4241 41.9871C72.8723 41.1569 67.0036 42.4079 62.0943 45.9551C52.1293 53.1556 49.8876 67.0709 57.0878 77.0364C64.2881 87.0011 78.2036 89.2431 88.1691 82.0421C93.0788 78.4949 96.1091 73.3166 97.0636 67.7844C95.8021 70.4059 93.8878 72.7604 91.3631 74.5846Z" fill="#F0F0F0"/>
<path d="M91.0162 41.7401L95.5772 46.6554L101.661 43.8374L98.3954 49.6934L102.956 54.6091L96.3772 53.3129L93.1117 59.1694L92.3114 52.5119L85.7324 51.2156L91.8167 48.3976L91.0162 41.7401Z" fill="#F0F0F0"/>
</g>
<defs>
<clipPath id="clip0_97_11826">
<rect width="128" height="128" fill="white"/>
</clipPath>
</defs>
</svg>
