<svg width="128" height="128" viewBox="0 0 128 128" fill="none" xmlns="http://www.w3.org/2000/svg">
<g clip-path="url(#clip0_97_11837)">
<path d="M64 128C99.3462 128 128 99.3465 128 64.0002C128 28.654 99.3462 0.000244141 64 0.000244141C28.6538 0.000244141 0 28.654 0 64.0002C0 99.3465 28.6538 128 64 128Z" fill="#F0F0F0"/>
<path d="M38.9563 41.7395H124.019C114.976 17.3682 91.5173 0.000244141 63.9998 0.000244141C46.3263 0.000244141 30.3281 7.16499 18.7471 18.7475L38.9563 41.7395Z" fill="black"/>
<path d="M38.9563 86.261H124.019C114.976 110.632 91.5173 128 63.9998 128C46.3263 128 30.3281 120.835 18.7471 109.253L38.9563 86.261Z" fill="#6DA544"/>
<path d="M18.7451 18.7452C-6.24837 43.7387 -6.24837 84.2615 18.7451 109.255C29.0734 98.927 39.0066 88.9937 64.0001 64.0002L18.7451 18.7452Z" fill="#D80027"/>
</g>
<defs>
<clipPath id="clip0_97_11837">
<rect width="128" height="128" fill="white"/>
</clipPath>
</defs>
</svg>
