<svg width="128" height="128" viewBox="0 0 128 128" fill="none" xmlns="http://www.w3.org/2000/svg">
<g clip-path="url(#clip0_97_11842)">
<path d="M64 128C99.3462 128 128 99.3465 128 64.0002C128 28.654 99.3462 0.000244141 64 0.000244141C28.6538 0.000244141 0 28.654 0 64.0002C0 99.3465 28.6538 128 64 128Z" fill="#F0F0F0"/>
<path d="M0 64.0002C0 99.3462 28.654 128 64 128C64 103.661 64 64.0002 64 64.0002C64 64.0002 22.2607 64.0002 0 64.0002Z" fill="#0052B4"/>
<path d="M64 0.000244141C99.346 0.000244141 128 28.6542 128 64.0002C103.661 64.0002 64 64.0002 64 64.0002C64 64.0002 64 22.261 64 0.000244141Z" fill="#D80027"/>
<path d="M38.098 22.261L42.2422 35.0155H55.653L44.8035 42.898L48.9475 55.6525L38.098 47.7697L27.2485 55.6525L31.3925 42.898L20.543 35.0155H33.9537L38.098 22.261Z" fill="#0052B4"/>
<path d="M89.9027 72.348L94.0469 85.1025H107.458L96.6079 92.985L100.752 105.74L89.9027 97.8568L79.0532 105.74L83.1972 92.985L72.3477 85.1025H85.7584L89.9027 72.348Z" fill="#D80027"/>
</g>
<defs>
<clipPath id="clip0_97_11842">
<rect width="128" height="128" fill="white"/>
</clipPath>
</defs>
</svg>
