<svg width="128" height="128" viewBox="0 0 128 128" fill="none" xmlns="http://www.w3.org/2000/svg">
<g clip-path="url(#clip0_97_11848)">
<path d="M109.255 109.255C84.2616 134.248 43.7391 134.248 18.7451 109.255C-6.24841 84.2615 -6.24841 43.7387 18.7453 18.745C43.7388 -6.24852 80.3261 -2.31327 105.32 22.6805C130.313 47.674 134.248 84.2615 109.255 109.255Z" fill="black"/>
<path d="M18.7451 18.7453C43.7386 -6.24823 84.2609 -6.24773 109.255 18.7455C134.248 43.739 134.248 84.2615 109.255 109.255" fill="#A2001D"/>
<path d="M48.9102 86.2614L49.9462 89.4501H53.299L50.5865 91.4206L51.6227 94.6094L48.9102 92.6386L46.1977 94.6094L47.2337 91.4206L44.5215 89.4501H47.874L48.9102 86.2614Z" fill="#F0F0F0"/>
<path d="M40.3477 55.6526L42.075 60.9671H47.6625L43.1417 64.2513L44.8685 69.5658L40.3477 66.2811L35.8272 69.5658L37.5542 64.2513L33.0332 60.9671H38.6212L40.3477 55.6526Z" fill="#F0F0F0"/>
<path d="M40.3477 94.6094L42.0745 99.9239H47.6625L43.1412 103.208L44.8685 108.522L40.3477 105.238L35.8272 108.522L37.5537 103.208L33.0332 99.9239H38.6205L40.3477 94.6094Z" fill="#F0F0F0"/>
<path d="M56.6849 69.5658L58.4121 74.8803H63.9996L59.4789 78.1643L61.2056 83.4788L56.6849 80.194L52.1644 83.4788L53.8914 78.1643L49.3706 74.8803H54.9584L56.6849 69.5658Z" fill="#F0F0F0"/>
<path d="M24.0098 69.5658L25.7371 74.8803H31.3243L26.8038 78.1643L28.5303 83.4788L24.0098 80.194L19.4891 83.4788L21.2163 78.1643L16.6953 74.8803H22.2831L24.0098 69.5658Z" fill="#F0F0F0"/>
<path d="M107.137 47.3905C104.277 44.5303 100.561 42.8405 96.5668 42.5503L108.522 33.252C103.761 28.4908 97.3791 26.3405 91.1521 26.7953C90.4066 24.1163 88.9853 21.5858 86.8786 19.479L82.1563 28.9235C81.8466 28.359 81.4543 27.8278 80.9758 27.3495C78.2588 24.6328 73.8543 24.6328 71.1378 27.3495C68.4213 30.0663 68.4208 34.4708 71.1378 37.1875C71.6161 37.6658 72.1476 38.058 72.7121 38.368L63.2676 43.0903C65.3748 45.1978 67.9071 46.62 70.5876 47.365C70.1313 53.592 72.2793 59.9725 77.0408 64.734L87.4858 51.3045C88.2716 50.5308 89.3093 50.1035 90.4133 50.1035C91.5283 50.1035 92.5763 50.5375 93.3646 51.3263C94.1531 52.1145 94.5873 53.1628 94.5873 54.2775C94.5873 55.3925 94.1531 56.4405 93.3646 57.229L97.3001 61.1645C99.1393 59.325 100.153 56.8793 100.153 54.2778C100.153 52.1493 99.4736 50.1258 98.2201 48.4528C100.047 48.9405 101.773 49.896 103.203 51.3263C107.543 55.666 107.543 62.7275 103.203 67.067L107.138 71.0025C110.292 67.849 112.028 63.6565 112.028 59.1968C112.028 54.7365 110.291 50.544 107.137 47.3905Z" fill="#FFDA44"/>
</g>
<defs>
<clipPath id="clip0_97_11848">
<rect width="128" height="128" fill="white"/>
</clipPath>
</defs>
</svg>
