<svg width="128" height="128" viewBox="0 0 128 128" fill="none" xmlns="http://www.w3.org/2000/svg">
<g clip-path="url(#clip0_97_11858)">
<path d="M64 128C99.3462 128 128 99.3465 128 64.0002C128 28.654 99.3462 0.000244141 64 0.000244141C28.6538 0.000244141 0 28.654 0 64.0002C0 99.3465 28.6538 128 64 128Z" fill="#F0F0F0"/>
<path d="M64.0001 0.000244141C38.6266 0.000244141 16.7026 14.7665 6.35059 36.1742H121.649C111.298 14.7665 89.3733 0.000244141 64.0001 0.000244141Z" fill="#D80027"/>
<path d="M64.0001 128C89.3733 128 111.298 113.234 121.65 91.8263H6.35059C16.7026 113.234 38.6266 128 64.0001 128Z" fill="#0052B4"/>
<path d="M79.7405 45.4771L73.8378 51.3798C76.3555 53.8976 77.913 57.3758 77.913 61.2178C77.913 68.9018 71.6838 75.1308 64 75.1308C56.3163 75.1308 50.087 68.9016 50.087 61.2178C50.087 57.3758 51.6445 53.8976 54.1623 51.3798L48.2595 45.4771C44.2308 49.5051 41.7393 55.0703 41.7393 61.2178C41.7393 73.5123 51.7058 83.4785 64 83.4785C76.2943 83.4785 86.2608 73.5121 86.2608 61.2178C86.2605 55.0703 83.769 49.5051 79.7405 45.4771Z" fill="#6DA544"/>
<path d="M64.0002 52.8698L66.0724 59.2473H72.7777L67.3529 63.1883L69.4252 69.5655L64.0002 65.6243L58.5752 69.5655L60.6474 63.1883L55.2227 59.2473H61.9279L64.0002 52.8698Z" fill="#FFDA44"/>
</g>
<defs>
<clipPath id="clip0_97_11858">
<rect width="128" height="128" fill="white"/>
</clipPath>
</defs>
</svg>
