<svg width="128" height="128" viewBox="0 0 128 128" fill="none" xmlns="http://www.w3.org/2000/svg">
<g clip-path="url(#clip0_97_11869)">
<path d="M64 128C99.3462 128 128 99.3465 128 64.0002C128 28.654 99.3462 0.000244141 64 0.000244141C28.6538 0.000244141 0 28.654 0 64.0002C0 99.3465 28.6538 128 64 128Z" fill="#F0F0F0"/>
<path d="M64.0001 0.000244141V64.0002L18.7451 109.255C30.3269 120.837 46.3269 128 64.0001 128C99.3461 128 128 99.3462 128 64.0002C128 28.6542 64.0001 0.000244141 64.0001 0.000244141Z" fill="#D80027"/>
<path d="M64.0001 0.000244141C46.3269 0.000244141 30.3269 7.16374 18.7451 18.7452C34.4476 34.4477 40.0219 40.0222 64.0001 64.0002H128C128 28.6542 99.3461 0.000244141 64.0001 0.000244141Z" fill="#0052B4"/>
<path d="M43.8229 64.0003L36.0069 60.3238L40.1692 52.7541L31.6817 54.3778L30.6062 45.8036L24.6942 52.1096L18.7824 45.8036L17.7067 54.3778L9.21943 52.7538L13.3817 60.3238L5.56543 64.0003L13.3817 67.6768L9.21943 75.2466L17.7074 73.6231L18.7822 82.1971L24.6942 75.8911L30.6062 82.1971L31.6817 73.6231L40.1687 75.2468L36.0067 67.6771L43.8229 64.0003Z" fill="#FFDA44"/>
<path d="M17.0684 25.0438L19.6694 28.6796L23.9307 27.3298L21.2762 30.9268L23.8772 34.5626L19.6357 33.1498L16.9814 36.7466L17.0147 32.2766L12.7734 30.8636L17.0354 29.5138L17.0684 25.0438Z" fill="#FFDA44"/>
<path d="M17.0684 91.254L19.6694 94.8898L23.9307 93.5398L21.2762 97.137L23.8772 100.773L19.6357 99.36L16.9814 102.957L17.0147 98.4868L12.7734 97.0738L17.0354 95.724L17.0684 91.254Z" fill="#FFDA44"/>
<path d="M54.1665 58.149L51.5657 61.7848L47.3042 60.4345L49.9587 64.0318L47.3577 67.6678L51.5992 66.2548L54.2537 69.8515L54.2202 65.3818L58.4614 63.9688L54.1997 62.619L54.1665 58.149Z" fill="#FFDA44"/>
</g>
<defs>
<clipPath id="clip0_97_11869">
<rect width="128" height="128" fill="white"/>
</clipPath>
</defs>
</svg>
