<svg width="128" height="128" viewBox="0 0 128 128" fill="none" xmlns="http://www.w3.org/2000/svg">
<g clip-path="url(#clip0_97_11878)">
<path d="M128 64.0002C128 99.3462 99.346 128 64 128C28.654 128 0 99.3462 0 64.0002C0 64.0155 64 0.00724414 64 0.000244141C99.346 0.000244141 128 28.6542 128 64.0002Z" fill="#0052B4"/>
<path d="M63.8286 64.0004H63.9999C63.9999 63.9429 63.9999 63.8869 63.9999 63.8291C63.9429 63.8864 63.8859 63.9434 63.8286 64.0004Z" fill="#F0F0F0"/>
<path d="M64 33.3917C64 22.1305 64 14.7517 64 0.000488281H63.9893C28.6478 0.00648828 0 28.6577 0 64.0005H33.3913V45.1977L52.194 64.0005H63.829C63.886 63.9435 63.943 63.8865 64.0003 63.8292C64.0003 59.5175 64.0003 55.6702 64.0003 52.195L45.197 33.3917H64Z" fill="#F0F0F0"/>
<path d="M32.3787 8.34802C22.3689 14.0478 14.0472 22.3693 8.34766 32.379V64.0003H25.0434V25.0443V25.0438H63.9999C63.9999 19.778 63.9999 14.7615 63.9999 8.34802H32.3787Z" fill="#D80027"/>
<path d="M63.9999 56.1299L41.2611 33.3916H33.3911V33.3921L63.9994 64.0001H63.9999C63.9999 64.0001 63.9999 58.5734 63.9999 56.1299Z" fill="#D80027"/>
<path d="M100.174 38.9567L91.826 41.7395L83.4783 38.9567L80.6958 32.0002L83.4783 25.0437H100.174L97.3913 32.0002L100.174 38.9567Z" fill="#ACABB1"/>
<path d="M72.3477 38.9568V69.5653C72.3477 84.4753 91.8259 89.0438 91.8259 89.0438C91.8259 89.0438 111.304 84.4753 111.304 69.5653V38.9568H72.3477Z" fill="#338AF3"/>
<path d="M74.1035 76.8167C78.8915 86.0089 91.826 89.0437 91.826 89.0437C91.826 89.0437 104.761 86.0089 109.549 76.8167L91.826 47.3047L74.1035 76.8167Z" fill="#6DA544"/>
<path d="M111.304 69.256L91.8259 38.9568L72.3477 69.2563V69.5653C72.3477 72.3248 73.0162 74.7293 74.1034 76.8168L91.8259 49.248L109.548 76.8165C110.636 74.7288 111.304 72.3245 111.304 69.565V69.256Z" fill="#FFDA44"/>
</g>
<defs>
<clipPath id="clip0_97_11878">
<rect width="128" height="128" fill="white"/>
</clipPath>
</defs>
</svg>
