<svg width="128" height="128" viewBox="0 0 128 128" fill="none" xmlns="http://www.w3.org/2000/svg">
<g clip-path="url(#clip0_97_11894)">
<path d="M0 64.0002C0 91.5177 17.368 114.976 41.7388 124.019L47.3042 64L41.7388 3.98096C17.368 13.024 0 36.4825 0 64.0002Z" fill="#6DA544"/>
<path d="M128 64.0002C128 28.6542 99.3455 0.000244141 63.9995 0.000244141C56.171 0.000244141 48.6718 1.40849 41.7383 3.98099V124.019C48.6718 126.592 56.171 128 63.9995 128C99.3455 128 128 99.3462 128 64.0002Z" fill="#D80027"/>
<path d="M41.7393 86.261C54.0335 86.261 64 76.2945 64 64.0003C64 51.706 54.0335 41.7395 41.7393 41.7395C29.445 41.7395 19.4785 51.706 19.4785 64.0003C19.4785 76.2945 29.445 86.261 41.7393 86.261Z" fill="#FFDA44"/>
<path d="M29.2168 52.8698V66.7828C29.2168 73.6983 34.8228 79.3045 41.7385 79.3045C48.6543 79.3045 54.2603 73.6985 54.2603 66.7828V52.8698H29.2168Z" fill="#D80027"/>
<path d="M41.7394 70.9568C39.4379 70.9568 37.5654 69.0843 37.5654 66.7828V61.2178H45.9132V66.783C45.9132 69.0843 44.0407 70.9568 41.7394 70.9568Z" fill="#F0F0F0"/>
</g>
<defs>
<clipPath id="clip0_97_11894">
<rect width="128" height="128" fill="white"/>
</clipPath>
</defs>
</svg>
