<svg width="128" height="128" viewBox="0 0 128 128" fill="none" xmlns="http://www.w3.org/2000/svg">
<g clip-path="url(#clip0_97_11900)">
<path d="M64 128C99.3462 128 128 99.3465 128 64.0002C128 28.654 99.3462 0.000244141 64 0.000244141C28.6538 0.000244141 0 28.654 0 64.0002C0 99.3465 28.6538 128 64 128Z" fill="#F0F0F0"/>
<path d="M63.9996 0.000366211C43.0616 0.000366211 24.4729 10.0561 12.7969 25.6004H115.202C103.526 10.0561 84.9376 0.000366211 63.9996 0.000366211Z" fill="#D80027"/>
<path d="M63.9996 128C84.9376 128 103.526 117.945 115.202 102.4H12.7969C24.4729 117.945 43.0616 128 63.9996 128Z" fill="#D80027"/>
<path d="M0 64.0003C0 68.3841 0.442 72.6646 1.28175 76.8003H126.719C127.559 72.6646 128 68.3841 128 64.0003C128 59.6166 127.558 55.3361 126.718 51.2003H1.28175C0.442 55.3361 0 59.6166 0 64.0003H0Z" fill="#D80027"/>
<path d="M18.7451 18.7452C-6.24837 43.7387 -6.24837 84.2615 18.7451 109.255C29.0734 98.927 39.0066 88.9937 64.0001 64.0002L18.7451 18.7452Z" fill="#0052B4"/>
<path d="M25.9024 47.3044L30.0462 60.0584H43.4577L32.6082 67.9414L36.7517 80.6959L25.9024 72.8132L15.0527 80.6959L19.1972 67.9414L8.34766 60.0584H21.7582L25.9024 47.3044Z" fill="#F0F0F0"/>
</g>
<defs>
<clipPath id="clip0_97_11900">
<rect width="128" height="128" fill="white"/>
</clipPath>
</defs>
</svg>
