<svg width="128" height="128" viewBox="0 0 128 128" fill="none" xmlns="http://www.w3.org/2000/svg">
<g clip-path="url(#clip0_97_11908)">
<path d="M64 128C99.3462 128 128 99.3465 128 64.0002C128 28.654 99.3462 0.000244141 64 0.000244141C28.6538 0.000244141 0 28.654 0 64.0002C0 99.3465 28.6538 128 64 128Z" fill="#F0F0F0"/>
<path d="M127.999 64.0002C127.999 28.6542 99.3455 0.000244141 63.9995 0.000244141C51.4795 0.000244141 39.801 3.59899 29.9365 9.81299L43.9647 15.7732L25.043 23.8127L43.9647 31.852L25.043 39.891L43.9647 47.9297L25.043 55.9675L43.9647 64.0047L25.043 72.0437L43.9647 80.0822L25.043 88.12L43.9647 96.1585L25.043 104.197L43.9647 112.235L29.9427 118.192C39.806 124.403 51.482 128 63.9995 128C99.3455 128 127.999 99.3462 127.999 64.0002Z" fill="#751A46"/>
</g>
<defs>
<clipPath id="clip0_97_11908">
<rect width="128" height="128" fill="white"/>
</clipPath>
</defs>
</svg>
