<svg width="128" height="128" viewBox="0 0 128 128" fill="none" xmlns="http://www.w3.org/2000/svg">
<g clip-path="url(#clip0_97_11911)">
<path d="M64 128C99.3462 128 128 99.3465 128 64.0002C128 28.654 99.3462 0.000244141 64 0.000244141C28.6538 0.000244141 0 28.654 0 64.0002C0 99.3465 28.6538 128 64 128Z" fill="#FCFCFC"/>
<path d="M83.4777 52.8698V58.435H91.1157C87.9282 62.865 83.6825 66.4815 78.7495 68.9167C77.484 67.602 75.7072 66.7828 73.7385 66.7828C70.4197 66.7828 67.6457 69.1075 66.951 72.2173C65.9785 72.3028 64.9942 72.348 63.9995 72.348C63.0047 72.348 62.0205 72.3023 61.048 72.2173C60.3532 69.1078 57.5792 66.7828 54.2605 66.7828C52.2917 66.7828 50.5155 67.602 49.2495 68.9167C44.3165 66.4817 40.071 62.8648 36.8835 58.435H44.5212V52.8698H25.043C25.043 74.3845 42.4847 91.8262 63.9995 91.8262C85.5147 91.8262 102.956 74.3845 102.956 52.8698H83.4777Z" fill="#D80027"/>
</g>
<defs>
<clipPath id="clip0_97_11911">
<rect width="128" height="128" fill="white"/>
</clipPath>
</defs>
</svg>
