<svg width="128" height="128" viewBox="0 0 128 128" fill="none" xmlns="http://www.w3.org/2000/svg">
<g clip-path="url(#clip0_97_11914)">
<path d="M64 128C99.3462 128 128 99.3465 128 64.0002C128 28.654 99.3462 0.000244141 64 0.000244141C28.6538 0.000244141 0 28.654 0 64.0002C0 99.3465 28.6538 128 64 128Z" fill="#FFDA44"/>
<path d="M73.732 127.265C84.141 125.677 93.7225 121.578 101.846 115.61L63.999 64.0004L73.732 127.265Z" fill="#D80027"/>
<path d="M54.2661 0.736084C43.8574 2.32408 34.2759 6.42308 26.1519 12.3903L63.9994 64.0003L54.2661 0.736084Z" fill="#D80027"/>
<path d="M26.1519 115.61C34.2754 121.577 43.8569 125.676 54.2656 127.265L63.9994 64.0004L26.1519 115.61Z" fill="#D80027"/>
<path d="M12.3891 26.1528C6.42161 34.2768 2.32311 43.8581 0.734863 54.2671L63.9991 64.0003L12.3891 26.1528Z" fill="#D80027"/>
<path d="M0.734863 73.7334C2.32286 84.1424 6.42186 93.7239 12.3894 101.847L63.9991 64.0004L0.734863 73.7334Z" fill="#D80027"/>
<path d="M127.263 54.2671C125.675 43.8583 121.576 34.2768 115.609 26.1531L63.999 64.0003L127.263 54.2671Z" fill="#D80027"/>
<path d="M101.846 12.3901C93.7223 6.42283 84.141 2.32408 73.732 0.736084L63.999 64.0003L101.846 12.3901Z" fill="#D80027"/>
<path d="M115.609 101.848C121.577 93.7239 125.675 84.1421 127.264 73.7336L63.999 64.0004L115.609 101.848Z" fill="#D80027"/>
<path d="M63.999 86.2611C76.2933 86.2611 86.2598 76.2946 86.2598 64.0004C86.2598 51.7061 76.2933 41.7396 63.999 41.7396C51.7048 41.7396 41.7383 51.7061 41.7383 64.0004C41.7383 76.2946 51.7048 86.2611 63.999 86.2611Z" fill="#D80027"/>
<path d="M64 80.6959C73.2208 80.6959 80.6957 73.221 80.6957 64.0002C80.6957 54.7794 73.2208 47.3044 64 47.3044C54.7791 47.3044 47.3042 54.7794 47.3042 64.0002C47.3042 73.221 54.7791 80.6959 64 80.6959Z" fill="#FFDA44"/>
</g>
<defs>
<clipPath id="clip0_97_11914">
<rect width="128" height="128" fill="white"/>
</clipPath>
</defs>
</svg>
