<svg width="128" height="128" viewBox="0 0 128 128" fill="none" xmlns="http://www.w3.org/2000/svg">
<g clip-path="url(#clip0_97_11931)">
<path d="M86.2606 3.98074C79.3271 1.40849 71.8283 0.000244174 63.9998 0.000244174C56.1713 -5.82612e-06 48.6723 1.40849 41.7391 3.98074L36.1738 64L41.7391 124.019C48.6721 126.592 56.1711 128 63.9998 128C71.8281 128 79.3273 126.592 86.2606 124.019L91.8256 64.0002L86.2606 3.98074Z" fill="#FFDA44"/>
<path d="M128 64.0002C128 36.4827 110.632 13.0235 86.2607 3.98096V124.02C110.632 114.976 128 91.5182 128 64.0002Z" fill="#D80027"/>
<path d="M0 64C0 91.5182 17.368 114.976 41.7388 124.02L41.739 3.9812C17.368 13.0237 0 36.4822 0 64H0Z" fill="#0052B4"/>
</g>
<defs>
<clipPath id="clip0_97_11931">
<rect width="128" height="128" fill="white"/>
</clipPath>
</defs>
</svg>
