<svg width="128" height="128" viewBox="0 0 128 128" fill="none" xmlns="http://www.w3.org/2000/svg">
<g clip-path="url(#clip0_97_11939)">
<path d="M0 64.0002C0 75.0877 2.82075 85.5162 7.78175 94.6089L64 100.174L120.218 94.6089C125.179 85.5162 128 75.0877 128 64.0002L64 58.4349L0 64.0002Z" fill="#FFDA44"/>
<path d="M120.218 33.3915C109.363 13.4975 88.2588 0.000244141 64 0.000244141C39.7412 0.000244141 18.6365 13.4975 7.78175 33.3915C2.82075 42.4842 0 52.9127 0 64.0002H128C128 52.9127 125.179 42.4842 120.218 33.3915Z" fill="#338AF3"/>
<path d="M64 128C88.2587 128 109.363 114.503 120.218 94.609H7.78174C18.6365 114.503 39.7412 128 64 128Z" fill="#496E2D"/>
<path d="M72.3477 37.4555L80.1642 41.1323L76.0019 48.7023L84.4894 47.0788L85.5649 55.6525L91.4764 49.3465L97.3884 55.6525L98.4637 47.0788L106.951 48.7018L102.789 41.132L110.605 37.4555L102.789 33.7793L106.951 26.2093L98.4639 27.8328L97.3882 19.259L91.4764 25.565L85.5647 19.259L84.4894 27.8328L76.0017 26.2093L80.1639 33.7795L72.3477 37.4555Z" fill="#FFDA44"/>
</g>
<defs>
<clipPath id="clip0_97_11939">
<rect width="128" height="128" fill="white"/>
</clipPath>
</defs>
</svg>
