<svg width="128" height="128" viewBox="0 0 128 128" fill="none" xmlns="http://www.w3.org/2000/svg">
<g clip-path="url(#clip0_97_11944)">
<path d="M64 128C99.3462 128 128 99.3465 128 64.0002C128 28.654 99.3462 0.000244141 64 0.000244141C28.6538 0.000244141 0 28.654 0 64.0002C0 99.3465 28.6538 128 64 128Z" fill="#F0F0F0"/>
<path d="M64 0.00051199C63.9403 -0.044488 -0.0169966 63.9838 3.38838e-06 64.0005C3.38838e-06 28.6545 28.654 0.00051199 64 0.00051199Z" fill="#D80027"/>
<path d="M64 0.00038992C64.0597 -0.0446101 128.017 63.9834 128 64.0004C128 28.6544 99.346 0.00038992 64 0.00038992Z" fill="#D80027"/>
<path d="M64 128C63.9403 128.045 -0.0169966 64.0175 3.38838e-06 64.0005C3.38838e-06 99.3465 28.654 128 64 128Z" fill="#0052B4"/>
<path d="M64 128C64.0597 128.045 128.017 64.0174 128 64.0004C128 99.3464 99.346 128 64 128Z" fill="#0052B4"/>
<path d="M64.0002 33.3915L70.9072 54.6487H93.2584L75.1757 67.7862L82.0827 89.0437L64.0002 75.906L45.9177 89.0437L52.8247 67.7862L34.7422 54.6487H57.0932L64.0002 33.3915Z" fill="#FFDA44"/>
</g>
<defs>
<clipPath id="clip0_97_11944">
<rect width="128" height="128" fill="white"/>
</clipPath>
</defs>
</svg>
