<svg width="128" height="128" viewBox="0 0 128 128" fill="none" xmlns="http://www.w3.org/2000/svg">
<g clip-path="url(#clip0_97_11953)">
<path d="M6.3505 36.1743C2.282 44.5883 0 54.0275 0 64.0003C0 73.973 2.282 83.4123 6.3505 91.8263L64 97.3915L121.649 91.8263C125.718 83.4123 128 73.973 128 64.0003C128 54.0275 125.718 44.5883 121.649 36.1743L64 30.609L6.3505 36.1743Z" fill="#F0F0F0"/>
<path d="M6.35254 91.8263C16.704 113.234 38.6265 128 63.9998 128C89.373 128 111.296 113.234 121.647 91.8263H6.35254Z" fill="#496E2D"/>
<path d="M6.35254 36.1742H121.647C111.296 14.7665 89.3733 0.000244141 63.9998 0.000244141C38.6263 0.000244141 16.704 14.7665 6.35254 36.1742Z" fill="black"/>
<path d="M18.7451 18.7452C-6.24837 43.7387 -6.24837 84.2615 18.7451 109.255C29.0734 98.927 39.0066 88.9937 64.0001 64.0002L18.7451 18.7452Z" fill="#D80027"/>
<path d="M80.6957 64.0003C80.6957 54.6758 87.2489 46.8861 95.9999 44.9751C94.6549 44.6813 93.2594 44.5221 91.8259 44.5221C81.0682 44.5221 72.3477 53.2426 72.3477 64.0003C72.3477 74.7581 81.0682 83.4786 91.8259 83.4786C93.2592 83.4786 94.6547 83.3193 95.9999 83.0256C87.2489 81.1146 80.6957 73.3248 80.6957 64.0003Z" fill="#D80027"/>
<path d="M96.8182 51.4786L99.5815 59.9821H108.522L101.289 65.2366L104.052 73.7396L96.8182 68.4846L89.5855 73.7396L92.3487 65.2366L85.1152 59.9821H94.0555L96.8182 51.4786Z" fill="#D80027"/>
</g>
<defs>
<clipPath id="clip0_97_11953">
<rect width="128" height="128" fill="white"/>
</clipPath>
</defs>
</svg>
