<svg width="128" height="128" viewBox="0 0 128 128" fill="none" xmlns="http://www.w3.org/2000/svg">
<g clip-path="url(#clip0_97_11961)">
<path d="M128 64.0002C128 99.3462 99.346 128 64 128C28.654 128 0 99.3462 0 64.0002C21.9825 42.0177 40.626 23.3742 64 0.000244141C99.346 0.000244141 128 28.6542 128 64.0002Z" fill="#D80027"/>
<path d="M64 64.0002C64 28.6542 64 24.4872 64 0.000244141C28.654 0.000244141 0 28.6542 0 64.0002H64Z" fill="#0052B4"/>
<path d="M51.2618 41.7396L52.298 44.9284H55.6505L52.938 46.8986L53.9743 50.0874L51.2618 48.1166L48.5493 50.0874L49.5855 46.8986L46.873 44.9284H50.2255L51.2618 41.7396Z" fill="#F0F0F0"/>
<path d="M34.4239 16.6962L36.1506 22.0109H41.7386L37.2176 25.2947L38.9449 30.6092L34.4239 27.3244L29.9031 30.6092L31.6301 25.2947L27.1094 22.0109H32.6969L34.4239 16.6962Z" fill="#F0F0F0"/>
<path d="M51.1192 22.2611L52.8459 27.5761H58.4337L53.9129 30.8599L55.6397 36.1744L51.1192 32.8896L46.5984 36.1744L48.3254 30.8599L43.8047 27.5761H49.3922L51.1192 22.2611Z" fill="#F0F0F0"/>
<path d="M37.9219 44.5222L39.6489 49.837H45.2364L40.7157 53.1207L42.4427 58.4352L37.9219 55.1507L33.4012 58.4352L35.1282 53.1207L30.6074 49.837H36.1952L37.9219 44.5222Z" fill="#F0F0F0"/>
<path d="M23.2928 30.6091L25.0198 35.9239H30.6075L26.0865 39.2076L27.8135 44.5221L23.2928 41.2376L18.7723 44.5221L20.499 39.2076L15.9785 35.9239H21.566L23.2928 30.6091Z" fill="#F0F0F0"/>
</g>
<defs>
<clipPath id="clip0_97_11961">
<rect width="128" height="128" fill="white"/>
</clipPath>
</defs>
</svg>
