<svg width="128" height="128" viewBox="0 0 128 128" fill="none" xmlns="http://www.w3.org/2000/svg">
<g clip-path="url(#clip0_97_11970)">
<path d="M128 64.0002C128 99.3462 99.346 128 64 128C28.654 128 0 99.3462 0 64.0002C2.7825 64.0002 64 55.6525 64 55.6525L128 64.0002Z" fill="#338AF3"/>
<path d="M0 64.0002C0 28.6542 28.654 0.000244141 64 0.000244141C99.346 0.000244141 128 28.6542 128 64.0002" fill="#F0F0F0"/>
<path d="M89.4041 44.1613L64.0001 69.5655L38.5961 44.1613C35.3109 49.038 33.3916 54.9078 33.3916 61.2175V69.5653C33.3916 82.9693 42.0529 94.3875 54.0721 98.5203C52.4679 101.664 52.7384 105.588 55.0891 108.522C58.2111 106.02 61.4434 103.429 64.1854 101.232C66.9274 103.43 70.1599 106.02 73.2816 108.522C75.6599 105.554 75.9109 101.571 74.2434 98.4088C86.0984 94.1863 94.6086 82.8518 94.6086 69.5653V61.2178C94.6089 54.9078 92.6894 49.0383 89.4041 44.1613Z" fill="#6DA544"/>
<path d="M64 91.8263C51.7253 91.8263 41.7393 81.84 41.7393 69.5655V61.2178C41.7393 48.943 51.7255 38.957 64 38.957C76.2745 38.957 86.2608 48.9433 86.2608 61.2178V69.5655C86.2608 81.84 76.2748 91.8263 64 91.8263Z" fill="#FFDA44"/>
<path d="M77.9129 69.5654V61.2177C77.9129 53.5459 71.6714 47.3047 63.9999 47.3047C56.3284 47.3047 50.0869 53.5462 50.0869 61.2177V69.5654L63.9999 72.3479L77.9129 69.5654Z" fill="#338AF3"/>
<path d="M50.0869 69.5654C50.0869 77.2372 56.3284 83.4784 63.9999 83.4784C71.6714 83.4784 77.9129 77.2369 77.9129 69.5654H50.0869Z" fill="#6DA544"/>
<path d="M80.6959 38.9568C80.6959 34.3465 76.9584 30.609 72.3482 30.609C70.2094 30.609 68.2602 31.414 66.7829 32.7363V27.8263H69.5654V22.261H66.7829V19.4785H61.2177V22.261H58.4352V27.8263H61.2177V32.7363C59.7404 31.414 57.7909 30.609 55.6524 30.609C51.0422 30.609 47.3047 34.3465 47.3047 38.9568C47.3047 41.4285 48.3799 43.6485 50.0872 45.1773V50.0873H77.9132V45.1773C79.6207 43.6485 80.6959 41.4285 80.6959 38.9568Z" fill="#FFDA44"/>
</g>
<defs>
<clipPath id="clip0_97_11970">
<rect width="128" height="128" fill="white"/>
</clipPath>
</defs>
</svg>
