<svg width="128" height="128" viewBox="0 0 128 128" fill="none" xmlns="http://www.w3.org/2000/svg">
<g clip-path="url(#clip0_97_11978)">
<path d="M64 128C99.3462 128 128 99.3465 128 64.0002C128 28.654 99.3462 0.000244141 64 0.000244141C28.6538 0.000244141 0 28.654 0 64.0002C0 99.3465 28.6538 128 64 128Z" fill="#FFDA44"/>
<path d="M38.9563 41.7397H124.019C114.976 17.3685 91.5173 0.000488281 63.9998 0.000488281C46.3263 0.000488281 30.3281 7.16524 18.7471 18.7477L38.9563 41.7397Z" fill="#6DA544"/>
<path d="M38.9563 86.2611H124.019C114.976 110.632 91.5173 128 63.9998 128C46.3263 128 30.3281 120.836 18.7471 109.253L38.9563 86.2611Z" fill="#6DA544"/>
<path d="M18.7451 18.7452C-6.24837 43.7387 -6.24837 84.2615 18.7451 109.255C29.0734 98.927 39.0066 88.9937 64.0001 64.0002L18.7451 18.7452Z" fill="#D80027"/>
<path d="M81.2687 52.8698L84.0314 61.3728H92.9719L85.7389 66.6278L88.5017 75.1308L81.2687 69.8755L74.0357 75.1308L76.7982 66.6278L69.5654 61.3728H78.5059L81.2687 52.8698Z" fill="black"/>
<path d="M109.095 52.8698L111.857 61.3728H120.798L113.565 66.6278L116.327 75.1308L109.095 69.8755L101.861 75.1308L104.624 66.6278L97.3911 61.3728H106.332L109.095 52.8698Z" fill="black"/>
</g>
<defs>
<clipPath id="clip0_97_11978">
<rect width="128" height="128" fill="white"/>
</clipPath>
</defs>
</svg>
