<svg width="128" height="128" viewBox="0 0 128 128" fill="none" xmlns="http://www.w3.org/2000/svg">
<g clip-path="url(#clip0_97_11986)">
<path d="M64 128C99.3462 128 128 99.346 128 63.9998C128 28.6535 99.3462 -0.000244141 64 -0.000244141C28.6538 -0.000244141 0 28.6535 0 63.9998C0 99.346 28.6538 128 64 128Z" fill="#F0F0F0"/>
<path d="M127.458 55.652H72.3483H72.348V0.541506C69.6152 0.185756 66.8292 -0.000244141 64 -0.000244141C61.1707 -0.000244141 58.3848 0.185756 55.6522 0.541506V55.6515V55.6518H0.54175C0.186 58.3845 0 61.1705 0 63.9998C0 66.829 0.186 69.615 0.54175 72.3475H55.6517H55.652V127.458C58.3848 127.814 61.1707 128 64 128C66.8292 128 69.6152 127.814 72.3477 127.458V72.3483V72.3478H127.458C127.814 69.615 128 66.829 128 63.9998C128 61.1705 127.814 58.3845 127.458 55.652Z" fill="#D80027"/>
<path d="M94.6088 22.2605C89.4223 22.2605 85.0646 25.8077 83.8291 30.6082L94.6088 33.3907L105.389 30.6082C104.153 25.808 99.7953 22.2605 94.6088 22.2605Z" fill="black"/>
<path d="M83.4783 47.304L97.3913 50.0865V44.1707C101.303 43.1637 104.381 40.0845 105.388 36.1735L94.6088 33.391H80.6958L83.4783 41.7387V47.304Z" fill="black"/>
<path d="M105.389 30.6085H80.6958V36.1738V41.739H83.4783V36.1738H105.388C105.617 35.2845 105.739 34.352 105.739 33.3913C105.739 32.4303 105.618 31.4978 105.389 30.6085Z" fill="#ACABB1"/>
<path d="M36.1738 22.2605C30.9873 22.2605 26.6295 25.8077 25.394 30.6082L36.1738 33.3907L46.9535 30.6082C45.718 25.808 41.3603 22.2605 36.1738 22.2605Z" fill="black"/>
<path d="M25.0435 47.304L38.9565 50.0865V44.1707C42.8677 43.1637 45.9462 40.0845 46.953 36.1735L36.174 33.391H22.2607L25.0432 41.7387V47.304H25.0435Z" fill="black"/>
<path d="M46.9537 30.6085H22.2607V36.1738V41.739H25.0432V36.1738H46.9527C47.1817 35.2845 47.3042 34.352 47.3042 33.3913C47.3042 32.4303 47.1827 31.4978 46.9537 30.6085Z" fill="#ACABB1"/>
<path d="M94.6088 77.9127C89.4223 77.9127 85.0646 81.46 83.8291 86.2605L94.6088 89.043L105.389 86.2605C104.153 81.46 99.7953 77.9127 94.6088 77.9127Z" fill="black"/>
<path d="M83.4783 102.956L97.3913 105.739V99.823C101.303 98.816 104.381 95.7367 105.388 91.8257L94.6088 89.0432H80.6958L83.4783 97.391V102.956Z" fill="black"/>
<path d="M105.389 86.2605H80.6958V91.8257V97.391H83.4783V91.8257H105.388C105.617 90.9365 105.739 90.004 105.739 89.0433C105.739 88.0825 105.618 87.15 105.389 86.2605Z" fill="#ACABB1"/>
<path d="M36.1738 77.9127C30.9873 77.9127 26.6295 81.46 25.394 86.2605L36.1738 89.043L46.9535 86.2605C45.718 81.46 41.3603 77.9127 36.1738 77.9127Z" fill="black"/>
<path d="M25.0435 102.956L38.9565 105.739V99.823C42.8677 98.816 45.9462 95.7367 46.953 91.8257L36.174 89.0432H22.2607L25.0432 97.391V102.956H25.0435Z" fill="black"/>
<path d="M46.9537 86.2605H22.2607V91.8257V97.391H25.0432V91.8257H46.9527C47.1817 90.9365 47.3042 90.004 47.3042 89.0433C47.3042 88.0825 47.1827 87.15 46.9537 86.2605Z" fill="#ACABB1"/>
</g>
<defs>
<clipPath id="clip0_97_11986">
<rect width="128" height="128" fill="white"/>
</clipPath>
</defs>
</svg>
