<svg width="128" height="128" viewBox="0 0 128 128" fill="none" xmlns="http://www.w3.org/2000/svg">
<g clip-path="url(#clip0_97_12001)">
<path d="M64 128C99.3462 128 128 99.3465 128 64.0002C128 28.654 99.3462 0.000244141 64 0.000244141C28.6538 0.000244141 0 28.654 0 64.0002C0 99.3465 28.6538 128 64 128Z" fill="#6DA544"/>
<path d="M36.1729 76.5221C36.1729 81.1323 39.9104 84.8698 44.5206 84.8698H69.5641C69.5641 88.7118 72.6786 91.8263 76.5206 91.8263H84.8684C88.7104 91.8263 91.8248 88.7118 91.8248 84.8698V76.5221H36.1729Z" fill="#F0F0F0"/>
<path d="M92.5208 36.1743V55.6526C92.5208 58.7213 90.0243 61.2178 86.9556 61.2178V69.5656C94.6273 69.5656 100.869 63.3241 100.869 55.6526V36.1743H92.5208Z" fill="#F0F0F0"/>
<path d="M32.6946 55.6527C32.6946 58.7214 30.1981 61.2179 27.1294 61.2179V69.5657C34.8011 69.5657 41.0424 63.3242 41.0424 55.6527V36.1744H32.6946V55.6527Z" fill="#F0F0F0"/>
<path d="M79.999 36.1743H88.3468V55.6526H79.999V36.1743Z" fill="#F0F0F0"/>
<path d="M67.4771 47.3046C67.4771 48.0718 66.8528 48.6958 66.0858 48.6958C65.3188 48.6958 64.6946 48.0716 64.6946 47.3046V36.1741H56.3468V47.3046C56.3468 48.0718 55.7226 48.6958 54.9556 48.6958C54.1886 48.6958 53.5643 48.0716 53.5643 47.3046V36.1741H45.2163V47.3046C45.2163 52.6748 49.5853 57.0438 54.9556 57.0438C57.0238 57.0438 58.9418 56.3938 60.5208 55.2898C62.0996 56.3936 64.0178 57.0438 66.0861 57.0438C66.5026 57.0438 66.9121 57.0146 67.3148 56.9633C66.7233 59.4006 64.5283 61.2176 61.9121 61.2176V69.5653C69.5838 69.5653 75.8251 63.3238 75.8251 55.6523V47.3046V36.1741H67.4773V47.3046H67.4771Z" fill="#F0F0F0"/>
<path d="M45.2163 61.2178H57.7381V69.5655H45.2163V61.2178Z" fill="#F0F0F0"/>
</g>
<defs>
<clipPath id="clip0_97_12001">
<rect width="128" height="128" fill="white"/>
</clipPath>
</defs>
</svg>
