<svg width="128" height="128" viewBox="0 0 128 128" fill="none" xmlns="http://www.w3.org/2000/svg">
<g clip-path="url(#clip0_97_12010)">
<path d="M64 128C99.3462 128 128 99.3465 128 64.0002C128 28.654 99.3462 0.000244141 64 0.000244141C28.6538 0.000244141 0 28.654 0 64.0002C0 99.3465 28.6538 128 64 128Z" fill="#F0F0F0"/>
<path d="M102.964 13.2304C92.1721 4.93512 78.6634 0.000366211 63.9999 0.000366211C49.3364 0.000366211 35.8274 4.93537 25.0356 13.2304L63.9999 52.1944L102.964 13.2304Z" fill="#0052B4"/>
<path d="M13.2297 25.0364C4.935 35.8281 0 49.3369 0 64.0004C0 78.6639 4.935 92.1729 13.23 102.965L52.1942 64.0004L13.2297 25.0364Z" fill="#0052B4"/>
<path d="M25.0356 114.77C35.8276 123.066 49.3364 128 63.9999 128C78.6634 128 92.1721 123.065 102.964 114.77L63.9999 75.8064L25.0356 114.77Z" fill="#0052B4"/>
<path d="M114.77 102.964C123.065 92.1726 128 78.6639 128 64.0004C128 49.3369 123.065 35.8281 114.77 25.0364L75.8062 64.0004L114.77 102.964Z" fill="#0052B4"/>
</g>
<defs>
<clipPath id="clip0_97_12010">
<rect width="128" height="128" fill="white"/>
</clipPath>
</defs>
</svg>
