<svg width="128" height="128" viewBox="0 0 128 128" fill="none" xmlns="http://www.w3.org/2000/svg">
<g clip-path="url(#clip0_97_12017)">
<path d="M91.8261 6.35074C83.4121 2.28224 73.9726 0.000244141 64.0001 0.000244141C54.0276 0.000244141 44.5881 2.28224 36.1741 6.35074L30.6089 64.0002L36.1741 121.65C44.5881 125.718 54.0276 128 64.0001 128C73.9726 128 83.4121 125.718 91.8261 121.65L97.3914 64.0002L91.8261 6.35074Z" fill="#FFDA44"/>
<path d="M63.9993 41.7394L69.5243 58.7444H87.4063L72.9403 69.2551L78.4655 86.2609L63.9993 75.7509L49.533 86.2609L55.0593 69.2551L40.5933 58.7444H58.474L63.9993 41.7394Z" fill="#496E2D"/>
<path d="M36.174 6.35278C14.7665 16.7045 0 38.6268 0 64C0 89.3733 14.7665 111.296 36.174 121.647V6.35278Z" fill="#496E2D"/>
<path d="M91.8262 6.35303V121.648C113.234 111.296 128 89.3735 128 64.0003C128 38.627 113.234 16.7048 91.8262 6.35303Z" fill="#D80027"/>
</g>
<defs>
<clipPath id="clip0_97_12017">
<rect width="128" height="128" fill="white"/>
</clipPath>
</defs>
</svg>
