<svg width="128" height="128" viewBox="0 0 128 128" fill="none" xmlns="http://www.w3.org/2000/svg">
<g clip-path="url(#clip0_97_12023)">
<path d="M64 128C99.3462 128 128 99.3465 128 64.0002C128 28.654 99.3462 0.000244141 64 0.000244141C28.6538 0.000244141 0 28.654 0 64.0002C0 99.3465 28.6538 128 64 128Z" fill="#F0F0F0"/>
<path d="M64 0.000244141C28.654 0.000244141 0 28.6542 0 64.0002C0 71.8287 1.40825 79.328 3.98075 86.261H124.02C126.592 79.328 128 71.8287 128 64.0002C128 28.6542 99.346 0.000244141 64 0.000244141Z" fill="#0052B4"/>
<path d="M64.0012 0.000488281C36.4834 0.000488281 13.0247 17.3685 3.98193 41.7397H124.021C114.978 17.3685 91.5189 0.000488281 64.0012 0.000488281Z" fill="#D80027"/>
<path d="M16.5508 36.1743V68.1008C16.5508 86.2618 40.276 91.8266 40.276 91.8266C40.276 91.8266 64.001 86.2618 64.001 68.1008V36.1743H16.5508Z" fill="#D80027"/>
<path d="M26.3613 41.7396H54.1876V30.6091L48.6223 33.3916L40.2746 25.0438L31.9266 33.3916L26.3613 30.6091V41.7396Z" fill="#FFDA44"/>
<path d="M58.4347 72.5461L40.3477 54.4591L22.2607 72.5461L28.1635 78.4489L40.3477 66.2646L52.532 78.4489L58.4347 72.5461Z" fill="#FFDA44"/>
<path d="M58.4347 55.6525H49.9957C50.4702 54.8335 50.7462 53.885 50.7462 52.8705C50.7462 49.7965 48.2545 47.3053 45.181 47.3053C43.0572 47.3053 41.213 48.4948 40.2747 50.2435C39.3365 48.495 37.4922 47.3053 35.3685 47.3053C32.295 47.3053 29.8032 49.7965 29.8032 52.8705C29.8032 53.885 30.0792 54.8338 30.5537 55.6525H22.2607C22.2607 58.7263 24.938 61.2178 28.0112 61.2178H27.826C27.826 64.2915 30.3175 66.7831 33.3912 66.7831C33.3912 69.5046 35.3457 71.7656 37.927 72.2495L33.542 82.15C35.6435 83.0043 37.94 83.4788 40.348 83.4788C42.756 83.4788 45.0525 83.0043 47.154 82.15L42.769 72.2495C45.3502 71.7661 47.3047 69.5048 47.3047 66.7831C50.3785 66.7831 52.87 64.2915 52.87 61.2178H52.6847C55.7577 61.2178 58.4347 58.726 58.4347 55.6525Z" fill="#F0F0F0"/>
</g>
<defs>
<clipPath id="clip0_97_12023">
<rect width="128" height="128" fill="white"/>
</clipPath>
</defs>
</svg>
