<svg width="128" height="128" viewBox="0 0 128 128" fill="none" xmlns="http://www.w3.org/2000/svg">
<g clip-path="url(#clip0_97_12033)">
<path d="M64 128C99.3462 128 128 99.3465 128 64.0002C128 28.654 99.3462 0.000244141 64 0.000244141C28.6538 0.000244141 0 28.654 0 64.0002C0 99.3465 28.6538 128 64 128Z" fill="#F0F0F0"/>
<path d="M107.202 16.7845C95.8174 6.36149 80.6521 0.000244141 64.0001 0.000244141C61.2741 0.000244141 58.5879 0.171994 55.9514 0.502744L25.0436 36.1742L2.02539 80.033C3.51239 85.7982 5.78589 91.2467 8.71914 96.2622L64.0001 64.0002L107.202 16.7845Z" fill="#FFDA44"/>
<path d="M117.282 99.4597L27.7402 116.74C38.0475 123.84 50.537 128 63.9995 128C86.2297 128 105.809 116.664 117.282 99.4597Z" fill="#6DA544"/>
<path d="M107.212 16.793L8.75586 96.3242C11.3311 100.716 14.4144 104.774 17.9261 108.416L128 64.0002C128 45.3105 119.988 28.4935 107.212 16.793Z" fill="#D80027"/>
<path d="M0 64.0002C0 69.5369 0.7035 74.9092 2.02525 80.0329L55.9512 0.502686C24.4045 4.46119 0 31.3802 0 64.0002Z" fill="#0052B4"/>
</g>
<defs>
<clipPath id="clip0_97_12033">
<rect width="128" height="128" fill="white"/>
</clipPath>
</defs>
</svg>
