<svg width="128" height="128" viewBox="0 0 128 128" fill="none" xmlns="http://www.w3.org/2000/svg">
<g clip-path="url(#clip0_97_12039)">
<path d="M124.019 86.2605C126.592 79.3272 128 71.8282 128 63.9997C128 56.1712 126.592 48.6722 124.019 41.739L64 36.1737L3.98075 41.739C1.408 48.6722 0 56.1712 0 63.9997C0 71.8282 1.408 79.3272 3.98075 86.2605L64 91.8257L124.019 86.2605Z" fill="#F0F0F0"/>
<path d="M64 128C91.5175 128 114.976 110.632 124.019 86.2605H3.98047C13.0235 110.632 36.482 128 64 128Z" fill="#338AF3"/>
<path d="M64 -0.000244141C36.482 -0.000244141 13.0235 17.3678 3.98047 41.739H124.019C114.976 17.3678 91.5175 -0.000244141 64 -0.000244141Z" fill="#6DA544"/>
</g>
<defs>
<clipPath id="clip0_97_12039">
<rect width="128" height="128" fill="white"/>
</clipPath>
</defs>
</svg>
