<svg width="128" height="128" viewBox="0 0 128 128" fill="none" xmlns="http://www.w3.org/2000/svg">
<g clip-path="url(#clip0_97_12043)">
<path d="M64 128C99.3462 128 128 99.3465 128 64.0002C128 28.654 99.3462 0.000244141 64 0.000244141C28.6538 0.000244141 0 28.654 0 64.0002C0 99.3465 28.6538 128 64 128Z" fill="#F0F0F0"/>
<path d="M0 64.0005C0 28.6542 28.654 0.000244141 64 0.000244141C99.346 0.000244141 128 28.6542 128 64.0005" fill="#D80027"/>
<path d="M38.9564 33.3912C38.9564 24.0667 45.5096 16.2772 54.2606 14.366C52.9156 14.0725 51.5204 13.9132 50.0866 13.9132C39.3289 13.9132 30.6084 22.6337 30.6084 33.3915C30.6084 44.1492 39.3289 52.8697 50.0866 52.8697C51.5199 52.8697 52.9154 52.7105 54.2606 52.4167C45.5096 50.5055 38.9564 42.716 38.9564 33.3912Z" fill="#F0F0F0"/>
<path d="M63.9999 15.3046L65.3814 19.5558H69.8517L66.2349 22.1836L67.6164 26.4348L63.9999 23.8076L60.3834 26.4348L61.7649 22.1836L58.1484 19.5558H62.6184L63.9999 15.3046Z" fill="#F0F0F0"/>
<path d="M53.1567 23.6523L54.5379 27.9038H59.0082L55.3917 30.5313L56.7732 34.7826L53.1567 32.1553L49.5397 34.7826L50.9214 30.5313L47.3047 27.9038H51.7749L53.1567 23.6523Z" fill="#F0F0F0"/>
<path d="M74.8437 23.6523L76.2254 27.9038H80.6954L77.0787 30.5313L78.4604 34.7826L74.8437 32.1553L71.2272 34.7826L72.6087 30.5313L68.9922 27.9038H73.4622L74.8437 23.6523Z" fill="#F0F0F0"/>
<path d="M70.6699 36.1741L72.0514 40.4256H76.5214L72.9049 43.0531L74.2864 47.3043L70.6699 44.6771L67.0534 47.3043L68.4349 43.0531L64.8184 40.4256H69.2881L70.6699 36.1741Z" fill="#F0F0F0"/>
<path d="M57.3303 36.1741L58.7115 40.4256H63.182L59.5653 43.0531L60.947 47.3043L57.3303 44.6771L53.7135 47.3043L55.095 43.0531L51.4785 40.4256H55.9488L57.3303 36.1741Z" fill="#F0F0F0"/>
</g>
<defs>
<clipPath id="clip0_97_12043">
<rect width="128" height="128" fill="white"/>
</clipPath>
</defs>
</svg>
