<svg width="128" height="128" viewBox="0 0 128 128" fill="none" xmlns="http://www.w3.org/2000/svg">
<g clip-path="url(#clip0_97_12053)">
<path d="M27.9277 116.87C38.1992 123.891 50.6185 128 63.9995 128C77.3805 128 89.8 123.891 100.071 116.87L63.9995 111.304L27.9277 116.87Z" fill="#D80027"/>
<path d="M100.071 11.1307C89.8 4.10949 77.3805 0.000244141 63.9995 0.000244141C50.6185 0.000244141 38.1987 4.10949 27.9277 11.1307L63.9995 16.696L100.071 11.1307Z" fill="#D80027"/>
<path d="M27.9297 116.87C38.2012 123.891 50.6204 128 64.0014 128C77.3824 128 89.8019 123.891 100.073 116.87L64.0014 111.305L27.9297 116.87Z" fill="#D80027"/>
<path d="M100.073 11.131C89.8019 4.10974 77.3824 0.000488281 64.0014 0.000488281C50.6204 0.000488281 38.2007 4.10974 27.9297 11.131L64.0014 16.6962L100.073 11.131Z" fill="#D80027"/>
<path d="M127.835 59.8262C126.319 40.0737 114.317 20.8697 100.07 11.1305H27.9266C12.1426 21.9207 1.43581 39.5927 0.132812 59.8262L63.9983 64.0002L127.835 59.8262Z" fill="#0052B4"/>
<path d="M0.132812 68.1744C1.43581 88.4081 12.1423 106.08 27.9263 116.87H100.07C115.855 106.08 126.561 88.4081 127.864 68.1744L63.9983 64.0004L0.132812 68.1744Z" fill="#0052B4"/>
<path d="M127.837 59.826H68.174V8.34802H59.8262V59.826H0.13475C0.046 61.206 0 62.5978 0 64.0003C0 65.4025 0.04575 66.794 0.1345 68.174H59.8262V119.653H68.174V68.174H127.866C127.954 66.794 128 65.4025 128 64.0003C128 62.608 127.944 61.2158 127.837 59.826Z" fill="#D80027"/>
<path d="M25.043 64.0003L63.9992 39.5148L102.956 64.0003L63.9992 88.486L25.043 64.0003Z" fill="#F0F0F0"/>
<path d="M41.7393 75.1307H91.826L80.6958 58.4349L75.1305 64.0002L69.5653 61.2177L64 69.5654H52.8695L47.3043 64.0002L41.7393 75.1307Z" fill="#6DA544"/>
<path d="M63.9997 47.3044L65.3812 51.5557H69.8509L66.2347 54.1834L67.6162 58.4349L63.9997 55.8074L60.3832 58.4349L61.7647 54.1834L58.1484 51.5557H62.6182L63.9997 47.3044Z" fill="#FFDA44"/>
<path d="M63.9998 32.5188L13.9131 64.0003L63.9998 95.4818L114.087 64.0003L63.9998 32.5188ZM29.6001 64.0003L63.9998 42.3785L98.4001 64.0003L63.9998 85.622L29.6001 64.0003Z" fill="#D80027"/>
</g>
<defs>
<clipPath id="clip0_97_12053">
<rect width="128" height="128" fill="white"/>
</clipPath>
</defs>
</svg>
