<svg width="128" height="128" viewBox="0 0 128 128" fill="none" xmlns="http://www.w3.org/2000/svg">
<g clip-path="url(#clip0_97_12068)">
<path d="M58.4349 69.5655C58.4349 69.5655 18.7826 18.7365 18.7451 18.7455C30.3266 7.16374 46.3269 0.000244141 64.0001 0.000244141C99.3461 0.000244141 128 28.6542 128 64.0002L58.4349 69.5655Z" fill="#D80027"/>
<path d="M58.4349 64.0002C58.4349 64.0002 18.7826 109.264 18.7451 109.255C30.3266 120.837 46.3269 128 64.0001 128C99.3461 128 128 99.3462 128 64.0002H58.4349Z" fill="#0052B4"/>
<path d="M18.7451 18.7452C-6.24837 43.7387 -6.24837 84.2615 18.7451 109.255C29.0734 98.927 39.0066 88.9937 64.0001 64.0002L18.7451 18.7452Z" fill="#F0F0F0"/>
<path d="M7.01432 64.0004C6.97932 64.4599 6.95557 64.9229 6.95557 65.3914C6.95557 75.3804 15.0536 83.4784 25.0426 83.4784C35.0316 83.4784 43.1296 75.3804 43.1296 65.3914C43.1296 64.9229 43.1058 64.4596 43.0708 64.0004H7.01432Z" fill="#FFDA44"/>
<path d="M25.0428 55.6523C28.1164 55.6523 30.608 53.1607 30.608 50.0871C30.608 47.0135 28.1164 44.5219 25.0428 44.5219C21.9692 44.5219 19.4775 47.0135 19.4775 50.0871C19.4775 53.1607 21.9692 55.6523 25.0428 55.6523Z" fill="#FFDA44"/>
<path d="M12.522 48.696V66.783C12.522 76.368 25.0437 79.3048 25.0437 79.3048C25.0437 79.3048 37.5655 76.368 37.5655 66.783V48.696H12.522Z" fill="#D80027"/>
<path d="M25.0497 73.4802C22.7267 72.6442 18.0869 70.5077 18.0869 66.7827V54.261H32.0002V66.7827C32.0002 70.52 27.3609 72.6512 25.0497 73.4802Z" fill="#338AF3"/>
<path d="M27.8261 61.2177V58.435L25.0436 57.0437L22.2609 58.435V61.2177L20.8696 62.609V68.1742H29.2176V62.609L27.8261 61.2177Z" fill="#F3F3F3"/>
</g>
<defs>
<clipPath id="clip0_97_12068">
<rect width="128" height="128" fill="white"/>
</clipPath>
</defs>
</svg>
