<svg width="128" height="128" viewBox="0 0 128 128" fill="none" xmlns="http://www.w3.org/2000/svg">
<g clip-path="url(#clip0_97_12078)">
<path d="M64 128C99.3462 128 128 99.346 128 63.9998C128 28.6535 99.3462 -0.000244141 64 -0.000244141C28.6538 -0.000244141 0 28.6535 0 63.9998C0 99.346 28.6538 128 64 128Z" fill="#F0F0F0"/>
<path d="M64 128C99.346 128 128 99.3458 128 63.9998C128 56.1713 126.592 48.672 124.019 41.739H3.98075C1.40825 48.672 0 56.1713 0 63.9998C0 99.3458 28.654 128 64 128Z" fill="#0052B4"/>
<path d="M64.0002 128C91.518 128 114.977 110.632 124.019 86.2605H3.98096C13.0237 110.632 36.4825 128 64.0002 128Z" fill="#D80027"/>
<path d="M16.5493 36.1737V68.1002C16.5493 86.2612 40.2746 91.826 40.2746 91.826C40.2746 91.826 63.9996 86.2612 63.9996 68.1002V36.1737H16.5493Z" fill="#F0F0F0"/>
<path d="M22.1147 36.1737V68.1002C22.1147 70.2322 22.5882 72.2457 23.5262 74.1335H57.023C57.961 72.246 58.4345 70.2322 58.4345 68.1002V36.1737H22.1147Z" fill="#D80027"/>
<path d="M51.4048 58.4345H43.0573V52.8693H48.6225V47.304H43.0573V41.739H37.492V47.304H31.927V52.8693H37.492V58.4345H29.144V63.9998H37.492V69.565H43.0573V63.9998H51.4048V58.4345Z" fill="#F0F0F0"/>
<path d="M31.1176 81.9022C34.7039 84.156 38.3884 85.4645 40.2746 86.0465C42.1609 85.4647 45.8454 84.156 49.4316 81.9022C53.0481 79.6292 55.5834 77.0297 57.0229 74.1335C55.4351 73.0102 53.4979 72.3477 51.4051 72.3477C50.6431 72.3477 49.9029 72.438 49.1911 72.6037C47.6829 69.1767 44.2591 66.7825 40.2749 66.7825C36.2906 66.7825 32.8666 69.1767 31.3586 72.6037C30.6469 72.438 29.9064 72.3477 29.1446 72.3477C27.0519 72.3477 25.1146 73.0102 23.5269 74.1335C24.9656 77.0295 27.5009 79.629 31.1176 81.9022Z" fill="#0052B4"/>
</g>
<defs>
<clipPath id="clip0_97_12078">
<rect width="128" height="128" fill="white"/>
</clipPath>
</defs>
</svg>
