<svg width="128" height="128" viewBox="0 0 128 128" fill="none" xmlns="http://www.w3.org/2000/svg">
<g clip-path="url(#clip0_97_12086)">
<path d="M64 128C99.3462 128 128 99.3465 128 64.0002C128 28.654 99.3462 0.000244141 64 0.000244141C28.6538 0.000244141 0 28.654 0 64.0002C0 99.3465 28.6538 128 64 128Z" fill="#F0F0F0"/>
<path d="M124.019 41.7395H55.6522V25.0437H22.2607V41.7395H3.98075C1.40825 48.6725 0 56.1717 0 64.0002C0 71.8287 1.40825 79.3277 3.98075 86.2609L64 91.8262L124.019 86.2609C126.592 79.3277 128 71.8287 128 64.0002C128 56.1717 126.592 48.6725 124.019 41.7395Z" fill="#0052B4"/>
<path d="M64.0002 128C91.518 128 114.977 110.632 124.019 86.261H3.98096C13.0237 110.632 36.4825 128 64.0002 128Z" fill="#D80027"/>
<path d="M22.2607 41.7395V47.3045C22.2607 60.0848 38.9565 64.0005 38.9565 64.0005C38.9565 64.0005 55.6522 60.0848 55.6522 47.3045V41.7395L50.087 47.3048L38.9565 38.957L27.826 47.3048L22.2607 41.7395Z" fill="#F0F0F0"/>
</g>
<defs>
<clipPath id="clip0_97_12086">
<rect width="128" height="128" fill="white"/>
</clipPath>
</defs>
</svg>
