<svg width="128" height="128" viewBox="0 0 128 128" fill="none" xmlns="http://www.w3.org/2000/svg">
<g clip-path="url(#clip0_97_12091)">
<path d="M109.257 109.257C133.259 85.2541 134.207 46.9329 112.11 21.7932L63.9998 63.9998L21.7929 112.11C46.9326 134.207 85.2536 133.259 109.257 109.257Z" fill="#496E2D"/>
<path d="M18.7433 18.7437C42.7461 -5.25899 81.0672 -6.20674 106.207 15.8905L63.9998 64.0009L15.8904 106.207C-6.20711 81.0676 -5.25911 42.7464 18.7433 18.7437Z" fill="#0052B4"/>
<path d="M106.207 15.8902L15.8901 106.207C16.8031 107.246 17.7511 108.265 18.7434 109.257C19.7353 110.249 20.7546 111.197 21.7936 112.11L112.11 21.7932C111.197 20.7542 110.248 19.7352 109.256 18.743C108.265 17.7515 107.245 16.8032 106.207 15.8902Z" fill="#FFDA44"/>
<path d="M26.965 22.259L28.3467 26.5107H32.817L29.2005 29.138L30.5817 33.3897L26.965 30.762L23.3482 33.3897L24.73 29.138L21.1132 26.5107H25.5837L26.965 22.259Z" fill="#F0F0F0"/>
<path d="M49.7999 22.2591L51.1816 26.5109H55.6516L52.0351 29.1381L53.4166 33.3898L49.7999 30.7621L46.1832 33.3898L47.5649 29.1381L43.9482 26.5109H48.4184L49.7999 22.2591Z" fill="#F0F0F0"/>
<path d="M26.965 44.5208L28.3467 48.7725H32.817L29.2005 51.4L30.5817 55.6518L26.965 53.024L23.3482 55.6518L24.73 51.4L21.1132 48.7725H25.5837L26.965 44.5208Z" fill="#F0F0F0"/>
<path d="M49.7999 44.5208L51.1816 48.7725H55.6516L52.0351 51.4L53.4166 55.6518L49.7999 53.024L46.1832 55.6518L47.5649 51.4L43.9482 48.7725H48.4184L49.7999 44.5208Z" fill="#F0F0F0"/>
<path d="M38.3827 33.3898L39.7644 37.6416H44.2344L40.6179 40.2691L41.9994 44.5208L38.3827 41.8931L34.7659 44.5208L36.1474 40.2691L32.5307 37.6416H37.0012L38.3827 33.3898Z" fill="#F0F0F0"/>
</g>
<defs>
<clipPath id="clip0_97_12091">
<rect width="128" height="128" fill="white"/>
</clipPath>
</defs>
</svg>
