<svg width="128" height="128" viewBox="0 0 128 128" fill="none" xmlns="http://www.w3.org/2000/svg">
<g clip-path="url(#clip0_97_12104)">
<path d="M124.019 86.2609C126.592 79.3277 128 71.8287 128 64.0002C128 56.1717 126.592 48.6727 124.019 41.7394L64 36.1742L3.98075 41.7394C1.40825 48.6727 0 56.1717 0 64.0002C0 71.8287 1.40825 79.3277 3.98075 86.2609L64 91.8262L124.019 86.2609Z" fill="#F0F0F0"/>
<path d="M64 128C91.5175 128 114.976 110.632 124.019 86.261H3.98047C13.0235 110.632 36.482 128 64 128Z" fill="#D80027"/>
<path d="M64 0.000244141C36.482 0.000244141 13.0235 17.3682 3.98047 41.7395H124.019C114.976 17.3682 91.5175 0.000244141 64 0.000244141Z" fill="#496E2D"/>
<path d="M64.0001 50.0873L67.4533 60.7155H78.6291L69.5878 67.2848L73.0416 77.9133L64.0001 71.345L54.9586 77.9133L58.4123 67.2848L49.3711 60.7155H60.5468L64.0001 50.0873Z" fill="black"/>
<path d="M83.0157 12.5219V25.5071C83.0157 27.5534 81.3514 29.2174 79.3057 29.2174V34.7826C84.4202 34.7826 88.5809 30.6218 88.5809 25.5071V12.5219H83.0157Z" fill="#F0F0F0"/>
<path d="M43.1316 25.507C43.1316 27.5532 41.4674 29.2172 39.4214 29.2172V34.7825C44.5361 34.7825 48.6969 30.6217 48.6969 25.507V12.5217H43.1316V25.507Z" fill="#F0F0F0"/>
<path d="M74.667 12.5219H80.2322V25.5071H74.667V12.5219Z" fill="#F0F0F0"/>
<path d="M66.3198 19.9418C66.3198 20.4533 65.9035 20.8696 65.3923 20.8696C64.8808 20.8696 64.4645 20.4533 64.4645 19.9418V12.5219H58.8993V19.9418C58.8993 20.4533 58.4833 20.8696 57.9718 20.8696C57.4603 20.8696 57.0443 20.4533 57.0443 19.9418V12.5219H51.479V19.9418C51.479 23.5223 54.3915 26.4348 57.9718 26.4348C59.3505 26.4348 60.6295 26.0016 61.6818 25.2659C62.7345 26.0016 64.0133 26.4348 65.392 26.4348C65.6698 26.4348 65.9428 26.4154 66.2113 26.3811C65.8168 28.0059 64.3535 29.2174 62.6095 29.2174V34.7826C67.724 34.7826 71.8848 30.6218 71.8848 25.5071V19.9418V12.5219H66.3195L66.3198 19.9418Z" fill="#F0F0F0"/>
<path d="M51.4795 29.2177H59.8272V34.7829H51.4795V29.2177Z" fill="#F0F0F0"/>
</g>
<defs>
<clipPath id="clip0_97_12104">
<rect width="128" height="128" fill="white"/>
</clipPath>
</defs>
</svg>
