<svg width="128" height="128" viewBox="0 0 128 128" fill="none" xmlns="http://www.w3.org/2000/svg">
<g clip-path="url(#clip0_97_12122)">
<path d="M64 128C99.3462 128 128 99.346 128 63.9998C128 28.6535 99.3462 -0.000244141 64 -0.000244141C28.6538 -0.000244141 0 28.6535 0 63.9998C0 99.346 28.6538 128 64 128Z" fill="#F0F0F0"/>
<path d="M86.2608 63.9998C86.2608 69.565 76.2943 83.478 64 83.478C51.7058 83.478 41.7393 69.565 41.7393 63.9998C41.7393 51.7053 51.7058 41.739 64 41.739C76.2943 41.739 86.2608 51.7053 86.2608 63.9998Z" fill="#D80027"/>
<path d="M86.2608 63.9998C86.2608 76.2943 76.2943 86.2605 64 86.2605C51.7058 86.2605 41.7393 76.2943 41.7393 63.9998" fill="#0052B4"/>
<path d="M87.5938 83.6768L93.4956 77.7749L97.4302 81.7095L91.5284 87.6114L87.5938 83.6768Z" fill="black"/>
<path d="M77.7539 93.5135L83.6558 87.6117L87.5904 91.5463L81.6885 97.4482L77.7539 93.5135Z" fill="black"/>
<path d="M99.3984 95.48L105.3 89.5781L109.235 93.5128L103.333 99.4146L99.3984 95.48Z" fill="black"/>
<path d="M89.5586 105.318L95.4605 99.4165L99.3951 103.351L93.4932 109.253L89.5586 105.318Z" fill="black"/>
<path d="M93.4961 89.5789L99.398 83.677L103.333 87.6116L97.4307 93.5135L93.4961 89.5789Z" fill="black"/>
<path d="M83.6592 99.4155L89.561 93.5137L93.4957 97.4483L87.5938 103.35L83.6592 99.4155Z" fill="black"/>
<path d="M99.4238 44.3336L83.6855 28.5953L87.6201 24.6606L103.358 40.399L99.4238 44.3336Z" fill="black"/>
<path d="M83.6836 40.4005L77.7817 34.4987L81.7162 30.5642L87.6181 36.4661L83.6836 40.4005Z" fill="black"/>
<path d="M93.5195 50.2395L87.6177 44.3376L91.5521 40.4032L97.454 46.305L93.5195 50.2395Z" fill="black"/>
<path d="M95.4863 28.5947L89.5845 22.6929L93.5191 18.7582L99.421 24.6601L95.4863 28.5947Z" fill="black"/>
<path d="M105.328 38.4348L99.4263 32.533L103.361 28.5983L109.263 34.5002L105.328 38.4348Z" fill="black"/>
<path d="M22.6885 89.5677L38.4268 105.306L34.4922 109.241L18.7538 93.5024L22.6885 89.5677Z" fill="black"/>
<path d="M38.4258 93.4993L44.3276 99.4011L40.3932 103.336L34.4913 97.4337L38.4258 93.4993Z" fill="black"/>
<path d="M28.5889 83.6647L34.4907 89.5665L30.5561 93.5012L24.6542 87.5993L28.5889 83.6647Z" fill="black"/>
<path d="M34.4912 77.7611L50.2296 93.4995L46.2949 97.4341L30.5566 81.6957L34.4912 77.7611Z" fill="black"/>
<path d="M38.4258 22.6807L22.6874 38.419L18.7528 34.4844L34.4911 18.746L38.4258 22.6807Z" fill="black"/>
<path d="M44.3271 28.5819L28.5888 44.3203L24.6542 40.3856L40.3925 24.6473L44.3271 28.5819Z" fill="black"/>
<path d="M50.2344 34.4873L34.496 50.2257L30.5616 46.2912L46.2999 30.5528L50.2344 34.4873Z" fill="black"/>
</g>
<defs>
<clipPath id="clip0_97_12122">
<rect width="128" height="128" fill="white"/>
</clipPath>
</defs>
</svg>
