<svg width="128" height="128" viewBox="0 0 128 128" fill="none" xmlns="http://www.w3.org/2000/svg">
<g clip-path="url(#clip0_97_12144)">
<path d="M64 128C99.3462 128 128 99.3465 128 64.0002C128 28.654 99.3462 0.000244141 64 0.000244141C28.6538 0.000244141 0 28.654 0 64.0002C0 99.3465 28.6538 128 64 128Z" fill="#F0F0F0"/>
<path d="M123.007 39.1885C113.315 16.1657 90.5468 0.000244141 63.9998 0.000244141C46.3263 0.000244141 30.3281 7.16499 18.7471 18.7475L34.7746 39.1885H123.007Z" fill="black"/>
<path d="M34.9563 88.5802L18.7471 109.253C30.3281 120.835 46.3263 128 63.9998 128C90.6363 128 113.469 111.727 123.106 88.5802H34.9563Z" fill="#496E2D"/>
<path d="M13.9131 47.0728V80.6958H125.796C127.231 75.373 128 69.777 128 64.0003C128 58.1398 127.211 52.4648 125.735 47.0728H13.9131Z" fill="#A2001D"/>
<path d="M18.7451 18.7452C-6.24837 43.7387 -6.24837 84.2615 18.7451 109.255C29.0734 98.927 39.0066 88.9937 64.0001 64.0002L18.7451 18.7452Z" fill="#0052B4"/>
<path d="M20.8468 48.0883L28.658 58.9885L41.44 54.9273L33.4873 65.7255L41.2985 76.6263L28.5715 72.3995L20.6185 83.1975L20.706 69.7868L7.97852 65.5595L20.7595 61.4985L20.8468 48.0883Z" fill="#FFDA44"/>
</g>
<defs>
<clipPath id="clip0_97_12144">
<rect width="128" height="128" fill="white"/>
</clipPath>
</defs>
</svg>
