<svg width="128" height="128" viewBox="0 0 128 128" fill="none" xmlns="http://www.w3.org/2000/svg">
<g clip-path="url(#clip0_97_12115)">
<path d="M64 128C99.3462 128 128 99.3465 128 64.0002C128 28.654 99.3462 0.000244141 64 0.000244141C28.6538 0.000244141 0 28.654 0 64.0002C0 99.3465 28.6538 128 64 128Z" fill="#F0F0F0"/>
<path d="M18.7451 109.255C-6.24837 84.2615 -6.24837 43.739 18.7451 18.7452C18.7434 18.748 55.6524 64.0002 55.6524 64.0002L18.7451 109.255Z" fill="black"/>
<path d="M55.6527 64.0003L8.48866 32.1285C7.02641 34.6703 5.73691 37.3233 4.62891 40.0693L28.5062 64.0005L4.62966 87.933C5.73666 90.677 7.02491 93.3283 8.48616 95.8683L55.6527 64.0003Z" fill="#FFDA44"/>
<path d="M127.459 55.6525H55.6511L18.7451 18.7462C14.7681 22.7232 11.3128 27.221 8.48883 32.1287L40.2986 64.0002L8.48633 95.8677C11.3103 100.777 14.7671 105.276 18.7451 109.254L55.6511 72.348H127.459C127.815 69.6155 128.001 66.8295 128.001 64.0002C128.001 61.171 127.815 58.385 127.459 55.6525Z" fill="#6DA544"/>
<path d="M25.0352 114.77C35.8274 123.065 49.3367 128 64.0007 128C93.5704 128 118.452 107.945 125.796 80.696H59.1089L25.0352 114.77Z" fill="#0052B4"/>
<path d="M125.796 47.3045C118.452 20.0555 93.5704 0.000244141 64.0007 0.000244141C49.3367 0.000244141 35.8274 4.93549 25.0352 13.231L59.1087 47.3045H125.796Z" fill="#D80027"/>
</g>
<defs>
<clipPath id="clip0_97_12115">
<rect width="128" height="128" fill="white"/>
</clipPath>
</defs>
</svg>
