<svg width="128" height="128" viewBox="0 0 128 128" fill="none" xmlns="http://www.w3.org/2000/svg">
<g clip-path="url(#clip0_97_12156)">
<path d="M0.00025 11.131H0V116.87H0.00025V64.0009V11.131Z" fill="#FF9811"/>
<path d="M63.9999 128C99.346 128 128 99.3463 128 64.0001C128 28.654 99.346 0.000244141 63.9999 0.000244141C28.6537 0.000244141 0 28.654 0 64.0001C0 99.3463 28.6537 128 63.9999 128Z" fill="#FFDA44"/>
<path d="M50.0874 11.131H27.9286C26.9466 11.8023 25.9856 12.501 25.0438 13.2243L19.4786 64.0004L25.0438 114.776C25.9856 115.5 26.9466 116.199 27.9286 116.87H50.0874V11.131Z" fill="#FF9811"/>
<path d="M0.000488282 64.0006C0.000488282 84.6869 9.81751 103.077 25.044 114.777V13.2243C9.81751 24.9238 0.000488282 43.3143 0.000488282 64.0006Z" fill="#6DA544"/>
<path d="M102.957 39.0163V40.6176L103.016 40.6266L102.957 39.0163Z" fill="#FFDA44"/>
<path d="M122.899 80.6961H110.841L105.74 86.2614V97.3919H94.609V91.8267H100.174V80.6961H75.1307V87.6526H69.5654V74.3949C67.8579 72.8664 66.7829 70.6461 66.7829 68.1744V32.0005C66.7829 27.3903 70.5204 23.6528 75.1307 23.6528V75.1311H86.2612L90.0802 71.9484C89.4132 70.3596 89.0437 68.6149 89.0437 66.7834V58.4356H80.696V41.7401H97.3915C97.3915 38.9576 101.565 36.1748 101.565 36.1748C101.565 36.1748 105.74 38.9573 105.74 41.7401V45.9141V58.4358C108.835 58.4726 113.754 58.3923 119.068 58.4358C117.672 55.9958 116.87 53.1006 116.87 50.0881C116.87 45.1778 118.99 40.7633 122.364 37.7083C117.5 26.9295 109.739 17.739 100.072 11.131H58.4352V116.87H100.072C111.827 108.835 120.764 96.9822 125.1 83.0976L122.899 80.6961Z" fill="#A2001D"/>
</g>
<defs>
<clipPath id="clip0_97_12156">
<rect width="128" height="128" fill="white"/>
</clipPath>
</defs>
</svg>
