<svg width="128" height="128" viewBox="0 0 128 128" fill="none" xmlns="http://www.w3.org/2000/svg">
<g clip-path="url(#clip0_97_12163)">
<path d="M64 128C99.3462 128 128 99.3464 128 64.0002C128 28.654 99.3462 0.000244341 64 0.000244341C28.6538 0.000244341 0 28.654 0 64.0002C0 99.3464 28.6538 128 64 128Z" fill="#F0F0F0"/>
<path d="M114.271 51.4783H93.2164C93.2164 47.6364 90.1018 44.5219 86.2599 44.5219L80.6946 55.6522C80.6946 55.6522 86.631 72.3479 86.4453 72.3479H93.4018C97.2439 72.3479 100.358 69.2336 100.358 65.3915C104.2 65.3915 107.315 62.2772 107.315 58.435H107.083C110.925 58.4348 114.271 55.3205 114.271 51.4783Z" fill="#ACABB1"/>
<path d="M13.7266 51.4786H34.7816C34.7816 47.6367 37.8962 44.5221 41.7381 44.5221L47.3034 55.6525C47.3034 55.6525 41.367 72.3482 41.5527 72.3482H34.5962C30.7541 72.3482 27.6398 69.2339 27.6398 65.3917C23.7976 65.3917 20.6833 62.2774 20.6833 58.4353H20.915C17.0728 58.435 13.7266 55.3207 13.7266 51.4786Z" fill="#ACABB1"/>
<path d="M86.2607 89.0432V91.8258H41.739V89.0432H30.6086V100.174H41.739V102.956H86.2607V100.174H97.3911V89.0432H86.2607Z" fill="#FFDA44"/>
<path d="M41.7388 44.522V72.3478C41.7388 89.3875 63.9996 94.6088 63.9996 94.6088C63.9996 94.6088 86.2603 89.3875 86.2603 72.3478V44.522L63.9996 41.7394L41.7388 44.522Z" fill="#0052B4"/>
<path d="M41.7393 55.6531H86.2608V72.3488H41.7393V55.6531Z" fill="#D80027"/>
<path d="M75.13 30.6089V34.7828L72.3474 36.1742L69.5649 33.3915V25.0436H58.4345V33.3915L55.652 36.1742L52.8692 34.7828V30.6089H41.7388V44.5218H86.2606V30.6089H75.13Z" fill="#FFDA44"/>
</g>
<defs>
<clipPath id="clip0_97_12163">
<rect width="127.895" height="127.895" fill="white" transform="scale(1.00082)"/>
</clipPath>
</defs>
</svg>
