<svg width="128" height="128" viewBox="0 0 128 128" fill="none" xmlns="http://www.w3.org/2000/svg">
<g clip-path="url(#clip0_97_12177)">
<path d="M94.6089 7.78187C85.5162 2.82087 75.0877 0.00012207 64.0002 0.00012207C52.9127 0.00012207 42.4842 2.82087 33.3914 7.78187L27.8262 64.0001L33.3914 120.218C42.4842 125.179 52.9127 128 64.0002 128C75.0877 128 85.5162 125.179 94.6089 120.218L100.174 64.0001L94.6089 7.78187Z" fill="#FFDA44"/>
<path d="M33.3913 120.218V7.78186C13.4973 18.6369 0 39.7416 0 64.0004C0 88.2591 13.4973 109.364 33.3913 120.218Z" fill="#338AF3"/>
<path d="M128 64.0005C128 39.7417 114.502 18.637 94.6084 7.78198V120.218C114.502 109.364 128 88.2592 128 64.0005Z" fill="#6DA544"/>
<path d="M50.0868 80.6959L38.9561 64.0002L50.0866 47.3044L61.2176 64.0002L50.0868 80.6959Z" fill="#6DA544"/>
<path d="M77.9127 80.6959L66.7822 64.0002L77.9127 47.3044L89.0432 64.0002L77.9127 80.6959Z" fill="#6DA544"/>
<path d="M63.9996 102.957L52.8691 86.2612L63.9996 69.5657L75.1301 86.2612L63.9996 102.957Z" fill="#6DA544"/>
</g>
<defs>
<clipPath id="clip0_97_12177">
<rect width="128" height="128" fill="white"/>
</clipPath>
</defs>
</svg>
