<svg width="128" height="128" viewBox="0 0 128 128" fill="none" xmlns="http://www.w3.org/2000/svg">
<g clip-path="url(#clip0_97_12185)">
<path d="M6.3505 36.1743C2.282 44.5883 0 54.0275 0 64.0003C0 73.973 2.282 83.4123 6.3505 91.8263L64 97.3915L121.649 91.8263C125.718 83.4123 128 73.973 128 64.0003C128 54.0275 125.718 44.5883 121.649 36.1743L64 30.609L6.3505 36.1743Z" fill="#F0F0F0"/>
<path d="M6.35254 91.8262C16.704 113.234 38.6263 128 63.9998 128C89.3733 128 111.296 113.234 121.647 91.8262H6.35254Z" fill="black"/>
<path d="M6.35254 36.1741H121.647C111.296 14.7664 89.3733 0.00012207 63.9998 0.00012207C38.6263 0.00012207 16.704 14.7664 6.35254 36.1741Z" fill="#D80027"/>
<path d="M18.7451 18.7452C-6.24837 43.7387 -6.24837 84.2615 18.7451 109.255C29.0734 98.927 39.0066 88.9937 64.0001 64.0002L18.7451 18.7452Z" fill="#496E2D"/>
</g>
<defs>
<clipPath id="clip0_97_12185">
<rect width="128" height="128" fill="white"/>
</clipPath>
</defs>
</svg>
