<svg width="128" height="128" viewBox="0 0 128 128" fill="none" xmlns="http://www.w3.org/2000/svg">
<g clip-path="url(#clip0_97_12190)">
<path d="M64 128C99.3462 128 128 99.3465 128 64.0002C128 28.654 99.3462 0.000244141 64 0.000244141C28.6538 0.000244141 0 28.654 0 64.0002C0 99.3465 28.6538 128 64 128Z" fill="#F0F0F0"/>
<path d="M124.019 41.7394H3.9805C1.40825 48.6729 0 56.1716 0 64.0001C0 71.8286 1.40825 79.3279 3.9805 86.2609H124.019C126.592 79.3279 128 71.8286 128 64.0001C128 56.1716 126.592 48.6729 124.019 41.7394Z" fill="#A2001D"/>
<path d="M64.1855 128.001C86.106 128.001 105.45 116.978 116.984 100.175H11.3867C22.9212 116.978 42.2647 128.001 64.1855 128.001Z" fill="#6DA544"/>
<path d="M64.1855 0.000854492C86.106 0.000854492 105.45 11.0239 116.984 27.8269H11.3867C22.9212 11.0239 42.2647 0.000854492 64.1855 0.000854492Z" fill="#6DA544"/>
<path d="M63.9998 41.7394L69.525 58.7444H87.4063L72.9403 69.2554L78.466 86.2609L63.9998 75.7511L49.5335 86.2609L55.0595 69.2554L40.5933 58.7444H58.4745L63.9998 41.7394Z" fill="#FFDA44"/>
</g>
<defs>
<clipPath id="clip0_97_12190">
<rect width="128" height="128" fill="white"/>
</clipPath>
</defs>
</svg>
