<svg width="128" height="128" viewBox="0 0 128 128" fill="none" xmlns="http://www.w3.org/2000/svg">
<g clip-path="url(#clip0_97_12197)">
<path d="M121.649 91.8265C125.718 83.4127 128 73.973 128 64.0005C128 54.028 125.718 44.5882 121.649 36.1745L64 33.3917L6.3505 36.1742C2.282 44.5882 0 54.028 0 64.0005C0 73.973 2.282 83.4127 6.3505 91.8265L64 94.6092L121.649 91.8265Z" fill="#FFDA44"/>
<path d="M64.0001 0.00012207C38.6266 0.00012207 16.7026 14.7664 6.35059 36.1741H121.649C111.298 14.7664 89.3733 0.00012207 64.0001 0.00012207Z" fill="black"/>
<path d="M64.0001 128C38.6266 128 16.7026 113.234 6.35059 91.8262H121.649C111.298 113.234 89.3733 128 64.0001 128Z" fill="#0052B4"/>
<path d="M124.978 44.522H3.02225C1.06175 50.6642 0 57.208 0 64.0002C0 70.7925 1.06175 77.3362 3.02225 83.4785H124.978C126.938 77.3362 128 70.7925 128 64.0002C128 57.208 126.938 50.6642 124.978 44.522Z" fill="#A2001D"/>
<path d="M22.2607 61.2178H105.739V66.783H22.2607V61.2178Z" fill="#FFDA44"/>
<path d="M33.3906 50.0869H94.6081V55.6522H33.3906V50.0869Z" fill="#FFDA44"/>
<path d="M95.0067 64C95.0067 64 80.6959 80.6957 64.0004 80.6957C47.3049 80.6957 47.3047 64 47.3047 64C47.3047 64 47.3047 47.3042 64.0004 47.3042C80.6962 47.3042 95.0067 64 95.0067 64Z" fill="#F0F0F0"/>
<path d="M64.0004 80.6957C47.3046 80.6957 32.9941 64 32.9941 64C32.9941 64 47.3046 47.3042 64.0004 47.3042" fill="black"/>
<path d="M52.8691 58.4351H58.4344V69.5656H52.8691V58.4351Z" fill="#F0F0F0"/>
<path d="M69.5654 58.4351H75.1307V69.5656H69.5654V58.4351Z" fill="black"/>
<path d="M22.2606 69.5656C25.3342 69.5656 27.8258 67.0739 27.8258 64.0003C27.8258 60.9267 25.3342 58.4351 22.2606 58.4351C19.187 58.4351 16.6953 60.9267 16.6953 64.0003C16.6953 67.0739 19.187 69.5656 22.2606 69.5656Z" fill="#0052B4"/>
<path d="M105.739 69.5656C108.813 69.5656 111.304 67.0739 111.304 64.0003C111.304 60.9267 108.813 58.4351 105.739 58.4351C102.665 58.4351 100.174 60.9267 100.174 64.0003C100.174 67.0739 102.665 69.5656 105.739 69.5656Z" fill="#0052B4"/>
</g>
<defs>
<clipPath id="clip0_97_12197">
<rect width="128" height="128" fill="white"/>
</clipPath>
</defs>
</svg>
