<svg width="128" height="128" viewBox="0 0 128 128" fill="none" xmlns="http://www.w3.org/2000/svg">
<g clip-path="url(#clip0_97_12212)">
<path d="M64 128C99.3462 128 128 99.3465 128 64.0002C128 28.654 99.3462 0.000244141 64 0.000244141C28.6538 0.000244141 0 28.654 0 64.0002C0 99.3465 28.6538 128 64 128Z" fill="#FFDA44"/>
<path d="M50.0881 55.6525H127.459C123.368 24.2507 96.5176 0.000244141 64.0009 0.000244141C59.2224 0.000244141 54.5676 0.528494 50.0879 1.52149V55.6525H50.0881Z" fill="#0052B4"/>
<path d="M33.3915 55.6522V7.78198C15.818 17.3705 3.23774 34.9582 0.541992 55.6525H33.3915V55.6522Z" fill="#0052B4"/>
<path d="M33.3912 72.3479H0.541992C3.23774 93.0422 15.818 110.63 33.3915 120.218L33.3912 72.3479Z" fill="#0052B4"/>
<path d="M50.0879 72.3482V126.479C54.5676 127.472 59.2224 128 64.0009 128C96.5176 128 123.368 103.75 127.459 72.3479H50.0879V72.3482Z" fill="#0052B4"/>
</g>
<defs>
<clipPath id="clip0_97_12212">
<rect width="128" height="128" fill="white"/>
</clipPath>
</defs>
</svg>
