<svg width="128" height="128" viewBox="0 0 128 128" fill="none" xmlns="http://www.w3.org/2000/svg">
<g clip-path="url(#clip0_97_12222)">
<path d="M64 128C99.3462 128 128 99.3465 128 64.0002C128 28.654 99.3462 0.000244141 64 0.000244141C28.6538 0.000244141 0 28.654 0 64.0002C0 99.3465 28.6538 128 64 128Z" fill="#F0F0F0"/>
<path d="M63.9997 0.00012207C36.482 0.00012207 13.0232 17.3681 3.98047 41.7394H124.019C114.976 17.3681 91.5175 0.00012207 63.9997 0.00012207Z" fill="#D80027"/>
<path d="M63.9997 128C91.5175 128 114.976 110.632 124.019 86.2607H3.98047C13.0232 110.632 36.482 128 63.9997 128Z" fill="black"/>
<path d="M38.2403 48.696L41.6936 59.324H52.8693L43.8281 65.8935L47.2816 76.522L38.2403 69.9533L29.1991 76.522L32.6526 65.8935L23.6113 59.324H34.7871L38.2403 48.696Z" fill="#6DA544"/>
<path d="M89.7599 48.6958L93.2131 59.3238H104.389L95.3476 65.8933L98.8011 76.5218L89.7599 69.9531L80.7186 76.5218L84.1721 65.8933L75.1309 59.3238H86.3066L89.7599 48.6958Z" fill="#6DA544"/>
</g>
<defs>
<clipPath id="clip0_97_12222">
<rect width="128" height="128" fill="white"/>
</clipPath>
</defs>
</svg>
