<svg width="128" height="128" viewBox="0 0 128 128" fill="none" xmlns="http://www.w3.org/2000/svg">
<g clip-path="url(#clip0_97_12229)">
<path d="M128 64.0002C128 99.3462 99.346 128 64 128C28.654 128 0 99.3462 0 64.0002C21.9825 42.0177 40.626 23.3742 64 0.000244141C99.346 0.000244141 128 28.6542 128 64.0002Z" fill="#D80027"/>
<path d="M64 64.0002C64 28.6542 64 24.4872 64 0.000244141C28.654 0.000244141 0 28.6542 0 64.0002H64Z" fill="#0052B4"/>
<path d="M55.652 37.4553L47.8358 41.1323L51.9978 48.702L43.5105 47.078L42.4348 55.6523L36.5233 49.3463L30.6113 55.6523L29.536 47.078L21.0485 48.7015L25.2105 41.1318L17.3945 37.4553L25.2108 33.779L21.0485 26.209L29.5358 27.8328L30.6115 19.2588L36.5233 25.5648L42.435 19.2588L43.5105 27.8328L51.998 26.209L47.8358 33.7793L55.652 37.4553Z" fill="#F0F0F0"/>
<path d="M36.5246 49.3675C43.1041 49.3675 48.4378 44.0338 48.4378 37.4543C48.4378 30.8748 43.1041 25.541 36.5246 25.541C29.9451 25.541 24.6113 30.8748 24.6113 37.4543C24.6113 44.0338 29.9451 49.3675 36.5246 49.3675Z" fill="#0052B4"/>
<path d="M36.5235 43.8034C33.0233 43.8034 30.1758 40.9557 30.1758 37.4554C30.1758 33.9552 33.0235 31.1074 36.5235 31.1074C40.0238 31.1074 42.8715 33.9552 42.8715 37.4554C42.8713 40.9557 40.0233 43.8034 36.5235 43.8034Z" fill="#F0F0F0"/>
</g>
<defs>
<clipPath id="clip0_97_12229">
<rect width="128" height="128" fill="white"/>
</clipPath>
</defs>
</svg>
