<svg width="128" height="128" viewBox="0 0 128 128" fill="none" xmlns="http://www.w3.org/2000/svg">
<g clip-path="url(#clip0_97_12235)">
<path d="M6.3505 36.1741C2.282 44.5881 0 54.0276 0 64.0001C0 73.9726 2.282 83.4121 6.3505 91.8261L64 97.3914L121.649 91.8261C125.718 83.4121 128 73.9726 128 64.0001C128 54.0276 125.718 44.5881 121.649 36.1741L64 30.6089L6.3505 36.1741Z" fill="#F0F0F0"/>
<path d="M6.35254 91.8262C16.7043 113.234 38.6265 128 63.9998 128C89.373 128 111.296 113.234 121.647 91.8262H6.35254Z" fill="#6DA544"/>
<path d="M6.35254 36.174H121.647C111.296 14.7665 89.373 0 63.9998 0C38.6265 0 16.7043 14.7665 6.35254 36.174Z" fill="#D80027"/>
<path d="M52.8696 80.696H75.1306V71.235L70.6784 73.461L64.0001 66.7827L57.3219 73.461L52.8696 71.235V80.696Z" fill="#FFDA44"/>
<path d="M40.1329 69.5654L41.1691 72.7539H44.5216L41.8091 74.7247L42.8454 77.9132L40.1329 75.9427L37.4204 77.9132L38.4566 74.7247L35.7441 72.7539H39.0966L40.1329 69.5654Z" fill="#FFDA44"/>
<path d="M43.3453 58.4351L44.3815 61.6236H47.734L45.0215 63.5943L46.0575 66.7828L43.3453 64.8123L40.6328 66.7828L41.669 63.5943L38.9565 61.6236H42.309L43.3453 58.4351Z" fill="#FFDA44"/>
<path d="M52.5279 50.0874L53.5642 53.2759H56.9164L54.2044 55.2467L55.2402 58.4352L52.5279 56.4646L49.8157 58.4352L50.8517 55.2467L48.1392 53.2759H51.4919L52.5279 50.0874Z" fill="#FFDA44"/>
<path d="M87.8668 69.5654L86.8305 72.7539H83.478L86.1905 74.7247L85.1543 77.9132L87.8668 75.9427L90.579 77.9132L89.543 74.7247L92.2555 72.7539H88.903L87.8668 69.5654Z" fill="#FFDA44"/>
<path d="M84.6549 58.4351L83.6186 61.6236H80.2661L82.9786 63.5943L81.9424 66.7828L84.6549 64.8123L87.3674 66.7828L86.3311 63.5943L89.0436 61.6236H85.6911L84.6549 58.4351Z" fill="#FFDA44"/>
<path d="M75.4715 50.0874L74.4353 53.2759H71.083L73.795 55.2467L72.759 58.4352L75.4715 56.4646L78.1838 58.4352L77.1478 55.2467L79.86 53.2759H76.5075L75.4715 50.0874Z" fill="#FFDA44"/>
<path d="M64.0001 45.9131L65.0363 49.1016H68.3888L65.6763 51.0723L66.7126 54.2608L64.0001 52.2903L61.2876 54.2608L62.3238 51.0723L59.6113 49.1016H62.9638L64.0001 45.9131Z" fill="#FFDA44"/>
</g>
<defs>
<clipPath id="clip0_97_12235">
<rect width="128" height="128" fill="white"/>
</clipPath>
</defs>
</svg>
