<svg width="128" height="128" viewBox="0 0 128 128" fill="none" xmlns="http://www.w3.org/2000/svg">
<g clip-path="url(#clip0_97_12248)">
<path d="M64 128C99.3462 128 128 99.3465 128 64.0002C128 28.654 99.3462 0.000244141 64 0.000244141C28.6538 0.000244141 0 28.654 0 64.0002C0 99.3465 28.6538 128 64 128Z" fill="#FFDA44"/>
<path d="M18.7451 109.255C21.4298 111.94 24.2943 114.334 27.2991 116.442L116.442 27.2993C114.334 24.2946 111.94 21.4301 109.255 18.7453C106.57 16.0606 103.706 13.6666 100.701 11.5586L11.5586 100.701C13.6661 103.705 16.0606 106.57 18.7451 109.255Z" fill="black"/>
<path d="M18.745 18.7452C-1.44553 38.9361 -5.32178 69.2589 7.10897 93.3447L93.3445 7.1094C69.2587 -5.32135 38.9357 -1.44485 18.745 18.7452Z" fill="#6DA544"/>
<path d="M109.255 109.255C129.445 89.0648 133.321 58.7415 120.891 34.6558L34.6553 120.891C58.7405 133.322 89.0638 129.446 109.255 109.255Z" fill="#338AF3"/>
</g>
<defs>
<clipPath id="clip0_97_12248">
<rect width="128" height="128" fill="white"/>
</clipPath>
</defs>
</svg>
