<svg width="128" height="128" viewBox="0 0 128 128" fill="none" xmlns="http://www.w3.org/2000/svg">
<g clip-path="url(#clip0_97_12259)">
<path d="M64 128C99.3462 128 128 99.3465 128 64.0002C128 28.654 99.3462 0.000244141 64 0.000244141C28.6538 0.000244141 0 28.654 0 64.0002C0 99.3465 28.6538 128 64 128Z" fill="#F0F0F0"/>
<path d="M27.9282 11.1305C38.1995 4.109 50.619 0 64 0C77.381 0 89.8005 4.109 100.072 11.1305L64 13.913L27.9282 11.1305Z" fill="#FFDA44"/>
<path d="M18.7485 109.252L48.259 79.7419L64 52.8699L79.7393 79.7401L109.252 109.252C120.834 97.6709 128 81.6736 128 64.0004C128 42.0351 116.933 22.6566 100.072 11.1309H27.9282C11.0672 22.6566 0 42.0351 0 64.0004C0 81.6736 7.166 97.6709 18.7485 109.252Z" fill="#D80027"/>
<path d="M123.138 88.5057L76.3457 69.1162L79.7372 79.7372L109.252 109.252C115.145 103.359 119.894 96.324 123.138 88.5057Z" fill="#0052B4"/>
<path d="M128 64.0004C128 55.3191 126.27 47.0429 123.138 39.4951L64 64.0004H128Z" fill="#0052B4"/>
<path d="M109.252 18.7489C106.439 15.9364 103.366 13.3831 100.072 11.1309H85.908L64 64.0004L109.252 18.7489Z" fill="#0052B4"/>
<path d="M64 11.1309H42.0923L64 64.0004V11.1309Z" fill="#0052B4"/>
<path d="M18.7486 18.7485C12.8556 24.641 8.1063 31.6763 4.8623 39.4945L64.0001 64L18.7486 18.7485Z" fill="#0052B4"/>
<path d="M0 64C0 72.6812 1.73025 80.9575 4.862 88.5052L64 64H0Z" fill="#0052B4"/>
<path d="M27.9292 116.87C38.2002 123.891 50.6199 128 64.0009 128C77.382 128 89.8014 123.891 100.073 116.87H27.9292Z" fill="#FFDA44"/>
<path d="M64.001 64L79.7417 79.7408C83.7705 75.7123 86.262 70.1473 86.262 64C86.262 51.7055 76.2955 41.7393 64.0012 41.7393C51.707 41.7393 41.7402 51.7055 41.7402 64C41.7402 70.147 44.2317 75.7123 48.2605 79.7408L64.001 64Z" fill="#FFDA44"/>
<path d="M73.7402 96C73.7402 101.379 69.3795 102.956 64.001 102.956C58.6225 102.956 54.2617 101.379 54.2617 96C54.2617 90.6212 58.6225 86.2607 64.001 86.2607C69.3795 86.2607 73.7402 90.6212 73.7402 96Z" fill="#FFDA44"/>
<path d="M73.7392 96C73.7392 101.379 69.3785 105.739 64 105.739C58.6215 105.739 54.2607 101.379 54.2607 96" fill="#0052B4"/>
</g>
<defs>
<clipPath id="clip0_97_12259">
<rect width="128" height="128" fill="white"/>
</clipPath>
</defs>
</svg>
