<svg width="128" height="128" viewBox="0 0 128 128" fill="none" xmlns="http://www.w3.org/2000/svg">
<g clip-path="url(#clip0_97_12275)">
<path d="M64 128C99.3462 128 128 99.3465 128 64.0002C128 28.654 99.3462 0.000244141 64 0.000244141C28.6538 0.000244141 0 28.654 0 64.0002C0 99.3465 28.6538 128 64 128Z" fill="#FFDA44"/>
<path d="M64.0013 0C63.9548 0.0005 61.2188 25.6 61.2188 25.6H115.204C103.528 10.0558 84.9393 0 64.0013 0Z" fill="#496E2D"/>
<path d="M64.0011 128C84.9391 128 103.528 117.944 115.204 102.4H12.7983C24.4743 117.944 43.0631 128 64.0011 128Z" fill="#496E2D"/>
<path d="M126.72 51.2002H61.2188L64.0013 76.8002H126.72C127.56 72.6644 128.001 68.3839 128.001 64.0002C128.001 59.6164 127.559 55.3359 126.72 51.2002Z" fill="#496E2D"/>
<path d="M64 76.8002C64 63.4437 64 15.0262 64 0.000244141C28.654 0.000244141 0 28.6542 0 64.0002C0 68.384 0.442 72.6645 1.2815 76.8002H64Z" fill="#D80027"/>
<path d="M35.3143 30.6089L39.4583 43.3626H52.8695L42.0203 51.2459L46.1638 64.0001L35.3143 56.1176L24.4648 64.0001L28.609 51.2459L17.7598 43.3626H31.1705L35.3143 30.6089Z" fill="#F0F0F0"/>
</g>
<defs>
<clipPath id="clip0_97_12275">
<rect width="128" height="128" fill="white"/>
</clipPath>
</defs>
</svg>
