<svg width="128" height="128" viewBox="0 0 128 128" fill="none" xmlns="http://www.w3.org/2000/svg">
<g clip-path="url(#clip0_97_12283)">
<path d="M64 128C99.3462 128 128 99.3465 128 64.0002C128 28.654 99.3462 0.000244141 64 0.000244141C28.6538 0.000244141 0 28.654 0 64.0002C0 99.3465 28.6538 128 64 128Z" fill="#FFDA44"/>
<path d="M102.956 30.609C102.382 33.3677 102.122 36.306 102.122 39.235C102.122 56.1185 112.187 70.7312 126.61 77.3095C127.519 73.0155 128 68.5642 128 64.0002C128 28.6542 99.346 0.000244141 64 0.000244141C28.654 0.000244141 0 28.6542 0 64.0002C0 99.3462 28.654 128 64 128C85.9205 128 105.265 116.977 116.799 100.174H36.174V91.8265H121.649C122.524 90.0175 123.314 88.1602 124.02 86.2612H36.174L102.956 30.609Z" fill="#0052B4"/>
<path d="M47.0168 33.3916L48.3983 37.6431H52.8683L49.252 40.2709L50.6335 44.5221L47.0168 41.8949L43.4005 44.5221L44.7818 40.2709L41.165 37.6431H45.6353L47.0168 33.3916Z" fill="#F0F0F0"/>
<path d="M28.8582 64L30.5852 69.3148H36.1727L31.6519 72.5985L33.3789 77.913L28.8582 74.6285L24.3377 77.913L26.0644 72.5985L21.5439 69.3148H27.1314L28.8582 64Z" fill="#F0F0F0"/>
<path d="M28.8582 19.4785L30.5852 24.7933H36.1727L31.6519 28.077L33.3789 33.3915L28.8582 30.107L24.3377 33.3915L26.0644 28.077L21.5439 24.7933H27.1314L28.8582 19.4785Z" fill="#F0F0F0"/>
<path d="M14.9451 44.522L16.6721 49.8367H22.2594L17.7389 53.1205L19.4659 58.435L14.9451 55.1505L10.4246 58.435L12.1514 53.1205L7.63086 49.8367H13.2181L14.9451 44.522Z" fill="#F0F0F0"/>
</g>
<defs>
<clipPath id="clip0_97_12283">
<rect width="128" height="128" fill="white"/>
</clipPath>
</defs>
</svg>
