<svg width="128" height="128" viewBox="0 0 128 128" fill="none" xmlns="http://www.w3.org/2000/svg">
<g clip-path="url(#clip0_97_12291)">
<path d="M64 128C99.3462 128 128 99.3465 128 64.0002C128 28.654 99.3462 0.000244141 64 0.000244141C28.6538 0.000244141 0 28.654 0 64.0002C0 99.3465 28.6538 128 64 128Z" fill="#F0F0F0"/>
<path d="M41.7387 33.3912V25.0435H33.3907V33.3912H25.043V41.7392H33.3907V50.087H41.7387V41.7392H50.0865V33.3912H41.7387Z" fill="#D80027"/>
<path d="M64 0V64C28.654 64.0003 14.6062 64 0 64.0003C0 99.346 28.654 128 64 128C99.346 128 128 99.346 128 64C128 28.654 99.346 0 64 0Z" fill="#D80027"/>
</g>
<defs>
<clipPath id="clip0_97_12291">
<rect width="128" height="128" fill="white"/>
</clipPath>
</defs>
</svg>
