<svg width="128" height="128" viewBox="0 0 128 128" fill="none" xmlns="http://www.w3.org/2000/svg">
<g clip-path="url(#clip0_97_12296)">
<path d="M125.794 47.3047C118.45 20.0557 93.5681 0.000488281 63.9984 0.000488281C34.4286 0.000488281 9.54712 20.0557 2.20312 47.3047L63.9984 50.0875L125.794 47.3047Z" fill="#A2001D"/>
<path d="M2.20312 80.6963C9.54712 107.945 34.4286 128.001 63.9984 128.001C93.5681 128.001 118.45 107.945 125.794 80.6963L63.9984 77.9136L2.20312 80.6963Z" fill="#A2001D"/>
<path d="M125.795 47.3042H2.20475C0.77 52.6274 0 58.2232 0 64C0 69.7767 0.77 75.3724 2.20475 80.6957H125.796C127.23 75.3724 128 69.7767 128 64C128 58.2232 127.23 52.6274 125.795 47.3042Z" fill="#6DA544"/>
</g>
<defs>
<clipPath id="clip0_97_12296">
<rect width="128" height="128" fill="white"/>
</clipPath>
</defs>
</svg>
