<svg width="128" height="128" viewBox="0 0 128 128" fill="none" xmlns="http://www.w3.org/2000/svg">
<g clip-path="url(#clip0_97_12301)">
<path d="M34.6547 7.10645C28.9252 10.0637 23.5469 13.9399 18.7439 18.7429C13.9407 23.5462 10.0644 28.9244 7.10742 34.6539L48.2592 79.7412L93.3464 120.893C99.0762 117.936 104.454 114.059 109.257 109.257C114.061 104.453 117.937 99.0752 120.894 93.3457L79.7422 48.2582L34.6547 7.10645Z" fill="#F0F0F0"/>
<path d="M109.257 109.257C111.942 106.572 114.336 103.707 116.444 100.703L27.2981 11.5562C24.2934 13.6639 21.4286 16.0584 18.7439 18.7432C16.0591 21.4279 13.6646 24.2927 11.5566 27.2977L100.703 116.444C103.707 114.336 106.572 111.942 109.257 109.257Z" fill="black"/>
<path d="M18.743 109.257C38.9347 129.449 69.259 133.325 93.3455 120.893L7.10673 34.6543C-5.32452 58.7408 -1.44777 89.0653 18.743 109.257Z" fill="#D80027"/>
<path d="M109.257 18.7433C89.065 -1.4482 58.7408 -5.3242 34.6543 7.10655L120.893 93.3461C133.325 69.2596 129.449 38.9348 109.257 18.7433Z" fill="#D80027"/>
</g>
<defs>
<clipPath id="clip0_97_12301">
<rect width="128" height="128" fill="white"/>
</clipPath>
</defs>
</svg>
