<svg width="128" height="128" viewBox="0 0 128 128" fill="none" xmlns="http://www.w3.org/2000/svg">
<g clip-path="url(#clip0_97_12307)">
<path d="M64 128C99.3462 128 128 99.3465 128 64.0002C128 28.654 99.3462 0.000244141 64 0.000244141C28.6538 0.000244141 0 28.654 0 64.0002C0 99.3465 28.6538 128 64 128Z" fill="#D80027"/>
<path d="M63.9999 94.6091C80.9046 94.6091 94.6086 80.9051 94.6086 64.0004C94.6086 47.0956 80.9046 33.3916 63.9999 33.3916C47.0951 33.3916 33.3911 47.0956 33.3911 64.0004C33.3911 80.9051 47.0951 94.6091 63.9999 94.6091Z" fill="#F0F0F0"/>
<path d="M67.7707 52.2969L73.0217 59.5331L81.526 56.7756L76.2667 64.0056L81.5172 71.2416L73.0157 68.4736L67.7565 75.7036L67.762 66.7634L59.2607 63.9954L67.7652 61.2379L67.7707 52.2969Z" fill="#D80027"/>
<path d="M70.9565 82.0873C60.9675 82.0873 52.8695 73.9893 52.8695 64.0003C52.8695 54.0113 60.9675 45.9133 70.9565 45.9133C74.071 45.9133 77.0018 46.7008 79.5603 48.0873C75.5465 44.162 70.0578 41.7393 64 41.7393C51.706 41.7393 41.7393 51.7058 41.7393 64C41.7393 76.2943 51.706 86.2608 64 86.2608C70.0578 86.2608 75.5468 83.838 79.5603 79.9128C77.0018 81.2998 74.071 82.0873 70.9565 82.0873Z" fill="#D80027"/>
</g>
<defs>
<clipPath id="clip0_97_12307">
<rect width="128" height="128" fill="white"/>
</clipPath>
</defs>
</svg>
