<svg width="128" height="128" viewBox="0 0 128 128" fill="none" xmlns="http://www.w3.org/2000/svg">
<g clip-path="url(#clip0_97_12318)">
<path d="M64.0009 0C59.2224 0 54.5677 0.52825 50.0882 1.52125L47.3057 63.9997L50.0882 126.479C54.5679 127.471 59.2227 128 64.0009 128C99.3472 128 128.001 99.346 128.001 63.9997C128.001 28.6537 99.3472 0 64.0009 0V0Z" fill="#496E2D"/>
<path d="M16.697 20.8931C6.32596 32.2671 0.00146484 47.3946 0.00146484 64.0001C0.00146484 80.6056 6.32621 95.7331 16.6972 107.108L19.4797 64.0001L16.697 20.8931Z" fill="#496E2D"/>
<path d="M93.6042 48.275C96.7529 39.4985 93.2154 29.9532 85.6237 25.1992C86.9892 25.377 88.3562 25.6985 89.7052 26.1822C99.8309 29.8152 105.094 40.9682 101.461 51.0937C97.8284 61.22 86.6754 66.483 76.5497 62.85C75.2004 62.366 73.9407 61.7447 72.7739 61.014C81.6564 62.1707 90.4554 57.0515 93.6042 48.275Z" fill="#F0F0F0"/>
<path d="M76.1398 22.7935L73.4035 26.329L69.1963 24.8192L71.7128 28.5137L68.9771 32.0487L73.2683 30.7972L75.7853 34.4912L75.9203 30.0232L80.2118 28.7715L76.0046 27.2622L76.1398 22.7935Z" fill="#F0F0F0"/>
<path d="M83.5277 34.313L80.7915 37.8482L76.584 36.3385L79.1007 40.033L76.3647 43.568L80.656 42.316L83.173 46.0107L83.3085 41.5425L87.5997 40.2905L83.3923 38.781L83.5277 34.313Z" fill="#F0F0F0"/>
<path d="M63.1139 26.9888L60.3777 30.5238L56.1704 29.0145L58.6872 32.7088L55.9512 36.244L60.2422 34.9923L62.7592 38.6865L62.8947 34.2185L67.1859 32.9668L62.9787 31.457L63.1139 26.9888Z" fill="#F0F0F0"/>
<path d="M62.8139 40.1846L60.0779 43.7198L55.8704 42.2103L58.3874 45.9048L55.6509 49.4398L59.9426 48.1883L62.4594 51.8823L62.5946 47.4143L66.8861 46.1626L62.6784 44.6528L62.8139 40.1846Z" fill="#F0F0F0"/>
<path d="M75.3705 44.6895L72.6343 48.2245L68.427 46.715L70.944 50.4095L68.2075 53.9442L72.4993 52.6927L75.016 56.3872L75.1513 51.9187L79.4428 50.6672L75.235 49.1577L75.3705 44.6895Z" fill="#F0F0F0"/>
<path d="M16.6958 20.893V107.107C25.4158 116.671 36.9983 123.577 50.0871 126.478V1.52148C36.9981 4.42298 25.4161 11.3292 16.6958 20.893Z" fill="#D80027"/>
<path d="M29.4384 33.6965L23.8481 29.532V23.6428L29.4384 19.4785H37.3446L42.9349 23.6428V29.532L37.3446 33.6965H29.4384Z" fill="#F0F0F0"/>
<path d="M33.3926 19.4785H29.4394L23.8491 23.6428V26.522H33.3926V19.4785Z" fill="#FF9811"/>
<path d="M33.3926 33.6966H37.3456L42.9358 29.5321V26.5278H33.3926V33.6966Z" fill="#FF9811"/>
<path d="M29.4384 108.521L23.8481 104.357V98.4677L29.4384 94.3032H37.3446L42.9349 98.4677V104.357L37.3446 108.521H29.4384Z" fill="#F0F0F0"/>
<path d="M33.3926 94.3037H29.4394L23.8491 98.4682V101.347H33.3926V94.3037Z" fill="#FF9811"/>
<path d="M33.3926 108.522H37.3456L42.9358 104.358V101.354H33.3926V108.522Z" fill="#FF9811"/>
<path d="M29.4379 71.1091L23.8477 66.9446V61.0556L29.4379 56.8911H37.3442L42.9344 61.0556V66.9446L37.3442 71.1091H29.4379Z" fill="#496E2D"/>
<path d="M43.1303 80.2718H40.6953V77.837H36.4166L33.3911 74.8115L30.3658 77.837H26.0871V80.2718H23.6523V85.1413H26.0871V87.576H30.3656L33.3913 90.6018L36.4166 87.576H40.6953V85.1413H43.1303V80.2718Z" fill="#496E2D"/>
<path d="M43.1303 42.8589H40.6953V40.4239H36.4166L33.3911 37.3984L30.3658 40.4239H26.0871V42.8589H23.6523V47.7284H26.0871V50.1632H30.3656L33.3913 53.1892L36.4166 50.1632H40.6953V47.7284H43.1303V42.8589Z" fill="#496E2D"/>
<path d="M30.6084 61.2178H36.1737V66.783H30.6084V61.2178Z" fill="#D80027"/>
<path d="M33.3909 48.0753C34.9276 48.0753 36.1734 46.8295 36.1734 45.2928C36.1734 43.756 34.9276 42.5103 33.3909 42.5103C31.8542 42.5103 30.6084 43.756 30.6084 45.2928C30.6084 46.8295 31.8542 48.0753 33.3909 48.0753Z" fill="#D80027"/>
<path d="M33.3909 85.4903C34.9276 85.4903 36.1734 84.2445 36.1734 82.7078C36.1734 81.1711 34.9276 79.9253 33.3909 79.9253C31.8542 79.9253 30.6084 81.1711 30.6084 82.7078C30.6084 84.2445 31.8542 85.4903 33.3909 85.4903Z" fill="#D80027"/>
</g>
<defs>
<clipPath id="clip0_97_12318">
<rect width="128" height="128" fill="white"/>
</clipPath>
</defs>
</svg>
