<svg width="128" height="128" viewBox="0 0 128 128" fill="none" xmlns="http://www.w3.org/2000/svg">
<g clip-path="url(#clip0_97_12313)">
<path d="M64 128C99.3462 128 128 99.3465 128 64.0002C128 28.654 99.3462 0.000244141 64 0.000244141C28.6538 0.000244141 0 28.654 0 64.0002C0 99.3465 28.6538 128 64 128Z" fill="#D80027"/>
<path d="M61.3791 52.2969L66.6304 59.5331L75.1346 56.7756L69.8751 64.0056L75.1256 71.2416L66.6244 68.4736L61.3651 75.7036L61.3706 66.7634L52.8691 63.9954L61.3736 61.2379L61.3791 52.2969Z" fill="#F0F0F0"/>
<path d="M47.0483 82.0873C37.0593 82.0873 28.9613 73.9893 28.9613 64.0003C28.9613 54.0113 37.0593 45.9133 47.0483 45.9133C50.1628 45.9133 53.0933 46.701 55.6518 48.0873C51.6381 44.1618 46.1488 41.7393 40.0918 41.7393C27.7973 41.7393 17.8311 51.7058 17.8311 64C17.8311 76.2943 27.7976 86.2608 40.0918 86.2608C46.1493 86.2608 51.6383 83.838 55.6518 79.9128C53.0933 81.2995 50.1628 82.0873 47.0483 82.0873Z" fill="#F0F0F0"/>
</g>
<defs>
<clipPath id="clip0_97_12313">
<rect width="128" height="128" fill="white"/>
</clipPath>
</defs>
</svg>
