<svg width="128" height="128" viewBox="0 0 128 128" fill="none" xmlns="http://www.w3.org/2000/svg">
<g clip-path="url(#clip0_97_12346)">
<path d="M128 64.0002C128 99.3462 99.346 128 64 128C28.654 128 0 99.3462 0 64.0002C0 64.0155 64 0.00724414 64 0.000244141C99.346 0.000244141 128 28.6542 128 64.0002Z" fill="#0052B4"/>
<path d="M63.8286 64.0004H63.9999C63.9999 63.9429 63.9999 63.8869 63.9999 63.8291C63.9429 63.8864 63.8859 63.9434 63.8286 64.0004Z" fill="#F0F0F0"/>
<path d="M64 33.3913C64 22.13 64 14.7513 64 0H63.9893C28.6478 0.006 0 28.6572 0 64H33.3913V45.1973L52.194 64H63.829C63.886 63.943 63.943 63.886 64.0003 63.8288C64.0003 59.517 64.0003 55.6698 64.0003 52.1945L45.197 33.3913H64Z" fill="#F0F0F0"/>
<path d="M32.3787 8.34814C22.3689 14.0479 14.0472 22.3694 8.34766 32.3791V64.0004H25.0434V25.0444V25.0439H63.9999C63.9999 19.7781 63.9999 14.7616 63.9999 8.34814H32.3787Z" fill="#D80027"/>
<path d="M63.9999 56.1303L41.2611 33.3921H33.3911V33.3926L63.9994 64.0006H63.9999C63.9999 64.0006 63.9999 58.5738 63.9999 56.1303Z" fill="#D80027"/>
<path d="M72.3477 33.3916V64.0001C72.3477 78.9101 91.8259 83.4786 91.8259 83.4786C91.8259 83.4786 111.304 78.9101 111.304 64.0001V33.3916H72.3477Z" fill="#FFDA44"/>
<path d="M89.0436 44.5218C89.0436 47.5955 86.5521 55.6523 83.4783 55.6523C80.4046 55.6523 77.9131 47.5955 77.9131 44.5218C77.9131 41.448 83.4783 38.9565 83.4783 38.9565C83.4783 38.9565 89.0436 41.448 89.0436 44.5218Z" fill="#FF9811"/>
<path d="M103.811 50.583C104.709 48.3918 105.408 45.1888 105.408 43.5943C105.408 41.0328 102.068 38.9565 102.068 38.9565C102.068 38.9565 98.7292 41.033 98.7292 43.5943C98.7292 45.1888 99.4277 48.3918 100.326 50.583L98.3979 54.9355C99.5309 55.396 100.769 55.652 102.068 55.652C103.367 55.652 104.605 55.396 105.738 54.9355L103.811 50.583Z" fill="#A2001D"/>
<path d="M87.6521 64.0003C87.6521 64.0003 84.8696 69.5655 84.8696 75.1308H98.7826C98.7824 69.5655 95.9999 64.0003 95.9999 64.0003L91.8259 61.2178L87.6521 64.0003Z" fill="#6DA544"/>
<path d="M95.9999 64.0003V62.6091C95.9999 60.3041 94.1311 58.4351 91.8259 58.4351C89.5209 58.4351 87.6519 60.3038 87.6519 62.6091V64.0003H95.9999Z" fill="#D80027"/>
</g>
<defs>
<clipPath id="clip0_97_12346">
<rect width="128" height="128" fill="white"/>
</clipPath>
</defs>
</svg>
