<svg width="128" height="128" viewBox="0 0 128 128" fill="none" xmlns="http://www.w3.org/2000/svg">
<g clip-path="url(#clip0_97_12360)">
<path d="M128 64.0002C128 99.3462 99.346 128 64.0003 128C28.654 128 0 99.3462 0 64.0002C0 64.0155 64.0003 0.00724414 64.0003 0.000244141C99.346 0.000244141 128 28.6542 128 64.0002Z" fill="#338AF3"/>
<path d="M30.6079 64H52.1934L33.3904 41.7393L30.6079 50.087V64Z" fill="#0052B4"/>
<path d="M63.9993 52.1946L41.7383 30.6089H63.999L63.9993 52.1946Z" fill="#0052B4"/>
<path d="M63.8286 64.0004H63.9999C63.9999 63.9429 63.9999 63.8869 63.9999 63.8291C63.9429 63.8864 63.8859 63.9434 63.8286 64.0004Z" fill="#F0F0F0"/>
<path d="M64.0003 33.3913C64.0003 22.13 64.0003 14.751 64.0003 0H63.9895C28.648 0.006 0 28.6572 0 64H33.3915V45.1973L52.1942 64H63.8293C63.8862 63.943 63.9433 63.886 64.0005 63.8288C64.0005 59.517 64.0005 55.6698 64.0005 52.1945L45.197 33.3913H64.0003Z" fill="#F0F0F0"/>
<path d="M32.3787 8.34814C22.3689 14.0479 14.0474 22.3694 8.34766 32.3791V64.0004H25.0434V25.0444V25.0439H63.9999C63.9999 19.7781 63.9999 14.7616 63.9999 8.34814H32.3787Z" fill="#D80027"/>
<path d="M64.0004 56.1303L41.2616 33.3921H33.3916V33.3926L63.9999 64.0006H64.0004C64.0004 64.0006 64.0004 58.5738 64.0004 56.1303Z" fill="#D80027"/>
<path d="M69.8515 105.739L71.233 109.991H75.7032L72.087 112.618L73.4685 116.87L69.8515 114.242L66.2353 116.87L67.6168 112.618L64 109.991H68.47L69.8515 105.739Z" fill="#FFDA44"/>
<path d="M105.453 77.9131L106.834 82.1646H111.304L107.688 84.7923L109.07 89.0436L105.453 86.4163L101.837 89.0436L103.218 84.7923L99.6011 82.1646H104.071L105.453 77.9131Z" fill="#FFDA44"/>
<path d="M114.373 36.1743L115.755 40.4258H120.225L116.609 43.0533L117.99 47.3046L114.373 44.6773L110.757 47.3046L112.139 43.0533L108.522 40.4258H112.992L114.373 36.1743Z" fill="#FFDA44"/>
<path d="M116.583 66.7827L117.964 71.0345H122.435L118.818 73.662L120.2 77.9132L116.583 75.286L112.967 77.9132L114.348 73.662L110.731 71.0345H115.202L116.583 66.7827Z" fill="#FFDA44"/>
<path d="M76.2614 95.7399L80.2451 97.7696L83.4059 94.6089L82.7069 99.0236L86.6896 101.053L82.2741 101.753L81.5749 106.168L79.5459 102.185L75.1304 102.884L78.2911 99.7236L76.2614 95.7399Z" fill="#FFDA44"/>
<path d="M76.2614 79.0443L80.2451 81.0738L83.4059 77.9131L82.7069 82.3281L86.6896 84.3573L82.2741 85.0568L81.5749 89.4721L79.5459 85.4891L75.1304 86.1886L78.2911 83.0278L76.2614 79.0443Z" fill="#FFDA44"/>
<path d="M90.1745 89.7462L94.1582 91.776L97.319 88.6152L96.62 93.03L100.603 95.0595L96.1872 95.759L95.488 100.174L93.459 96.1907L89.0435 96.8907L92.2042 93.73L90.1745 89.7462Z" fill="#FFDA44"/>
<path d="M90.1745 54.0009L94.1582 56.0304L97.319 52.8696L96.62 57.2846L100.603 59.3139L96.1872 60.0134L95.488 64.4286L93.459 60.4456L89.0435 61.1451L92.2042 57.9844L90.1745 54.0009Z" fill="#FFDA44"/>
<path d="M103.659 53.5727L107.643 55.6022L110.803 52.4414L110.104 56.8564L114.087 58.8857L109.672 59.5852L108.972 64.0004L106.943 60.0174L102.528 60.7169L105.689 57.5562L103.659 53.5727Z" fill="#FFDA44"/>
</g>
<defs>
<clipPath id="clip0_97_12360">
<rect width="128" height="128" fill="white"/>
</clipPath>
</defs>
</svg>
