<svg width="128" height="128" viewBox="0 0 128 128" fill="none" xmlns="http://www.w3.org/2000/svg">
<g clip-path="url(#clip0_97_10890)">
<path d="M64 128C99.3462 128 128 99.3465 128 64.0002C128 28.654 99.3462 0.000244141 64 0.000244141C28.6538 0.000244141 0 28.654 0 64.0002C0 99.3465 28.6538 128 64 128Z" fill="#D80027"/>
<path d="M35.025 38.9503L40.55 55.9503H58.425L43.975 66.4753L49.5 83.4753L35.025 72.9753L20.55 83.4753L26.1 66.4753L11.625 55.9503H29.5L35.025 38.9503Z" fill="#FFDA44"/>
<path d="M75.8748 99.1253L71.6498 93.9253L65.3998 96.3503L69.0248 90.7253L64.7998 85.5003L71.2748 87.2253L74.9248 81.6003L75.2748 88.3003L81.7748 90.0253L75.4998 92.4253L75.8748 99.1253Z" fill="#FFDA44"/>
<path d="M84.2748 83.8753L86.2748 77.4753L80.7998 73.6003L87.4998 73.5003L89.4748 67.1003L91.6498 73.4503L98.3498 73.3753L92.9748 77.3753L95.1248 83.7253L89.6498 79.8503L84.2748 83.8753Z" fill="#FFDA44"/>
<path d="M95.6002 46.9753L92.6502 53.0003L97.4502 57.6753L90.8252 56.7253L87.8752 62.7253L86.7252 56.1253L80.0752 55.1753L86.0252 52.0503L84.8752 45.4253L89.6752 50.1003L95.6002 46.9753Z" fill="#FFDA44"/>
<path d="M76.0501 28.7253L75.5501 35.4003L81.7751 37.9253L75.2501 39.5253L74.7751 46.2253L71.2501 40.5253L64.7251 42.1253L69.0501 37.0003L65.5001 31.3253L71.7251 33.8503L76.0501 28.7253Z" fill="#FFDA44"/>
</g>
<defs>
<clipPath id="clip0_97_10890">
<rect width="128" height="128" fill="white"/>
</clipPath>
</defs>
</svg>
