<svg width="128" height="128" viewBox="0 0 128 128" fill="none" xmlns="http://www.w3.org/2000/svg">
<g clip-path="url(#clip0_97_12398)">
<path d="M64 128C99.3462 128 128 99.3465 128 64.0002C128 28.654 99.3462 0.000244141 64 0.000244141C28.6538 0.000244141 0 28.654 0 64.0002C0 99.3465 28.6538 128 64 128Z" fill="#F0F0F0"/>
<path d="M13.2284 25.0356C8.20112 31.5764 4.41038 39.1151 2.20312 47.3049H35.4976L13.2284 25.0356Z" fill="#0052B4"/>
<path d="M125.794 47.3051C123.587 39.1156 119.796 31.5769 114.769 25.0361L92.5 47.3051H125.794Z" fill="#0052B4"/>
<path d="M2.20312 80.6963C4.41062 88.8858 8.20137 96.4245 13.2284 102.965L35.4969 80.6963H2.20312Z" fill="#0052B4"/>
<path d="M102.962 13.2306C96.4216 8.20333 88.8831 4.41258 80.6934 2.20508V35.4993L102.962 13.2306Z" fill="#0052B4"/>
<path d="M25.0332 114.77C31.574 119.797 39.1127 123.588 47.3022 125.795V92.5015L25.0332 114.77Z" fill="#0052B4"/>
<path d="M47.302 2.20508C39.1125 4.41258 31.5737 8.20333 25.0332 13.2303L47.302 35.4991V2.20508Z" fill="#0052B4"/>
<path d="M80.6943 125.795C88.8838 123.588 96.4226 119.797 102.963 114.77L80.6943 92.5015V125.795Z" fill="#0052B4"/>
<path d="M92.5 80.6963L114.769 102.965C119.796 96.4248 123.587 88.8858 125.794 80.6963H92.5Z" fill="#0052B4"/>
<path d="M127.458 55.6522H72.3483H72.348V0.54175C69.6152 0.186 66.8292 0 64 0C61.1702 0 58.3848 0.186 55.6522 0.54175V55.6517V55.652H0.54175C0.186 58.3848 0 61.1707 0 64C0 66.8298 0.186 69.6152 0.54175 72.3477H55.6517H55.652V127.458C58.3848 127.814 61.1702 128 64 128C66.8292 128 69.6152 127.814 72.3477 127.458V72.3483V72.348H127.458C127.814 69.6152 128 66.8298 128 64C128 61.1707 127.814 58.3848 127.458 55.6522Z" fill="#D80027"/>
<path d="M80.6953 80.6961L109.254 109.255C110.568 107.942 111.821 106.569 113.016 105.146L88.5658 80.6958H80.6953V80.6961Z" fill="#D80027"/>
<path d="M47.3044 80.6963H47.3039L18.7451 109.255C20.0581 110.569 21.4309 111.822 22.8539 113.017L47.3044 88.566V80.6963Z" fill="#D80027"/>
<path d="M47.3044 47.3049V47.3044L18.7454 18.7451C17.4319 20.0581 16.1789 21.4309 14.9834 22.8539L39.4341 47.3046H47.3044V47.3049Z" fill="#D80027"/>
<path d="M80.6953 47.3046L109.255 18.7451C107.942 17.4316 106.569 16.1786 105.146 14.9834L80.6953 39.4341V47.3046Z" fill="#D80027"/>
</g>
<defs>
<clipPath id="clip0_97_12398">
<rect width="128" height="128" fill="white"/>
</clipPath>
</defs>
</svg>
