<svg width="128" height="128" viewBox="0 0 128 128" fill="none" xmlns="http://www.w3.org/2000/svg">
<g clip-path="url(#clip0_97_12151)">
<path d="M0 64.0002C0 71.8287 1.40825 79.3277 3.98075 86.2609L64 91.8262L124.019 86.2609C126.592 79.3277 128 71.8287 128 64.0002C128 56.1717 126.592 48.6727 124.019 41.7394L64 36.1742L3.98075 41.7394C1.40825 48.6727 0 56.1717 0 64.0002H0Z" fill="#FFDA44"/>
<path d="M124.021 41.7397C114.978 17.3687 91.5194 0.000488281 64.0017 0.000488281C36.4839 0.000488281 13.0252 17.3687 3.98242 41.7397H124.021Z" fill="#D80027"/>
<path d="M3.98242 86.2611C13.0252 110.632 36.4839 128 64.0017 128C91.5194 128 114.978 110.632 124.021 86.2611H3.98242Z" fill="#D80027"/>
</g>
<defs>
<clipPath id="clip0_97_12151">
<rect width="128" height="128" fill="white"/>
</clipPath>
</defs>
</svg>
