<svg width="128" height="128" viewBox="0 0 128 128" fill="none" xmlns="http://www.w3.org/2000/svg">
<g clip-path="url(#clip0_97_10580)">
<path d="M64 128C99.3462 128 128 99.3462 128 64C128 28.6538 99.3462 0 64 0C28.6538 0 0 28.6538 0 64C0 99.3462 28.6538 128 64 128Z" fill="#F0F0F0"/>
<path d="M0.541992 72.3478C2.03099 83.776 6.53649 94.2548 13.2307 102.964L47.3042 72.3478H0.541992Z" fill="#D80027"/>
<path d="M55.6521 127.458V80.6957L25.0361 114.769C33.7454 121.464 44.2239 125.969 55.6521 127.458Z" fill="#D80027"/>
<path d="M55.6521 0.541748C44.2239 2.03075 33.7454 6.53625 25.0361 13.2305L55.6521 47.3045V0.541748Z" fill="#D80027"/>
<path d="M0.541992 55.6523H47.3042L13.2305 25.0363C6.53624 33.7453 2.03074 44.224 0.541992 55.6523Z" fill="#D80027"/>
<path d="M72.3477 0.541748V47.3042L102.964 13.2305C94.2549 6.53675 83.7762 2.0305 72.3477 0.541748Z" fill="#D80027"/>
<path d="M127.458 55.6523C125.969 44.224 121.464 33.7453 114.77 25.036L80.6958 55.6523H127.458Z" fill="#D80027"/>
<path d="M80.6958 72.3478L114.77 102.964C121.464 94.2548 125.97 83.776 127.459 72.3478H80.6958Z" fill="#D80027"/>
<path d="M72.3477 127.458C83.7759 125.969 94.2549 121.464 102.964 114.769L72.3477 80.6957V127.458Z" fill="#D80027"/>
<path d="M114.775 102.969L75.8061 64.0002L75.8058 64L114.775 25.031C113.094 22.847 111.256 20.746 109.255 18.745C107.255 16.7445 105.153 14.9057 102.969 13.2255L64.0003 52.1942H64.0001L25.0313 13.2255C22.8473 14.906 20.7461 16.7442 18.7451 18.745C16.7446 20.746 14.9058 22.847 13.2256 25.0312L52.1943 63.9997L52.1946 64L13.2258 102.969C14.9063 105.153 16.7448 107.254 18.7453 109.255C20.7461 111.255 22.8473 113.094 25.0316 114.774L64.0001 75.8057L102.969 114.774C105.153 113.094 107.254 111.255 109.255 109.255C111.256 107.254 113.094 105.153 114.775 102.969Z" fill="#496E2D"/>
<path d="M72.3477 127.458V72.3485V72.348H127.458C127.814 69.6152 128 66.8292 128 64C128 61.171 127.814 58.385 127.458 55.6525H72.3483L72.348 55.6522V0.542C69.6155 0.18625 66.8298 0 64 0C61.1707 0.00025 58.3848 0.18625 55.6522 0.542L55.6525 55.6517V55.6522H0.542C0.186 58.3848 0 61.1707 0 64C0.00025 66.8298 0.186 69.6152 0.542 72.3477H55.652L55.6522 127.458C58.385 127.814 61.1702 128 64 128C66.8298 128 69.6155 127.814 72.3477 127.458Z" fill="#F0F0F0"/>
</g>
<defs>
<clipPath id="clip0_97_10580">
<rect width="128" height="128" fill="white"/>
</clipPath>
</defs>
</svg>
