<svg width="128" height="128" viewBox="0 0 128 128" fill="none" xmlns="http://www.w3.org/2000/svg">
<g clip-path="url(#clip0_97_12382)">
<path d="M111.698 106.667C121.834 95.3436 128 80.3931 128 64.0001C128 47.6071 121.834 32.6563 111.698 21.3333L64 16.6958L16.302 21.3333C6.16625 32.6563 0 47.6071 0 64.0001C0 80.3931 6.166 95.3436 16.3018 106.667L64 111.304L111.698 106.667Z" fill="#FFDA44"/>
<path d="M16.3018 21.3333H111.698C99.9793 8.2415 82.953 0 63.9998 0C45.0465 0 28.0203 8.2415 16.3018 21.3333Z" fill="black"/>
<path d="M0 64L64 69.5653L128 64C128 56.519 126.712 49.3395 124.353 42.6665H3.647C1.28775 49.3395 0 56.519 0 64H0Z" fill="#D80027"/>
<path d="M3.647 85.3333H124.354C126.712 78.6603 128 71.481 128 64H0C0 71.481 1.28775 78.6603 3.647 85.3333Z" fill="black"/>
<path d="M111.698 106.667H16.3018C28.0203 119.759 45.0465 128 64 128C82.9535 128 99.9798 119.759 111.698 106.667Z" fill="#D80027"/>
<path d="M85.3566 64.0001C85.3566 75.7958 75.7958 85.3566 64.0001 85.3566C52.2043 85.3566 42.6436 75.7958 42.6436 64.0001C42.6436 52.2043 52.2043 42.6436 64.0001 42.6436C75.7958 42.6436 85.3566 52.2043 85.3566 64.0001Z" fill="#F0F0F0"/>
<path d="M71.8237 65.0892L64 61.6989C64 61.6989 65.8305 55.6232 65.928 55.2074C65.9992 54.9037 66.0372 54.5869 66.0372 54.2614C66.0372 53.1087 65.57 52.0652 64.8145 51.3102L66.782 49.3427C65.5232 48.0839 63.784 47.3052 61.863 47.3052C59.942 47.3052 58.2027 48.0837 56.944 49.3427L58.9115 51.3102C58.156 52.0654 57.689 53.1089 57.689 54.2614C57.689 54.6829 57.7527 55.0892 57.869 55.4729L54.9067 58.4349H60.2907C60.2907 58.4349 58.0647 61.7784 56.8495 64.5242C55.6342 67.2697 56.8662 70.6214 59.6747 71.8699L61.2987 72.5917L64 75.1307V77.9132L61.2175 80.6957H66.7827V75.1304L69.322 72.5912H74.574C74.5992 72.5389 74.6257 72.4879 74.6497 72.4344C75.8975 69.6262 74.6325 66.3372 71.8237 65.0892Z" fill="black"/>
</g>
<defs>
<clipPath id="clip0_97_12382">
<rect width="128" height="128" fill="white"/>
</clipPath>
</defs>
</svg>
