<svg width="128" height="128" viewBox="0 0 128 128" fill="none" xmlns="http://www.w3.org/2000/svg">
<g clip-path="url(#clip0_97_12393)">
<path d="M64 128C99.3462 128 128 99.3465 128 64.0002C128 28.654 99.3462 0.000244141 64 0.000244141C28.6538 0.000244141 0 28.654 0 64.0002C0 99.3465 28.6538 128 64 128Z" fill="#F0F0F0"/>
<path d="M36.1738 86.2607L41.7391 124.02C48.6721 126.592 56.1713 128 63.9998 128C91.5173 128 114.976 110.632 124.019 86.2607H36.1738Z" fill="black"/>
<path d="M36.1738 41.7393L41.7391 3.98025C48.6721 1.4075 56.1713 0 63.9998 0C91.5173 0 114.976 17.368 124.019 41.7393H36.1738Z" fill="#6DA544"/>
<path d="M0 64.0002C0 91.518 17.3682 114.977 41.7393 124.019V3.98096C17.3682 13.0237 0 36.4825 0 64.0002Z" fill="#A2001D"/>
</g>
<defs>
<clipPath id="clip0_97_12393">
<rect width="128" height="128" fill="white"/>
</clipPath>
</defs>
</svg>
