<svg width="128" height="128" viewBox="0 0 128 128" fill="none" xmlns="http://www.w3.org/2000/svg">
<g clip-path="url(#clip0_97_12420)">
<path d="M64 128C99.3462 128 128 99.3465 128 64.0002C128 28.654 99.3462 0.000244141 64 0.000244141C28.6538 0.000244141 0 28.654 0 64.0002C0 99.3465 28.6538 128 64 128Z" fill="#F0F0F0"/>
<path d="M61.2163 64.0004H127.999C127.999 58.2239 127.229 52.6279 125.794 47.3047H61.2163V64.0004Z" fill="#D80027"/>
<path d="M61.2163 30.6088H118.605C114.688 24.2158 109.678 18.5651 103.838 13.9131H61.2163V30.6088Z" fill="#D80027"/>
<path d="M63.9987 128C79.0609 128 92.9052 122.794 103.838 114.087H24.1597C35.0922 122.794 48.9364 128 63.9987 128Z" fill="#D80027"/>
<path d="M9.39236 97.3915H118.605C121.751 92.2593 124.19 86.6493 125.794 80.6958H2.20361C3.80786 86.6493 6.24711 92.2593 9.39236 97.3915Z" fill="#D80027"/>
<path d="M29.646 9.99474H35.4782L30.0532 13.936L32.1255 20.3132L26.7008 16.372L21.276 20.3132L23.066 14.804C18.2895 18.7827 14.103 23.4442 10.653 28.6382H12.5218L9.0685 31.147C8.5305 32.0445 8.0145 32.9562 7.52 33.8815L9.169 38.9567L6.0925 36.7215C5.32775 38.3417 4.62825 39.9985 3.9995 41.6897L5.81625 47.2817H12.5218L7.09675 51.223L9.169 57.6002L3.74425 53.659L0.49475 56.02C0.1695 58.6345 0 61.2975 0 64.0002H64C64 28.6542 64 24.4872 64 0.000244141C51.357 0.000244141 39.5713 3.66774 29.646 9.99474ZM32.1255 57.6002L26.7008 53.659L21.276 57.6002L23.3482 51.223L17.9233 47.2817H24.6287L26.7008 40.9045L28.7728 47.2817H35.4782L30.0532 51.223L32.1255 57.6002ZM30.0532 32.5795L32.1255 38.9567L26.7008 35.0155L21.276 38.9567L23.3482 32.5795L17.9233 28.6382H24.6287L26.7008 22.261L28.7728 28.6382H35.4782L30.0532 32.5795ZM55.082 57.6002L49.6572 53.659L44.2325 57.6002L46.3047 51.223L40.8797 47.2817H47.5853L49.6572 40.9045L51.7293 47.2817H58.4347L53.0098 51.223L55.082 57.6002ZM53.0098 32.5795L55.082 38.9567L49.6572 35.0155L44.2325 38.9567L46.3047 32.5795L40.8797 28.6382H47.5853L49.6572 22.261L51.7293 28.6382H58.4347L53.0098 32.5795ZM53.0098 13.936L55.082 20.3132L49.6572 16.372L44.2325 20.3132L46.3047 13.936L40.8797 9.99474H47.5853L49.6572 3.61749L51.7293 9.99474H58.4347L53.0098 13.936Z" fill="#0052B4"/>
</g>
<defs>
<clipPath id="clip0_97_12420">
<rect width="128" height="128" fill="white"/>
</clipPath>
</defs>
</svg>
