<svg width="128" height="128" viewBox="0 0 128 128" fill="none" xmlns="http://www.w3.org/2000/svg">
<g clip-path="url(#clip0_97_12415)">
<path d="M64 128C99.3462 128 128 99.3465 128 64.0002C128 28.654 99.3462 0.000244141 64 0.000244141C28.6538 0.000244141 0 28.654 0 64.0002C0 99.3465 28.6538 128 64 128Z" fill="#338AF3"/>
<path d="M63.8164 41.7393C51.5217 41.7393 41.5557 51.7058 41.5557 64C41.5557 76.2943 51.5219 86.2608 63.8164 86.2608C76.1104 86.2608 86.0772 76.2943 86.0772 64C86.0772 51.7058 76.1102 41.7393 63.8164 41.7393ZM58.2512 64C58.2512 60.9265 60.7427 58.4348 63.8164 58.4348C66.8899 58.4348 69.3817 60.9265 69.3817 64C69.3817 67.0738 66.8899 69.5653 63.8164 69.5653C60.7427 69.5653 58.2512 67.0738 58.2512 64ZM69.5864 54.4803C68.7227 53.9555 67.7812 53.548 66.7842 53.2728V47.5728C69.2944 48.0233 71.6089 49.033 73.5954 50.4715L69.5864 54.4803ZM61.2192 53.1775C60.1749 53.4273 59.1884 53.824 58.2819 54.3448L54.2544 50.3173C56.2904 48.8918 58.6574 47.907 61.2192 47.5063V53.1775ZM58.2817 73.6553C59.1882 74.1758 60.1747 74.5728 61.2189 74.8223V80.4933C58.6569 80.093 56.2904 79.1078 54.2544 77.6823L58.2817 73.6553ZM66.7844 74.7273C67.7812 74.452 68.7232 74.0448 69.5864 73.52L73.5952 77.5288C71.6087 78.967 69.2944 79.977 66.7842 80.4275V74.7275H66.7844V74.7273ZM73.4714 69.535C73.9617 68.6818 74.3449 67.7588 74.5962 66.7828H80.2767C79.8587 69.2733 78.8902 71.5755 77.4992 73.562L73.4714 69.535ZM74.5962 61.2175C74.3449 60.2413 73.9617 59.319 73.4714 58.4655L77.4989 54.438C78.8899 56.4248 79.8587 58.7268 80.2764 61.2173H74.5959V61.2175H74.5962ZM50.2877 54.2213L54.2964 58.23C53.7392 59.1475 53.3109 60.1515 53.0364 61.2175H47.3559C47.7892 58.636 48.8139 56.2565 50.2877 54.2213ZM47.3559 66.7825H53.0364C53.3107 67.8485 53.7389 68.8525 54.2964 69.77L50.2877 73.7788C48.8139 71.7435 47.7892 69.3643 47.3559 66.7825Z" fill="#F0F0F0"/>
<path d="M99.9901 64.0001C99.9901 54.1051 96.0156 45.1399 89.5781 38.6089L83.6753 44.5116C88.6023 49.5316 91.6423 56.4106 91.6423 64.0001C91.6423 79.3681 79.1841 91.8261 63.8163 91.8261C48.4481 91.8261 35.9903 79.3681 35.9903 64.0001C35.9903 56.3159 39.1046 49.3594 44.1403 44.3241L38.2376 38.4214C31.6913 44.9676 27.6426 54.0111 27.6426 64.0001C27.6426 80.5539 38.7618 94.5106 53.9391 98.8089C52.2751 101.97 52.5286 105.95 54.9056 108.916C58.0276 106.414 61.2598 103.823 64.0018 101.626C66.7438 103.824 69.9763 106.414 73.0981 108.916C75.4986 105.92 75.7348 101.89 74.0156 98.7136C89.0268 94.3099 99.9901 80.4364 99.9901 64.0001Z" fill="#F0F0F0"/>
</g>
<defs>
<clipPath id="clip0_97_12415">
<rect width="128" height="128" fill="white"/>
</clipPath>
</defs>
</svg>
