<svg width="128" height="128" viewBox="0 0 128 128" fill="none" xmlns="http://www.w3.org/2000/svg">
<g clip-path="url(#clip0_97_12428)">
<path d="M64 128C99.3462 128 128 99.3465 128 64.0002C128 28.654 99.3462 0.000244141 64 0.000244141C28.6538 0.000244141 0 28.654 0 64.0002C0 99.3465 28.6538 128 64 128Z" fill="#F0F0F0"/>
<path d="M64 47.3041H125.795C124.19 41.3506 121.751 35.7404 118.606 30.6084H64V47.3041Z" fill="#338AF3"/>
<path d="M24.1608 114.087H103.839C109.68 109.435 114.689 103.785 118.606 97.3916H9.39355C13.3113 103.785 18.3203 109.435 24.1608 114.087Z" fill="#338AF3"/>
<path d="M64 0V13.913H103.839C92.9067 5.206 79.0623 0 64 0Z" fill="#338AF3"/>
<path d="M64 47.3044H125.795C124.19 41.3509 121.751 35.7406 118.606 30.6086H64V47.3044Z" fill="#338AF3"/>
<path d="M0 64C0 69.7768 0.77 75.3722 2.20475 80.6957H125.796C127.23 75.3722 128 69.7768 128 64H0Z" fill="#338AF3"/>
<path d="M55.652 37.4553L47.8355 41.132L51.9978 48.702L43.5103 47.0785L42.4348 55.6523L36.5233 49.3463L30.6113 55.6523L29.536 47.0785L21.0485 48.7015L25.2105 41.1318L17.3945 37.4553L25.2108 33.779L21.0485 26.209L29.5358 27.8325L30.6115 19.2588L36.5233 25.5648L42.435 19.2588L43.5103 27.8325L51.998 26.209L47.8358 33.7793L55.652 37.4553Z" fill="#FFDA44"/>
</g>
<defs>
<clipPath id="clip0_97_12428">
<rect width="128" height="128" fill="white"/>
</clipPath>
</defs>
</svg>
