<svg width="128" height="128" viewBox="0 0 128 128" fill="none" xmlns="http://www.w3.org/2000/svg">
<g clip-path="url(#clip0_97_12438)">
<path d="M3.022 44.522C1.0615 50.664 -0.000249956 57.2073 4.41387e-08 63.9995C-0.000249956 70.792 1.06175 77.3358 3.02225 83.4778L64 86.2608L124.978 83.4783C126.938 77.336 128 70.792 128 64C128 57.2075 126.938 50.664 124.978 44.5218L64 41.7393L3.022 44.522Z" fill="#F0F0F0"/>
<path d="M124.978 44.5222L64 41.7397L3.02198 44.5222C2.44098 46.3432 1.94073 48.2 1.52148 50.0875H126.477C126.059 48.1997 125.559 46.3427 124.978 44.5222Z" fill="#D80027"/>
<path d="M1.52246 77.9131C1.94121 79.8006 2.44146 81.6571 3.02246 83.4781L3.02846 83.4783L64 86.2608L124.978 83.4783C125.559 81.6573 126.059 79.8006 126.478 77.9131H1.52246Z" fill="#D80027"/>
<path d="M64 128C92.554 128 116.736 109.299 124.978 83.478H3.02246C11.2637 109.299 35.4467 128 64 128Z" fill="#6DA544"/>
<path d="M63.9997 0.000488284C35.4462 0.000738284 11.2637 18.7015 3.02197 44.5222L124.977 44.5225C116.736 18.7012 92.5537 0.000238284 63.9997 0.000488284Z" fill="#338AF3"/>
<path d="M29.2464 26.4351C29.2464 20.4408 33.4591 15.4333 39.0849 14.2048C38.2204 14.0158 37.3231 13.9136 36.4016 13.9136C29.4861 13.9136 23.8799 19.5196 23.8799 26.4353C23.8799 33.3511 29.4856 38.9571 36.4016 38.9571C37.3231 38.9571 38.2201 38.8546 39.0849 38.6658C33.4594 37.4368 29.2464 32.4293 29.2464 26.4351Z" fill="#F0F0F0"/>
<path d="M46.486 32.127L47.3335 34.7357H50.0765L47.8575 36.3482L48.705 38.957L46.486 37.3447L44.2665 38.957L45.1143 36.3482L42.895 34.7357H45.638L46.486 32.127Z" fill="#F0F0F0"/>
<path d="M55.2409 32.127L56.0886 34.7357H58.8316L56.6124 36.3482L57.4601 38.957L55.2409 37.3447L53.0216 38.957L53.8694 36.3482L51.6504 34.7357H54.3931L55.2409 32.127Z" fill="#F0F0F0"/>
<path d="M63.9963 32.127L64.8438 34.7357H67.587L65.3678 36.3482L66.2153 38.957L63.9963 37.3447L61.7768 38.957L62.6248 36.3482L60.4053 34.7357H63.1485L63.9963 32.127Z" fill="#F0F0F0"/>
<path d="M72.7512 32.127L73.5989 34.7357H76.3417L74.1227 36.3482L74.9704 38.957L72.7512 37.3447L70.5317 38.957L71.3797 36.3482L69.1602 34.7357H71.9032L72.7512 32.127Z" fill="#F0F0F0"/>
<path d="M81.5065 32.127L82.3543 34.7357H85.0973L82.8783 36.3482L83.726 38.957L81.5065 37.3447L79.2873 38.957L80.135 36.3482L77.916 34.7357H80.6588L81.5065 32.127Z" fill="#F0F0F0"/>
<path d="M55.2409 23.02L56.0886 25.6285H58.8316L56.6124 27.2413L57.4601 29.8498L55.2409 28.2375L53.0216 29.8498L53.8694 27.2413L51.6504 25.6285H54.3931L55.2409 23.02Z" fill="#F0F0F0"/>
<path d="M63.9963 23.02L64.8438 25.6285H67.587L65.3678 27.2413L66.2153 29.8498L63.9963 28.2375L61.7768 29.8498L62.6248 27.2413L60.4053 25.6285H63.1485L63.9963 23.02Z" fill="#F0F0F0"/>
<path d="M72.7512 23.02L73.5989 25.6285H76.3417L74.1227 27.2413L74.9704 29.8498L72.7512 28.2375L70.5317 29.8498L71.3797 27.2413L69.1602 25.6285H71.9032L72.7512 23.02Z" fill="#F0F0F0"/>
<path d="M81.5065 23.02L82.3543 25.6285H85.0973L82.8783 27.2413L83.726 29.8498L81.5065 28.2375L79.2873 29.8498L80.135 27.2413L77.916 25.6285H80.6588L81.5065 23.02Z" fill="#F0F0F0"/>
<path d="M63.9963 13.9131L64.8438 16.5221H67.587L65.3678 18.1343L66.2153 20.7433L63.9963 19.1311L61.7768 20.7433L62.6248 18.1343L60.4053 16.5221H63.1485L63.9963 13.9131Z" fill="#F0F0F0"/>
<path d="M72.7512 13.9131L73.5989 16.5221H76.3417L74.1227 18.1343L74.9704 20.7433L72.7512 19.1311L70.5317 20.7433L71.3797 18.1343L69.1602 16.5221H71.9032L72.7512 13.9131Z" fill="#F0F0F0"/>
<path d="M81.5065 13.9131L82.3543 16.5221H85.0973L82.8783 18.1343L83.726 20.7433L81.5065 19.1311L79.2873 20.7433L80.135 18.1343L77.916 16.5221H80.6588L81.5065 13.9131Z" fill="#F0F0F0"/>
</g>
<defs>
<clipPath id="clip0_97_12438">
<rect width="128" height="128" fill="white"/>
</clipPath>
</defs>
</svg>
