<svg width="128" height="128" viewBox="0 0 128 128" fill="none" xmlns="http://www.w3.org/2000/svg">
<g clip-path="url(#clip0_97_12459)">
<path d="M128 64.0005C128 61.1712 127.814 58.3852 127.458 55.6527H55.6515C42.5763 42.5783 18.7441 18.7476 18.7451 18.7456C-6.24836 43.739 -6.24836 84.2614 18.7451 109.255L55.6523 72.3485H127.458C127.814 69.6157 128 66.8297 128 64.0005Z" fill="black"/>
<path d="M127.981 65.4554C127.979 65.5789 127.976 65.7029 127.972 65.8264C127.975 65.7024 127.978 65.5789 127.981 65.4554Z" fill="#F0F0F0"/>
<path d="M127.92 67.2045C127.914 67.3267 127.906 67.4485 127.899 67.5705C127.906 67.4487 127.914 67.3267 127.92 67.2045Z" fill="#F0F0F0"/>
<path d="M127.833 68.5995C127.821 68.7792 127.808 68.959 127.794 69.1382C127.808 68.959 127.82 68.7792 127.833 68.5995Z" fill="#F0F0F0"/>
<path d="M127.62 57.0248C127.643 57.2388 127.667 57.4525 127.688 57.667C127.667 57.4523 127.643 57.2388 127.62 57.0248Z" fill="#F0F0F0"/>
<path d="M127.899 60.4296C127.905 60.5516 127.914 60.6733 127.919 60.7956C127.913 60.6733 127.905 60.5513 127.899 60.4296Z" fill="#F0F0F0"/>
<path d="M127.972 62.1737C127.975 62.2972 127.978 62.4212 127.981 62.5447C127.978 62.4207 127.975 62.2972 127.972 62.1737Z" fill="#F0F0F0"/>
<path d="M127.794 58.8617C127.808 59.041 127.821 59.2207 127.833 59.4005C127.82 59.2207 127.808 59.041 127.794 58.8617Z" fill="#F0F0F0"/>
<path d="M127.458 55.6524C127.487 55.8716 127.512 56.0921 127.539 56.3119C123.74 24.5914 96.7437 0.00048828 64 0.00048828C46.3265 0.00048828 30.3263 7.16423 18.7446 18.7465L55.6505 55.6526H127.458V55.6524Z" fill="#D80027"/>
<path d="M127.458 72.3478H55.6505L18.7446 109.254C30.3263 120.836 46.3265 128 64 128C96.7437 128 123.74 103.409 127.539 71.6883C127.512 71.9081 127.486 72.1286 127.458 72.3478Z" fill="#6DA544"/>
<path d="M127.688 70.3334C127.667 70.5479 127.643 70.7616 127.62 70.9756C127.643 70.7616 127.667 70.5481 127.688 70.3334Z" fill="#F0F0F0"/>
<path d="M127.834 59.4003C127.858 59.7425 127.88 60.0855 127.899 60.4293C127.88 60.0855 127.858 59.7425 127.834 59.4003Z" fill="black"/>
<path d="M127.538 56.3119C127.567 56.5492 127.594 56.7869 127.62 57.0249C127.594 56.7869 127.567 56.5494 127.538 56.3119Z" fill="black"/>
<path d="M127.688 57.6669C127.727 58.0641 127.762 58.4624 127.794 58.8621C127.763 58.4624 127.727 58.0639 127.688 57.6669Z" fill="black"/>
<path d="M128 64.0004C128 64.4871 127.992 64.9719 127.982 65.4556C127.992 64.9716 128 64.4869 128 64.0004Z" fill="black"/>
<path d="M127.899 67.5707C127.88 67.9144 127.858 68.2574 127.834 68.5997C127.858 68.2574 127.88 67.9144 127.899 67.5707Z" fill="black"/>
<path d="M127.794 69.1385C127.762 69.5378 127.727 69.9363 127.688 70.3333C127.727 69.9363 127.763 69.5378 127.794 69.1385Z" fill="black"/>
<path d="M127.62 70.9755C127.594 71.2135 127.567 71.4509 127.538 71.6884C127.567 71.4512 127.594 71.2135 127.62 70.9755Z" fill="black"/>
<path d="M127.982 62.5448C127.992 63.0288 128 63.5138 128 64C128 63.5138 127.992 63.0288 127.982 62.5448Z" fill="black"/>
<path d="M127.92 60.7953C127.943 61.2533 127.96 61.713 127.973 62.1735C127.96 61.7128 127.943 61.2533 127.92 60.7953Z" fill="black"/>
<path d="M127.972 65.8265C127.959 66.287 127.942 66.7468 127.92 67.2048C127.943 66.7465 127.959 66.287 127.972 65.8265Z" fill="black"/>
<path d="M127.94 61.1947H53.3012L14.962 22.8613C13.7228 24.1683 12.3795 25.9933 11.5488 27.293L48.2135 63.977L11.518 100.673C12.2445 101.966 13.8273 103.879 14.9385 105.123L53.302 66.76H127.949C127.989 65.837 128.001 64.91 128.001 63.9775C128.001 62.728 127.966 61.8067 127.94 61.1947Z" fill="#FFDA44"/>
<path d="M15.5476 77.6433V72.2825C20.8971 72.2825 25.2488 67.9303 25.2488 62.5813C25.2488 58.7965 22.1696 55.7176 18.3851 55.7176C15.8068 55.7176 13.7091 57.815 13.7091 60.3938C13.7091 62.0425 15.0503 63.384 16.6993 63.384C17.6313 63.384 18.3896 62.6253 18.3896 61.6933H23.7501C23.7501 65.5815 20.5871 68.7445 16.6996 68.7445C12.0948 68.7448 8.34911 64.9983 8.34911 60.3943C8.34911 54.8601 12.8516 50.3578 18.3853 50.3578C25.1258 50.3578 30.6098 55.8418 30.6098 62.582C30.6096 70.8863 23.8528 77.6433 15.5476 77.6433Z" fill="#FFDA44"/>
</g>
<defs>
<clipPath id="clip0_97_12459">
<rect width="128" height="128" fill="white"/>
</clipPath>
</defs>
</svg>
