<svg width="128" height="128" viewBox="0 0 128 128" fill="none" xmlns="http://www.w3.org/2000/svg">
<g clip-path="url(#clip0_97_12485)">
<path d="M64.0001 0C99.3461 0 128 28.654 128 64C128 99.346 99.3461 128 64.0001 128C64.0001 125.217 55.6523 64 55.6523 64L64.0001 0Z" fill="#F0F0F0"/>
<path d="M64 128C28.654 128 0 99.3462 0 64.0002C0 28.6542 28.654 0.000244141 64 0.000244141" fill="#FFDA44"/>
<path d="M88.5074 55.6915L100.535 71.603C98.6401 74.4725 98.6501 78.3385 100.842 81.2377C103.622 84.9155 108.857 85.6435 112.535 82.8632C116.213 80.0832 116.941 74.848 114.16 71.1702C111.969 68.271 108.252 67.207 104.975 68.2475L86.2294 43.4492L81.7899 46.8052L75.1299 51.8387L81.8419 60.7175L88.5074 55.6915ZM105.823 73.984C107.049 73.057 108.794 73.3 109.721 74.5255C110.648 75.7515 110.405 77.4967 109.179 78.4237C107.954 79.35 106.208 79.108 105.282 77.8817C104.355 76.6557 104.597 74.9105 105.823 73.984Z" fill="#ACABB1"/>
<path d="M109.138 60.717L115.85 51.8382L109.19 46.8042L104.751 43.4482L86.0053 68.2465C82.7283 67.206 79.0111 68.2702 76.8196 71.1692C74.0391 74.8472 74.7671 80.0822 78.4448 82.8622C82.1228 85.6422 87.3578 84.9145 90.1378 81.2367C92.3293 78.3375 92.3393 74.4715 90.4446 71.602L102.472 55.6905L109.138 60.717ZM85.6983 77.8812C84.7718 79.1075 83.0268 79.3497 81.8008 78.4232C80.5748 77.4962 80.3323 75.751 81.2591 74.525C82.1856 73.2995 83.9308 73.0565 85.1571 73.9835C86.3828 74.9102 86.6251 76.6555 85.6983 77.8812Z" fill="#FFDA44"/>
</g>
<defs>
<clipPath id="clip0_97_12485">
<rect width="128" height="128" fill="white"/>
</clipPath>
</defs>
</svg>
