<svg width="128" height="128" viewBox="0 0 128 128" fill="none" xmlns="http://www.w3.org/2000/svg">
<g clip-path="url(#clip0_97_12490)">
<path d="M121.649 91.8261C125.718 83.4121 128 73.9729 128 64.0001C128 54.0274 125.718 44.5881 121.649 36.1741L64 30.6089L6.3505 36.1741C2.28175 44.5881 0 54.0274 0 64.0001C0 73.9729 2.28175 83.4121 6.3505 91.8261L64 97.3914L121.649 91.8261Z" fill="#0052B4"/>
<path d="M64.0001 128C89.3733 128 111.298 113.234 121.65 91.8262H6.35059C16.7026 113.234 38.6266 128 64.0001 128Z" fill="#D80027"/>
<path d="M110.843 76.5631L107.463 79.2046L108.93 83.2349L105.373 80.8366L101.992 83.4776L103.174 79.3539L99.6182 76.9549L103.905 76.8054L105.088 72.6816L106.556 76.7126L110.843 76.5631Z" fill="#F0F0F0"/>
<path d="M102.186 61.5704L99.9134 65.2086L102.671 68.4941L98.5084 67.4576L96.2349 71.0949L95.9352 66.8156L91.7729 65.7774L95.7509 64.1701L95.4519 59.8906L98.2092 63.1774L102.186 61.5704Z" fill="#F0F0F0"/>
<path d="M88.9246 50.4424L88.0331 54.6386L91.7481 56.7836L87.4819 57.2334L86.5899 61.4284L84.8449 57.5099L80.5781 57.9576L83.7666 55.0871L82.0219 51.1686L85.7369 53.3131L88.9246 50.4424Z" fill="#F0F0F0"/>
<path d="M72.6565 44.522L73.2542 48.7702L77.4785 49.5147L73.623 51.3962L74.2202 55.6442L71.2402 52.5582L67.3837 54.4387L69.3982 50.6505L66.418 47.565L70.643 48.3097L72.6565 44.522Z" fill="#F0F0F0"/>
<path d="M55.3452 44.522L57.3594 48.3097L61.5834 47.5645L58.6042 50.6512L60.6174 54.4392L56.7619 52.5582L53.7814 55.6435L54.3792 51.3962L50.5234 49.5157L54.7482 48.7702L55.3452 44.522Z" fill="#F0F0F0"/>
<path d="M39.0776 50.4424L42.2661 53.3131L45.9804 51.1686L44.2361 55.0886L47.4239 57.9586L43.1576 57.5099L41.4121 61.4284L40.5214 57.2326L36.2549 56.7846L39.9699 54.6391L39.0776 50.4424Z" fill="#F0F0F0"/>
<path d="M25.8158 61.5706L29.794 63.1776L32.5505 59.8916L32.2523 64.1719L36.2293 65.7791L32.067 66.8164L31.7673 71.0951L29.4948 67.4579L25.332 68.4951L28.0895 65.2089L25.8158 61.5706Z" fill="#F0F0F0"/>
<path d="M17.1597 76.5631L21.4477 76.7126L22.9142 72.6821L24.0979 76.8061L28.3847 76.9559L24.8282 79.3549L26.0102 83.4784L22.6302 80.8374L19.0734 83.2356L20.5407 79.2046L17.1597 76.5631Z" fill="#F0F0F0"/>
<path d="M121.65 36.174C111.298 14.7663 89.3733 0 64.0001 0C38.6266 0 16.7026 14.7663 6.35059 36.174H121.65Z" fill="#FFDA44"/>
</g>
<defs>
<clipPath id="clip0_97_12490">
<rect width="128" height="128" fill="white"/>
</clipPath>
</defs>
</svg>
