<svg width="128" height="128" viewBox="0 0 128 128" fill="none" xmlns="http://www.w3.org/2000/svg">
<g clip-path="url(#clip0_97_12506)">
<path d="M64 128C99.3462 128 128 99.3465 128 64.0002C128 28.654 99.3462 0.000244141 64 0.000244141C28.6538 0.000244141 0 28.654 0 64.0002C0 99.3465 28.6538 128 64 128Z" fill="#FCFCFC"/>
<path d="M74.871 44.7118C74.871 38.7088 70.0045 33.8423 64.0013 33.8423C57.998 33.8423 53.1315 38.7088 53.1315 44.7118H29.2188C29.2188 50.622 34.3672 55.4138 40.2775 55.4138H39.9215C39.9215 61.3245 44.7125 66.1165 50.6238 66.1165C50.6238 71.3498 54.3822 75.6983 59.346 76.6278L59.3183 76.6903H68.6845L68.6568 76.6278C73.6208 75.6978 77.379 71.3495 77.379 66.1165C83.29 66.1165 88.0813 61.3245 88.0813 55.4138H87.7248C93.635 55.4138 98.7838 50.622 98.7838 44.7118H74.871Z" fill="#FFDA44"/>
<path d="M59.2229 75.5811L52.4834 90.7968C56.0394 92.2423 59.9261 93.0458 64.0014 93.0458C68.0767 93.0458 71.9634 92.2426 75.5191 90.7968L68.7799 75.5811H59.2229Z" fill="#FFDA44"/>
<path d="M50.0869 50.0566V68.7794C50.0869 79.4289 63.9999 82.6924 63.9999 82.6924C63.9999 82.6924 77.9129 79.4289 77.9129 68.7794V50.0566H50.0869Z" fill="#F0F0F0"/>
<path d="M15.5197 64.4507L23.0444 85.4967L30.4909 64.4507H36.1739L25.3174 92.2767H20.7712L9.83691 64.4507H15.5197Z" fill="#338AF3"/>
<path d="M102.957 92.2767V64.4507H108.365V92.2767H102.957Z" fill="#338AF3"/>
<path d="M55.6523 56.103V78.7915C57.5651 80.1993 59.6231 81.1675 61.2176 81.7875V56.103H55.6523Z" fill="#D80027"/>
<path d="M72.3484 56.103V78.7915C70.4357 80.1993 68.3777 81.1675 66.7832 81.7875V56.103H72.3484Z" fill="#D80027"/>
<path d="M50.0869 50.0562H77.9129V58.8852H50.0869V50.0562Z" fill="#0052B4"/>
</g>
<defs>
<clipPath id="clip0_97_12506">
<rect width="128" height="128" fill="white"/>
</clipPath>
</defs>
</svg>
