<svg width="128" height="128" viewBox="0 0 128 128" fill="none" xmlns="http://www.w3.org/2000/svg">
<g clip-path="url(#clip0_97_12519)">
<path d="M64 128C99.3462 128 128 99.3465 128 64.0002C128 28.654 99.3462 0.000244141 64 0.000244141C28.6538 0.000244141 0 28.654 0 64.0002C0 99.3465 28.6538 128 64 128Z" fill="#F0F0F0"/>
<path d="M128 64C128 99.346 99.346 128 64 128C28.654 128 0 99.346 0 64" fill="#496E2D"/>
<path d="M110.753 44.5359C108.465 38.0451 102.28 33.3916 95.0067 33.3916H80.6957C71.475 33.3916 64 40.8666 64 50.0874C64 53.0999 64.802 55.9951 66.1977 58.4351C60.8835 58.3916 55.9652 58.4719 52.8695 58.4351C52.8695 51.9961 52.8695 43.7936 52.8695 42.0774L53.527 41.4199C56.4785 38.4684 55.4942 33.5494 55.4942 33.5494C55.4942 33.5494 50.5757 32.5656 47.6242 35.5171L44.1845 38.9569H40.3477C31.8952 38.9569 25.0435 45.8089 25.0435 54.2611H36.174V66.7829C36.174 68.6144 36.5432 70.3591 37.2105 71.9481L33.3912 75.1306H27.826V69.5653H22.2607V80.6959H47.3042V91.8264H41.739V97.3916H52.8695V86.2611L57.9707 80.1394H70.029L75.1302 86.2611V91.8264H69.565V97.3916H91.8257V66.7826C91.8257 62.1724 95.5632 58.4349 100.173 58.4349C100.292 58.4349 100.409 58.4391 100.527 58.4439C100.296 57.5519 100.173 56.6166 100.173 55.6524C100.174 49.6901 104.862 44.8231 110.753 44.5359ZM80.6957 91.8261V80.1391H81.1595L86.2607 86.2609V91.8261H80.6957Z" fill="#D80027"/>
</g>
<defs>
<clipPath id="clip0_97_12519">
<rect width="128" height="128" fill="white"/>
</clipPath>
</defs>
</svg>
