<svg width="128" height="128" viewBox="0 0 128 128" fill="none" xmlns="http://www.w3.org/2000/svg">
<g clip-path="url(#clip0_97_12523)">
<path d="M64 128C99.3462 128 128 99.3465 128 64.0002C128 28.654 99.3462 0.000244141 64 0.000244141C28.6538 0.000244141 0 28.654 0 64.0002C0 99.3465 28.6538 128 64 128Z" fill="#F0F0F0"/>
<path d="M63.9997 128C91.5175 128 114.976 110.632 124.019 86.2607H3.98047C13.0232 110.632 36.482 128 63.9997 128Z" fill="black"/>
<path d="M63.9997 0C36.482 0 13.0232 17.368 3.98047 41.7393H124.019C114.976 17.368 91.5175 0 63.9997 0Z" fill="#D80027"/>
</g>
<defs>
<clipPath id="clip0_97_12523">
<rect width="128" height="128" fill="white"/>
</clipPath>
</defs>
</svg>
