<svg width="128" height="128" viewBox="0 0 128 128" fill="none" xmlns="http://www.w3.org/2000/svg">
<g clip-path="url(#clip0_97_12527)">
<path d="M64 128C99.3462 128 128 99.3465 128 64.0002C128 28.654 99.3462 0.000244141 64 0.000244141C28.6538 0.000244141 0 28.654 0 64.0002C0 99.3465 28.6538 128 64 128Z" fill="#496E2D"/>
<path d="M89.0435 64.0002H64V128C71.481 128 78.6603 126.712 85.3333 124.354L89.0435 64.0002Z" fill="#D80027"/>
<path d="M106.667 111.698C119.759 99.98 128.001 82.9535 128.001 64.0002H102.957L106.667 111.698Z" fill="#FF9811"/>
<path d="M85.333 64.0002V124.354C93.2823 121.543 100.511 117.209 106.667 111.699V64.0002H85.333Z" fill="black"/>
<path d="M118.26 41.7394H101.565C101.565 38.6659 99.0728 36.1742 95.9993 36.1742C92.9258 36.1742 90.434 38.6659 90.434 41.7394H73.7383C73.7383 44.8132 76.4155 47.3047 79.4888 47.3047H79.3035C79.3035 50.3784 81.7948 52.8699 84.8688 52.8699C84.8688 55.9437 87.36 58.4352 90.434 58.4352H101.565C104.638 58.4352 107.13 55.9437 107.13 52.8699C110.203 52.8699 112.695 50.3784 112.695 47.3047H112.51C115.583 47.3044 118.26 44.8129 118.26 41.7394Z" fill="#FF9811"/>
</g>
<defs>
<clipPath id="clip0_97_12527">
<rect width="128" height="128" fill="white"/>
</clipPath>
</defs>
</svg>
