<svg width="128" height="128" viewBox="0 0 128 128" fill="none" xmlns="http://www.w3.org/2000/svg">
<g clip-path="url(#clip0_97_12533)">
<path d="M64 128C99.3462 128 128 99.3465 128 64.0002C128 28.654 99.3462 0.000244141 64 0.000244141C28.6538 0.000244141 0 28.654 0 64.0002C0 99.3465 28.6538 128 64 128Z" fill="#F0F0F0"/>
<path d="M121.875 36.6511C118.624 29.7826 114.186 23.5868 108.826 18.3256L64.001 13.9133L19.176 18.3258C19.033 18.4661 18.8935 18.6096 18.752 18.7513L36.652 36.6513L64.001 37.4866L121.875 36.6511Z" fill="#FFDA44"/>
<path d="M18.751 109.25C18.9865 109.486 19.2215 109.721 19.4605 109.953L64.0007 114.087L108.54 109.953C113.956 104.703 118.448 98.5071 121.745 91.6278L38.957 89.0438C31.8337 96.1673 23.6177 104.383 18.751 109.25Z" fill="#FFDA44"/>
<path d="M127.363 54.9765L52.8691 52.8698L63.9996 64.0003C60.7029 67.297 55.7814 72.2185 52.8691 75.1308L127.324 73.3023C127.767 70.265 128 67.16 128 64.0003C128 60.9368 127.78 57.9253 127.363 54.9765Z" fill="black"/>
<path d="M63.9998 0.000244141C46.5428 0.000244141 30.7213 6.99274 19.1748 18.3257H108.825C97.2783 6.99274 81.4568 0.000244141 63.9998 0.000244141Z" fill="#6DA544"/>
<path d="M54.9764 54.9766H127.364C126.45 48.5069 124.571 42.3484 121.874 36.6511H36.6509L54.9764 54.9766Z" fill="#D80027"/>
<path d="M36.3726 91.6279H121.745C124.473 85.9349 126.382 79.7756 127.325 73.3024H54.6981C47.6013 80.3991 41.5868 86.4136 36.3726 91.6279Z" fill="#D80027"/>
<path d="M63.9997 128C81.3135 128 97.0185 121.122 108.539 109.953H19.46C30.981 121.122 46.686 128 63.9997 128Z" fill="#6DA544"/>
<path d="M22.8539 14.9838C21.4311 16.1793 20.0584 17.4325 18.7451 18.7453L64.0001 64.0003L18.7451 109.255C20.0581 110.568 21.4311 111.821 22.8539 113.017L71.8704 64.0003L22.8539 14.9838Z" fill="black"/>
<path d="M25.7313 47.3044L29.875 60.0584H43.2863L32.4368 67.9414L36.5808 80.6959L25.7313 72.8132L14.8815 80.6959L19.026 67.9414L8.17676 60.0584H21.5873L25.7313 47.3044Z" fill="#D80027"/>
<path d="M37.1295 65.0438L26.33 61.2178C26.33 61.2178 25.532 53.732 25.4838 53.4783C25.1173 51.5475 23.4205 50.0873 21.383 50.0873C19.078 50.0873 17.209 51.956 17.209 54.2613C17.209 54.6435 17.2648 55.0118 17.361 55.3638L14.333 58.412H19.717C19.717 64.0003 15.547 64.0003 15.547 69.5655L17.8603 75.1308H31.7733L34.0923 69.5655H34.0913C34.3235 69.0315 34.4645 68.4808 34.5228 67.9305C36.5218 67.122 37.1295 65.0438 37.1295 65.0438Z" fill="#FFDA44"/>
</g>
<defs>
<clipPath id="clip0_97_12533">
<rect width="128" height="128" fill="white"/>
</clipPath>
</defs>
</svg>
