<svg width="106" height="56" viewBox="0 0 106 56" fill="none" xmlns="http://www.w3.org/2000/svg">
<rect x="0.5" y="0.5" width="105" height="55" rx="4.5" stroke="#9747FF" stroke-dasharray="10 5"/>
<g opacity="0.7">
<g clip-path="url(#clip0_316_11998)">
<path d="M58.5286 23.5286C58.789 23.2683 59.211 23.2683 59.4713 23.5286C59.7317 23.789 59.7317 24.211 59.4713 24.4713L55.9427 28L59.4713 31.5286C59.7317 31.789 59.7317 32.211 59.4713 32.4713C59.211 32.7317 58.789 32.7317 58.5286 32.4713L55 28.9427L51.4713 32.4713C51.211 32.7317 50.789 32.7317 50.5286 32.4713C50.2683 32.211 50.2683 31.789 50.5286 31.5286L54.0573 28L50.5286 24.4713C50.2683 24.211 50.2683 23.789 50.5286 23.5286C50.789 23.2683 51.211 23.2683 51.4713 23.5286L55 27.0573L58.5286 23.5286Z" fill="#212121"/>
</g>
</g>
<g filter="url(#filter0_d_316_11998)">
<g clip-path="url(#clip1_316_11998)">
<path d="M74 22C74 20.8954 74.8954 20 76 20H88C89.1046 20 90 20.8954 90 22V34C90 35.1046 89.1046 36 88 36H76C74.8954 36 74 35.1046 74 34V22Z" fill="white"/>
<g opacity="0.7">
<g clip-path="url(#clip2_316_11998)">
<path d="M85.5286 23.5286C85.789 23.2683 86.211 23.2683 86.4713 23.5286C86.7317 23.789 86.7317 24.211 86.4713 24.4713L82.9427 28L86.4713 31.5286C86.7317 31.789 86.7317 32.211 86.4713 32.4713C86.211 32.7317 85.789 32.7317 85.5286 32.4713L82 28.9427L78.4713 32.4713C78.211 32.7317 77.789 32.7317 77.5286 32.4713C77.2683 32.211 77.2683 31.789 77.5286 31.5286L81.0573 28L77.5286 24.4713C77.2683 24.211 77.2683 23.789 77.5286 23.5286C77.789 23.2683 78.211 23.2683 78.4713 23.5286L82 27.0573L85.5286 23.5286Z" fill="#71717A"/>
</g>
</g>
</g>
</g>
<g opacity="0.7">
<g clip-path="url(#clip3_316_11998)">
<path d="M31.5286 23.5286C31.789 23.2683 32.211 23.2683 32.4713 23.5286C32.7317 23.789 32.7317 24.211 32.4713 24.4713L28.9427 28L32.4713 31.5286C32.7317 31.789 32.7317 32.211 32.4713 32.4713C32.211 32.7317 31.789 32.7317 31.5286 32.4713L28 28.9427L24.4713 32.4713C24.211 32.7317 23.789 32.7317 23.5286 32.4713C23.2683 32.211 23.2683 31.789 23.5286 31.5286L27.0573 28L23.5286 24.4713C23.2683 24.211 23.2683 23.789 23.5286 23.5286C23.789 23.2683 24.211 23.2683 24.4713 23.5286L28 27.0573L31.5286 23.5286Z" fill="#71717A"/>
</g>
</g>
<defs>
<filter id="filter0_d_316_11998" x="72" y="18" width="20" height="20" filterUnits="userSpaceOnUse" color-interpolation-filters="sRGB">
<feFlood flood-opacity="0" result="BackgroundImageFix"/>
<feColorMatrix in="SourceAlpha" type="matrix" values="0 0 0 0 0 0 0 0 0 0 0 0 0 0 0 0 0 0 127 0" result="hardAlpha"/>
<feMorphology radius="2" operator="dilate" in="SourceAlpha" result="effect1_dropShadow_316_11998"/>
<feOffset/>
<feComposite in2="hardAlpha" operator="out"/>
<feColorMatrix type="matrix" values="0 0 0 0 0 0 0 0 0 0 0 0 0 0 0 0 0 0 0.32 0"/>
<feBlend mode="normal" in2="BackgroundImageFix" result="effect1_dropShadow_316_11998"/>
<feBlend mode="normal" in="SourceGraphic" in2="effect1_dropShadow_316_11998" result="shape"/>
</filter>
<clipPath id="clip0_316_11998">
<path d="M47 22C47 20.8954 47.8954 20 49 20H61C62.1046 20 63 20.8954 63 22V34C63 35.1046 62.1046 36 61 36H49C47.8954 36 47 35.1046 47 34V22Z" fill="white"/>
</clipPath>
<clipPath id="clip1_316_11998">
<path d="M74 22C74 20.8954 74.8954 20 76 20H88C89.1046 20 90 20.8954 90 22V34C90 35.1046 89.1046 36 88 36H76C74.8954 36 74 35.1046 74 34V22Z" fill="white"/>
</clipPath>
<clipPath id="clip2_316_11998">
<path d="M74 22C74 20.8954 74.8954 20 76 20H88C89.1046 20 90 20.8954 90 22V34C90 35.1046 89.1046 36 88 36H76C74.8954 36 74 35.1046 74 34V22Z" fill="white"/>
</clipPath>
<clipPath id="clip3_316_11998">
<path d="M20 22C20 20.8954 20.8954 20 22 20H34C35.1046 20 36 20.8954 36 22V34C36 35.1046 35.1046 36 34 36H22C20.8954 36 20 35.1046 20 34V22Z" fill="white"/>
</clipPath>
</defs>
</svg>
