<svg width="219" height="320" viewBox="0 0 219 320" fill="none" xmlns="http://www.w3.org/2000/svg">
<g clip-path="url(#clip0_293_6328)">
<path d="M51.0286 27.5286C51.289 27.2683 51.711 27.2683 51.9713 27.5286L55.9713 31.5286C56.2317 31.789 56.2317 32.211 55.9713 32.4713L51.9713 36.4713C51.711 36.7317 51.289 36.7317 51.0286 36.4713C50.7683 36.211 50.7683 35.789 51.0286 35.5286L54.5573 32L51.0286 28.4713C50.7683 28.211 50.7683 27.789 51.0286 27.5286Z" fill="#212121"/>
</g>
<g clip-path="url(#clip1_293_6328)">
<path d="M57.0286 93.5286C57.289 93.2683 57.711 93.2683 57.9713 93.5286C58.2317 93.789 58.2317 94.211 57.9713 94.4713L53.9713 98.4713C53.711 98.7317 53.289 98.7317 53.0286 98.4713L49.0286 94.4713C48.7683 94.211 48.7683 93.789 49.0286 93.5286C49.289 93.2683 49.711 93.2683 49.9713 93.5286L53.5 97.0573L57.0286 93.5286Z" fill="#212121"/>
</g>
<g clip-path="url(#clip2_293_6328)">
<path d="M56.362 161.529C56.6223 161.268 57.0443 161.268 57.3047 161.529C57.565 161.789 57.565 162.211 57.3047 162.471L53.9714 165.805C53.711 166.065 53.289 166.065 53.0287 165.805L49.6953 162.471C49.435 162.211 49.435 161.789 49.6953 161.529C49.9557 161.268 50.3777 161.268 50.638 161.529L53.5 164.391L56.362 161.529ZM53.0794 154.15C53.3413 153.936 53.7273 153.951 53.9714 154.195L57.3047 157.529C57.565 157.789 57.565 158.211 57.3047 158.471C57.0443 158.732 56.6223 158.732 56.362 158.471L53.5 155.609L50.638 158.471C50.3777 158.732 49.9557 158.732 49.6953 158.471C49.435 158.211 49.435 157.789 49.6953 157.529L53.0287 154.195L53.0794 154.15Z" fill="#212121"/>
</g>
<g clip-path="url(#clip3_293_6328)">
<path d="M52.8334 228.667V224.667H48.8334C48.4652 224.667 48.1667 224.368 48.1667 224C48.1667 223.632 48.4652 223.333 48.8334 223.333H52.8334V219.333C52.8334 218.965 53.1318 218.667 53.5 218.667C53.8682 218.667 54.1667 218.965 54.1667 219.333V223.333H58.1667C58.5349 223.333 58.8334 223.632 58.8334 224C58.8334 224.368 58.5349 224.667 58.1667 224.667H54.1667V228.667C54.1667 229.035 53.8682 229.333 53.5 229.333C53.1318 229.333 52.8334 229.035 52.8334 228.667Z" fill="#212121"/>
</g>
<g clip-path="url(#clip4_293_6328)">
<g clip-path="url(#clip5_293_6328)">
<path d="M59 288C59 284.686 56.3137 282 53 282C49.6863 282 47 284.686 47 288C47 291.314 49.6863 294 53 294C56.3137 294 59 291.314 59 288ZM60.3334 288C60.3334 292.05 57.0501 295.333 53 295.333C48.9499 295.333 45.6667 292.05 45.6667 288C45.6667 283.95 48.9499 280.667 53 280.667C57.0501 280.667 60.3334 283.95 60.3334 288Z" fill="#212121"/>
</g>
</g>
<g clip-path="url(#clip6_293_6328)">
<path d="M166.529 29.5286C166.789 29.2683 167.211 29.2683 167.471 29.5286C167.732 29.789 167.732 30.211 167.471 30.4713L163.471 34.4713C163.211 34.7317 162.789 34.7317 162.529 34.4713L158.529 30.4713C158.268 30.211 158.268 29.789 158.529 29.5286C158.789 29.2683 159.211 29.2683 159.471 29.5286L163 33.0573L166.529 29.5286Z" fill="#212121"/>
</g>
<g clip-path="url(#clip7_293_6328)">
<path d="M162.579 93.4831C162.841 93.2695 163.227 93.2846 163.471 93.5287L167.471 97.5287C167.732 97.789 167.732 98.211 167.471 98.4714C167.211 98.7317 166.789 98.7317 166.529 98.4714L163 94.9427L159.471 98.4714C159.211 98.7317 158.789 98.7317 158.529 98.4714C158.268 98.211 158.268 97.789 158.529 97.5287L162.529 93.5287L162.579 93.4831Z" fill="#212121"/>
</g>
<g clip-path="url(#clip8_293_6328)">
<path d="M165.862 161.529C166.122 161.268 166.544 161.268 166.805 161.529C167.065 161.789 167.065 162.211 166.805 162.471L163.471 165.805C163.211 166.065 162.789 166.065 162.529 165.805L159.195 162.471C158.935 162.211 158.935 161.789 159.195 161.529C159.456 161.268 159.878 161.268 160.138 161.529L163 164.391L165.862 161.529ZM162.579 154.15C162.841 153.936 163.227 153.951 163.471 154.195L166.805 157.529C167.065 157.789 167.065 158.211 166.805 158.471C166.544 158.732 166.122 158.732 165.862 158.471L163 155.609L160.138 158.471C159.878 158.732 159.456 158.732 159.195 158.471C158.935 158.211 158.935 157.789 159.195 157.529L162.529 154.195L162.579 154.15Z" fill="#212121"/>
</g>
<g clip-path="url(#clip9_293_6328)">
<path d="M167.667 223.333C168.035 223.333 168.333 223.632 168.333 224C168.333 224.368 168.035 224.667 167.667 224.667H158.333C157.965 224.667 157.667 224.368 157.667 224C157.667 223.632 157.965 223.333 158.333 223.333H167.667Z" fill="#212121"/>
</g>
<defs>
<clipPath id="clip0_293_6328">
<rect width="16" height="16" fill="white" transform="translate(45.5 24)"/>
</clipPath>
<clipPath id="clip1_293_6328">
<rect width="16" height="16" fill="white" transform="translate(45.5 88)"/>
</clipPath>
<clipPath id="clip2_293_6328">
<rect width="16" height="16" fill="white" transform="translate(45.5 152)"/>
</clipPath>
<clipPath id="clip3_293_6328">
<rect width="16" height="16" fill="white" transform="translate(45.5 216)"/>
</clipPath>
<clipPath id="clip4_293_6328">
<rect width="16" height="16" fill="white" transform="translate(45 280)"/>
</clipPath>
<clipPath id="clip5_293_6328">
<rect width="16" height="16" fill="white" transform="translate(45 280)"/>
</clipPath>
<clipPath id="clip6_293_6328">
<rect width="16" height="16" fill="white" transform="translate(155 24)"/>
</clipPath>
<clipPath id="clip7_293_6328">
<rect width="16" height="16" fill="white" transform="translate(155 88)"/>
</clipPath>
<clipPath id="clip8_293_6328">
<rect width="16" height="16" fill="white" transform="translate(155 152)"/>
</clipPath>
<clipPath id="clip9_293_6328">
<rect width="16" height="16" fill="white" transform="translate(155 216)"/>
</clipPath>
</defs>
</svg>
