<svg width="124" height="156" viewBox="0 0 124 156" fill="none" xmlns="http://www.w3.org/2000/svg">
<path d="M70.5754 0.377256C70.4292 0.398146 70.166 0.452456 69.9905 0.498411C69.531 0.615389 3.59733 21.7884 3.22133 21.9388C2.42755 22.2563 1.65466 22.8412 1.11155 23.5431C0.689597 24.0903 0.42222 24.6042 0.204976 25.2894L0.108887 25.5902V54.96L0.267642 55.4195C0.894308 57.2327 2.38577 58.5194 4.2992 58.8954C4.82977 58.9999 5.75306 58.9873 6.27111 58.8745C6.91448 58.7325 89.2459 32.283 89.6553 32.0866C90.165 31.8401 90.5494 31.5727 90.9713 31.1675C92.0241 30.1607 92.5839 28.8655 92.5839 27.4326C92.5839 26.856 92.5129 26.3672 92.35 25.8534C92.2247 25.4648 91.9155 24.8298 91.6774 24.4789C91.5896 24.3494 87.8923 19.311 83.4555 13.2824C78.0578 5.94206 75.2838 2.20295 75.0582 1.96899C74.3145 1.18775 73.3787 0.669703 72.28 0.435747C71.9081 0.360544 70.9472 0.322947 70.5754 0.377256Z" fill="#2050F6"/>
<path d="M99.5396 35.8089C98.2445 35.9802 97.0204 36.6236 96.235 37.5427C96.072 37.7307 45.3956 106.631 45.0113 107.182C44.7105 107.616 44.393 108.427 44.2718 109.079C44.1883 109.517 44.1841 110.382 44.2676 110.846C44.5893 112.692 45.8844 114.226 47.6391 114.844C48.5833 115.174 74.2223 123.379 74.5147 123.442C74.9283 123.534 76.0939 123.546 76.4783 123.463C77.6355 123.212 78.6841 122.64 79.3735 121.888C79.7829 121.441 120.692 65.7719 120.917 65.3541C121.841 63.6454 121.744 61.5649 120.671 59.9898C120.086 59.1334 104.244 37.6513 104.014 37.4048C103.3 36.6361 102.268 36.0763 101.177 35.8674C100.751 35.7838 99.9281 35.7546 99.5396 35.8089Z" fill="#2050F6"/>
<path d="M4.32004 67.1382C3.18786 67.3847 2.39826 67.8192 1.59195 68.6381C0.844126 69.3984 0.417992 70.1838 0.217459 71.1781L0.129726 71.6001V111.31C0.129726 147.009 0.138081 151.053 0.19657 151.362C0.38457 152.361 0.890082 153.301 1.63373 154.04C2.93302 155.327 4.85062 155.866 6.5844 155.431C7.1108 155.298 33.2136 146.796 33.4977 146.662C34.2162 146.332 34.9891 145.701 35.4738 145.05C35.9208 144.448 36.2717 143.642 36.4138 142.881C36.4722 142.568 36.489 140.947 36.5433 128.66C36.5934 117.836 36.5976 114.79 36.56 114.765C36.5182 114.74 36.5182 114.731 36.56 114.715C36.5976 114.702 36.5934 110.905 36.5433 97.4062C36.4722 78.5519 36.4973 79.8846 36.2466 79.0908C35.8205 77.7456 34.8554 76.6218 33.5729 75.9826C33.4099 75.9032 33.0715 75.7653 32.8209 75.6818C30.3017 74.8504 6.93533 67.2761 6.622 67.1967C6.26689 67.1006 6.09977 67.0839 5.4564 67.0714C4.82137 67.0589 4.64591 67.0672 4.32004 67.1382Z" fill="#2050F6"/>
</svg>
