<svg width="271" height="331" viewBox="0 0 271 331" fill="none" xmlns="http://www.w3.org/2000/svg">
<path d="M40.1675 202.332C39.4488 202.317 38.7665 202.078 38.1954 201.643L19.3078 187.242C18.4386 186.575 17.9566 185.571 17.9786 184.473C18.0005 183.375 18.5307 182.388 19.4299 181.765L80.7676 139.117C81.357 138.707 82.0464 138.492 82.7545 138.512C84.2244 138.545 85.5009 139.514 85.9265 140.921L92.7439 163.71C93.1695 165.116 92.6411 166.628 91.4295 167.47L42.1617 201.729C41.5724 202.139 40.8782 202.344 40.1594 202.329L40.1675 202.332Z" fill="#2050F6"/>
<path d="M11.8772 119.057C11.38 118.538 11.0662 117.887 10.9702 117.175L7.79763 93.6363C7.65436 92.5504 8.02364 91.4995 8.81549 90.7387C9.60734 89.9779 10.6805 89.6546 11.7566 89.8501L85.2856 103.066C85.9923 103.193 86.6316 103.528 87.1184 104.043C88.1346 105.105 88.3517 106.694 87.6583 107.989L76.3641 128.924C75.6708 130.219 74.2282 130.915 72.7759 130.654L13.7135 120.041C13.007 119.914 12.3714 119.568 11.8735 119.049L11.8772 119.057Z" fill="#212121"/>
<path d="M50.7558 40.1679C50.7712 39.4493 51.0097 38.767 51.4452 38.1959L65.8461 19.3082C66.5127 18.439 67.5169 17.9571 68.6148 17.979C69.7126 18.001 70.7001 18.5312 71.3228 19.4304L113.971 80.7681C114.381 81.3575 114.596 82.0468 114.576 82.7549C114.543 84.2248 113.574 85.5014 112.167 85.927L89.3776 92.7443C87.9715 93.17 86.4598 92.6416 85.6175 91.43L51.3584 42.1622C50.9486 41.5728 50.7439 40.8787 50.7586 40.1599L50.7558 40.1679Z" fill="#212121"/>
<path d="M134.03 11.8772C134.549 11.38 135.2 11.0662 135.912 10.9702L159.451 7.79763C160.537 7.65436 161.587 8.02364 162.348 8.81549C163.109 9.60733 163.432 10.6805 163.237 11.7566L150.021 85.2856C149.894 85.9923 149.559 86.6316 149.044 87.1184C147.982 88.1346 146.393 88.3517 145.098 87.6583L124.163 76.3641C122.867 75.6708 122.172 74.2282 122.433 72.7759L133.046 13.7135C133.173 13.007 133.519 12.3714 134.038 11.8735L134.03 11.8772Z" fill="#212121"/>
<path d="M212.92 50.7563C213.639 50.7717 214.321 51.0102 214.892 51.4457L233.78 65.8466C234.649 66.5131 235.131 67.5174 235.109 68.6152C235.087 69.7131 234.557 70.7006 233.658 71.3233L172.32 113.971C171.73 114.381 171.041 114.596 170.333 114.576C168.863 114.544 167.587 113.574 167.161 112.168L160.344 89.3781C159.918 87.972 160.446 86.4603 161.658 85.618L210.926 51.3589C211.515 50.9491 212.209 50.7444 212.928 50.7591L212.92 50.7563Z" fill="#212121"/>
<path d="M241.212 134.031C241.709 134.55 242.023 135.201 242.119 135.913L245.291 159.452C245.435 160.538 245.065 161.588 244.273 162.349C243.482 163.11 242.408 163.433 241.332 163.238L167.803 150.022C167.097 149.895 166.457 149.56 165.971 149.045C164.954 147.983 164.737 146.394 165.431 145.099L176.725 124.164C177.418 122.868 178.861 122.173 180.313 122.434L239.375 133.047C240.082 133.174 240.718 133.52 241.215 134.039L241.212 134.031Z" fill="#212121"/>
<path d="M202.332 212.92C202.317 213.639 202.078 214.321 201.643 214.892L187.242 233.78C186.575 234.649 185.571 235.131 184.473 235.109C183.375 235.087 182.388 234.557 181.765 233.658L139.117 172.32C138.707 171.73 138.492 171.041 138.512 170.333C138.545 168.863 139.514 167.587 140.921 167.161L163.71 160.344C165.116 159.918 166.628 160.446 167.47 161.658L201.729 210.926C202.139 211.515 202.344 212.209 202.329 212.928L202.332 212.92Z" fill="#212121"/>
<path d="M119.057 241.212C118.538 241.709 117.887 242.023 117.175 242.119L93.6363 245.292C92.5504 245.435 91.4995 245.066 90.7387 244.274C89.978 243.482 89.6546 242.409 89.8501 241.333L103.066 167.804C103.193 167.097 103.528 166.458 104.043 165.971C105.105 164.955 106.694 164.738 107.989 165.431L128.924 176.725C130.219 177.419 130.915 178.861 130.654 180.313L120.041 239.376C119.914 240.082 119.568 240.718 119.049 241.216L119.057 241.212Z" fill="#212121"/>
<path d="M27.4643 280.416L39.5196 318.311H39.9823L52.0619 280.416H63.7518L46.5579 330.293H32.9683L15.7501 280.416H27.4643Z" fill="#212121"/>
<path d="M73.4422 280.416V330.293H62.897V280.416H73.4422Z" fill="#212121"/>
<path d="M102.318 294.761C102.123 292.796 101.287 291.27 99.8091 290.182C98.3316 289.094 96.3265 288.551 93.7936 288.551C92.0726 288.551 90.6195 288.794 89.4343 289.281C88.249 289.752 87.3398 290.41 86.7066 291.254C86.0897 292.098 85.7812 293.056 85.7812 294.128C85.7487 295.021 85.9354 295.8 86.3413 296.466C86.7635 297.131 87.3398 297.708 88.0705 298.195C88.8011 298.666 89.6453 299.08 90.6033 299.437C91.5612 299.778 92.5841 300.07 93.6719 300.313L98.153 301.385C100.329 301.872 102.326 302.522 104.144 303.333C105.963 304.145 107.537 305.144 108.869 306.329C110.2 307.514 111.231 308.91 111.962 310.518C112.709 312.125 113.09 313.968 113.106 316.046C113.09 319.099 112.311 321.745 110.768 323.986C109.242 326.21 107.034 327.939 104.144 329.173C101.27 330.391 97.8039 331 93.7449 331C89.7184 331 86.2114 330.383 83.224 329.149C80.2528 327.915 77.9311 326.088 76.2588 323.669C74.6027 321.234 73.7341 318.222 73.6529 314.634H83.8572C83.9709 316.306 84.4498 317.702 85.2941 318.823C86.1546 319.927 87.2992 320.763 88.728 321.331C90.173 321.883 91.8047 322.159 93.6232 322.159C95.4091 322.159 96.9597 321.899 98.2748 321.38C99.6061 320.86 100.637 320.138 101.368 319.212C102.098 318.287 102.464 317.223 102.464 316.022C102.464 314.902 102.131 313.96 101.465 313.197C100.816 312.434 99.8578 311.784 98.5914 311.248C97.3412 310.713 95.8069 310.226 93.9885 309.787L88.5575 308.423C84.3524 307.4 81.0321 305.801 78.5968 303.626C76.1614 301.45 74.9518 298.519 74.968 294.834C74.9518 291.814 75.7554 289.176 77.379 286.919C79.0189 284.662 81.2676 282.9 84.1251 281.634C86.9826 280.368 90.2298 279.734 93.8667 279.734C97.5685 279.734 100.799 280.368 103.56 281.634C106.336 282.9 108.495 284.662 110.038 286.919C111.58 289.176 112.376 291.79 112.424 294.761H102.318Z" fill="#212121"/>
<path d="M111.442 289.111V280.416H152.405V289.111H137.135V330.293H126.712V289.111H111.442Z" fill="#212121"/>
<path d="M152.293 330.293V280.416H171.971C175.738 280.416 178.953 281.09 181.615 282.438C184.294 283.769 186.332 285.661 187.728 288.112C189.141 290.548 189.847 293.413 189.847 296.709C189.847 300.021 189.133 302.871 187.704 305.257C186.275 307.628 184.205 309.446 181.494 310.713C178.798 311.979 175.535 312.612 171.703 312.612H158.528V304.137H169.998C172.012 304.137 173.684 303.861 175.015 303.309C176.347 302.757 177.337 301.929 177.987 300.825C178.652 299.721 178.985 298.349 178.985 296.709C178.985 295.053 178.652 293.657 177.987 292.52C177.337 291.384 176.339 290.523 174.991 289.939C173.66 289.338 171.979 289.038 169.95 289.038H162.838V330.293H152.293ZM179.229 307.595L191.625 330.293H179.984L167.855 307.595H179.229Z" fill="#212121"/>
<path d="M199.038 330.293H187.738L204.956 280.416H218.546L235.74 330.293H224.439L211.946 291.814H211.556L199.038 330.293ZM198.332 310.688H225.024V318.92H198.332V310.688Z" fill="#212121"/>
<path d="M234.885 330.293V280.416H245.43V321.599H266.813V330.293H234.885Z" fill="#212121"/>
</svg>
