<svg width="271" height="370" viewBox="0 0 271 370" fill="none" xmlns="http://www.w3.org/2000/svg">
<path d="M40.1772 202.381C39.4584 202.366 38.7759 202.127 38.2047 201.692L19.3125 187.287C18.443 186.621 17.9609 185.616 17.9829 184.518C18.0049 183.42 18.5352 182.432 19.4346 181.809L80.7873 139.151C81.3768 138.741 82.0663 138.526 82.7746 138.546C84.2449 138.579 85.5217 139.548 85.9474 140.955L92.7664 163.75C93.1922 165.157 92.6636 166.669 91.4517 167.511L42.172 201.779C41.5825 202.189 40.8882 202.393 40.1692 202.379L40.1772 202.381Z" fill="#2050F6"/>
<path d="M11.8801 119.086C11.3827 118.567 11.0688 117.915 10.9729 117.203L7.79953 93.6591C7.65622 92.5729 8.0256 91.5217 8.81763 90.7608C9.60967 89.9998 10.6831 89.6764 11.7595 89.872L85.3063 103.091C86.0132 103.218 86.6527 103.553 87.1396 104.068C88.156 105.131 88.3732 106.719 87.6796 108.015L76.3827 128.956C75.6892 130.251 74.2463 130.947 72.7936 130.685L13.7169 120.07C13.0101 119.943 12.3744 119.597 11.8764 119.078L11.8801 119.086Z" fill="#212121"/>
<path d="M50.7682 40.1777C50.7836 39.4589 51.0221 38.7764 51.4577 38.2052L65.8621 19.3129C66.5288 18.4435 67.5333 17.9614 68.6314 17.9834C69.7296 18.0054 70.7173 18.5357 71.3401 19.4351L113.998 80.7878C114.409 81.3773 114.623 82.0668 114.604 82.7751C114.571 84.2453 113.601 85.5222 112.195 85.9479L89.3993 92.7669C87.9929 93.1927 86.4808 92.6641 85.6384 91.4522L51.3709 42.1725C50.961 41.583 50.7562 40.8887 50.771 40.1696L50.7682 40.1777Z" fill="#212121"/>
<path d="M134.063 11.8801C134.582 11.3827 135.233 11.0688 135.945 10.9729L159.489 7.79953C160.576 7.65622 161.627 8.0256 162.388 8.81763C163.149 9.60967 163.472 10.6831 163.277 11.7595L150.058 85.3063C149.931 86.0132 149.595 86.6527 149.08 87.1396C148.018 88.156 146.429 88.3732 145.133 87.6796L124.193 76.3827C122.897 75.6892 122.202 74.2462 122.463 72.7936L133.078 13.7169C133.205 13.0101 133.552 12.3744 134.07 11.8764L134.063 11.8801Z" fill="#212121"/>
<path d="M212.972 50.7682C213.691 50.7836 214.373 51.0221 214.944 51.4577L233.837 65.8621C234.706 66.5288 235.188 67.5333 235.166 68.6314C235.144 69.7296 234.614 70.7173 233.714 71.3401L172.362 113.998C171.772 114.409 171.083 114.623 170.374 114.604C168.904 114.571 167.627 113.601 167.202 112.195L160.383 89.3993C159.957 87.9929 160.485 86.4808 161.697 85.6384L210.977 51.3709C211.567 50.961 212.261 50.7562 212.98 50.771L212.972 50.7682Z" fill="#212121"/>
<path d="M241.27 134.064C241.768 134.583 242.082 135.234 242.178 135.946L245.351 159.49C245.494 160.577 245.125 161.628 244.333 162.389C243.541 163.15 242.467 163.473 241.391 163.278L167.844 150.059C167.137 149.932 166.498 149.596 166.011 149.081C164.994 148.019 164.777 146.43 165.471 145.134L176.768 124.194C177.461 122.898 178.904 122.203 180.357 122.464L239.434 133.079C240.14 133.206 240.776 133.553 241.274 134.071L241.27 134.064Z" fill="#212121"/>
<path d="M202.381 212.972C202.366 213.691 202.127 214.373 201.692 214.944L187.287 233.837C186.621 234.706 185.616 235.188 184.518 235.166C183.42 235.144 182.432 234.614 181.809 233.714L139.151 172.362C138.741 171.772 138.526 171.083 138.546 170.374C138.579 168.904 139.548 167.627 140.955 167.202L163.75 160.383C165.157 159.957 166.669 160.485 167.511 161.697L201.779 210.977C202.189 211.567 202.393 212.261 202.379 212.98L202.381 212.972Z" fill="#212121"/>
<path d="M119.086 241.271C118.567 241.768 117.915 242.082 117.203 242.178L93.6591 245.351C92.5729 245.495 91.5217 245.125 90.7608 244.333C89.9998 243.541 89.6764 242.468 89.872 241.391L103.091 167.845C103.218 167.138 103.553 166.498 104.068 166.011C105.131 164.995 106.719 164.778 108.015 165.471L128.956 176.768C130.251 177.462 130.947 178.905 130.685 180.357L120.07 239.434C119.943 240.141 119.597 240.777 119.078 241.275L119.086 241.271Z" fill="#212121"/>
<path d="M27.471 280.484L39.5292 318.389H39.992L52.0745 280.484H63.7673L46.5692 330.374H32.9764L15.7539 280.484H27.471Z" fill="#212121"/>
<path d="M73.4601 280.484V330.374H62.9123V280.484H73.4601Z" fill="#212121"/>
<path d="M102.342 294.832C102.148 292.867 101.311 291.341 99.8334 290.253C98.3555 289.165 96.3499 288.621 93.8165 288.621C92.095 288.621 90.6415 288.864 89.456 289.352C88.2705 289.822 87.3611 290.48 86.7277 291.325C86.1106 292.169 85.802 293.127 85.802 294.199C85.7696 295.092 85.9563 295.872 86.3623 296.538C86.7846 297.204 87.3611 297.78 88.0919 298.267C88.8227 298.738 89.6672 299.152 90.6253 299.51C91.5835 299.851 92.6066 300.143 93.6947 300.387L98.1769 301.458C100.353 301.946 102.351 302.595 104.169 303.407C105.988 304.219 107.564 305.218 108.895 306.403C110.227 307.589 111.258 308.986 111.989 310.593C112.736 312.201 113.118 314.044 113.134 316.123C113.118 319.176 112.338 321.823 110.795 324.064C109.269 326.289 107.06 328.019 104.169 329.253C101.295 330.471 97.8277 331.08 93.7677 331.08C89.7402 331.08 86.2324 330.463 83.2443 329.229C80.2724 327.994 77.95 326.167 76.2773 323.748C74.6208 321.312 73.752 318.299 73.6708 314.71H83.8776C83.9913 316.383 84.4704 317.78 85.3148 318.9C86.1756 320.004 87.3205 320.841 88.7496 321.409C90.195 321.961 91.8271 322.237 93.6459 322.237C95.4323 322.237 96.9832 321.978 98.2987 321.458C99.6304 320.938 100.662 320.215 101.392 319.29C102.123 318.364 102.489 317.3 102.489 316.099C102.489 314.978 102.156 314.036 101.49 313.273C100.84 312.51 99.8821 311.86 98.6154 311.324C97.3649 310.788 95.8302 310.301 94.0113 309.863L88.5791 308.498C84.3729 307.475 81.0519 305.876 78.6159 303.699C76.1799 301.523 74.97 298.592 74.9862 294.906C74.97 291.885 75.7739 289.246 77.3979 286.989C79.0381 284.731 81.2873 282.969 84.1456 281.702C87.0038 280.436 90.2518 279.802 93.8895 279.802C97.5922 279.802 100.824 280.436 103.585 281.702C106.362 282.969 108.522 284.731 110.065 286.989C111.607 289.246 112.403 291.861 112.452 294.832H102.342Z" fill="#212121"/>
<path d="M111.469 289.181V280.484H152.442V289.181H137.169V330.374H126.743V289.181H111.469Z" fill="#212121"/>
<path d="M152.33 330.374V280.484H172.013C175.781 280.484 178.996 281.158 181.659 282.506C184.339 283.838 186.377 285.73 187.774 288.182C189.187 290.618 189.893 293.485 189.893 296.781C189.893 300.094 189.179 302.944 187.749 305.332C186.32 307.703 184.25 309.522 181.538 310.788C178.842 312.055 175.578 312.688 171.745 312.688H158.566V304.211H170.04C172.054 304.211 173.726 303.935 175.058 303.383C176.39 302.831 177.38 302.002 178.03 300.898C178.696 299.794 179.029 298.422 179.029 296.781C179.029 295.125 178.696 293.728 178.03 292.591C177.38 291.455 176.382 290.594 175.034 290.009C173.702 289.408 172.021 289.108 169.991 289.108H162.878V330.374H152.33ZM179.272 307.67L191.671 330.374H180.027L167.896 307.67H179.272Z" fill="#212121"/>
<path d="M199.087 330.374H187.784L205.006 280.484H218.599L235.797 330.374H224.494L211.997 291.885H211.608L199.087 330.374ZM198.38 310.764H225.079V318.998H198.38V310.764Z" fill="#212121"/>
<path d="M234.942 330.374V280.484H245.49V321.677H266.878V330.374H234.942Z" fill="#212121"/>
<path d="M98.9648 363.948V342.432H102.768V350.479H102.926C103.122 350.087 103.398 349.67 103.756 349.229C104.113 348.781 104.596 348.399 105.205 348.084C105.815 347.762 106.592 347.601 107.538 347.601C108.784 347.601 109.909 347.919 110.91 348.557C111.919 349.187 112.717 350.122 113.305 351.362C113.901 352.595 114.198 354.107 114.198 355.9C114.198 357.673 113.908 359.178 113.326 360.418C112.745 361.658 111.954 362.603 110.952 363.255C109.951 363.906 108.816 364.232 107.548 364.232C106.624 364.232 105.857 364.078 105.247 363.769C104.638 363.461 104.148 363.09 103.777 362.656C103.412 362.215 103.129 361.798 102.926 361.406H102.705V363.948H98.9648ZM102.694 355.879C102.694 356.923 102.842 357.837 103.136 358.622C103.437 359.406 103.868 360.019 104.428 360.46C104.995 360.894 105.682 361.111 106.487 361.111C107.328 361.111 108.031 360.887 108.599 360.439C109.166 359.984 109.593 359.364 109.881 358.58C110.175 357.788 110.322 356.888 110.322 355.879C110.322 354.878 110.178 353.988 109.891 353.211C109.604 352.434 109.177 351.824 108.609 351.383C108.042 350.942 107.335 350.721 106.487 350.721C105.675 350.721 104.985 350.935 104.417 351.362C103.85 351.789 103.419 352.388 103.125 353.158C102.838 353.929 102.694 354.836 102.694 355.879Z" fill="#212121"/>
<path d="M118.063 370C117.545 370 117.065 369.957 116.624 369.873C116.19 369.796 115.843 369.705 115.584 369.6L116.466 366.638C117.02 366.799 117.513 366.876 117.948 366.869C118.382 366.862 118.764 366.725 119.093 366.459C119.429 366.2 119.713 365.766 119.944 365.156L120.269 364.284L114.418 347.811H118.452L122.171 359.998H122.339L126.069 347.811H130.114L123.652 365.902C123.351 366.757 122.952 367.489 122.455 368.098C121.957 368.714 121.348 369.184 120.627 369.506C119.912 369.835 119.058 370 118.063 370Z" fill="#212121"/>
<path d="M135.895 340.833H144.765C146.329 340.833 147.689 341.127 148.846 341.716C150.024 342.284 150.935 343.093 151.578 344.144C152.221 345.174 152.542 346.415 152.542 347.865C152.542 349.274 152.221 350.515 151.578 351.587C150.935 352.638 150.024 353.458 148.846 354.047C147.689 354.614 146.329 354.898 144.765 354.898H139.591V362.908H135.895V340.833ZM139.591 343.987V351.744H144.443C145.322 351.744 146.082 351.587 146.725 351.271C147.389 350.956 147.893 350.504 148.236 349.915C148.6 349.327 148.782 348.643 148.782 347.865C148.782 347.067 148.6 346.383 148.236 345.816C147.893 345.227 147.4 344.775 146.757 344.46C146.114 344.144 145.354 343.987 144.475 343.987H139.591Z" fill="#212121"/>
<path d="M154.71 346.762H157.795L158.438 350.766L157.731 350.01C158.031 349.442 158.374 348.916 158.76 348.433C159.167 347.928 159.713 347.529 160.398 347.235C161.084 346.919 161.962 346.762 163.034 346.762H163.805V349.947H162.263C161.234 349.947 160.42 350.178 159.82 350.64C159.22 351.103 158.792 351.702 158.535 352.438C158.299 353.174 158.181 353.962 158.181 354.803V362.908H154.71V346.762Z" fill="#212121"/>
<path d="M171.957 360.196C172.943 360.196 173.789 359.964 174.496 359.502C175.225 359.039 175.793 358.409 176.2 357.61C176.607 356.79 176.81 355.865 176.81 354.835C176.81 353.784 176.607 352.858 176.2 352.06C175.793 351.261 175.225 350.63 174.496 350.167C173.789 349.705 172.943 349.474 171.957 349.474C170.972 349.474 170.115 349.705 169.386 350.167C168.679 350.63 168.122 351.261 167.715 352.06C167.33 352.858 167.137 353.784 167.137 354.835C167.137 355.865 167.33 356.79 167.715 357.61C168.122 358.409 168.679 359.039 169.386 359.502C170.115 359.964 170.972 360.196 171.957 360.196ZM171.957 363.097C170.308 363.097 168.84 362.75 167.555 362.056C166.29 361.362 165.305 360.395 164.598 359.155C163.912 357.915 163.569 356.475 163.569 354.835C163.569 353.195 163.912 351.755 164.598 350.514C165.305 349.274 166.29 348.307 167.555 347.613C168.84 346.919 170.308 346.572 171.957 346.572C173.629 346.572 175.096 346.919 176.36 347.613C177.625 348.307 178.599 349.274 179.285 350.514C179.992 351.755 180.345 353.195 180.345 354.835C180.345 356.475 179.992 357.915 179.285 359.155C178.599 360.395 177.625 361.362 176.36 362.056C175.096 362.75 173.629 363.097 171.957 363.097Z" fill="#212121"/>
<path d="M191.621 346.572C193.121 346.572 194.449 346.898 195.606 347.55C196.785 348.202 197.706 349.148 198.37 350.388C199.056 351.629 199.398 353.111 199.398 354.835C199.398 356.496 199.056 357.946 198.37 359.187C197.706 360.427 196.795 361.394 195.638 362.088C194.481 362.76 193.142 363.097 191.621 363.097C190.121 363.097 188.889 362.782 187.925 362.151C186.961 361.52 186.254 360.742 185.804 359.817L186.286 359.029V369.215H182.815V346.762H185.836L186.511 350.767L185.708 349.978C186.222 349.074 186.95 348.286 187.893 347.613C188.857 346.919 190.1 346.572 191.621 346.572ZM191.043 349.474C190.078 349.474 189.232 349.705 188.504 350.167C187.797 350.609 187.24 351.229 186.832 352.028C186.447 352.806 186.254 353.72 186.254 354.772C186.254 355.844 186.447 356.79 186.832 357.61C187.24 358.43 187.797 359.071 188.504 359.534C189.232 359.996 190.078 360.227 191.043 360.227C192.007 360.227 192.853 359.996 193.581 359.534C194.31 359.071 194.867 358.44 195.252 357.641C195.66 356.821 195.863 355.886 195.863 354.835C195.863 353.763 195.66 352.827 195.252 352.028C194.867 351.229 194.31 350.609 193.581 350.167C192.853 349.705 192.007 349.474 191.043 349.474Z" fill="#212121"/>
<path d="M202.212 340.833H205.908V350.104H216.353V340.833H220.048V362.908H216.353V353.321H205.908V362.908H202.212V340.833Z" fill="#212121"/>
<path d="M231.284 363.097C229.57 363.097 228.081 362.76 226.817 362.088C225.553 361.394 224.578 360.427 223.893 359.187C223.207 357.946 222.864 356.506 222.864 354.866C222.864 353.205 223.196 351.755 223.861 350.514C224.546 349.274 225.5 348.307 226.721 347.613C227.942 346.919 229.356 346.572 230.963 346.572C232.548 346.572 233.93 346.888 235.109 347.518C236.309 348.128 237.241 349.011 237.905 350.167C238.59 351.324 238.955 352.69 238.998 354.267C238.998 354.477 238.987 354.698 238.965 354.929C238.944 355.139 238.923 355.35 238.901 355.56H226.496C226.496 355.581 226.496 355.612 226.496 355.655C226.496 355.697 226.496 355.739 226.496 355.781C226.539 356.685 226.742 357.484 227.107 358.177C227.492 358.85 228.028 359.376 228.713 359.754C229.399 360.133 230.192 360.322 231.092 360.322C232.141 360.322 233.031 360.069 233.759 359.565C234.509 359.06 235.002 358.367 235.237 357.484H238.708C238.515 358.535 238.087 359.491 237.423 360.353C236.78 361.194 235.934 361.867 234.884 362.372C233.855 362.855 232.656 363.097 231.284 363.097ZM226.624 353.069H235.398C235.248 351.87 234.777 350.945 233.984 350.294C233.213 349.642 232.216 349.316 230.995 349.316C230.267 349.316 229.581 349.474 228.938 349.789C228.317 350.083 227.792 350.514 227.364 351.082C226.957 351.629 226.71 352.291 226.624 353.069Z" fill="#212121"/>
<path d="M241.482 346.762H244.567L245.209 350.766L244.502 350.01C244.802 349.442 245.145 348.916 245.531 348.433C245.938 347.928 246.484 347.529 247.17 347.235C247.855 346.919 248.734 346.762 249.805 346.762H250.576V349.947H249.034C248.005 349.947 247.191 350.178 246.591 350.64C245.991 351.103 245.563 351.702 245.306 352.438C245.07 353.174 244.952 353.962 244.952 354.803V362.908H241.482V346.762Z" fill="#212121"/>
<path d="M258.73 360.196C259.715 360.196 260.562 359.964 261.269 359.502C261.997 359.039 262.565 358.409 262.972 357.61C263.379 356.79 263.583 355.865 263.583 354.835C263.583 353.784 263.379 352.858 262.972 352.06C262.565 351.261 261.997 350.63 261.269 350.167C260.562 349.705 259.715 349.474 258.73 349.474C257.744 349.474 256.887 349.705 256.159 350.167C255.452 350.63 254.895 351.261 254.488 352.06C254.102 352.858 253.909 353.784 253.909 354.835C253.909 355.865 254.102 356.79 254.488 357.61C254.895 358.409 255.452 359.039 256.159 359.502C256.887 359.964 257.744 360.196 258.73 360.196ZM258.73 363.097C257.08 363.097 255.613 362.75 254.327 362.056C253.063 361.362 252.077 360.395 251.37 359.155C250.685 357.915 250.342 356.475 250.342 354.835C250.342 353.195 250.685 351.755 251.37 350.514C252.077 349.274 253.063 348.307 254.327 347.613C255.613 346.919 257.08 346.572 258.73 346.572C260.401 346.572 261.869 346.919 263.133 347.613C264.397 348.307 265.372 349.274 266.057 350.514C266.764 351.755 267.118 353.195 267.118 354.835C267.118 356.475 266.764 357.915 266.057 359.155C265.372 360.395 264.397 361.362 263.133 362.056C261.869 362.75 260.401 363.097 258.73 363.097Z" fill="#212121"/>
</svg>
