<svg width="271" height="370" viewBox="0 0 271 370" fill="none" xmlns="http://www.w3.org/2000/svg">
<path d="M40.178 202.38C39.4592 202.365 38.7767 202.126 38.2054 201.691L19.3132 187.286C18.4438 186.62 17.9617 185.615 17.9837 184.517C18.0056 183.419 18.5359 182.431 19.4354 181.808L80.788 139.15C81.3776 138.74 82.0671 138.525 82.7753 138.545C84.2456 138.578 85.5225 139.547 85.9482 140.954L92.7672 163.749C93.1929 165.156 92.6643 166.668 91.4525 167.51L42.1727 201.778C41.5832 202.188 40.8889 202.392 40.1699 202.378L40.178 202.38Z" fill="#2050F6"/>
<path d="M11.8801 119.086C11.3827 118.567 11.0688 117.915 10.9729 117.203L7.79953 93.6591C7.65622 92.5729 8.0256 91.5217 8.81763 90.7608C9.60967 89.9998 10.6831 89.6764 11.7595 89.872L85.3063 103.091C86.0132 103.218 86.6527 103.553 87.1396 104.068C88.156 105.131 88.3732 106.719 87.6796 108.015L76.3827 128.956C75.6892 130.251 74.2463 130.947 72.7936 130.685L13.7169 120.07C13.0101 119.943 12.3744 119.597 11.8764 119.078L11.8801 119.086Z" fill="white"/>
<path d="M50.7687 40.1767C50.7841 39.4579 51.0226 38.7754 51.4582 38.2042L65.8626 19.312C66.5293 18.4426 67.5338 17.9605 68.6319 17.9824C69.7301 18.0044 70.7178 18.5347 71.3406 19.4341L113.999 80.7868C114.409 81.3763 114.624 82.0658 114.604 82.7741C114.571 84.2444 113.602 85.5212 112.195 85.9469L89.3998 92.7659C87.9934 93.1917 86.4813 92.6631 85.6388 91.4512L51.3714 42.1715C50.9615 41.582 50.7567 40.8877 50.7715 40.1687L50.7687 40.1767Z" fill="white"/>
<path d="M134.064 11.8801C134.583 11.3827 135.235 11.0688 135.946 10.9729L159.491 7.79953C160.577 7.65622 161.628 8.0256 162.389 8.81763C163.15 9.60967 163.474 10.6831 163.278 11.7595L150.059 85.3063C149.932 86.0132 149.597 86.6527 149.082 87.1396C148.019 88.156 146.43 88.3732 145.135 87.6796L124.194 76.3827C122.899 75.6892 122.203 74.2462 122.465 72.7936L133.08 13.7169C133.207 13.0101 133.553 12.3744 134.072 11.8764L134.064 11.8801Z" fill="white"/>
<path d="M212.972 50.7682C213.691 50.7836 214.373 51.0221 214.945 51.4577L233.837 65.8621C234.706 66.5288 235.188 67.5333 235.166 68.6314C235.144 69.7296 234.614 70.7173 233.715 71.3401L172.362 113.998C171.773 114.409 171.083 114.623 170.375 114.604C168.905 114.571 167.628 113.601 167.202 112.195L160.383 89.3993C159.957 87.9929 160.486 86.4808 161.698 85.6384L210.977 51.3709C211.567 50.961 212.261 50.7562 212.98 50.771L212.972 50.7682Z" fill="white"/>
<path d="M241.271 134.063C241.768 134.582 242.082 135.233 242.178 135.945L245.351 159.489C245.495 160.576 245.125 161.627 244.333 162.388C243.541 163.149 242.468 163.472 241.391 163.277L167.845 150.058C167.138 149.931 166.498 149.595 166.011 149.08C164.995 148.018 164.778 146.429 165.471 145.133L176.768 124.193C177.462 122.897 178.905 122.202 180.357 122.463L239.434 133.078C240.141 133.205 240.777 133.552 241.275 134.07L241.271 134.063Z" fill="white"/>
<path d="M202.382 212.972C202.366 213.691 202.128 214.373 201.692 214.944L187.288 233.837C186.621 234.706 185.616 235.188 184.518 235.166C183.42 235.144 182.432 234.614 181.81 233.714L139.151 172.362C138.741 171.772 138.526 171.083 138.546 170.374C138.579 168.904 139.548 167.627 140.955 167.202L163.75 160.383C165.157 159.957 166.669 160.485 167.511 161.697L201.779 210.977C202.189 211.567 202.394 212.261 202.379 212.98L202.382 212.972Z" fill="white"/>
<path d="M119.086 241.271C118.567 241.768 117.916 242.082 117.204 242.178L93.6594 245.351C92.5732 245.495 91.522 245.125 90.761 244.333C90.0001 243.541 89.6766 242.468 89.8722 241.391L103.091 167.845C103.218 167.138 103.554 166.498 104.068 166.011C105.131 164.995 106.72 164.778 108.015 165.471L128.956 176.768C130.251 177.462 130.947 178.905 130.686 180.357L120.07 239.434C119.943 240.141 119.597 240.777 119.078 241.275L119.086 241.271Z" fill="white"/>
<path d="M27.4718 280.484L39.5299 318.389H39.9928L52.0753 280.484H63.768L46.5699 330.374H32.9771L15.7546 280.484H27.4718Z" fill="white"/>
<path d="M73.4608 280.484V330.374H62.913V280.484H73.4608Z" fill="white"/>
<path d="M102.343 294.832C102.148 292.867 101.312 291.341 99.8341 290.253C98.3563 289.165 96.3506 288.621 93.8172 288.621C92.0958 288.621 90.6423 288.864 89.4568 289.352C88.2713 289.822 87.3618 290.48 86.7285 291.325C86.1113 292.169 85.8028 293.127 85.8028 294.199C85.7703 295.092 85.9571 295.872 86.3631 296.538C86.7853 297.204 87.3618 297.78 88.0926 298.267C88.8234 298.738 89.6679 299.152 90.626 299.51C91.5842 299.851 92.6073 300.143 93.6954 300.387L98.1776 301.458C100.354 301.946 102.351 302.595 104.17 303.407C105.989 304.219 107.564 305.218 108.896 306.403C110.228 307.589 111.259 308.986 111.99 310.593C112.737 312.201 113.118 314.044 113.135 316.123C113.118 319.176 112.339 321.823 110.796 324.064C109.269 326.289 107.061 328.019 104.17 329.253C101.296 330.471 97.8285 331.08 93.7685 331.08C89.741 331.08 86.2331 330.463 83.245 329.229C80.2731 327.994 77.9508 326.167 76.2781 323.748C74.6216 321.312 73.7527 318.299 73.6715 314.71H83.8783C83.992 316.383 84.4711 317.78 85.3156 318.9C86.1763 320.004 87.3212 320.841 88.7503 321.409C90.1957 321.961 91.8278 322.237 93.6467 322.237C95.4331 322.237 96.984 321.978 98.2994 321.458C99.6311 320.938 100.662 320.215 101.393 319.29C102.124 318.364 102.489 317.3 102.489 316.099C102.489 314.978 102.156 314.036 101.491 313.273C100.841 312.51 99.8828 311.86 98.6161 311.324C97.3656 310.788 95.8309 310.301 94.0121 309.863L88.5798 308.498C84.3737 307.475 81.0526 305.876 78.6166 303.699C76.1806 301.523 74.9707 298.592 74.987 294.906C74.9707 291.885 75.7746 289.246 77.3986 286.989C79.0388 284.731 81.2881 282.969 84.1463 281.702C87.0045 280.436 90.2525 279.802 93.8903 279.802C97.593 279.802 100.825 280.436 103.586 281.702C106.363 282.969 108.522 284.731 110.065 286.989C111.608 289.246 112.404 291.861 112.453 294.832H102.343Z" fill="white"/>
<path d="M111.47 289.181V280.484H152.443V289.181H137.169V330.374H126.743V289.181H111.47Z" fill="white"/>
<path d="M152.331 330.374V280.484H172.014C175.781 280.484 178.997 281.158 181.66 282.506C184.34 283.838 186.378 285.73 187.775 288.182C189.187 290.618 189.894 293.485 189.894 296.781C189.894 300.094 189.179 302.944 187.75 305.332C186.321 307.703 184.251 309.522 181.538 310.788C178.843 312.055 175.578 312.688 171.746 312.688H158.567V304.211H170.041C172.054 304.211 173.727 303.935 175.059 303.383C176.39 302.831 177.381 302.002 178.031 300.898C178.696 299.794 179.029 298.422 179.029 296.781C179.029 295.125 178.696 293.728 178.031 292.591C177.381 291.455 176.382 290.594 175.034 290.009C173.703 289.408 172.022 289.108 169.992 289.108H162.879V330.374H152.331ZM179.273 307.67L191.672 330.374H180.028L167.897 307.67H179.273Z" fill="white"/>
<path d="M199.087 330.374H187.784L205.007 280.484H218.6L235.798 330.374H224.495L211.998 291.885H211.608L199.087 330.374ZM198.381 310.764H225.079V318.998H198.381V310.764Z" fill="white"/>
<path d="M234.943 330.374V280.484H245.49V321.677H266.879V330.374H234.943Z" fill="white"/>
<path d="M98.9652 363.948V342.432H102.768V350.479H102.926C103.122 350.087 103.399 349.67 103.756 349.229C104.113 348.781 104.596 348.399 105.206 348.084C105.815 347.762 106.593 347.601 107.538 347.601C108.785 347.601 109.909 347.919 110.91 348.557C111.919 349.187 112.717 350.122 113.306 351.362C113.901 352.595 114.199 354.107 114.199 355.9C114.199 357.673 113.908 359.178 113.327 360.418C112.746 361.658 111.954 362.603 110.952 363.255C109.951 363.906 108.816 364.232 107.549 364.232C106.624 364.232 105.857 364.078 105.248 363.769C104.638 363.461 104.148 363.09 103.777 362.656C103.413 362.215 103.129 361.798 102.926 361.406H102.705V363.948H98.9652ZM102.695 355.879C102.695 356.923 102.842 357.837 103.136 358.622C103.437 359.406 103.868 360.019 104.428 360.46C104.996 360.894 105.682 361.111 106.487 361.111C107.328 361.111 108.032 360.887 108.599 360.439C109.166 359.984 109.594 359.364 109.881 358.58C110.175 357.788 110.322 356.888 110.322 355.879C110.322 354.878 110.179 353.988 109.891 353.211C109.604 352.434 109.177 351.824 108.61 351.383C108.042 350.942 107.335 350.721 106.487 350.721C105.675 350.721 104.985 350.935 104.418 351.362C103.85 351.789 103.42 352.388 103.126 353.158C102.838 353.929 102.695 354.836 102.695 355.879Z" fill="white"/>
<path d="M118.064 370C117.545 370 117.065 369.957 116.624 369.873C116.19 369.796 115.843 369.705 115.584 369.6L116.467 366.638C117.02 366.799 117.514 366.876 117.948 366.869C118.382 366.862 118.764 366.725 119.093 366.459C119.429 366.2 119.713 365.766 119.944 365.156L120.27 364.284L114.418 347.811H118.452L122.171 359.998H122.339L126.069 347.811H130.114L123.653 365.902C123.352 366.757 122.952 367.489 122.455 368.098C121.958 368.714 121.348 369.184 120.627 369.506C119.913 369.835 119.058 370 118.064 370Z" fill="white"/>
<path d="M135.895 340.833H144.765C146.329 340.833 147.69 341.127 148.847 341.716C150.025 342.284 150.936 343.093 151.578 344.144C152.221 345.174 152.542 346.415 152.542 347.865C152.542 349.274 152.221 350.515 151.578 351.587C150.936 352.638 150.025 353.458 148.847 354.047C147.69 354.614 146.329 354.898 144.765 354.898H139.591V362.908H135.895V340.833ZM139.591 343.987V351.744H144.444C145.322 351.744 146.083 351.587 146.725 351.271C147.39 350.956 147.893 350.504 148.236 349.915C148.6 349.327 148.782 348.643 148.782 347.865C148.782 347.067 148.6 346.383 148.236 345.816C147.893 345.227 147.4 344.775 146.757 344.46C146.115 344.144 145.354 343.987 144.476 343.987H139.591Z" fill="white"/>
<path d="M154.71 346.762H157.795L158.438 350.766L157.731 350.01C158.031 349.442 158.374 348.916 158.759 348.433C159.166 347.928 159.713 347.529 160.398 347.235C161.084 346.919 161.962 346.762 163.034 346.762H163.805V349.947H162.262C161.234 349.947 160.42 350.178 159.82 350.64C159.22 351.103 158.791 351.702 158.534 352.438C158.299 353.174 158.181 353.962 158.181 354.803V362.908H154.71V346.762Z" fill="white"/>
<path d="M171.958 360.196C172.944 360.196 173.79 359.964 174.497 359.502C175.226 359.039 175.793 358.409 176.2 357.61C176.607 356.79 176.811 355.865 176.811 354.835C176.811 353.784 176.607 352.858 176.2 352.06C175.793 351.261 175.226 350.63 174.497 350.167C173.79 349.705 172.944 349.474 171.958 349.474C170.973 349.474 170.116 349.705 169.387 350.167C168.68 350.63 168.123 351.261 167.716 352.06C167.33 352.858 167.137 353.784 167.137 354.835C167.137 355.865 167.33 356.79 167.716 357.61C168.123 358.409 168.68 359.039 169.387 359.502C170.116 359.964 170.973 360.196 171.958 360.196ZM171.958 363.097C170.308 363.097 168.841 362.75 167.555 362.056C166.291 361.362 165.306 360.395 164.599 359.155C163.913 357.915 163.57 356.475 163.57 354.835C163.57 353.195 163.913 351.755 164.599 350.514C165.306 349.274 166.291 348.307 167.555 347.613C168.841 346.919 170.308 346.572 171.958 346.572C173.629 346.572 175.097 346.919 176.361 347.613C177.625 348.307 178.6 349.274 179.286 350.514C179.993 351.755 180.346 353.195 180.346 354.835C180.346 356.475 179.993 357.915 179.286 359.155C178.6 360.395 177.625 361.362 176.361 362.056C175.097 362.75 173.629 363.097 171.958 363.097Z" fill="white"/>
<path d="M191.621 346.572C193.121 346.572 194.449 346.898 195.606 347.55C196.785 348.202 197.706 349.148 198.37 350.388C199.056 351.629 199.399 353.111 199.399 354.835C199.399 356.496 199.056 357.946 198.37 359.187C197.706 360.427 196.795 361.394 195.638 362.088C194.482 362.76 193.142 363.097 191.621 363.097C190.121 363.097 188.89 362.782 187.925 362.151C186.961 361.52 186.254 360.742 185.804 359.817L186.286 359.029V369.215H182.815V346.762H185.836L186.511 350.767L185.708 349.978C186.222 349.074 186.95 348.286 187.893 347.613C188.857 346.919 190.1 346.572 191.621 346.572ZM191.043 349.474C190.079 349.474 189.232 349.705 188.504 350.167C187.797 350.609 187.24 351.229 186.833 352.028C186.447 352.806 186.254 353.72 186.254 354.772C186.254 355.844 186.447 356.79 186.833 357.61C187.24 358.43 187.797 359.071 188.504 359.534C189.232 359.996 190.079 360.227 191.043 360.227C192.007 360.227 192.853 359.996 193.582 359.534C194.31 359.071 194.867 358.44 195.253 357.641C195.66 356.821 195.863 355.886 195.863 354.835C195.863 353.763 195.66 352.827 195.253 352.028C194.867 351.229 194.31 350.609 193.582 350.167C192.853 349.705 192.007 349.474 191.043 349.474Z" fill="white"/>
<path d="M202.212 340.833H205.908V350.104H216.353V340.833H220.049V362.908H216.353V353.321H205.908V362.908H202.212V340.833Z" fill="white"/>
<path d="M231.285 363.097C229.571 363.097 228.082 362.76 226.817 362.088C225.553 361.394 224.579 360.427 223.893 359.187C223.207 357.946 222.864 356.506 222.864 354.866C222.864 353.205 223.197 351.755 223.861 350.514C224.546 349.274 225.5 348.307 226.721 347.613C227.942 346.919 229.356 346.572 230.963 346.572C232.549 346.572 233.931 346.888 235.109 347.518C236.309 348.128 237.241 349.011 237.905 350.167C238.591 351.324 238.955 352.69 238.998 354.267C238.998 354.477 238.987 354.698 238.965 354.929C238.944 355.139 238.923 355.35 238.901 355.56H226.496C226.496 355.581 226.496 355.612 226.496 355.655C226.496 355.697 226.496 355.739 226.496 355.781C226.539 356.685 226.742 357.484 227.107 358.177C227.492 358.85 228.028 359.376 228.714 359.754C229.399 360.133 230.192 360.322 231.092 360.322C232.142 360.322 233.031 360.069 233.759 359.565C234.509 359.06 235.002 358.367 235.237 357.484H238.708C238.516 358.535 238.087 359.491 237.423 360.353C236.78 361.194 235.934 361.867 234.884 362.372C233.856 362.855 232.656 363.097 231.285 363.097ZM226.625 353.069H235.398C235.248 351.87 234.777 350.945 233.984 350.294C233.213 349.642 232.217 349.316 230.995 349.316C230.267 349.316 229.581 349.474 228.939 349.789C228.317 350.083 227.792 350.514 227.364 351.082C226.957 351.629 226.71 352.291 226.625 353.069Z" fill="white"/>
<path d="M241.482 346.762H244.567L245.21 350.766L244.503 350.01C244.803 349.442 245.145 348.916 245.531 348.433C245.938 347.928 246.484 347.529 247.17 347.235C247.856 346.919 248.734 346.762 249.805 346.762H250.577V349.947H249.034C248.006 349.947 247.191 350.178 246.592 350.64C245.992 351.103 245.563 351.702 245.306 352.438C245.07 353.174 244.952 353.962 244.952 354.803V362.908H241.482V346.762Z" fill="white"/>
<path d="M258.73 360.196C259.716 360.196 260.562 359.964 261.269 359.502C261.997 359.039 262.565 358.409 262.972 357.61C263.379 356.79 263.583 355.865 263.583 354.835C263.583 353.784 263.379 352.858 262.972 352.06C262.565 351.261 261.997 350.63 261.269 350.167C260.562 349.705 259.716 349.474 258.73 349.474C257.744 349.474 256.887 349.705 256.159 350.167C255.452 350.63 254.895 351.261 254.488 352.06C254.102 352.858 253.909 353.784 253.909 354.835C253.909 355.865 254.102 356.79 254.488 357.61C254.895 358.409 255.452 359.039 256.159 359.502C256.887 359.964 257.744 360.196 258.73 360.196ZM258.73 363.097C257.08 363.097 255.613 362.75 254.327 362.056C253.063 361.362 252.078 360.395 251.37 359.155C250.685 357.915 250.342 356.475 250.342 354.835C250.342 353.195 250.685 351.755 251.37 350.514C252.078 349.274 253.063 348.307 254.327 347.613C255.613 346.919 257.08 346.572 258.73 346.572C260.401 346.572 261.869 346.919 263.133 347.613C264.397 348.307 265.372 349.274 266.057 350.514C266.765 351.755 267.118 353.195 267.118 354.835C267.118 356.475 266.765 357.915 266.057 359.155C265.372 360.395 264.397 361.362 263.133 362.056C261.869 362.75 260.401 363.097 258.73 363.097Z" fill="white"/>
</svg>
