<svg width="271" height="331" viewBox="0 0 271 331" fill="none" xmlns="http://www.w3.org/2000/svg">
<path d="M40.1682 202.331C39.4496 202.316 38.7672 202.077 38.1961 201.642L19.3085 187.241C18.4393 186.574 17.9573 185.57 17.9793 184.472C18.0013 183.374 18.5314 182.387 19.4306 181.764L80.7684 139.116C81.3578 138.706 82.0471 138.491 82.7552 138.511C84.2251 138.544 85.5017 139.513 85.9273 140.92L92.7446 163.709C93.1703 165.115 92.6418 166.627 91.4302 167.469L42.1625 201.729C41.5731 202.138 40.879 202.343 40.1601 202.328L40.1682 202.331Z" fill="#2050F6"/>
<path d="M11.8772 119.057C11.38 118.538 11.0662 117.887 10.9702 117.175L7.79763 93.6363C7.65436 92.5504 8.02364 91.4995 8.81549 90.7387C9.60734 89.9779 10.6805 89.6546 11.7566 89.8501L85.2856 103.066C85.9923 103.193 86.6316 103.528 87.1184 104.043C88.1346 105.105 88.3517 106.694 87.6583 107.989L76.3641 128.924C75.6708 130.219 74.2282 130.915 72.7759 130.654L13.7135 120.041C13.007 119.914 12.3714 119.568 11.8735 119.049L11.8772 119.057Z" fill="white"/>
<path d="M50.7563 40.1669C50.7717 39.4483 51.0102 38.766 51.4457 38.1949L65.8466 19.3073C66.5131 18.4381 67.5174 17.9561 68.6152 17.9781C69.7131 18 70.7006 18.5302 71.3233 19.4294L113.971 80.7671C114.381 81.3566 114.596 82.0459 114.576 82.754C114.544 84.2239 113.574 85.5004 112.168 85.926L89.3781 92.7434C87.972 93.169 86.4603 92.6406 85.618 91.429L51.3589 42.1612C50.9491 41.5719 50.7444 40.8777 50.7591 40.1589L50.7563 40.1669Z" fill="white"/>
<path d="M134.032 11.8772C134.551 11.38 135.202 11.0662 135.913 10.9702L159.452 7.79763C160.538 7.65436 161.589 8.02364 162.35 8.81549C163.11 9.60733 163.434 10.6805 163.238 11.7566L150.023 85.2856C149.896 85.9923 149.56 86.6316 149.046 87.1184C147.983 88.1346 146.395 88.3517 145.099 87.6583L124.164 76.3641C122.869 75.6708 122.174 74.2282 122.435 72.7759L133.047 13.7135C133.174 13.007 133.52 12.3714 134.039 11.8735L134.032 11.8772Z" fill="white"/>
<path d="M212.92 50.7563C213.639 50.7717 214.321 51.0102 214.892 51.4457L233.78 65.8466C234.649 66.5131 235.131 67.5174 235.109 68.6152C235.087 69.7131 234.557 70.7006 233.658 71.3233L172.32 113.971C171.731 114.381 171.041 114.596 170.333 114.576C168.863 114.544 167.587 113.574 167.161 112.168L160.344 89.3781C159.918 87.972 160.447 86.4603 161.658 85.618L210.926 51.3589C211.515 50.9491 212.21 50.7444 212.928 50.7591L212.92 50.7563Z" fill="white"/>
<path d="M241.212 134.03C241.709 134.549 242.023 135.2 242.119 135.912L245.292 159.451C245.435 160.537 245.066 161.587 244.274 162.348C243.482 163.109 242.409 163.432 241.333 163.237L167.804 150.021C167.097 149.894 166.458 149.559 165.971 149.044C164.955 147.982 164.738 146.393 165.431 145.098L176.725 124.163C177.419 122.867 178.861 122.172 180.313 122.433L239.376 133.046C240.082 133.173 240.718 133.519 241.216 134.038L241.212 134.03Z" fill="white"/>
<path d="M202.332 212.92C202.317 213.639 202.078 214.321 201.643 214.892L187.242 233.78C186.576 234.649 185.571 235.131 184.473 235.109C183.376 235.087 182.388 234.557 181.765 233.658L139.117 172.32C138.707 171.73 138.493 171.041 138.512 170.333C138.545 168.863 139.515 167.587 140.921 167.161L163.711 160.344C165.117 159.918 166.628 160.446 167.471 161.658L201.73 210.926C202.14 211.515 202.344 212.209 202.33 212.928L202.332 212.92Z" fill="white"/>
<path d="M119.057 241.212C118.538 241.709 117.887 242.023 117.175 242.119L93.6366 245.292C92.5506 245.435 91.4997 245.066 90.739 244.274C89.9782 243.482 89.6548 242.409 89.8504 241.333L103.066 167.804C103.193 167.097 103.528 166.458 104.043 165.971C105.106 164.955 106.694 164.738 107.989 165.431L128.924 176.725C130.22 177.419 130.915 178.861 130.654 180.313L120.041 239.376C119.914 240.082 119.568 240.718 119.049 241.216L119.057 241.212Z" fill="white"/>
<path d="M27.4651 280.416L39.5203 318.311H39.983L52.0626 280.416H63.7525L46.5586 330.293H32.9691L15.7508 280.416H27.4651Z" fill="white"/>
<path d="M73.443 280.416V330.293H62.8977V280.416H73.443Z" fill="white"/>
<path d="M102.318 294.761C102.123 292.796 101.287 291.27 99.8098 290.182C98.3323 289.094 96.3272 288.551 93.7944 288.551C92.0734 288.551 90.6202 288.794 89.435 289.281C88.2498 289.752 87.3406 290.41 86.7074 291.254C86.0904 292.098 85.7819 293.056 85.7819 294.128C85.7494 295.021 85.9361 295.8 86.342 296.466C86.7642 297.131 87.3406 297.708 88.0712 298.195C88.8018 298.666 89.6461 299.08 90.604 299.437C91.5619 299.778 92.5848 300.07 93.6726 300.313L98.1537 301.385C100.329 301.872 102.326 302.522 104.145 303.333C105.963 304.145 107.538 305.144 108.869 306.329C110.201 307.514 111.232 308.91 111.962 310.518C112.709 312.125 113.091 313.968 113.107 316.046C113.091 319.099 112.312 321.745 110.769 323.986C109.243 326.21 107.035 327.939 104.145 329.173C101.271 330.391 97.8047 331 93.7457 331C89.7191 331 86.2122 330.383 83.2247 329.149C80.2536 327.915 77.9318 326.088 76.2595 323.669C74.6034 321.234 73.7348 318.222 73.6536 314.634H83.8579C83.9716 316.306 84.4506 317.702 85.2948 318.823C86.1553 319.927 87.3 320.763 88.7287 321.331C90.1738 321.883 91.8055 322.159 93.6239 322.159C95.4099 322.159 96.9604 321.899 98.2755 321.38C99.6069 320.86 100.638 320.138 101.368 319.212C102.099 318.287 102.464 317.223 102.464 316.022C102.464 314.902 102.132 313.96 101.466 313.197C100.816 312.434 99.8585 311.784 98.5921 311.248C97.3419 310.713 95.8076 310.226 93.9892 309.787L88.5583 308.423C84.3531 307.4 81.0329 305.801 78.5975 303.626C76.1621 301.45 74.9525 298.519 74.9687 294.834C74.9525 291.814 75.7562 289.176 77.3798 286.919C79.0196 284.662 81.2683 282.9 84.1258 281.634C86.9834 280.368 90.2306 279.734 93.8674 279.734C97.5692 279.734 100.8 280.368 103.56 281.634C106.337 282.9 108.496 284.662 110.038 286.919C111.581 289.176 112.376 291.79 112.425 294.761H102.318Z" fill="white"/>
<path d="M111.442 289.111V280.416H152.406V289.111H137.136V330.293H126.712V289.111H111.442Z" fill="white"/>
<path d="M152.294 330.293V280.416H171.972C175.739 280.416 178.953 281.09 181.616 282.438C184.295 283.769 186.333 285.661 187.729 288.112C189.141 290.548 189.848 293.413 189.848 296.709C189.848 300.021 189.133 302.871 187.705 305.257C186.276 307.628 184.206 309.446 181.494 310.713C178.799 311.979 175.536 312.612 171.704 312.612H158.528V304.137H169.999C172.012 304.137 173.685 303.861 175.016 303.309C176.347 302.757 177.338 301.929 177.987 300.825C178.653 299.721 178.986 298.349 178.986 296.709C178.986 295.053 178.653 293.657 177.987 292.52C177.338 291.384 176.339 290.523 174.992 289.939C173.66 289.338 171.98 289.038 169.95 289.038H162.839V330.293H152.294ZM179.229 307.595L191.626 330.293H179.984L167.856 307.595H179.229Z" fill="white"/>
<path d="M199.039 330.293H187.739L204.957 280.416H218.546L235.74 330.293H224.44L211.946 291.814H211.557L199.039 330.293ZM198.333 310.688H225.025V318.92H198.333V310.688Z" fill="white"/>
<path d="M234.886 330.293V280.416H245.431V321.599H266.814V330.293H234.886Z" fill="white"/>
</svg>
