<svg width="430" height="430" viewBox="0 0 430 430" fill="none" xmlns="http://www.w3.org/2000/svg">
<path d="M68.2465 343.762C67.0256 343.736 65.8663 343.331 64.896 342.591L32.8058 318.124C31.329 316.991 30.5101 315.285 30.5475 313.42C30.5848 311.555 31.4855 309.877 33.0133 308.819L137.226 236.36C138.228 235.663 139.399 235.298 140.602 235.332C143.099 235.387 145.268 237.034 145.991 239.424L157.574 278.144C158.297 280.533 157.4 283.101 155.341 284.532L71.6348 342.738C70.6335 343.435 69.4542 343.783 68.2329 343.758L68.2465 343.762Z" fill="#2050F6"/>
<path d="M20.18 202.277C19.3351 201.395 18.8019 200.289 18.639 199.08L13.2487 159.088C13.0053 157.243 13.6327 155.457 14.978 154.165C16.3234 152.872 18.1466 152.323 19.975 152.655L144.901 175.108C146.102 175.324 147.188 175.894 148.015 176.768C149.742 178.573 150.111 181.272 148.932 183.473L129.744 219.042C128.566 221.243 126.115 222.424 123.647 221.98L23.2998 203.949C22.0994 203.733 21.0195 203.145 20.1737 202.264L20.18 202.277Z" fill="white"/>
<path d="M86.2358 68.2441C86.262 67.0231 86.6672 65.8639 87.407 64.8936L111.874 32.8033C113.007 31.3266 114.713 30.5077 116.578 30.545C118.444 30.5824 120.121 31.4831 121.179 33.0109L193.638 137.224C194.335 138.225 194.7 139.397 194.666 140.6C194.611 143.097 192.964 145.266 190.574 145.989L151.854 157.572C149.465 158.295 146.897 157.397 145.466 155.339L87.2597 71.6324C86.5633 70.631 86.2155 69.4517 86.2406 68.2304L86.2358 68.2441Z" fill="white"/>
<path d="M227.721 20.18C228.602 19.3351 229.709 18.8019 230.918 18.639L270.91 13.2487C272.755 13.0053 274.541 13.6327 275.833 14.978C277.126 16.3234 277.675 18.1466 277.343 19.975L254.889 144.901C254.674 146.102 254.104 147.188 253.229 148.015C251.424 149.742 248.726 150.111 246.525 148.932L210.956 129.744C208.755 128.566 207.574 126.115 208.018 123.647L226.049 23.2998C226.264 22.0994 226.852 21.0195 227.734 20.1737L227.721 20.18Z" fill="white"/>
<path d="M361.754 86.2358C362.975 86.262 364.134 86.6672 365.104 87.4071L397.194 111.874C398.671 113.007 399.49 114.713 399.453 116.578C399.415 118.444 398.515 120.121 396.987 121.179L292.774 193.638C291.772 194.335 290.601 194.7 289.398 194.666C286.901 194.611 284.732 192.964 284.009 190.574L272.426 151.854C271.703 149.465 272.601 146.897 274.659 145.466L358.365 87.2597C359.367 86.5633 360.546 86.2155 361.767 86.2406L361.754 86.2358Z" fill="white"/>
<path d="M409.821 227.718C410.665 228.599 411.199 229.706 411.362 230.915L416.752 270.907C416.995 272.752 416.368 274.538 415.023 275.83C413.677 277.123 411.854 277.672 410.026 277.34L285.099 254.886C283.899 254.671 282.812 254.101 281.985 253.227C280.259 251.421 279.89 248.723 281.068 246.522L300.257 210.953C301.435 208.752 303.886 207.571 306.353 208.015L406.701 226.046C407.901 226.261 408.981 226.849 409.827 227.731L409.821 227.718Z" fill="white"/>
<path d="M343.765 361.753C343.739 362.974 343.333 364.133 342.594 365.103L318.126 397.193C316.994 398.67 315.288 399.489 313.422 399.452C311.557 399.414 309.879 398.514 308.821 396.986L236.362 292.773C235.666 291.771 235.301 290.6 235.334 289.397C235.39 286.9 237.037 284.731 239.426 284.008L278.146 272.425C280.535 271.702 283.104 272.6 284.534 274.658L342.741 358.364C343.437 359.366 343.785 360.545 343.76 361.766L343.765 361.753Z" fill="white"/>
<path d="M202.279 409.821C201.397 410.665 200.29 411.199 199.081 411.362L159.089 416.752C157.244 416.995 155.459 416.368 154.166 415.023C152.873 413.677 152.324 411.854 152.656 410.026L175.11 285.099C175.325 283.899 175.895 282.812 176.77 281.985C178.575 280.259 181.273 279.89 183.474 281.068L219.043 300.257C221.244 301.435 222.425 303.886 221.982 306.353L203.95 406.701C203.735 407.901 203.147 408.981 202.266 409.827L202.279 409.821Z" fill="white"/>
</svg>
