<svg width="430" height="430" viewBox="0 0 430 430" fill="none" xmlns="http://www.w3.org/2000/svg">
<path d="M68.2441 343.763C67.0231 343.737 65.8639 343.331 64.8936 342.592L32.8033 318.124C31.3266 316.992 30.5077 315.286 30.545 313.42C30.5824 311.555 31.4831 309.877 33.0109 308.819L137.224 236.36C138.225 235.664 139.397 235.299 140.6 235.332C143.097 235.388 145.266 237.035 145.989 239.424L157.572 278.144C158.295 280.533 157.397 283.102 155.339 284.533L71.6324 342.739C70.6311 343.435 69.4517 343.783 68.2304 343.758L68.2441 343.763Z" fill="#2050F6"/>
<path d="M20.18 202.277C19.3351 201.395 18.8019 200.289 18.639 199.08L13.2487 159.088C13.0053 157.243 13.6327 155.457 14.978 154.165C16.3234 152.872 18.1466 152.323 19.975 152.655L144.901 175.108C146.102 175.324 147.188 175.894 148.015 176.768C149.742 178.573 150.111 181.272 148.932 183.473L129.744 219.042C128.566 221.243 126.115 222.424 123.647 221.98L23.2998 203.949C22.0994 203.733 21.0195 203.145 20.1737 202.264L20.18 202.277Z" fill="#212121"/>
<path d="M86.2349 68.2451C86.261 67.0241 86.6662 65.8648 87.4061 64.8945L111.873 32.8043C113.006 31.3275 114.712 30.5087 116.577 30.546C118.443 30.5833 120.12 31.4841 121.178 33.0118L193.637 137.225C194.334 138.226 194.699 139.398 194.665 140.601C194.61 143.098 192.963 145.267 190.573 145.99L151.853 157.573C149.465 158.296 146.896 157.398 145.465 155.34L87.2587 71.6333C86.5623 70.632 86.2145 69.4527 86.2396 68.2314L86.2349 68.2451Z" fill="#212121"/>
<path d="M227.718 20.18C228.599 19.3351 229.706 18.8019 230.915 18.639L270.907 13.2487C272.752 13.0053 274.538 13.6327 275.83 14.978C277.123 16.3234 277.672 18.1466 277.34 19.975L254.886 144.901C254.671 146.102 254.101 147.188 253.227 148.015C251.421 149.742 248.723 150.111 246.522 148.932L210.953 129.744C208.752 128.566 207.571 126.115 208.015 123.647L226.046 23.2998C226.261 22.0994 226.849 21.0195 227.731 20.1737L227.718 20.18Z" fill="#212121"/>
<path d="M361.752 86.2358C362.973 86.262 364.132 86.6672 365.102 87.4071L397.192 111.874C398.669 113.007 399.488 114.713 399.451 116.578C399.413 118.444 398.513 120.121 396.985 121.179L292.772 193.638C291.77 194.335 290.599 194.7 289.396 194.666C286.899 194.611 284.73 192.964 284.007 190.574L272.424 151.854C271.701 149.465 272.599 146.897 274.657 145.466L358.363 87.2597C359.365 86.5633 360.544 86.2155 361.765 86.2406L361.752 86.2358Z" fill="#212121"/>
<path d="M409.821 227.72C410.665 228.601 411.199 229.708 411.362 230.917L416.752 270.909C416.995 272.754 416.368 274.54 415.023 275.832C413.677 277.125 411.854 277.674 410.026 277.342L285.099 254.888C283.899 254.673 282.812 254.103 281.985 253.228C280.259 251.423 279.89 248.725 281.068 246.524L300.257 210.955C301.435 208.754 303.886 207.573 306.353 208.017L406.701 226.048C407.901 226.263 408.981 226.851 409.827 227.733L409.821 227.72Z" fill="#212121"/>
<path d="M343.764 361.753C343.738 362.974 343.332 364.133 342.593 365.103L318.125 397.193C316.993 398.67 315.287 399.489 313.421 399.452C311.556 399.414 309.878 398.514 308.82 396.986L236.361 292.773C235.665 291.771 235.3 290.6 235.333 289.397C235.389 286.9 237.036 284.731 239.425 284.008L278.145 272.425C280.534 271.702 283.103 272.6 284.533 274.658L342.74 358.364C343.436 359.366 343.784 360.545 343.759 361.766L343.764 361.753Z" fill="#212121"/>
<path d="M202.278 409.821C201.396 410.665 200.29 411.199 199.081 411.362L159.089 416.752C157.244 416.995 155.458 416.368 154.165 415.023C152.873 413.677 152.323 411.854 152.656 410.026L175.109 285.099C175.325 283.899 175.895 282.812 176.769 281.985C178.574 280.259 181.273 279.89 183.474 281.068L219.043 300.257C221.244 301.435 222.425 303.886 221.981 306.353L203.95 406.701C203.734 407.901 203.146 408.981 202.265 409.827L202.278 409.821Z" fill="#212121"/>
</svg>
