<svg width="573" height="148" viewBox="0 0 573 148" fill="none" xmlns="http://www.w3.org/2000/svg">
<path d="M19.9145 104.989C19.5582 104.981 19.2199 104.863 18.9368 104.647L9.57297 97.5076C9.14205 97.1771 8.9031 96.6793 8.914 96.135C8.92489 95.5907 9.18772 95.1011 9.63352 94.7924L40.0426 73.6491C40.3349 73.4458 40.6766 73.3393 41.0276 73.349C41.7564 73.3653 42.3893 73.8459 42.6003 74.5431L45.9801 85.8415C46.1911 86.5386 45.9291 87.288 45.3284 87.7056L20.9032 104.69C20.611 104.893 20.2669 104.995 19.9105 104.987L19.9145 104.989Z" fill="#2050F6"/>
<path d="M5.88862 63.7044C5.64209 63.447 5.48651 63.1242 5.43896 62.7714L3.86609 51.1018C3.79506 50.5634 3.97814 50.0424 4.37071 49.6652C4.76328 49.2881 5.2953 49.1277 5.82881 49.2247L42.2819 55.7766C42.6323 55.8394 42.9493 56.0058 43.1906 56.2609C43.6944 56.7877 43.802 57.5751 43.4583 58.2173L37.859 68.5963C37.5153 69.2384 36.8001 69.5831 36.0801 69.4536L6.79898 64.1922C6.4487 64.1293 6.1336 63.9577 5.88678 63.7006L5.88862 63.7044Z" fill="white"/>
<path d="M25.1636 24.5934C25.1713 24.2372 25.2895 23.8989 25.5054 23.6158L32.6449 14.2519C32.9753 13.821 33.4732 13.5821 34.0175 13.5929C34.5617 13.6038 35.0513 13.8667 35.36 14.3125L56.5034 44.7216C56.7067 45.0138 56.8132 45.3555 56.8034 45.7066C56.7872 46.4353 56.3065 47.0682 55.6093 47.2792L44.311 50.659C43.6139 50.87 42.8644 50.608 42.4469 50.0074L25.4624 25.5821C25.2592 25.2899 25.1577 24.9458 25.165 24.5894L25.1636 24.5934Z" fill="white"/>
<path d="M66.4484 10.5678C66.7058 10.3213 67.0286 10.1657 67.3814 10.1182L79.051 8.54529C79.5894 8.47426 80.1104 8.65734 80.4876 9.04991C80.8647 9.44248 81.0251 9.9745 80.9281 10.508L74.3762 46.9611C74.3134 47.3115 74.147 47.6284 73.8919 47.8698C73.3651 48.3736 72.5777 48.4812 71.9356 48.1374L61.5565 42.5382C60.9144 42.1945 60.5697 41.4793 60.6992 40.7593L65.9606 11.4782C66.0235 11.1279 66.1951 10.8128 66.4523 10.566L66.4484 10.5678Z" fill="white"/>
<path d="M105.559 29.8432C105.915 29.8508 106.254 29.9691 106.537 30.1849L115.901 37.3244C116.332 37.6549 116.571 38.1527 116.56 38.697C116.549 39.2413 116.286 39.7309 115.84 40.0396L85.431 61.1829C85.1388 61.3862 84.797 61.4927 84.446 61.483C83.7172 61.4667 83.0844 60.9861 82.8734 60.2889L79.4936 48.9905C79.2825 48.2934 79.5445 47.544 80.1452 47.1264L104.57 30.1419C104.863 29.9387 105.207 29.8373 105.563 29.8446L105.559 29.8432Z" fill="white"/>
<path d="M119.585 71.1276C119.832 71.385 119.987 71.7078 120.035 72.0606L121.608 83.7302C121.679 84.2686 121.495 84.7896 121.103 85.1668C120.71 85.5439 120.178 85.7043 119.645 85.6073L83.1917 79.0554C82.8413 78.9926 82.5244 78.8262 82.283 78.5711C81.7792 78.0443 81.6716 77.2569 82.0154 76.6147L87.6146 66.2357C87.9583 65.5936 88.6735 65.2489 89.3935 65.3784L118.675 70.6398C119.025 70.7027 119.34 70.8743 119.587 71.1314L119.585 71.1276Z" fill="white"/>
<path d="M100.31 110.239C100.302 110.595 100.184 110.933 99.9682 111.216L92.8288 120.58C92.4983 121.011 92.0004 121.25 91.4561 121.239C90.9119 121.228 90.4223 120.965 90.1136 120.52L68.9702 90.1104C68.7669 89.8182 68.6605 89.4765 68.6702 89.1254C68.6865 88.3967 69.1671 87.7638 69.8643 87.5528L81.1626 84.173C81.8597 83.962 82.6092 84.224 83.0267 84.8246L100.011 109.25C100.214 109.542 100.316 109.886 100.309 110.243L100.31 110.239Z" fill="white"/>
<path d="M59.0252 124.264C58.7678 124.511 58.445 124.666 58.0922 124.714L46.4226 126.287C45.8842 126.358 45.3632 126.175 44.986 125.782C44.6089 125.39 44.4486 124.857 44.5455 124.324L51.0974 87.8709C51.1603 87.5205 51.3266 87.2036 51.5817 86.9622C52.1085 86.4584 52.8959 86.3508 53.5381 86.6945L63.9171 92.2938C64.5592 92.6375 64.9039 93.3527 64.7744 94.0727L59.513 123.354C59.4501 123.704 59.2785 124.019 59.0214 124.266L59.0252 124.264Z" fill="white"/>
<path d="M165.402 27.2777L185.638 90.887H186.415L206.691 27.2777H226.314L197.452 111H174.641L145.739 27.2777H165.402Z" fill="white"/>
<path d="M242.58 27.2777V111H224.879V27.2777H242.58Z" fill="white"/>
<path d="M291.049 51.356C290.722 48.0584 289.319 45.4966 286.839 43.6706C284.359 41.8446 280.993 40.9316 276.741 40.9316C273.852 40.9316 271.413 41.3404 269.424 42.158C267.434 42.9484 265.908 44.0522 264.845 45.4693C263.81 46.8865 263.292 48.4944 263.292 50.2932C263.237 51.7921 263.551 53.1003 264.232 54.2176C264.941 55.335 265.908 56.3025 267.134 57.1201C268.361 57.9105 269.778 58.6054 271.386 59.205C272.994 59.7773 274.711 60.2679 276.537 60.6767L284.059 62.4754C287.711 63.293 291.063 64.3831 294.115 65.7458C297.168 67.1085 299.811 68.7846 302.046 70.7741C304.281 72.7635 306.011 75.1073 307.238 77.8054C308.491 80.5035 309.132 83.5967 309.159 87.0852C309.132 92.2088 307.824 96.6511 305.235 100.412C302.673 104.146 298.966 107.048 294.115 109.12C289.291 111.164 283.473 112.186 276.659 112.186C269.901 112.186 264.014 111.15 258.999 109.079C254.012 107.007 250.115 103.941 247.308 99.8806C244.528 95.7926 243.07 90.7371 242.933 84.7141H260.062C260.253 87.5212 261.057 89.865 262.474 91.7455C263.919 93.5987 265.84 95.0023 268.238 95.9561C270.664 96.8828 273.403 97.3461 276.455 97.3461C279.453 97.3461 282.056 96.91 284.263 96.0379C286.498 95.1658 288.229 93.953 289.455 92.3996C290.681 90.8461 291.295 89.061 291.295 87.0443C291.295 85.1638 290.736 83.5831 289.618 82.3022C288.528 81.0213 286.92 79.9312 284.795 79.0318C282.696 78.1325 280.121 77.3149 277.068 76.579L267.952 74.2897C260.893 72.5728 255.32 69.8883 251.232 66.2364C247.144 62.5844 245.114 57.6652 245.141 51.4787C245.114 46.4096 246.463 41.9809 249.188 38.1927C251.941 34.4045 255.715 31.4475 260.512 29.3217C265.308 27.196 270.759 26.1331 276.864 26.1331C283.078 26.1331 288.501 27.196 293.134 29.3217C297.794 31.4475 301.419 34.4045 304.008 38.1927C306.597 41.9809 307.933 46.3687 308.014 51.356H291.049Z" fill="white"/>
<path d="M306.365 41.8719V27.2777H375.125V41.8719H349.493V111H331.997V41.8719H306.365Z" fill="white"/>
<path d="M374.937 111V27.2777H407.968C414.291 27.2777 419.687 28.4087 424.157 30.6708C428.653 32.9055 432.074 36.0806 434.417 40.1958C436.789 44.2838 437.974 49.094 437.974 54.6264C437.974 60.1861 436.775 64.9691 434.377 68.9753C431.978 72.9543 428.504 76.0067 423.952 78.1325C419.428 80.2582 413.95 81.3211 407.518 81.3211H385.402V67.0949H404.657C408.036 67.0949 410.843 66.6315 413.078 65.7049C415.313 64.7783 416.975 63.3884 418.065 61.5352C419.183 59.6819 419.742 57.379 419.742 54.6264C419.742 51.8466 419.183 49.5028 418.065 47.5951C416.975 45.6874 415.299 44.2429 413.037 43.2618C410.802 42.2534 407.982 41.7492 404.575 41.7492H392.638V111H374.937ZM420.15 72.8998L440.958 111H421.418L401.059 72.8998H420.15Z" fill="white"/>
<path d="M453.402 111H434.434L463.336 27.2777H486.147L515.008 111H496.04L475.069 46.4096H474.414L453.402 111ZM452.217 78.0916H497.021V91.909H452.217V78.0916Z" fill="white"/>
<path d="M513.573 111V27.2777H531.274V96.4058H567.167V111H513.573Z" fill="white"/>
<path d="M430.794 142V123.818H434.007V130.619H434.141C434.306 130.287 434.54 129.935 434.842 129.562C435.144 129.183 435.552 128.861 436.067 128.594C436.582 128.322 437.239 128.186 438.038 128.186C439.091 128.186 440.041 128.455 440.888 128.994C441.74 129.527 442.415 130.317 442.912 131.364C443.415 132.406 443.666 133.684 443.666 135.2C443.666 136.697 443.421 137.969 442.93 139.017C442.438 140.065 441.77 140.864 440.923 141.414C440.077 141.964 439.118 142.24 438.047 142.24C437.266 142.24 436.617 142.109 436.102 141.849C435.588 141.589 435.173 141.275 434.86 140.908C434.552 140.535 434.312 140.183 434.141 139.852H433.954V142H430.794ZM433.945 135.182C433.945 136.064 434.069 136.836 434.318 137.499C434.573 138.162 434.937 138.68 435.41 139.053C435.889 139.419 436.469 139.603 437.15 139.603C437.86 139.603 438.455 139.414 438.935 139.035C439.414 138.65 439.775 138.126 440.018 137.463C440.266 136.795 440.391 136.034 440.391 135.182C440.391 134.335 440.269 133.584 440.026 132.927C439.784 132.27 439.423 131.755 438.943 131.382C438.464 131.009 437.866 130.823 437.15 130.823C436.464 130.823 435.881 131.003 435.401 131.364C434.922 131.725 434.558 132.231 434.309 132.882C434.066 133.533 433.945 134.3 433.945 135.182Z" fill="white"/>
<path d="M446.932 147.114C446.494 147.114 446.089 147.078 445.716 147.007C445.349 146.942 445.056 146.865 444.837 146.776L445.583 144.273C446.05 144.409 446.468 144.474 446.835 144.468C447.202 144.462 447.524 144.347 447.802 144.122C448.086 143.903 448.326 143.536 448.521 143.021L448.797 142.284L443.852 128.364H447.261L450.403 138.662H450.546L453.697 128.364H457.115L451.655 143.651C451.401 144.373 451.063 144.992 450.643 145.507C450.223 146.028 449.708 146.424 449.098 146.696C448.495 146.975 447.773 147.114 446.932 147.114Z" fill="white"/>
<path d="M462 123H469.496C470.817 123 471.967 123.249 472.945 123.746C473.94 124.226 474.71 124.91 475.253 125.798C475.796 126.669 476.068 127.717 476.068 128.943C476.068 130.133 475.796 131.181 475.253 132.087C474.71 132.975 473.94 133.668 472.945 134.166C471.967 134.645 470.817 134.885 469.496 134.885H465.123V141.654H462V123ZM465.123 125.665V132.22H469.224C469.966 132.22 470.609 132.087 471.152 131.821C471.714 131.554 472.139 131.172 472.429 130.675C472.736 130.177 472.89 129.6 472.89 128.943C472.89 128.267 472.736 127.69 472.429 127.21C472.139 126.713 471.723 126.331 471.179 126.065C470.636 125.798 469.994 125.665 469.251 125.665H465.123Z" fill="white"/>
<path d="M477.899 128.01H480.506L481.049 131.394L480.452 130.755C480.706 130.275 480.995 129.831 481.321 129.422C481.665 128.996 482.127 128.658 482.706 128.409C483.285 128.143 484.028 128.01 484.933 128.01H485.585V130.701H484.281C483.412 130.701 482.724 130.897 482.217 131.288C481.71 131.678 481.348 132.185 481.131 132.806C480.932 133.428 480.832 134.095 480.832 134.805V141.654H477.899V128.01Z" fill="white"/>
<path d="M492.474 139.362C493.307 139.362 494.022 139.166 494.62 138.776C495.235 138.385 495.715 137.852 496.059 137.177C496.403 136.484 496.575 135.702 496.575 134.832C496.575 133.944 496.403 133.162 496.059 132.487C495.715 131.812 495.235 131.279 494.62 130.888C494.022 130.497 493.307 130.301 492.474 130.301C491.642 130.301 490.917 130.497 490.302 130.888C489.704 131.279 489.234 131.812 488.89 132.487C488.564 133.162 488.401 133.944 488.401 134.832C488.401 135.702 488.564 136.484 488.89 137.177C489.234 137.852 489.704 138.385 490.302 138.776C490.917 139.166 491.642 139.362 492.474 139.362ZM492.474 141.814C491.08 141.814 489.84 141.52 488.754 140.934C487.686 140.348 486.853 139.531 486.255 138.483C485.676 137.434 485.386 136.217 485.386 134.832C485.386 133.446 485.676 132.229 486.255 131.181C486.853 130.133 487.686 129.316 488.754 128.729C489.84 128.143 491.08 127.85 492.474 127.85C493.887 127.85 495.127 128.143 496.195 128.729C497.263 129.316 498.087 130.133 498.666 131.181C499.264 132.229 499.563 133.446 499.563 134.832C499.563 136.217 499.264 137.434 498.666 138.483C498.087 139.531 497.263 140.348 496.195 140.934C495.127 141.52 493.887 141.814 492.474 141.814Z" fill="white"/>
<path d="M509.09 127.85C510.358 127.85 511.48 128.125 512.458 128.676C513.454 129.227 514.232 130.026 514.793 131.074C515.373 132.123 515.663 133.375 515.663 134.832C515.663 136.235 515.373 137.461 514.793 138.509C514.232 139.557 513.463 140.375 512.485 140.961C511.507 141.529 510.376 141.814 509.09 141.814C507.823 141.814 506.782 141.547 505.967 141.014C505.153 140.481 504.555 139.824 504.175 139.042L504.582 138.376V146.983H501.649V128.01H504.202L504.772 131.394L504.093 130.728C504.528 129.964 505.143 129.298 505.94 128.729C506.755 128.143 507.805 127.85 509.09 127.85ZM508.602 130.301C507.787 130.301 507.072 130.497 506.456 130.888C505.859 131.261 505.388 131.785 505.044 132.46C504.718 133.117 504.555 133.89 504.555 134.778C504.555 135.684 504.718 136.484 505.044 137.177C505.388 137.87 505.859 138.412 506.456 138.802C507.072 139.193 507.787 139.389 508.602 139.389C509.416 139.389 510.131 139.193 510.747 138.802C511.363 138.412 511.833 137.879 512.159 137.203C512.503 136.51 512.675 135.72 512.675 134.832C512.675 133.926 512.503 133.135 512.159 132.46C511.833 131.785 511.363 131.261 510.747 130.888C510.131 130.497 509.416 130.301 508.602 130.301Z" fill="white"/>
<path d="M518.04 123H521.163V130.835H529.989V123H533.112V141.654H529.989V133.553H521.163V141.654H518.04V123Z" fill="white"/>
<path d="M542.607 141.814C541.159 141.814 539.9 141.529 538.832 140.961C537.764 140.375 536.94 139.557 536.361 138.509C535.781 137.461 535.492 136.244 535.492 134.858C535.492 133.455 535.772 132.229 536.333 131.181C536.913 130.133 537.719 129.316 538.751 128.729C539.783 128.143 540.977 127.85 542.335 127.85C543.675 127.85 544.843 128.116 545.839 128.649C546.853 129.165 547.64 129.911 548.201 130.888C548.781 131.865 549.088 133.02 549.125 134.352C549.125 134.53 549.116 134.716 549.097 134.912C549.079 135.089 549.061 135.267 549.043 135.445H538.56C538.56 135.462 538.56 135.489 538.56 135.525C538.56 135.56 538.56 135.596 538.56 135.631C538.597 136.395 538.769 137.07 539.076 137.656C539.402 138.225 539.855 138.669 540.434 138.989C541.014 139.309 541.684 139.469 542.444 139.469C543.331 139.469 544.083 139.255 544.698 138.829C545.332 138.403 545.748 137.816 545.947 137.07H548.88C548.717 137.958 548.355 138.767 547.794 139.495C547.251 140.206 546.536 140.774 545.649 141.201C544.779 141.609 543.766 141.814 542.607 141.814ZM538.669 133.339H546.083C545.956 132.327 545.558 131.545 544.888 130.994C544.236 130.444 543.394 130.168 542.363 130.168C541.747 130.168 541.168 130.301 540.624 130.568C540.099 130.817 539.656 131.181 539.294 131.661C538.95 132.123 538.741 132.682 538.669 133.339Z" fill="white"/>
<path d="M551.224 128.01H553.831L554.374 131.394L553.777 130.755C554.03 130.275 554.32 129.831 554.646 129.422C554.99 128.996 555.451 128.658 556.031 128.409C556.61 128.143 557.352 128.01 558.258 128.01H558.909V130.701H557.606C556.737 130.701 556.049 130.897 555.542 131.288C555.035 131.678 554.673 132.185 554.456 132.806C554.256 133.428 554.157 134.095 554.157 134.805V141.654H551.224V128.01Z" fill="white"/>
<path d="M565.799 139.362C566.632 139.362 567.347 139.166 567.945 138.776C568.56 138.385 569.04 137.852 569.384 137.177C569.728 136.484 569.9 135.702 569.9 134.832C569.9 133.944 569.728 133.162 569.384 132.487C569.04 131.812 568.56 131.279 567.945 130.888C567.347 130.497 566.632 130.301 565.799 130.301C564.966 130.301 564.242 130.497 563.627 130.888C563.029 131.279 562.558 131.812 562.214 132.487C561.889 133.162 561.726 133.944 561.726 134.832C561.726 135.702 561.889 136.484 562.214 137.177C562.558 137.852 563.029 138.385 563.627 138.776C564.242 139.166 564.966 139.362 565.799 139.362ZM565.799 141.814C564.405 141.814 563.165 141.52 562.079 140.934C561.01 140.348 560.178 139.531 559.58 138.483C559.001 137.434 558.711 136.217 558.711 134.832C558.711 133.446 559.001 132.229 559.58 131.181C560.178 130.133 561.01 129.316 562.079 128.729C563.165 128.143 564.405 127.85 565.799 127.85C567.211 127.85 568.452 128.143 569.52 128.729C570.588 129.316 571.412 130.133 571.991 131.181C572.589 132.229 572.887 133.446 572.887 134.832C572.887 136.217 572.589 137.434 571.991 138.483C571.412 139.531 570.588 140.348 569.52 140.934C568.452 141.52 567.211 141.814 565.799 141.814Z" fill="white"/>
</svg>
