<svg width="29" height="41" viewBox="0 0 29 41" fill="none" xmlns="http://www.w3.org/2000/svg">
<path d="M4.3098 21.9257C4.2327 21.924 4.15949 21.8982 4.09821 21.851L2.0717 20.2904C1.97844 20.2182 1.92673 20.1094 1.92909 19.9904C1.93145 19.8714 1.98833 19.7644 2.08481 19.6969L8.66591 15.0754C8.72915 15.031 8.80311 15.0077 8.87908 15.0099C9.03679 15.0134 9.17376 15.1185 9.21943 15.2709L9.95088 17.7404C9.99655 17.8928 9.93985 18.0566 9.80985 18.1479L4.52377 21.8604C4.46054 21.9048 4.38606 21.927 4.30893 21.9254L4.3098 21.9257Z" fill="#2050F6"/>
<path d="M1.27446 12.9016C1.22111 12.8454 1.18744 12.7748 1.17714 12.6977L0.836746 10.1469C0.821373 10.0293 0.860995 9.91537 0.945955 9.83293C1.03091 9.75049 1.14605 9.71545 1.26152 9.73664L9.15065 11.1687C9.22648 11.1825 9.29507 11.2188 9.3473 11.2746C9.45633 11.3898 9.47963 11.5619 9.40523 11.7022L8.19344 13.9709C8.11906 14.1112 7.96428 14.1866 7.80846 14.1583L1.47148 13.0082C1.39567 12.9945 1.32748 12.957 1.27406 12.9008L1.27446 12.9016Z" fill="#212121"/>
<path d="M5.44586 4.35286C5.44751 4.27499 5.4731 4.20105 5.51982 4.13916L7.06493 2.09242C7.13645 1.99823 7.2442 1.946 7.36199 1.94838C7.47979 1.95076 7.58574 2.00821 7.65255 2.10565L12.2284 8.75247C12.2724 8.81634 12.2954 8.89104 12.2933 8.96777C12.2898 9.12706 12.1858 9.2654 12.0349 9.31151L9.5897 10.0503C9.43884 10.0964 9.27664 10.0391 9.18627 9.90784L5.51051 4.56897C5.46654 4.50511 5.44457 4.42989 5.44616 4.35199L5.44586 4.35286Z" fill="#212121"/>
<path d="M14.3806 1.28716C14.4363 1.23328 14.5062 1.19927 14.5825 1.18888L17.108 0.845079C17.2246 0.829553 17.3373 0.869571 17.4189 0.955379C17.5006 1.04119 17.5353 1.15748 17.5143 1.27409L16.0963 9.242C16.0827 9.31859 16.0467 9.38787 15.9915 9.44061C15.8775 9.55074 15.7071 9.57427 15.5681 9.49912L13.3219 8.27523C13.1829 8.20011 13.1083 8.04378 13.1364 7.8864L14.275 1.48615C14.2886 1.40958 14.3258 1.34071 14.3814 1.28676L14.3806 1.28716Z" fill="#212121"/>
<path d="M22.8449 5.50021C22.922 5.50188 22.9952 5.52773 23.0565 5.57491L25.083 7.13546C25.1763 7.20769 25.228 7.31651 25.2256 7.43548C25.2233 7.55445 25.1664 7.66146 25.0699 7.72894L18.4888 12.3504C18.4256 12.3949 18.3516 12.4182 18.2756 12.416C18.1179 12.4125 17.981 12.3074 17.9353 12.155L17.2038 9.68543C17.1582 9.53306 17.2149 9.36924 17.3449 9.27798L22.631 5.56552C22.6942 5.5211 22.7687 5.49892 22.8458 5.50052L22.8449 5.50021Z" fill="#212121"/>
<path d="M25.8804 14.5243C25.9338 14.5805 25.9674 14.6511 25.9777 14.7282L26.3181 17.279C26.3335 17.3966 26.2939 17.5105 26.2089 17.593C26.124 17.6754 26.0088 17.7104 25.8934 17.6892L18.0042 16.2571C17.9284 16.2434 17.8598 16.207 17.8076 16.1513C17.6985 16.0361 17.6753 15.864 17.7497 15.7237L18.9614 13.455C19.0358 13.3146 19.1906 13.2393 19.3464 13.2676L25.6834 14.4176C25.7592 14.4314 25.8274 14.4689 25.8808 14.5251L25.8804 14.5243Z" fill="#212121"/>
<path d="M21.7089 23.073C21.7073 23.1509 21.6817 23.2248 21.635 23.2867L20.0898 25.3335C20.0183 25.4277 19.9106 25.4799 19.7928 25.4775C19.675 25.4751 19.569 25.4177 19.5022 25.3202L14.9264 18.6734C14.8824 18.6095 14.8594 18.5348 14.8615 18.4581C14.865 18.2988 14.969 18.1605 15.1199 18.1144L17.5651 17.3756C17.7159 17.3295 17.8781 17.3868 17.9685 17.518L21.6443 22.8569C21.6882 22.9208 21.7102 22.996 21.7086 23.0739L21.7089 23.073Z" fill="#212121"/>
<path d="M12.7741 26.1389C12.7184 26.1928 12.6485 26.2268 12.5722 26.2372L10.0466 26.581C9.93012 26.5965 9.81736 26.5565 9.73574 26.4707C9.65411 26.3849 9.61942 26.2686 9.6404 26.1519L11.0583 18.184C11.072 18.1075 11.108 18.0382 11.1632 17.9854C11.2772 17.8753 11.4476 17.8518 11.5866 17.9269L13.8328 19.1508C13.9717 19.2259 14.0463 19.3823 14.0183 19.5396L12.8797 25.9399C12.866 26.0165 12.8289 26.0853 12.7732 26.1393L12.7741 26.1389Z" fill="#212121"/>
<path d="M2.94685 30.3872L4.24029 34.4936H4.28993L5.58599 30.3872H6.84023L4.99545 35.7921H3.53739L1.68999 30.3872H2.94685Z" fill="#212121"/>
<path d="M7.87995 30.3872V35.7921H6.74851V30.3872H7.87995Z" fill="#212121"/>
<path d="M10.9781 31.9416C10.9572 31.7287 10.8674 31.5634 10.7089 31.4455C10.5504 31.3276 10.3353 31.2687 10.0635 31.2687C9.87886 31.2687 9.72295 31.2951 9.59578 31.3478C9.46861 31.3989 9.37106 31.4701 9.30312 31.5616C9.23693 31.6531 9.20383 31.7569 9.20383 31.873C9.20035 31.9698 9.22038 32.0542 9.26393 32.1264C9.30922 32.1985 9.37106 32.261 9.44945 32.3137C9.52784 32.3648 9.61843 32.4096 9.72121 32.4483C9.82398 32.4853 9.93373 32.517 10.0504 32.5434L10.5312 32.6595C10.7647 32.7123 10.9789 32.7826 11.174 32.8706C11.3691 32.9586 11.5381 33.0668 11.681 33.1952C11.8238 33.3236 11.9344 33.475 12.0128 33.6491C12.0929 33.8233 12.1339 34.023 12.1356 34.2482C12.1339 34.579 12.0503 34.8658 11.8848 35.1086C11.721 35.3496 11.4841 35.537 11.174 35.6707C10.8657 35.8026 10.4938 35.8686 10.0583 35.8686C9.62627 35.8686 9.24999 35.8018 8.92946 35.668C8.61068 35.5343 8.36157 35.3364 8.18214 35.0743C8.00446 34.8103 7.91126 34.484 7.90255 34.0951H8.9974C9.0096 34.2764 9.06099 34.4277 9.15157 34.5491C9.2439 34.6687 9.36671 34.7593 9.52 34.8209C9.67504 34.8807 9.85011 34.9106 10.0452 34.9106C10.2368 34.9106 10.4032 34.8825 10.5443 34.8262C10.6871 34.7699 10.7978 34.6916 10.8762 34.5913C10.9545 34.491 10.9937 34.3758 10.9937 34.2456C10.9937 34.1242 10.958 34.0221 10.8866 33.9394C10.8169 33.8567 10.7141 33.7864 10.5783 33.7283C10.4441 33.6702 10.2795 33.6175 10.0844 33.57L9.50171 33.4222C9.05053 33.3113 8.69429 33.138 8.43299 32.9023C8.17169 32.6665 8.04191 32.3489 8.04365 31.9496C8.04191 31.6223 8.12814 31.3364 8.30234 31.0918C8.47828 30.8473 8.71955 30.6564 9.02614 30.5192C9.33274 30.3819 9.68114 30.3133 10.0713 30.3133C10.4685 30.3133 10.8152 30.3819 11.1113 30.5192C11.4092 30.6564 11.6409 30.8473 11.8064 31.0918C11.9719 31.3364 12.0572 31.6197 12.0625 31.9416H10.9781Z" fill="#212121"/>
<path d="M11.957 31.3294V30.3872H16.3521V31.3294H14.7138V35.7921H13.5954V31.3294H11.957Z" fill="#212121"/>
<path d="M16.3401 35.7921V30.3872H18.4514C18.8555 30.3872 19.2005 30.4602 19.4862 30.6063C19.7736 30.7505 19.9922 30.9555 20.142 31.2212C20.2936 31.4851 20.3694 31.7956 20.3694 32.1528C20.3694 32.5117 20.2927 32.8205 20.1394 33.0791C19.9861 33.336 19.764 33.533 19.4731 33.6702C19.1839 33.8075 18.8338 33.8761 18.4227 33.8761H17.009V32.9577H18.2397C18.4558 32.9577 18.6352 32.9278 18.778 32.868C18.9209 32.8081 19.0271 32.7184 19.0968 32.5988C19.1682 32.4791 19.204 32.3305 19.204 32.1528C19.204 31.9733 19.1682 31.822 19.0968 31.6988C19.0271 31.5757 18.92 31.4824 18.7754 31.4191C18.6326 31.354 18.4523 31.3214 18.2345 31.3214H17.4715V35.7921H16.3401ZM19.2301 33.3324L20.5601 35.7921H19.3111L18.0098 33.3324H19.2301Z" fill="#212121"/>
<path d="M21.3555 35.7921H20.1431L21.9905 30.3872H23.4485L25.2933 35.7921H24.0809L22.7404 31.6223H22.6986L21.3555 35.7921ZM21.2797 33.6676H24.1436V34.5596H21.2797V33.6676Z" fill="#212121"/>
<path d="M25.2016 35.7921V30.3872H26.333V34.8499H28.6273V35.7921H25.2016Z" fill="#212121"/>
<path d="M10.6158 39.4295V37.0984H11.0237V37.9703H11.0406C11.0617 37.9278 11.0913 37.8827 11.1296 37.8349C11.168 37.7863 11.2198 37.7449 11.2852 37.7108C11.3505 37.6759 11.4339 37.6584 11.5353 37.6584C11.6691 37.6584 11.7897 37.693 11.8971 37.762C12.0053 37.8303 12.0909 37.9316 12.154 38.0659C12.2179 38.1995 12.2498 38.3634 12.2498 38.5576C12.2498 38.7496 12.2186 38.9127 12.1563 39.047C12.0939 39.1813 12.009 39.2838 11.9016 39.3544C11.7942 39.4249 11.6725 39.4602 11.5365 39.4602C11.4373 39.4602 11.355 39.4435 11.2897 39.4101C11.2243 39.3767 11.1717 39.3365 11.1319 39.2895C11.0928 39.2417 11.0624 39.1965 11.0406 39.154H11.017V39.4295H10.6158ZM11.0158 38.5553C11.0158 38.6684 11.0316 38.7674 11.0632 38.8524C11.0955 38.9374 11.1417 39.0038 11.2018 39.0516C11.2626 39.0986 11.3363 39.1222 11.4227 39.1222C11.5128 39.1222 11.5883 39.0979 11.6492 39.0493C11.71 39 11.7558 38.9328 11.7867 38.8479C11.8182 38.7621 11.834 38.6646 11.834 38.5553C11.834 38.4468 11.8186 38.3505 11.7878 38.2662C11.757 38.182 11.7111 38.116 11.6503 38.0682C11.5894 38.0204 11.5136 37.9965 11.4227 37.9965C11.3355 37.9965 11.2615 38.0196 11.2006 38.0659C11.1398 38.1122 11.0936 38.1771 11.062 38.2605C11.0312 38.344 11.0158 38.4423 11.0158 38.5553Z" fill="#212121"/>
<path d="M12.6644 40.0851C12.6088 40.0851 12.5573 40.0805 12.51 40.0714C12.4634 40.0631 12.4262 40.0532 12.3984 40.0418L12.4931 39.7209C12.5524 39.7383 12.6054 39.7467 12.652 39.7459C12.6986 39.7451 12.7395 39.7303 12.7748 39.7015C12.8109 39.6734 12.8413 39.6264 12.8661 39.5604L12.901 39.4659L12.2733 37.6812H12.7061L13.105 39.0015H13.123L13.5231 37.6812H13.957L13.2639 39.6412C13.2316 39.7338 13.1888 39.813 13.1354 39.8791C13.0821 39.9458 13.0167 39.9967 12.9394 40.0316C12.8627 40.0672 12.7711 40.0851 12.6644 40.0851Z" fill="#212121"/>
<path d="M14.5771 36.9253H15.5286C15.6963 36.9253 15.8423 36.9571 15.9664 37.0209C16.0928 37.0824 16.1905 37.1701 16.2594 37.284C16.3283 37.3956 16.3628 37.53 16.3628 37.6871C16.3628 37.8397 16.3283 37.9741 16.2594 38.0903C16.1905 38.2041 16.0928 38.293 15.9664 38.3568C15.8423 38.4183 15.6963 38.449 15.5286 38.449H14.9736V39.3168H14.5771V36.9253ZM14.9736 37.2669V38.1073H15.4941C15.5883 38.1073 15.6699 38.0903 15.7388 38.0561C15.8101 38.0219 15.8641 37.973 15.9009 37.9092C15.9399 37.8454 15.9595 37.7714 15.9595 37.6871C15.9595 37.6006 15.9399 37.5265 15.9009 37.465C15.8641 37.4013 15.8113 37.3523 15.7423 37.3181C15.6734 37.284 15.5918 37.2669 15.4975 37.2669H14.9736Z" fill="#212121"/>
<path d="M16.5954 37.5675H16.9263L16.9953 38.0014L16.9194 37.9194C16.9516 37.8579 16.9884 37.801 17.0297 37.7486C17.0734 37.6939 17.132 37.6506 17.2056 37.6188C17.2791 37.5846 17.3733 37.5675 17.4882 37.5675H17.571V37.9126H17.4055C17.2952 37.9126 17.2079 37.9376 17.1435 37.9878C17.0792 38.0379 17.0332 38.1028 17.0056 38.1825C16.9803 38.2622 16.9677 38.3476 16.9677 38.4387V39.3168H16.5954V37.5675Z" fill="#212121"/>
<path d="M18.4455 39.023C18.5512 39.023 18.6419 38.9979 18.7178 38.9478C18.7959 38.8977 18.8568 38.8294 18.9005 38.7428C18.9442 38.654 18.966 38.5537 18.966 38.4421C18.966 38.3283 18.9442 38.2281 18.9005 38.1415C18.8568 38.055 18.7959 37.9866 18.7178 37.9365C18.6419 37.8864 18.5512 37.8613 18.4455 37.8613C18.3397 37.8613 18.2478 37.8864 18.1697 37.9365C18.0938 37.9866 18.0341 38.055 17.9904 38.1415C17.949 38.2281 17.9283 38.3283 17.9283 38.4421C17.9283 38.5537 17.949 38.654 17.9904 38.7428C18.0341 38.8294 18.0938 38.8977 18.1697 38.9478C18.2478 38.9979 18.3397 39.023 18.4455 39.023ZM18.4455 39.3373C18.2685 39.3373 18.1111 39.2997 17.9732 39.2245C17.8376 39.1493 17.7319 39.0446 17.656 38.9102C17.5825 38.7758 17.5457 38.6198 17.5457 38.4421C17.5457 38.2645 17.5825 38.1085 17.656 37.9741C17.7319 37.8397 17.8376 37.7349 17.9732 37.6598C18.1111 37.5846 18.2685 37.547 18.4455 37.547C18.6247 37.547 18.7821 37.5846 18.9177 37.6598C19.0533 37.7349 19.1579 37.8397 19.2314 37.9741C19.3073 38.1085 19.3452 38.2645 19.3452 38.4421C19.3452 38.6198 19.3073 38.7758 19.2314 38.9102C19.1579 39.0446 19.0533 39.1493 18.9177 39.2245C18.7821 39.2997 18.6247 39.3373 18.4455 39.3373Z" fill="#212121"/>
<path d="M20.5547 37.547C20.7156 37.547 20.8581 37.5823 20.9822 37.6529C21.1086 37.7236 21.2074 37.826 21.2786 37.9604C21.3522 38.0948 21.389 38.2554 21.389 38.4421C21.389 38.6221 21.3522 38.7792 21.2786 38.9136C21.2074 39.048 21.1097 39.1528 20.9856 39.2279C20.8615 39.3008 20.7179 39.3373 20.5547 39.3373C20.3938 39.3373 20.2617 39.3031 20.1583 39.2348C20.0548 39.1664 19.979 39.0822 19.9307 38.982L19.9824 38.8965V40.0001H19.6101V37.5675H19.9342L20.0066 38.0014L19.9204 37.916C19.9755 37.8181 20.0537 37.7327 20.1548 37.6598C20.2582 37.5846 20.3915 37.547 20.5547 37.547ZM20.4926 37.8613C20.3892 37.8613 20.2984 37.8864 20.2203 37.9365C20.1445 37.9843 20.0847 38.0515 20.041 38.1381C19.9997 38.2223 19.979 38.3214 19.979 38.4353C19.979 38.5515 19.9997 38.654 20.041 38.7428C20.0847 38.8316 20.1445 38.9011 20.2203 38.9512C20.2984 39.0013 20.3892 39.0264 20.4926 39.0264C20.5961 39.0264 20.6868 39.0013 20.765 38.9512C20.8431 38.9011 20.9029 38.8328 20.9442 38.7462C20.9879 38.6574 21.0098 38.556 21.0098 38.4421C21.0098 38.326 20.9879 38.2246 20.9442 38.1381C20.9029 38.0515 20.8431 37.9843 20.765 37.9365C20.6868 37.8864 20.5961 37.8613 20.4926 37.8613Z" fill="#212121"/>
<path d="M21.6907 36.9252H22.0872V37.9297H23.2076V36.9252H23.604V39.3168H23.2076V38.2782H22.0872V39.3168H21.6907V36.9252Z" fill="#212121"/>
<path d="M24.8093 39.3373C24.6254 39.3373 24.4657 39.3008 24.3301 39.2279C24.1945 39.1528 24.0899 39.048 24.0164 38.9136C23.9428 38.7792 23.9061 38.6232 23.9061 38.4456C23.9061 38.2656 23.9417 38.1085 24.0129 37.9741C24.0865 37.8397 24.1888 37.7349 24.3197 37.6598C24.4507 37.5846 24.6024 37.547 24.7748 37.547C24.9449 37.547 25.0931 37.5812 25.2195 37.6495C25.3482 37.7156 25.4482 37.8112 25.5194 37.9365C25.593 38.0618 25.632 38.2098 25.6366 38.3807C25.6366 38.4034 25.6355 38.4273 25.6332 38.4524C25.6309 38.4752 25.6286 38.498 25.6263 38.5207H24.2956C24.2956 38.523 24.2956 38.5264 24.2956 38.531C24.2956 38.5355 24.2956 38.5401 24.2956 38.5446C24.3002 38.6426 24.322 38.7291 24.3611 38.8043C24.4025 38.8772 24.4599 38.9341 24.5335 38.9751C24.607 39.0161 24.6921 39.0366 24.7886 39.0366C24.9012 39.0366 24.9966 39.0093 25.0747 38.9546C25.1551 38.9 25.208 38.8248 25.2333 38.7291H25.6056C25.5849 38.843 25.5389 38.9466 25.4677 39.04C25.3988 39.1311 25.308 39.204 25.1954 39.2587C25.085 39.3111 24.9564 39.3373 24.8093 39.3373ZM24.3094 38.2508H25.2505C25.2344 38.121 25.1839 38.0208 25.0988 37.9502C25.0161 37.8796 24.9092 37.8443 24.7782 37.8443C24.7001 37.8443 24.6266 37.8613 24.5576 37.8955C24.491 37.9274 24.4347 37.9741 24.3887 38.0356C24.345 38.0948 24.3186 38.1666 24.3094 38.2508Z" fill="#212121"/>
<path d="M25.9031 37.5675H26.234L26.303 38.0014L26.2271 37.9194C26.2593 37.8579 26.2961 37.801 26.3374 37.7486C26.3811 37.6939 26.4397 37.6506 26.5133 37.6188C26.5868 37.5846 26.681 37.5675 26.7959 37.5675H26.8787V37.9126H26.7132C26.6029 37.9126 26.5155 37.9376 26.4512 37.9878C26.3868 38.0379 26.3409 38.1028 26.3133 38.1825C26.288 38.2622 26.2754 38.3476 26.2754 38.4387V39.3168H25.9031V37.5675Z" fill="#212121"/>
<path d="M27.7533 39.023C27.859 39.023 27.9497 38.9979 28.0256 38.9478C28.1037 38.8977 28.1646 38.8294 28.2083 38.7428C28.252 38.654 28.2738 38.5537 28.2738 38.4421C28.2738 38.3283 28.252 38.2281 28.2083 38.1415C28.1646 38.055 28.1037 37.9866 28.0256 37.9365C27.9497 37.8864 27.859 37.8613 27.7533 37.8613C27.6475 37.8613 27.5556 37.8864 27.4774 37.9365C27.4016 37.9866 27.3419 38.055 27.2982 38.1415C27.2568 38.2281 27.2361 38.3283 27.2361 38.4421C27.2361 38.5537 27.2568 38.654 27.2982 38.7428C27.3419 38.8294 27.4016 38.8977 27.4774 38.9478C27.5556 38.9979 27.6475 39.023 27.7533 39.023ZM27.7533 39.3373C27.5763 39.3373 27.4189 39.2997 27.281 39.2245C27.1454 39.1493 27.0397 39.0446 26.9638 38.9102C26.8903 38.7758 26.8535 38.6198 26.8535 38.4421C26.8535 38.2645 26.8903 38.1085 26.9638 37.9741C27.0397 37.8397 27.1454 37.7349 27.281 37.6598C27.4189 37.5846 27.5763 37.547 27.7533 37.547C27.9325 37.547 28.0899 37.5846 28.2255 37.6598C28.3611 37.7349 28.4657 37.8397 28.5392 37.9741C28.6151 38.1085 28.653 38.2645 28.653 38.4421C28.653 38.6198 28.6151 38.7758 28.5392 38.9102C28.4657 39.0446 28.3611 39.1493 28.2255 39.2245C28.0899 39.2997 27.9325 39.3373 27.7533 39.3373Z" fill="#212121"/>
</svg>
