<svg width="416" height="107" viewBox="0 0 416 107" fill="none" xmlns="http://www.w3.org/2000/svg">
<path d="M16.6589 95.0138C15.962 95.2441 15.2226 95.1208 14.6321 94.6924C14.0416 94.2582 13.7012 93.5885 13.7012 92.8491V49.4864C13.7012 48.4952 14.329 47.622 15.2706 47.3165C15.7227 47.1667 16.2014 47.172 16.6642 47.3165L31.7878 52.2675C32.7241 52.5727 33.3519 53.4463 33.3519 54.4322V87.8928C33.3519 88.8844 32.7294 89.7523 31.7932 90.0632L16.6642 95.0138H16.6589Z" fill="#2050F6"/>
<path d="M16.6531 43.2922C15.9562 43.5226 15.2168 43.3993 14.6264 42.9707C14.0359 42.5367 13.6954 41.8669 13.6954 41.1275V25.107C13.6954 24.1158 14.3231 23.2478 15.2594 22.9423L53.4061 10.4581C54.3427 10.1527 55.3587 10.4849 55.9333 11.2886L65.2799 24.2497C65.7104 24.8444 65.8277 25.5892 65.5988 26.2911C65.37 26.993 64.8433 27.5235 64.1466 27.7539L16.6531 43.2975V43.2922Z" fill="#2050F6"/>
<path d="M54.8007 80.1562C54.343 80.3059 53.8589 80.3059 53.4016 80.1562L38.2779 75.2051C37.581 74.9748 37.0544 74.4442 36.8256 73.7423C36.5969 73.0405 36.7138 72.2959 37.1447 71.701L66.4983 31.0121C66.7804 30.621 67.1687 30.3316 67.6207 30.187C68.5573 29.8816 69.5786 30.2137 70.1584 31.0121L79.505 43.9678C80.0849 44.766 80.0849 45.8431 79.505 46.6467L55.9283 79.331C55.6463 79.722 55.2527 80.006 54.795 80.1562H54.8007Z" fill="#2050F6"/>
</svg>
