<svg width="215" height="55" viewBox="0 0 215 55" fill="none" xmlns="http://www.w3.org/2000/svg">
<path d="M8.59082 48.8814C8.23145 49 7.85012 48.9366 7.54561 48.716C7.24111 48.4928 7.06554 48.1482 7.06554 47.7678L7.06554 25.4591C7.06554 24.9492 7.3893 24.4999 7.87486 24.3427C8.10804 24.2656 8.3549 24.2683 8.59357 24.3427L16.3927 26.8898C16.8756 27.0469 17.1993 27.4962 17.1993 28.0034L17.1993 45.218C17.1993 45.728 16.8783 46.1745 16.3955 46.3344L8.59357 48.8814H8.59082Z" fill="white"/>
<path d="M8.58796 22.2723C8.22859 22.3909 7.84733 22.3275 7.54282 22.1069C7.23831 21.8836 7.06274 21.5391 7.06274 21.1587V12.9166C7.06274 12.4067 7.38644 11.9601 7.86926 11.803L27.5414 5.38026C28.0242 5.22314 28.5482 5.39404 28.8445 5.80752L33.6644 12.4756C33.8867 12.7816 33.947 13.1647 33.829 13.5258C33.711 13.8869 33.4395 14.1598 33.0801 14.2784L8.58796 22.2751V22.2723Z" fill="white"/>
<path d="M28.2602 41.2376C28.0243 41.3148 27.7747 41.3148 27.5388 41.2376L19.7396 38.6905C19.3802 38.572 19.1087 38.2991 18.9907 37.938C18.8727 37.5769 18.933 37.1937 19.1552 36.8878L34.2927 15.9546C34.4381 15.7534 34.6384 15.6045 34.8716 15.5301C35.3544 15.373 35.8811 15.5439 36.1801 15.9546L41.0001 22.6199C41.2991 23.0307 41.2991 23.5847 41.0001 23.9982L28.8418 40.8131C28.6964 41.0143 28.4934 41.1604 28.2575 41.2376H28.2602Z" fill="white"/>
<path d="M55.3195 15.0807L65.5836 15.0807C67.3935 15.0807 68.9678 15.4302 70.3066 16.1294C71.6702 16.8036 72.7239 17.7649 73.4677 19.0134C74.2115 20.237 74.5834 21.7102 74.5834 23.4332C74.5834 25.1062 74.2115 26.5794 73.4677 27.8529C72.7239 29.1014 71.6702 30.0752 70.3066 30.7744C68.9678 31.4486 67.3935 31.7857 65.5836 31.7857H59.5962V41.2993H55.3195V15.0807ZM59.5962 18.8262V28.0401H65.2117C66.2282 28.0401 67.1084 27.8529 67.8522 27.4783C68.6207 27.1038 69.2034 26.5669 69.6 25.8677C70.0215 25.1686 70.2323 24.3571 70.2323 23.4332C70.2323 22.4843 70.0215 21.6728 69.6 20.9986C69.2034 20.2994 68.6331 19.7625 67.8894 19.388C67.1456 19.0134 66.2654 18.8262 65.2489 18.8262L59.5962 18.8262Z" fill="white"/>
<path d="M77.0916 22.1222H80.6617L81.4055 26.879L80.5873 25.9801C80.9344 25.3059 81.3311 24.6817 81.7774 24.1074C82.2485 23.5081 82.8807 23.0336 83.674 22.6841C84.4674 22.3095 85.4839 22.1222 86.7235 22.1222H87.6161V25.9052H85.831C84.641 25.9052 83.6988 26.1799 83.0046 26.7292C82.3104 27.2786 81.8146 27.9902 81.5171 28.8642C81.2444 29.7381 81.108 30.6745 81.108 31.6733V41.2993H77.0916V22.1222Z" fill="white"/>
<path d="M97.0504 38.0781C98.1909 38.0781 99.1702 37.8035 99.9884 37.2541C100.831 36.7048 101.488 35.9557 101.959 35.0068C102.43 34.033 102.666 32.9343 102.666 31.7108C102.666 30.4622 102.43 29.3636 101.959 28.4147C101.488 27.4658 100.831 26.7167 99.9884 26.1674C99.1702 25.618 98.1909 25.3434 97.0504 25.3434C95.91 25.3434 94.9183 25.618 94.0753 26.1674C93.2572 26.7167 92.6126 27.4658 92.1415 28.4147C91.6952 29.3636 91.4721 30.4622 91.4721 31.7108C91.4721 32.9343 91.6952 34.033 92.1415 35.0068C92.6126 35.9557 93.2572 36.7048 94.0753 37.2541C94.9183 37.8035 95.91 38.0781 97.0504 38.0781ZM97.0504 41.524C95.1414 41.524 93.4431 41.112 91.9556 40.288C90.4928 39.464 89.3523 38.3154 88.5342 36.8421C87.7408 35.3689 87.3441 33.6584 87.3441 31.7108C87.3441 29.7631 87.7408 28.0526 88.5342 26.5794C89.3523 25.1062 90.4928 23.9575 91.9556 23.1335C93.4431 22.3095 95.1414 21.8975 97.0504 21.8975C98.9843 21.8975 100.683 22.3095 102.145 23.1335C103.608 23.9575 104.736 25.1062 105.53 26.5794C106.348 28.0526 106.757 29.7631 106.757 31.7108C106.757 33.6584 106.348 35.3689 105.53 36.8421C104.736 38.3154 103.608 39.464 102.145 40.288C100.683 41.112 98.9843 41.524 97.0504 41.524Z" fill="white"/>
<path d="M119.804 21.8975C121.54 21.8975 123.077 22.2845 124.416 23.0586C125.779 23.8327 126.845 24.9563 127.614 26.4296C128.407 27.9028 128.804 29.6632 128.804 31.7108C128.804 33.6834 128.407 35.4063 127.614 36.8796C126.845 38.3528 125.792 39.5014 124.453 40.3255C123.114 41.1245 121.565 41.524 119.804 41.524C118.069 41.524 116.643 41.1495 115.528 40.4004C114.412 39.6513 113.594 38.7274 113.073 37.6287L113.631 36.6923V48.7903H109.615V22.1222H113.11L113.891 26.879L112.962 25.9427C113.557 24.8689 114.399 23.9326 115.49 23.1335C116.606 22.3095 118.044 21.8975 119.804 21.8975ZM119.135 25.3434C118.019 25.3434 117.04 25.618 116.197 26.1674C115.379 26.6918 114.734 27.4284 114.263 28.3772C113.817 29.3011 113.594 30.3873 113.594 31.6358C113.594 32.9093 113.817 34.033 114.263 35.0068C114.734 35.9807 115.379 36.7422 116.197 37.2916C117.04 37.8409 118.019 38.1156 119.135 38.1156C120.251 38.1156 121.23 37.8409 122.073 37.2916C122.916 36.7422 123.56 35.9931 124.007 35.0443C124.478 34.0704 124.713 32.9593 124.713 31.7108C124.713 30.4373 124.478 29.3261 124.007 28.3772C123.56 27.4284 122.916 26.6918 122.073 26.1674C121.23 25.618 120.251 25.3434 119.135 25.3434Z" fill="white"/>
<path d="M132.06 15.0807H136.336V26.0925H148.423V15.0807H152.699V41.2993H148.423V29.9129H136.336V41.2993L132.06 41.2993V15.0807Z" fill="white"/>
<path d="M165.701 41.524C163.718 41.524 161.995 41.1245 160.532 40.3255C159.069 39.5014 157.941 38.3528 157.148 36.8796C156.354 35.4063 155.958 33.6959 155.958 31.7482C155.958 29.7756 156.342 28.0526 157.111 26.5794C157.904 25.1062 159.007 23.9575 160.42 23.1335C161.834 22.3095 163.47 21.8975 165.329 21.8975C167.164 21.8975 168.763 22.272 170.127 23.0212C171.515 23.7453 172.594 24.794 173.362 26.1674C174.156 27.5407 174.577 29.1638 174.627 31.0366C174.627 31.2863 174.614 31.5485 174.589 31.8231C174.565 32.0728 174.54 32.3225 174.515 32.5722H160.16C160.16 32.5972 160.16 32.6347 160.16 32.6846C160.16 32.7345 160.16 32.7845 160.16 32.8344C160.21 33.9081 160.445 34.857 160.867 35.681C161.313 36.4801 161.933 37.1043 162.726 37.5538C163.52 38.0032 164.437 38.228 165.478 38.228C166.693 38.228 167.722 37.9283 168.565 37.329C169.433 36.7298 170.003 35.9057 170.276 34.857H174.292C174.069 36.1055 173.573 37.2416 172.804 38.2654C172.061 39.2642 171.081 40.0633 169.866 40.6626C168.676 41.2369 167.288 41.524 165.701 41.524ZM160.309 29.6133H170.461C170.288 28.19 169.742 27.0913 168.825 26.3172C167.933 25.5431 166.78 25.1561 165.367 25.1561C164.524 25.1561 163.73 25.3434 162.987 25.7179C162.268 26.0675 161.66 26.5794 161.164 27.2536C160.693 27.9028 160.408 28.6894 160.309 29.6133Z" fill="white"/>
<path d="M177.502 22.1222H181.072L181.816 26.879L180.998 25.9801C181.345 25.3059 181.741 24.6817 182.188 24.1074C182.659 23.5081 183.291 23.0336 184.084 22.6841C184.878 22.3095 185.894 22.1222 187.134 22.1222H188.026V25.9052H186.241C185.051 25.9052 184.109 26.1799 183.415 26.7292C182.721 27.2786 182.225 27.9902 181.927 28.8642C181.655 29.7381 181.518 30.6745 181.518 31.6733V41.2993H177.502V22.1222Z" fill="white"/>
<path d="M197.461 38.0781C198.601 38.0781 199.58 37.8035 200.399 37.2541C201.242 36.7048 201.899 35.9557 202.37 35.0068C202.841 34.033 203.076 32.9343 203.076 31.7108C203.076 30.4622 202.841 29.3636 202.37 28.4147C201.899 27.4658 201.242 26.7167 200.399 26.1674C199.58 25.618 198.601 25.3434 197.461 25.3434C196.32 25.3434 195.329 25.618 194.486 26.1674C193.667 26.7167 193.023 27.4658 192.552 28.4147C192.105 29.3636 191.882 30.4622 191.882 31.7108C191.882 32.9343 192.105 34.033 192.552 35.0068C193.023 35.9557 193.667 36.7048 194.486 37.2541C195.329 37.8035 196.32 38.0781 197.461 38.0781ZM197.461 41.524C195.552 41.524 193.853 41.112 192.366 40.288C190.903 39.464 189.763 38.3154 188.944 36.8421C188.151 35.3689 187.754 33.6584 187.754 31.7108C187.754 29.7631 188.151 28.0526 188.944 26.5794C189.763 25.1062 190.903 23.9575 192.366 23.1335C193.853 22.3095 195.552 21.8975 197.461 21.8975C199.395 21.8975 201.093 22.3095 202.556 23.1335C204.018 23.9575 205.146 25.1062 205.94 26.5794C206.758 28.0526 207.167 29.7631 207.167 31.7108C207.167 33.6584 206.758 35.3689 205.94 36.8421C205.146 38.3154 204.018 39.464 202.556 40.288C201.093 41.112 199.395 41.524 197.461 41.524Z" fill="white"/>
</svg>
