<svg width="323" height="70" viewBox="0 0 323 70" fill="none" xmlns="http://www.w3.org/2000/svg">
<g clip-path="url(#clip0_47_4797)">
<path d="M17.1861 4.78611C8.37926 7.67652 1.00492 10.1346 0.80997 10.2533C0.589587 10.3804 0.360728 10.6178 0.216632 10.8636L-0.0207029 11.262L-0.0461317 18.2125C-0.0630842 23.2474 -0.0461317 25.2902 0.0216784 25.6207C0.19968 26.4345 0.996447 27.0702 1.8695 27.0702C2.08141 27.0702 26.493 19.1279 40.1991 14.5931C42.1995 13.932 42.2927 13.8896 42.6657 13.5167C43.2675 12.9233 43.4116 12.1944 43.0556 11.4569C42.9539 11.245 41.0806 8.575 38.8853 5.5405C34.4861 -0.562402 34.6302 -0.401353 33.6809 -0.45221C33.2486 -0.477639 31.7568 -0.00296879 17.1861 4.78611Z" fill="#2050F6"/>
<path d="M77.8338 57.8386H84.6995V42.4288L90.4888 42.3864C96.3629 42.3441 96.7697 42.3271 98.3887 41.9881C102.627 41.1065 105.95 38.5976 107.628 35.0036C108.865 32.3506 109.238 28.7651 108.594 25.6119C108.102 23.1793 106.975 21.0517 105.28 19.3565C103.627 17.7036 101.169 16.3813 98.7108 15.8049C96.7104 15.3387 96.8884 15.3472 87.0136 15.3133L77.8338 15.2794V57.8386ZM95.2864 21.4755C98.6176 21.9078 100.94 23.8658 101.652 26.8495C102.356 29.7568 101.432 32.9185 99.4058 34.529C98.7362 35.063 97.6428 35.6478 96.8714 35.8767C95.5576 36.2751 95.0575 36.309 89.726 36.309H84.6995V21.3908H89.6836C92.4214 21.3908 94.9389 21.4331 95.2864 21.4755Z" fill="#2050F6"/>
<path d="M201.672 57.8386H208.538V39.3604H228.033L228.075 57.7963L231.534 57.8217L234.984 57.8386V15.2879L231.534 15.3048L228.075 15.3302L228.033 33.1728H208.538V15.2879H201.672V57.8386Z" fill="#2050F6"/>
<path d="M44.6493 16.1267C44.4628 16.2115 44.2085 16.3895 44.0814 16.5251C43.5813 17.0761 19.3222 50.8624 19.2036 51.1845C18.9069 52.0067 19.3392 53.0493 20.1529 53.4477C20.297 53.524 23.2807 54.5157 26.7814 55.6685C33.6471 57.9147 33.681 57.9231 34.4015 57.5926C34.588 57.5078 34.8762 57.2705 35.0457 57.067C35.5627 56.4229 54.7615 29.7311 54.8886 29.4768C55.0751 29.0869 55.1259 28.7055 55.0242 28.2478C54.9479 27.8918 54.3546 27.0272 50.9895 22.3398C48.8196 19.3223 46.9209 16.7286 46.7768 16.5675C46.2428 15.9911 45.3443 15.8046 44.6493 16.1267Z" fill="#2050F6"/>
<path d="M142.931 26.485C136.566 27.2224 131.717 31.2995 130.132 37.2583C129.725 38.8179 129.615 39.6825 129.564 41.6998C129.497 44.336 129.725 46.0905 130.395 48.1164C132.573 54.7702 138.905 58.6863 146.551 58.1099C148.992 57.9234 150.738 57.4657 152.721 56.4824C154.222 55.7365 155.273 54.9821 156.409 53.8548C157.46 52.8037 158.248 51.7188 158.943 50.3795C160.248 47.8621 160.816 45.4124 160.816 42.2932C160.816 39.3604 160.274 36.843 159.163 34.5713C156.892 29.9348 152.705 27.0868 147.297 26.4765C146.398 26.3748 143.838 26.3833 142.931 26.485ZM147.551 32.2319C149.399 32.7235 151.187 34.0119 152.323 35.6478C153.595 37.5041 154.205 39.6232 154.205 42.2423C154.205 44.7937 153.654 46.8449 152.51 48.591C150.704 51.3458 148.043 52.702 144.711 52.5579C141.787 52.4308 139.524 51.1509 137.871 48.6843C136.252 46.2855 135.718 42.2593 136.566 38.8942C136.879 37.6736 137.227 36.8599 137.829 35.9275C139.176 33.8424 140.965 32.5964 143.321 32.1132C144.228 31.9267 146.669 31.9945 147.551 32.2319Z" fill="#2050F6"/>
<path d="M180.142 26.4511C177.141 26.7732 174.531 28.1887 172.454 30.6299C171.929 31.2487 171.869 31.291 171.818 31.1215C171.784 31.0113 171.623 30.0705 171.454 29.0194C171.293 27.9683 171.14 27.0275 171.115 26.9173L171.072 26.7308H165.478V69.9597H171.92V53.4734L172.318 53.9396C174.48 56.4994 176.947 57.7624 180.439 58.1014C183.456 58.3896 186.728 57.7369 189.085 56.3892C193.891 53.6344 196.645 48.0147 196.391 41.4795C196.247 37.8093 195.365 34.868 193.662 32.3251C191.441 29.0194 188.059 27.0021 183.872 26.485C183.202 26.4002 180.812 26.3748 180.142 26.4511ZM182.583 32.1132C183.405 32.2743 184.05 32.4862 184.745 32.8422C188.127 34.5544 189.941 38.1229 189.78 42.7509C189.652 46.5737 188.144 49.5997 185.508 51.3119C182.651 53.1852 178.464 53.0665 175.717 51.0492C174.209 49.9303 172.954 48.0571 172.395 46.099C171.513 42.9883 171.751 39.2672 172.997 36.7752C173.726 35.3257 175.005 33.9272 176.311 33.1389C177.048 32.6981 178.354 32.2149 179.125 32.0793C179.896 31.9522 181.837 31.9691 182.583 32.1132Z" fill="#2050F6"/>
<path d="M252.945 26.5194C246.85 27.384 242.349 31.3763 240.841 37.2673C240.391 39.0049 240.29 39.9543 240.281 42.2852C240.281 44.5653 240.374 45.4045 240.807 47.1167C241.993 51.8549 245.164 55.4743 249.588 57.1102C252.445 58.1697 256.318 58.4579 259.438 57.8307C262.048 57.3051 264.396 56.0676 266.219 54.2367C267.897 52.5584 269.024 50.5665 269.609 48.2695C269.728 47.8202 269.821 47.4303 269.821 47.3879C269.821 47.354 268.372 47.3371 266.592 47.3455L263.362 47.371L263.125 48.0321C261.93 51.2955 258.59 53.1687 254.657 52.7703C252.563 52.5584 250.995 51.8719 249.614 50.558C248.249 49.2442 247.486 47.6592 247.147 45.4214C247.079 44.9552 247.02 44.3704 247.02 44.1246V43.6838H270.152L270.219 43.2769C270.253 43.0566 270.287 42.0733 270.279 41.0985C270.27 39.683 270.236 39.1151 270.092 38.3438C268.923 31.9442 264.795 27.7569 258.548 26.6296C257.285 26.4007 254.182 26.3414 252.945 26.5194ZM256.81 31.7323C257.768 31.8764 258.463 32.0713 259.192 32.4104C261.54 33.4954 262.938 35.3347 263.506 38.0725C263.574 38.4116 263.633 38.7337 263.633 38.7761C263.633 38.8184 260.472 38.8523 255.454 38.8523C247.427 38.8523 247.274 38.8523 247.274 38.6913C247.274 38.4285 247.503 37.4114 247.681 36.9028C248.486 34.5803 250.461 32.7579 252.996 31.9951C254.089 31.6645 255.598 31.5628 256.81 31.7323Z" fill="#2050F6"/>
<path d="M304.701 26.527C298.92 27.2984 294.521 30.7058 292.596 35.8848C291.884 37.8004 291.579 39.7161 291.571 42.1996C291.571 44.0983 291.656 44.9968 292.003 46.5564C292.885 50.5657 295.156 53.8206 298.513 55.8888C302.556 58.3808 308.642 58.8724 313.372 57.1093C315.482 56.3211 317.076 55.2615 318.695 53.5832C320.805 51.3964 322.162 48.4805 322.687 45.0392C322.882 43.6999 322.882 40.8858 322.679 39.4957C321.628 32.2824 316.745 27.434 309.634 26.5186C308.405 26.366 305.879 26.366 304.701 26.527ZM309.617 32.24C312.414 32.9859 314.745 35.3593 315.711 38.4192C316.101 39.6652 316.22 40.5298 316.22 42.242C316.22 44.0474 316.093 44.912 315.626 46.3021C314.558 49.4977 312.194 51.7269 309.168 52.3965C308.362 52.5746 306.133 52.5915 305.379 52.4305C303.065 51.9304 301.302 50.7437 299.996 48.8111C299.225 47.6753 298.742 46.4462 298.411 44.8273C298.199 43.7423 298.199 40.7417 298.411 39.6652C298.843 37.5122 299.708 35.8 301.03 34.4523C302.259 33.1978 303.683 32.435 305.379 32.1044C306.303 31.9264 308.744 32.0027 309.617 32.24Z" fill="#2050F6"/>
<path d="M112.968 57.7963L116.206 57.8217L119.444 57.8386L119.478 49.0064C119.512 39.4791 119.495 39.9707 119.961 38.1483C120.52 35.9953 122.054 34.1475 123.911 33.3931C124.877 33.0032 125.538 32.91 127.827 32.8591L129.963 32.8083V26.7054L128.251 26.7562C125.911 26.824 124.682 27.0868 123.224 27.8158C121.868 28.4939 120.885 29.3584 120.012 30.6468C119.732 31.0622 119.495 31.3758 119.469 31.3588C119.452 31.3419 119.283 30.2993 119.079 29.0448L118.732 26.7732L115.824 26.7478L112.925 26.7308L112.968 57.7963Z" fill="#2050F6"/>
<path d="M274.991 57.8386H281.425L281.459 49.2098C281.501 39.8605 281.493 40.0385 281.984 38.1907C282.654 35.6817 284.409 33.7746 286.604 33.1812C287.519 32.9269 288.553 32.8337 290.359 32.8337H291.944V26.7308H290.8C289.376 26.7308 288.147 26.858 287.129 27.1207C286.206 27.3496 284.781 28.0107 284.019 28.5447C283.349 29.0279 282.518 29.9264 281.976 30.7486C281.747 31.0961 281.544 31.3843 281.518 31.3843C281.493 31.3927 281.332 30.4265 281.154 29.2483C280.967 28.0785 280.806 27.0275 280.781 26.9173L280.738 26.7308H274.991V57.8386Z" fill="#2050F6"/>
<path d="M1.42039 30.2823C0.82705 30.4349 0.437143 30.7485 0.140474 31.3079C-0.0120988 31.5961 -0.0205751 32.2234 -0.0460039 50.032C-0.0544801 62.1869 -0.0375276 68.5611 0.0218062 68.773C0.242189 69.5782 1.00505 70.1546 1.83572 70.1461C2.1663 70.1461 3.81069 69.6375 8.72692 68.0186C12.2869 66.8489 15.2621 65.8571 15.3384 65.8148C15.6096 65.6707 16.0334 65.179 16.1606 64.8569C16.2793 64.5772 16.2962 62.9583 16.2962 50.1845V35.8342L16.0758 35.385C15.9317 35.1138 15.7283 34.8595 15.5333 34.7323C15.1858 34.5035 2.56468 30.3247 2.00525 30.2569C1.82725 30.2314 1.56448 30.2484 1.42039 30.2823Z" fill="#2050F6"/>
</g>
<defs>
<clipPath id="clip0_47_4797">
<rect width="323" height="70" fill="white"/>
</clipPath>
</defs>
</svg>
