<svg width="323" height="70" viewBox="0 0 323 70" fill="none" xmlns="http://www.w3.org/2000/svg">
<g clip-path="url(#clip0_47_4796)">
<path d="M17.4922 4.91795C8.68542 7.80835 1.31108 10.2665 1.11612 10.3851C0.89574 10.5123 0.666881 10.7496 0.522785 10.9954L0.285449 11.3938L0.260021 18.3443C0.243068 23.3792 0.260021 25.422 0.327831 25.7526C0.505832 26.5663 1.3026 27.202 2.17565 27.202C2.38756 27.202 26.7992 19.2598 40.5053 14.725C42.5057 14.0638 42.5989 14.0214 42.9719 13.6485C43.5737 13.0552 43.7178 12.3262 43.3618 11.5888C43.26 11.3769 41.3868 8.70683 39.1914 5.67234C34.7923 -0.430566 34.9364 -0.269517 33.987 -0.320374C33.5547 -0.345803 32.0629 0.128867 17.4922 4.91795Z" fill="white"/>
<path d="M78.1401 57.9706H85.0059V42.5607L90.7952 42.5184C96.6692 42.476 97.0761 42.459 98.695 42.12C102.933 41.2384 106.256 38.7295 107.934 35.1355C109.172 32.4825 109.545 28.897 108.9 25.7439C108.409 23.3112 107.281 21.1836 105.586 19.4884C103.933 17.8355 101.475 16.5132 99.0171 15.9368C97.0167 15.4706 97.1947 15.4791 87.3199 15.4452L78.1401 15.4113V57.9706ZM95.5927 21.6075C98.9239 22.0397 101.246 23.9978 101.958 26.9814C102.662 29.8887 101.738 33.0504 99.7122 34.6609C99.0426 35.1949 97.9491 35.7797 97.1778 36.0086C95.864 36.407 95.3639 36.4409 90.0323 36.4409H85.0059V21.5227H89.9899C92.7278 21.5227 95.2452 21.5651 95.5927 21.6075Z" fill="white"/>
<path d="M201.978 57.9706H208.844V39.4923H228.339L228.382 57.9282L231.84 57.9536L235.29 57.9706V15.4198L231.84 15.4367L228.382 15.4622L228.339 33.3047H208.844V15.4198H201.978V57.9706Z" fill="white"/>
<path d="M44.9554 16.2594C44.7689 16.3442 44.5146 16.5222 44.3874 16.6578C43.8873 17.2087 19.6283 50.9951 19.5096 51.3172C19.213 52.1394 19.6453 53.182 20.459 53.5803C20.6031 53.6566 23.5867 54.6483 27.0874 55.8011C33.9532 58.0473 33.9871 58.0558 34.7076 57.7252C34.894 57.6405 35.1822 57.4031 35.3518 57.1997C35.8688 56.5555 55.0675 29.8638 55.1947 29.6095C55.3811 29.2196 55.432 28.8382 55.3303 28.3804C55.254 28.0244 54.6607 27.1599 51.2956 22.4725C49.1257 19.4549 47.227 16.8612 47.0829 16.7002C46.5489 16.1238 45.6504 15.9373 44.9554 16.2594Z" fill="white"/>
<path d="M143.237 26.6169C136.872 27.3543 132.023 31.4314 130.438 37.3902C130.031 38.9498 129.921 39.8144 129.87 41.8318C129.802 44.4679 130.031 46.2225 130.701 48.2483C132.879 54.9021 139.211 58.8182 146.857 58.2418C149.298 58.0553 151.044 57.5976 153.027 56.6143C154.528 55.8684 155.579 55.114 156.715 53.9867C157.766 52.9356 158.554 51.8507 159.249 50.5114C160.554 47.994 161.122 45.5444 161.122 42.4251C161.122 39.4923 160.58 36.9749 159.469 34.7032C157.198 30.0667 153.01 27.2187 147.603 26.6084C146.704 26.5067 144.144 26.5152 143.237 26.6169ZM147.857 32.3638C149.705 32.8554 151.493 34.1438 152.629 35.7797C153.9 37.636 154.511 39.7551 154.511 42.3742C154.511 44.9256 153.96 46.9768 152.816 48.7229C151.01 51.4777 148.349 52.8339 145.017 52.6898C142.093 52.5627 139.83 51.2828 138.177 48.8162C136.558 46.4174 136.024 42.3912 136.872 39.0261C137.185 37.8055 137.533 36.9918 138.135 36.0594C139.482 33.9743 141.271 32.7283 143.627 32.2451C144.534 32.0586 146.975 32.1264 147.857 32.3638Z" fill="white"/>
<path d="M180.448 26.5831C177.447 26.9052 174.837 28.3207 172.76 30.7619C172.235 31.3806 172.175 31.423 172.124 31.2535C172.091 31.1433 171.929 30.2024 171.76 29.1514C171.599 28.1003 171.446 27.1594 171.421 27.0493L171.379 26.8628H165.784V70.0917H172.226V53.6054L172.625 54.0715C174.786 56.6314 177.253 57.8943 180.745 58.2334C183.762 58.5216 187.034 57.8689 189.391 56.5212C194.197 53.7664 196.951 48.1466 196.697 41.6115C196.553 37.9412 195.671 35 193.968 32.4571C191.747 29.1514 188.365 27.134 184.178 26.617C183.508 26.5322 181.118 26.5068 180.448 26.5831ZM182.889 32.2452C183.711 32.4062 184.356 32.6181 185.051 32.9742C188.433 34.6864 190.247 38.2549 190.086 42.8829C189.958 46.7057 188.45 49.7317 185.814 51.4439C182.957 53.3172 178.77 53.1985 176.023 51.1811C174.515 50.0623 173.26 48.189 172.701 46.231C171.819 43.1202 172.057 39.3992 173.303 36.9071C174.032 35.4577 175.311 34.0591 176.617 33.2708C177.354 32.8301 178.66 32.3469 179.431 32.2113C180.202 32.0841 182.143 32.1011 182.889 32.2452Z" fill="white"/>
<path d="M253.251 26.6513C247.156 27.5159 242.655 31.5082 241.147 37.3992C240.697 39.1368 240.596 40.0862 240.587 42.4171C240.587 44.6973 240.681 45.5364 241.113 47.2486C242.299 51.9868 245.47 55.6062 249.894 57.2421C252.751 58.3016 256.624 58.5898 259.744 57.9626C262.354 57.4371 264.702 56.1995 266.525 54.3687C268.203 52.6904 269.33 50.6984 269.915 48.4014C270.034 47.9521 270.127 47.5622 270.127 47.5198C270.127 47.4859 268.678 47.469 266.898 47.4775L263.668 47.5029L263.431 48.164C262.236 51.4274 258.896 53.3006 254.963 52.9023C252.869 52.6904 251.301 52.0038 249.92 50.69C248.555 49.3761 247.792 47.7911 247.453 45.5534C247.385 45.0872 247.326 44.5023 247.326 44.2565V43.8157H270.458L270.525 43.4089C270.559 43.1885 270.593 42.2052 270.585 41.2305C270.576 39.8149 270.542 39.247 270.398 38.4757C269.229 32.0761 265.101 27.8888 258.854 26.7615C257.591 26.5326 254.488 26.4733 253.251 26.6513ZM257.116 31.8642C258.074 32.0083 258.769 32.2033 259.498 32.5423C261.846 33.6273 263.244 35.4666 263.812 38.2044C263.88 38.5435 263.939 38.8656 263.939 38.908C263.939 38.9504 260.778 38.9843 255.76 38.9843C247.733 38.9843 247.58 38.9843 247.58 38.8232C247.58 38.5604 247.809 37.5433 247.987 37.0347C248.792 34.7122 250.767 32.8898 253.302 32.127C254.395 31.7964 255.904 31.6947 257.116 31.8642Z" fill="white"/>
<path d="M305.007 26.6597C299.226 27.431 294.827 30.8385 292.903 36.0175C292.191 37.9331 291.886 39.8487 291.877 42.3323C291.877 44.231 291.962 45.1295 292.309 46.6891C293.191 50.6984 295.463 53.9532 298.819 56.0214C302.862 58.5135 308.948 59.0051 313.678 57.242C315.789 56.4537 317.382 55.3942 319.001 53.7159C321.112 51.529 322.468 48.6132 322.993 45.1718C323.188 43.8326 323.188 41.0185 322.985 39.6284C321.934 32.4151 317.052 27.5667 309.94 26.6512C308.711 26.4987 306.185 26.4987 305.007 26.6597ZM309.923 32.3727C312.72 33.1186 315.051 35.492 316.017 38.5519C316.407 39.7979 316.526 40.6625 316.526 42.3747C316.526 44.1801 316.399 45.0447 315.933 46.4348C314.865 49.6303 312.5 51.8596 309.474 52.5292C308.669 52.7072 306.439 52.7242 305.685 52.5631C303.371 52.063 301.608 50.8764 300.302 48.9438C299.531 47.8079 299.048 46.5789 298.717 44.9599C298.506 43.875 298.506 40.8744 298.717 39.7979C299.15 37.6449 300.014 35.9327 301.337 34.585C302.566 33.3305 303.99 32.5676 305.685 32.2371C306.609 32.0591 309.05 32.1354 309.923 32.3727Z" fill="white"/>
<path d="M113.274 57.9282L116.512 57.9536L119.75 57.9706L119.784 49.1383C119.817 39.611 119.801 40.1026 120.267 38.2802C120.826 36.1273 122.36 34.2794 124.217 33.5251C125.183 33.1352 125.844 33.0419 128.133 32.9911L130.269 32.9402V26.8373L128.557 26.8882C126.217 26.956 124.988 27.2187 123.53 27.9477C122.174 28.6258 121.191 29.4904 120.318 30.7788C120.038 31.1941 119.801 31.5077 119.775 31.4908C119.758 31.4738 119.589 30.4312 119.385 29.1767L119.038 26.9051L116.13 26.8797L113.231 26.8627L113.274 57.9282Z" fill="white"/>
<path d="M275.297 57.9706H281.731L281.765 49.3417C281.807 39.9924 281.799 40.1704 282.29 38.3226C282.96 35.8136 284.714 33.9065 286.91 33.3132C287.825 33.0589 288.859 32.9656 290.665 32.9656H292.25V26.8627H291.106C289.682 26.8627 288.453 26.9899 287.435 27.2526C286.511 27.4815 285.087 28.1426 284.325 28.6766C283.655 29.1598 282.824 30.0583 282.282 30.8805C282.053 31.228 281.849 31.5162 281.824 31.5162C281.799 31.5247 281.638 30.5584 281.46 29.3802C281.273 28.2104 281.112 27.1594 281.087 27.0492L281.044 26.8627H275.297V57.9706Z" fill="white"/>
<path d="M1.72674 30.4143C1.1334 30.5669 0.743494 30.8805 0.446825 31.4399C0.294252 31.7281 0.285776 32.3553 0.260347 50.1639C0.251871 62.3189 0.268824 68.693 0.328157 68.9049C0.54854 69.7102 1.3114 70.2866 2.14208 70.2781C2.47265 70.2781 4.11704 69.7695 9.03327 68.1506C12.5933 66.9808 15.5685 65.9891 15.6447 65.9467C15.916 65.8026 16.3398 65.311 16.4669 64.9889C16.5856 64.7092 16.6026 63.0902 16.6026 50.3165V35.9662L16.3822 35.517C16.2381 35.2457 16.0347 34.9915 15.8397 34.8643C15.4922 34.6355 2.87103 30.4567 2.3116 30.3889C2.1336 30.3634 1.87084 30.3804 1.72674 30.4143Z" fill="white"/>
</g>
<defs>
<clipPath id="clip0_47_4796">
<rect width="323" height="70" fill="white"/>
</clipPath>
</defs>
</svg>
