<svg width="322" height="70" viewBox="0 0 322 70" fill="none" xmlns="http://www.w3.org/2000/svg">
<g clip-path="url(#clip0_47_4794)">
<path d="M16.8096 4.78611C8.0028 7.67652 0.628459 10.1346 0.433505 10.2533C0.213122 10.3804 -0.0157364 10.6178 -0.159833 10.8636L-0.397168 11.262L-0.422597 18.2125C-0.439549 23.2474 -0.422597 25.2902 -0.354786 25.6207C-0.176785 26.4345 0.619983 27.0702 1.49304 27.0702C1.70494 27.0702 26.1166 19.1279 39.8227 14.5931C41.823 13.932 41.9163 13.8896 42.2892 13.5167C42.8911 12.9233 43.0351 12.1944 42.6791 11.4569C42.5774 11.245 40.7042 8.575 38.5088 5.5405C34.1097 -0.562402 34.2538 -0.401353 33.3044 -0.45221C32.8721 -0.477639 31.3803 -0.00296879 16.8096 4.78611Z" fill="#212121"/>
<path d="M77.4572 57.8386H84.3229V42.4288L90.1122 42.3864C95.9863 42.3441 96.3931 42.3271 98.0121 41.9881C102.25 41.1065 105.573 38.5976 107.251 35.0036C108.489 32.3506 108.862 28.7651 108.217 25.6119C107.726 23.1793 106.599 21.0517 104.903 19.3565C103.25 17.7036 100.792 16.3813 98.3342 15.8049C96.3338 15.3387 96.5118 15.3472 86.637 15.3133L77.4572 15.2794V57.8386ZM94.9098 21.4755C98.2409 21.9078 100.563 23.8658 101.275 26.8495C101.979 29.7568 101.055 32.9185 99.0292 34.529C98.3596 35.063 97.2662 35.6478 96.4948 35.8767C95.181 36.2751 94.6809 36.309 89.3494 36.309H84.3229V21.3908H89.307C92.0448 21.3908 94.5622 21.4331 94.9098 21.4755Z" fill="#212121"/>
<path d="M201.295 57.8386H208.161V39.3604H227.656L227.699 57.7963L231.157 57.8217L234.607 57.8386V15.2879L231.157 15.3048L227.699 15.3302L227.656 33.1728H208.161V15.2879H201.295V57.8386Z" fill="#212121"/>
<path d="M44.2728 16.1267C44.0863 16.2115 43.8321 16.3895 43.7049 16.5251C43.2048 17.0761 18.9458 50.8624 18.8271 51.1845C18.5304 52.0067 18.9627 53.0493 19.7765 53.4477C19.9206 53.524 22.9042 54.5157 26.4049 55.6685C33.2707 57.9147 33.3046 57.9231 34.025 57.5926C34.2115 57.5078 34.4997 57.2705 34.6692 57.067C35.1863 56.4229 54.385 29.7311 54.5121 29.4768C54.6986 29.0869 54.7495 28.7055 54.6478 28.2478C54.5715 27.8918 53.9781 27.0272 50.6131 22.3398C48.4431 19.3223 46.5445 16.7286 46.4004 16.5675C45.8664 15.9911 44.9679 15.8046 44.2728 16.1267Z" fill="#212121"/>
<path d="M142.555 26.485C136.189 27.2224 131.341 31.2995 129.756 37.2583C129.349 38.8179 129.239 39.6825 129.188 41.6998C129.12 44.336 129.349 46.0905 130.018 48.1164C132.197 54.7702 138.529 58.6863 146.174 58.1099C148.615 57.9234 150.361 57.4657 152.345 56.4824C153.845 55.7365 154.896 54.9821 156.032 53.8548C157.083 52.8037 157.871 51.7188 158.566 50.3795C159.872 47.8621 160.44 45.4124 160.44 42.2932C160.44 39.3604 159.897 36.843 158.787 34.5713C156.515 29.9348 152.328 27.0868 146.92 26.4765C146.022 26.3748 143.462 26.3833 142.555 26.485ZM147.174 32.2319C149.022 32.7235 150.811 34.0119 151.947 35.6478C153.218 37.5041 153.828 39.6232 153.828 42.2423C153.828 44.7937 153.277 46.8449 152.133 48.591C150.328 51.3458 147.666 52.702 144.335 52.5579C141.411 52.4308 139.147 51.1509 137.494 48.6843C135.876 46.2855 135.342 42.2593 136.189 38.8942C136.503 37.6736 136.85 36.8599 137.452 35.9275C138.8 33.8424 140.588 32.5964 142.945 32.1132C143.852 31.9267 146.293 31.9945 147.174 32.2319Z" fill="#212121"/>
<path d="M179.766 26.4511C176.765 26.7732 174.154 28.1887 172.078 30.6299C171.552 31.2487 171.493 31.291 171.442 31.1215C171.408 31.0113 171.247 30.0705 171.077 29.0194C170.916 27.9683 170.764 27.0275 170.738 26.9173L170.696 26.7308H165.102V69.9597H171.544V53.4734L171.942 53.9396C174.103 56.4994 176.57 57.7624 180.062 58.1014C183.08 58.3896 186.352 57.7369 188.708 56.3892C193.514 53.6344 196.269 48.0147 196.015 41.4795C195.87 37.8093 194.989 34.868 193.285 32.3251C191.064 29.0194 187.682 27.0021 183.495 26.485C182.825 26.4002 180.435 26.3748 179.766 26.4511ZM182.207 32.1132C183.029 32.2743 183.673 32.4862 184.368 32.8422C187.75 34.5544 189.564 38.1229 189.403 42.7509C189.276 46.5737 187.767 49.5997 185.131 51.3119C182.275 53.1852 178.087 53.0665 175.341 51.0492C173.832 49.9303 172.578 48.0571 172.018 46.099C171.137 42.9883 171.374 39.2672 172.62 36.7752C173.349 35.3257 174.629 33.9272 175.934 33.1389C176.672 32.6981 177.977 32.2149 178.748 32.0793C179.52 31.9522 181.461 31.9691 182.207 32.1132Z" fill="#212121"/>
<path d="M252.568 26.5194C246.474 27.384 241.973 31.3763 240.464 37.2673C240.015 39.0049 239.913 39.9543 239.905 42.2852C239.905 44.5653 239.998 45.4045 240.43 47.1167C241.617 51.8549 244.787 55.4743 249.212 57.1102C252.068 58.1697 255.942 58.4579 259.061 57.8307C261.672 57.3051 264.02 56.0676 265.842 54.2367C267.52 52.5584 268.648 50.5665 269.233 48.2695C269.351 47.8202 269.445 47.4303 269.445 47.3879C269.445 47.354 267.995 47.3371 266.215 47.3455L262.986 47.371L262.748 48.0321C261.553 51.2955 258.213 53.1687 254.281 52.7703C252.187 52.5584 250.619 51.8719 249.237 50.558C247.872 49.2442 247.11 47.6592 246.771 45.4214C246.703 44.9552 246.643 44.3704 246.643 44.1246V43.6838H269.775L269.843 43.2769C269.877 43.0566 269.911 42.0733 269.902 41.0985C269.894 39.683 269.86 39.1151 269.716 38.3438C268.546 31.9442 264.418 27.7569 258.171 26.6296C256.908 26.4007 253.806 26.3414 252.568 26.5194ZM256.433 31.7323C257.391 31.8764 258.086 32.0713 258.815 32.4104C261.163 33.4954 262.562 35.3347 263.13 38.0725C263.198 38.4116 263.257 38.7337 263.257 38.7761C263.257 38.8184 260.095 38.8523 255.077 38.8523C247.05 38.8523 246.898 38.8523 246.898 38.6913C246.898 38.4285 247.127 37.4114 247.305 36.9028C248.11 34.5803 250.085 32.7579 252.619 31.9951C253.713 31.6645 255.221 31.5628 256.433 31.7323Z" fill="#212121"/>
<path d="M304.324 26.527C298.543 27.2984 294.144 30.7058 292.22 35.8848C291.508 37.8004 291.203 39.7161 291.194 42.1996C291.194 44.0983 291.279 44.9968 291.627 46.5564C292.508 50.5657 294.78 53.8206 298.136 55.8888C302.18 58.3808 308.266 58.8724 312.995 57.1093C315.106 56.3211 316.699 55.2615 318.318 53.5832C320.429 51.3964 321.785 48.4805 322.311 45.0392C322.506 43.6999 322.506 40.8858 322.302 39.4957C321.251 32.2824 316.369 27.434 309.257 26.5186C308.028 26.366 305.502 26.366 304.324 26.527ZM309.24 32.24C312.037 32.9859 314.368 35.3593 315.335 38.4192C315.725 39.6652 315.843 40.5298 315.843 42.242C315.843 44.0474 315.716 44.912 315.25 46.3021C314.182 49.4977 311.817 51.7269 308.791 52.3965C307.986 52.5746 305.757 52.5915 305.002 52.4305C302.688 51.9304 300.925 50.7437 299.62 48.8111C298.848 47.6753 298.365 46.4462 298.035 44.8273C297.823 43.7423 297.823 40.7417 298.035 39.6652C298.467 37.5122 299.332 35.8 300.654 34.4523C301.883 33.1978 303.307 32.435 305.002 32.1044C305.926 31.9264 308.367 32.0027 309.24 32.24Z" fill="#212121"/>
<path d="M112.591 57.7963L115.829 57.8217L119.067 57.8386L119.101 49.0064C119.135 39.4791 119.118 39.9707 119.584 38.1483C120.144 35.9953 121.678 34.1475 123.534 33.3931C124.5 33.0032 125.162 32.91 127.45 32.8591L129.586 32.8083V26.7054L127.874 26.7562C125.534 26.824 124.305 27.0868 122.847 27.8158C121.491 28.4939 120.508 29.3584 119.635 30.6468C119.355 31.0622 119.118 31.3758 119.093 31.3588C119.076 31.3419 118.906 30.2993 118.703 29.0448L118.355 26.7732L115.448 26.7478L112.549 26.7308L112.591 57.7963Z" fill="#212121"/>
<path d="M274.615 57.8386H281.048L281.082 49.2098C281.125 39.8605 281.116 40.0385 281.608 38.1907C282.277 35.6817 284.032 33.7746 286.227 33.1812C287.143 32.9269 288.177 32.8337 289.982 32.8337H291.567V26.7308H290.423C288.999 26.7308 287.77 26.858 286.753 27.1207C285.829 27.3496 284.405 28.0107 283.642 28.5447C282.973 29.0279 282.142 29.9264 281.599 30.7486C281.37 31.0961 281.167 31.3843 281.142 31.3843C281.116 31.3927 280.955 30.4265 280.777 29.2483C280.591 28.0785 280.43 27.0275 280.404 26.9173L280.362 26.7308H274.615V57.8386Z" fill="#212121"/>
<path d="M1.04368 30.2823C0.450345 30.4349 0.0604378 30.7485 -0.236231 31.3079C-0.388804 31.5961 -0.39728 32.2234 -0.422709 50.032C-0.431185 62.1869 -0.414232 68.5611 -0.354899 68.773C-0.134516 69.5782 0.628347 70.1546 1.45902 70.1461C1.78959 70.1461 3.43399 69.6375 8.35021 68.0186C11.9102 66.8489 14.8854 65.8571 14.9617 65.8148C15.2329 65.6707 15.6567 65.179 15.7839 64.8569C15.9026 64.5772 15.9195 62.9583 15.9195 50.1845V35.8342L15.6991 35.385C15.555 35.1138 15.3516 34.8595 15.1566 34.7323C14.8091 34.5035 2.18798 30.3247 1.62854 30.2569C1.45054 30.2314 1.18778 30.2484 1.04368 30.2823Z" fill="#212121"/>
</g>
<defs>
<clipPath id="clip0_47_4794">
<rect width="322" height="70" fill="white"/>
</clipPath>
</defs>
</svg>
