<svg width="271" height="68" viewBox="0 0 271 68" fill="none" xmlns="http://www.w3.org/2000/svg">
<path d="M13.4216 42.5717C13.3246 42.5696 13.2325 42.5375 13.1555 42.4787L10.6061 40.5358C10.4888 40.4459 10.4238 40.3104 10.4267 40.1622C10.4297 40.0141 10.5012 39.8809 10.6226 39.7969L18.9015 34.0429C18.9811 33.9876 19.0741 33.9586 19.1697 33.9613C19.3681 33.9657 19.5404 34.0965 19.5979 34.2862L20.518 37.361C20.5755 37.5507 20.5041 37.7546 20.3406 37.8683L13.6908 42.4904C13.6112 42.5457 13.5176 42.5733 13.4205 42.5713L13.4216 42.5717Z" fill="#2050F6"/>
<path d="M9.60306 31.3366C9.53595 31.2666 9.49359 31.1787 9.48064 31.0827L9.05243 27.9069C9.03309 27.7604 9.08293 27.6186 9.18981 27.516C9.29669 27.4133 9.44153 27.3697 9.58678 27.3961L19.5112 29.1791C19.6066 29.1962 19.6929 29.2415 19.7586 29.3109C19.8957 29.4543 19.925 29.6686 19.8314 29.8433L18.307 32.6679C18.2135 32.8426 18.0187 32.9364 17.8227 32.9012L9.85091 31.4694C9.75555 31.4522 9.66976 31.4055 9.60256 31.3356L9.60306 31.3366Z" fill="#212121"/>
<path d="M14.8507 20.693C14.8528 20.596 14.885 20.5039 14.9438 20.4269L16.8875 17.8786C16.9775 17.7613 17.113 17.6963 17.2612 17.6993C17.4094 17.7023 17.5427 17.7738 17.6267 17.8951L23.383 26.1706C23.4384 26.2501 23.4674 26.3431 23.4647 26.4387C23.4603 26.637 23.3294 26.8092 23.1396 26.8667L20.0636 27.7864C19.8738 27.8439 19.6698 27.7726 19.5561 27.6091L14.9321 20.962C14.8768 20.8825 14.8491 20.7889 14.8511 20.6919L14.8507 20.693Z" fill="#212121"/>
<path d="M26.0906 16.876C26.1606 16.8089 26.2485 16.7666 26.3446 16.7537L29.5216 16.3256C29.6682 16.3063 29.81 16.3561 29.9127 16.4629C30.0154 16.5698 30.0591 16.7146 30.0327 16.8598L28.2489 26.7801C28.2318 26.8754 28.1865 26.9617 28.117 27.0274C27.9736 27.1645 27.7593 27.1938 27.5844 27.1002L24.7587 25.5764C24.5839 25.4829 24.4901 25.2883 24.5253 25.0923L25.9577 17.1238C25.9749 17.0284 26.0216 16.9427 26.0916 16.8755L26.0906 16.876Z" fill="#212121"/>
<path d="M36.7385 22.1216C36.8355 22.1237 36.9276 22.1559 37.0047 22.2146L39.554 24.1576C39.6713 24.2475 39.7364 24.383 39.7334 24.5311C39.7304 24.6792 39.6589 24.8125 39.5375 24.8965L31.2586 30.6504C31.179 30.7057 31.086 30.7347 30.9904 30.7321C30.792 30.7276 30.6197 30.5968 30.5623 30.4071L29.6421 27.3324C29.5847 27.1427 29.656 26.9387 29.8195 26.8251L36.4693 22.2029C36.5489 22.1476 36.6426 22.12 36.7396 22.122L36.7385 22.1216Z" fill="#212121"/>
<path d="M40.5571 33.3568C40.6242 33.4268 40.6665 33.5146 40.6795 33.6107L41.1077 36.7864C41.127 36.9329 41.0772 37.0747 40.9703 37.1774C40.8634 37.28 40.7186 37.3236 40.5733 37.2972L30.6489 35.5142C30.5535 35.4971 30.4672 35.4518 30.4015 35.3824C30.2644 35.2391 30.2351 35.0248 30.3287 34.85L31.8531 32.0255C31.9467 31.8507 32.1414 31.7569 32.3374 31.7921L40.3092 33.224C40.4046 33.2411 40.4904 33.2878 40.5575 33.3578L40.5571 33.3568Z" fill="#212121"/>
<path d="M35.3094 44.0004C35.3073 44.0973 35.2751 44.1894 35.2163 44.2665L33.2726 46.8147C33.1826 46.932 33.0471 46.997 32.8989 46.9941C32.7507 46.9911 32.6174 46.9196 32.5334 46.7982L26.7771 38.5227C26.7217 38.4432 26.6927 38.3502 26.6954 38.2547C26.6998 38.0563 26.8307 37.8841 27.0205 37.8267L30.0965 36.9069C30.2863 36.8495 30.4903 36.9208 30.604 37.0842L35.228 43.7313C35.2834 43.8108 35.311 43.9045 35.309 44.0015L35.3094 44.0004Z" fill="#212121"/>
<path d="M24.0696 47.8173C23.9995 47.8844 23.9116 47.9267 23.8156 47.9397L20.6385 48.3677C20.4919 48.3871 20.3501 48.3372 20.2474 48.2304C20.1447 48.1236 20.1011 47.9788 20.1274 47.8336L21.9112 37.9132C21.9283 37.8179 21.9736 37.7316 22.0431 37.666C22.1865 37.5289 22.4009 37.4996 22.5757 37.5931L25.4014 39.1169C25.5762 39.2104 25.6701 39.4051 25.6348 39.601L24.2024 47.5696C24.1852 47.6649 24.1385 47.7506 24.0685 47.8178L24.0696 47.8173Z" fill="#212121"/>
<path d="M53.0309 21.4235L58.5401 38.7341H58.7516L64.2719 21.4235H69.6141L61.7566 44.2076H55.5462L47.6776 21.4235H53.0309Z" fill="#212121"/>
<path d="M74.0426 21.4235V44.2076H69.2234V21.4235H74.0426Z" fill="#212121"/>
<path d="M87.2384 27.9761C87.1494 27.0787 86.7673 26.3815 86.0921 25.8846C85.4169 25.3877 84.5005 25.1392 83.343 25.1392C82.5565 25.1392 81.8925 25.2505 81.3508 25.473C80.8092 25.6881 80.3937 25.9884 80.1043 26.3741C79.8224 26.7598 79.6814 27.1974 79.6814 27.6869C79.6666 28.0948 79.7519 28.4508 79.9374 28.7549C80.1303 29.059 80.3937 29.3223 80.7276 29.5448C81.0615 29.7598 81.4473 29.949 81.8851 30.1121C82.3228 30.2679 82.7903 30.4014 83.2874 30.5126L85.3353 31.0021C86.3295 31.2246 87.2421 31.5213 88.0731 31.8921C88.9042 32.263 89.6239 32.7191 90.2323 33.2605C90.8407 33.802 91.3119 34.4398 91.6458 35.174C91.9871 35.9083 92.1614 36.7501 92.1688 37.6994C92.1614 39.0938 91.8053 40.3027 91.1004 41.3262C90.4029 42.3423 89.3939 43.1322 88.0731 43.6958C86.7598 44.2521 85.1757 44.5302 83.3208 44.5302C81.4807 44.5302 79.878 44.2484 78.5128 43.6847C77.155 43.1211 76.0939 42.2867 75.3297 41.1816C74.5729 40.0691 74.1759 38.6933 74.1388 37.0542H78.8022C78.8541 37.8181 79.073 38.4559 79.4588 38.9677C79.8521 39.472 80.3751 39.854 81.0281 40.1136C81.6884 40.3657 82.4341 40.4918 83.2651 40.4918C84.0813 40.4918 84.7899 40.3732 85.3909 40.1358C85.9993 39.8985 86.4705 39.5684 86.8044 39.1457C87.1383 38.7229 87.3052 38.2371 87.3052 37.6883C87.3052 37.1766 87.1531 36.7464 86.8489 36.3978C86.5521 36.0492 86.1143 35.7525 85.5356 35.5078C84.9643 35.263 84.2631 35.0405 83.4321 34.8403L80.9502 34.2173C79.0285 33.75 77.5111 33.0195 76.3982 32.0256C75.2852 31.0318 74.7324 29.6931 74.7398 28.0095C74.7324 26.63 75.0997 25.4248 75.8417 24.3939C76.5911 23.3629 77.6187 22.5582 78.9246 21.9797C80.2305 21.4012 81.7144 21.112 83.3764 21.112C85.0681 21.112 86.5447 21.4012 87.806 21.9797C89.0748 22.5582 90.0616 23.3629 90.7665 24.3939C91.4714 25.4248 91.835 26.6189 91.8572 27.9761H87.2384Z" fill="#212121"/>
<path d="M91.4081 25.3951V21.4235H110.128V25.3951H103.15V44.2076H98.3864V25.3951H91.4081Z" fill="#212121"/>
<path d="M110.077 44.2076V21.4235H119.07C120.791 21.4235 122.26 21.7312 123.477 22.3468C124.701 22.955 125.633 23.8191 126.271 24.939C126.916 26.0515 127.239 27.3605 127.239 28.8661C127.239 30.3791 126.912 31.6808 126.259 32.771C125.607 33.8539 124.661 34.6845 123.421 35.263C122.19 35.8415 120.698 36.1308 118.947 36.1308H112.926V32.2593H118.168C119.088 32.2593 119.853 32.1332 120.461 31.881C121.069 31.6289 121.522 31.2506 121.819 30.7463C122.123 30.2419 122.275 29.6152 122.275 28.8661C122.275 28.1096 122.123 27.4718 121.819 26.9526C121.522 26.4334 121.066 26.0404 120.45 25.7734C119.841 25.4989 119.073 25.3617 118.146 25.3617H114.896V44.2076H110.077ZM122.386 33.839L128.051 44.2076H122.731L117.189 33.839H122.386Z" fill="#212121"/>
<path d="M131.439 44.2076H126.275L134.144 21.4235H140.354L148.212 44.2076H143.047L137.338 26.63H137.16L131.439 44.2076ZM131.116 35.2519H143.315V39.0122H131.116V35.2519Z" fill="#212121"/>
<path d="M147.821 44.2076V21.4235H152.64V40.236H162.412V44.2076H147.821Z" fill="#212121"/>
<path d="M125.284 52.6439V47.6959H126.159V49.5466H126.195C126.24 49.4564 126.304 49.3606 126.386 49.2591C126.468 49.156 126.579 49.0682 126.72 48.9958C126.86 48.9217 127.039 48.8846 127.256 48.8846C127.543 48.8846 127.802 48.9579 128.032 49.1045C128.264 49.2494 128.448 49.4645 128.583 49.7495C128.72 50.033 128.789 50.3809 128.789 50.7933C128.789 51.2008 128.722 51.5471 128.588 51.8321C128.454 52.1172 128.272 52.3347 128.042 52.4845C127.811 52.6343 127.55 52.7092 127.259 52.7092C127.046 52.7092 126.87 52.6737 126.729 52.6029C126.589 52.532 126.476 52.4466 126.391 52.3468C126.307 52.2453 126.242 52.1495 126.195 52.0593H126.144V52.6439H125.284ZM126.142 50.7884C126.142 51.0284 126.176 51.2386 126.244 51.419C126.313 51.5994 126.412 51.7403 126.541 51.8418C126.671 51.9417 126.829 51.9916 127.015 51.9916C127.208 51.9916 127.37 51.9401 127.5 51.837C127.631 51.7323 127.729 51.5897 127.795 51.4093C127.863 51.2273 127.897 51.0204 127.897 50.7884C127.897 50.5581 127.864 50.3535 127.798 50.1748C127.732 49.996 127.633 49.8559 127.503 49.7544C127.372 49.6529 127.21 49.6022 127.015 49.6022C126.828 49.6022 126.669 49.6513 126.538 49.7495C126.408 49.8478 126.309 49.9855 126.241 50.1627C126.175 50.3399 126.142 50.5484 126.142 50.7884Z" fill="#212121"/>
<path d="M129.678 54.0355C129.559 54.0355 129.448 54.0259 129.347 54.0066C129.247 53.9888 129.167 53.9679 129.107 53.9437L129.31 53.2624C129.438 53.2995 129.551 53.3172 129.651 53.3156C129.751 53.314 129.839 53.2826 129.915 53.2214C129.992 53.1618 130.057 53.0619 130.11 52.9218L130.185 52.7212L128.839 48.9329H129.767L130.623 51.7355H130.661L131.52 48.9329H132.45L130.964 53.0933C130.894 53.2898 130.802 53.4581 130.688 53.5983C130.574 53.74 130.433 53.8479 130.268 53.922C130.103 53.9977 129.907 54.0355 129.678 54.0355Z" fill="#212121"/>
<path d="M133.78 47.4733H135.821C136.181 47.4733 136.493 47.541 136.76 47.6763C137.031 47.8069 137.24 47.993 137.388 48.2347C137.536 48.4716 137.61 48.7569 137.61 49.0905C137.61 49.4144 137.536 49.6997 137.388 49.9462C137.24 50.1879 137.031 50.3765 136.76 50.5119C136.493 50.6424 136.181 50.7077 135.821 50.7077H134.63V52.5497H133.78V47.4733ZM134.63 48.1985V49.9825H135.747C135.949 49.9825 136.124 49.9462 136.272 49.8737C136.424 49.8012 136.54 49.6972 136.619 49.5619C136.703 49.4265 136.745 49.2693 136.745 49.0905C136.745 48.9068 136.703 48.7496 136.619 48.6191C136.54 48.4837 136.427 48.3798 136.279 48.3073C136.131 48.2347 135.956 48.1985 135.754 48.1985H134.63Z" fill="#212121"/>
<path d="M138.109 48.8367H138.818L138.966 49.7576L138.804 49.5836C138.873 49.4531 138.951 49.3322 139.04 49.221C139.134 49.105 139.26 49.0131 139.417 48.9454C139.575 48.8729 139.777 48.8367 140.024 48.8367H140.201V49.5691H139.846C139.609 49.5691 139.422 49.6223 139.284 49.7287C139.146 49.835 139.048 49.9728 138.988 50.142C138.934 50.3112 138.907 50.4925 138.907 50.6859V52.5497H138.109V48.8367Z" fill="#212121"/>
<path d="M142.077 51.926C142.303 51.926 142.498 51.8728 142.661 51.7665C142.828 51.6601 142.959 51.5151 143.053 51.3313C143.146 51.1428 143.193 50.9301 143.193 50.6932C143.193 50.4514 143.146 50.2387 143.053 50.055C142.959 49.8713 142.828 49.7262 142.661 49.6199C142.498 49.5135 142.303 49.4603 142.077 49.4603C141.85 49.4603 141.653 49.5135 141.485 49.6199C141.323 49.7262 141.194 49.8713 141.101 50.055C141.012 50.2387 140.968 50.4514 140.968 50.6932C140.968 50.9301 141.012 51.1428 141.101 51.3313C141.194 51.5151 141.323 51.6601 141.485 51.7665C141.653 51.8728 141.85 51.926 142.077 51.926ZM142.077 52.5932C141.697 52.5932 141.36 52.5134 141.064 52.3539C140.773 52.1943 140.546 51.9719 140.384 51.6867C140.226 51.4014 140.147 51.0703 140.147 50.6932C140.147 50.316 140.226 49.9849 140.384 49.6997C140.546 49.4144 140.773 49.192 141.064 49.0324C141.36 48.8729 141.697 48.7931 142.077 48.7931C142.461 48.7931 142.799 48.8729 143.09 49.0324C143.38 49.192 143.605 49.4144 143.762 49.6997C143.925 49.9849 144.006 50.316 144.006 50.6932C144.006 51.0703 143.925 51.4014 143.762 51.6867C143.605 51.9719 143.38 52.1943 143.09 52.3539C142.799 52.5134 142.461 52.5932 142.077 52.5932Z" fill="#212121"/>
<path d="M146.6 48.7931C146.945 48.7931 147.251 48.8681 147.517 49.018C147.788 49.1678 148 49.3854 148.153 49.6706C148.311 49.9559 148.39 50.2967 148.39 50.6932C148.39 51.0751 148.311 51.4087 148.153 51.6939C148 51.9792 147.791 52.2016 147.525 52.3611C147.258 52.5158 146.95 52.5932 146.6 52.5932C146.255 52.5932 145.972 52.5207 145.75 52.3756C145.528 52.2306 145.366 52.0517 145.262 51.839L145.373 51.6577V54.0001H144.575V48.8366H145.27L145.425 49.7576L145.24 49.5764C145.358 49.3685 145.526 49.1872 145.743 49.0324C145.965 48.8729 146.25 48.7931 146.6 48.7931ZM146.467 49.4603C146.246 49.4603 146.051 49.5135 145.883 49.6199C145.721 49.7214 145.592 49.864 145.499 50.0477C145.41 50.2266 145.366 50.4369 145.366 50.6786C145.366 50.9252 145.41 51.1428 145.499 51.3313C145.592 51.5199 145.721 51.6674 145.883 51.7737C146.051 51.8801 146.246 51.9333 146.467 51.9333C146.689 51.9333 146.884 51.8801 147.051 51.7737C147.219 51.6674 147.347 51.5223 147.436 51.3386C147.53 51.15 147.576 50.9349 147.576 50.6932C147.576 50.4466 147.53 50.2314 147.436 50.0477C147.347 49.864 147.219 49.7214 147.051 49.6199C146.884 49.5135 146.689 49.4603 146.467 49.4603Z" fill="#212121"/>
<path d="M149.037 47.4733H149.887V49.6054H152.29V47.4733H153.14V52.5497H152.29V50.3451H149.887V52.5497H149.037V47.4733Z" fill="#212121"/>
<path d="M155.725 52.5932C155.331 52.5932 154.988 52.5158 154.698 52.3611C154.407 52.2016 154.183 51.9792 154.025 51.694C153.867 51.4087 153.788 51.0775 153.788 50.7004C153.788 50.3185 153.865 49.9849 154.017 49.6997C154.175 49.4144 154.394 49.192 154.675 49.0324C154.956 48.8729 155.282 48.7931 155.651 48.7931C156.016 48.7931 156.334 48.8656 156.605 49.0107C156.881 49.1509 157.096 49.3539 157.248 49.6199C157.406 49.8858 157.49 50.2 157.5 50.5626C157.5 50.611 157.497 50.6618 157.492 50.7149C157.487 50.7633 157.483 50.8116 157.478 50.86H154.624C154.624 50.8648 154.624 50.872 154.624 50.8817C154.624 50.8914 154.624 50.9011 154.624 50.9107C154.634 51.1186 154.68 51.3024 154.764 51.4619C154.853 51.6166 154.976 51.7375 155.134 51.8245C155.292 51.9115 155.474 51.955 155.681 51.955C155.922 51.955 156.127 51.897 156.295 51.781C156.467 51.665 156.581 51.5054 156.635 51.3024H157.433C157.389 51.5441 157.29 51.764 157.138 51.9622C156.99 52.1557 156.795 52.3104 156.553 52.4264C156.317 52.5376 156.041 52.5932 155.725 52.5932ZM154.653 50.287H156.672C156.637 50.0115 156.529 49.7987 156.346 49.6489C156.169 49.499 155.94 49.4241 155.659 49.4241C155.491 49.4241 155.333 49.4603 155.186 49.5328C155.043 49.6005 154.922 49.6997 154.823 49.8302C154.73 49.9559 154.673 50.1082 154.653 50.287Z" fill="#212121"/>
<path d="M158.071 48.8367H158.781L158.929 49.7576L158.766 49.5836C158.835 49.4531 158.914 49.3322 159.003 49.221C159.097 49.105 159.222 49.0131 159.38 48.9454C159.538 48.8729 159.74 48.8367 159.986 48.8367H160.164V49.5691H159.809C159.572 49.5691 159.385 49.6223 159.247 49.7287C159.109 49.835 159.01 49.9728 158.951 50.142C158.897 50.3112 158.87 50.4925 158.87 50.6859V52.5497H158.071V48.8367Z" fill="#212121"/>
<path d="M162.039 51.926C162.266 51.926 162.461 51.8728 162.624 51.7665C162.791 51.6601 162.922 51.5151 163.015 51.3313C163.109 51.1428 163.156 50.9301 163.156 50.6932C163.156 50.4514 163.109 50.2387 163.015 50.055C162.922 49.8713 162.791 49.7262 162.624 49.6199C162.461 49.5135 162.266 49.4603 162.039 49.4603C161.813 49.4603 161.616 49.5135 161.448 49.6199C161.285 49.7262 161.157 49.8713 161.063 50.055C160.975 50.2387 160.93 50.4514 160.93 50.6932C160.93 50.9301 160.975 51.1428 161.063 51.3313C161.157 51.5151 161.285 51.6601 161.448 51.7665C161.616 51.8728 161.813 51.926 162.039 51.926ZM162.039 52.5932C161.66 52.5932 161.322 52.5134 161.027 52.3539C160.736 52.1943 160.509 51.9719 160.346 51.6867C160.189 51.4014 160.11 51.0703 160.11 50.6932C160.11 50.316 160.189 49.9849 160.346 49.6997C160.509 49.4144 160.736 49.192 161.027 49.0324C161.322 48.8729 161.66 48.7931 162.039 48.7931C162.424 48.7931 162.762 48.8729 163.052 49.0324C163.343 49.192 163.567 49.4144 163.725 49.6997C163.888 49.9849 163.969 50.316 163.969 50.6932C163.969 51.0703 163.888 51.4014 163.725 51.6867C163.567 51.9719 163.343 52.1943 163.052 52.3539C162.762 52.5134 162.424 52.5932 162.039 52.5932Z" fill="#212121"/>
<path d="M235 26C235 22.6863 237.686 20 241 20H257C260.314 20 263 22.6863 263 26V42C263 45.3137 260.314 48 257 48H241C237.686 48 235 45.3137 235 42V26Z" fill="white"/>
<g clip-path="url(#clip0_308_10792)">
<path d="M254.333 29.3333C254.333 28.9651 254.035 28.6666 253.667 28.6666H247.667V39.3333H253.667C254.035 39.3333 254.333 39.0348 254.333 38.6666V29.3333ZM251.195 31.5286C251.456 31.2682 251.878 31.2682 252.138 31.5286C252.398 31.7889 252.398 32.2109 252.138 32.4713L250.609 33.9999L252.138 35.5286C252.398 35.7889 252.398 36.2109 252.138 36.4713C251.878 36.7316 251.456 36.7316 251.195 36.4713L249.195 34.4713C248.935 34.2109 248.935 33.7889 249.195 33.5286L251.195 31.5286ZM243.667 38.6666C243.667 39.0348 243.965 39.3333 244.333 39.3333H246.333V28.6666H244.333C243.965 28.6666 243.667 28.9651 243.667 29.3333V38.6666ZM255.667 38.6666C255.667 39.7712 254.771 40.6666 253.667 40.6666H244.333C243.229 40.6666 242.333 39.7712 242.333 38.6666V29.3333C242.333 28.2287 243.229 27.3333 244.333 27.3333H253.667C254.771 27.3333 255.667 28.2287 255.667 29.3333V38.6666Z" fill="#212121"/>
</g>
<defs>
<clipPath id="clip0_308_10792">
<rect width="16" height="16" fill="white" transform="translate(241 26)"/>
</clipPath>
</defs>
</svg>
