<svg width="48" height="48" viewBox="0 0 48 48" fill="none" xmlns="http://www.w3.org/2000/svg">
<path d="M13.8098 25.9257C13.7327 25.924 13.6595 25.8982 13.5982 25.851L11.5717 24.2904C11.4784 24.2182 11.4267 24.1094 11.4291 23.9904C11.4314 23.8714 11.4883 23.7644 11.5848 23.6969L18.1659 19.0754C18.2292 19.031 18.3031 19.0077 18.3791 19.0099C18.5368 19.0134 18.6738 19.1185 18.7194 19.2709L19.4509 21.7404C19.4965 21.8928 19.4398 22.0566 19.3099 22.1479L14.0238 25.8604C13.9605 25.9048 13.8861 25.927 13.8089 25.9254L13.8098 25.9257Z" fill="#2050F6"/>
<path d="M10.7745 16.9016C10.7211 16.8454 10.6874 16.7748 10.6771 16.6977L10.3367 14.1469C10.3214 14.0293 10.361 13.9154 10.446 13.8329C10.5309 13.7505 10.6461 13.7154 10.7615 13.7366L18.6507 15.1687C18.7265 15.1825 18.7951 15.2188 18.8473 15.2746C18.9563 15.3898 18.9796 15.5619 18.9052 15.7022L17.6934 17.9709C17.6191 18.1112 17.4643 18.1866 17.3085 18.1583L10.9715 17.0082C10.8957 16.9945 10.8275 16.957 10.7741 16.9008L10.7745 16.9016Z" fill="#212121"/>
<path d="M14.9459 8.35286C14.9475 8.27499 14.9731 8.20105 15.0198 8.13916L16.5649 6.09242C16.6365 5.99823 16.7442 5.946 16.862 5.94838C16.9798 5.95076 17.0857 6.00821 17.1525 6.10565L21.7284 12.7525C21.7724 12.8163 21.7954 12.891 21.7933 12.9678C21.7898 13.1271 21.6858 13.2654 21.5349 13.3115L19.0897 14.0503C18.9388 14.0964 18.7766 14.0391 18.6863 13.9078L15.0105 8.56897C14.9665 8.50511 14.9446 8.42989 14.9462 8.35199L14.9459 8.35286Z" fill="#212121"/>
<path d="M23.8806 5.28716C23.9363 5.23328 24.0062 5.19927 24.0825 5.18888L26.608 4.84508C26.7246 4.82955 26.8373 4.86957 26.9189 4.95538C27.0006 5.04119 27.0353 5.15748 27.0143 5.27409L25.5963 13.242C25.5827 13.3186 25.5467 13.3879 25.4915 13.4406C25.3775 13.5507 25.2071 13.5743 25.0681 13.4991L22.8219 12.2752C22.6829 12.2001 22.6083 12.0438 22.6364 11.8864L23.775 5.48615C23.7886 5.40958 23.8258 5.34071 23.8814 5.28676L23.8806 5.28716Z" fill="#212121"/>
<path d="M32.3449 9.50021C32.422 9.50188 32.4952 9.52773 32.5565 9.57491L34.583 11.1355C34.6763 11.2077 34.728 11.3165 34.7256 11.4355C34.7233 11.5545 34.6664 11.6615 34.5699 11.7289L27.9888 16.3504C27.9256 16.3949 27.8516 16.4182 27.7756 16.416C27.6179 16.4125 27.481 16.3074 27.4353 16.155L26.7038 13.6854C26.6582 13.5331 26.7149 13.3692 26.8449 13.278L32.131 9.56552C32.1942 9.5211 32.2687 9.49892 32.3458 9.50052L32.3449 9.50021Z" fill="#212121"/>
<path d="M35.3804 18.5243C35.4338 18.5805 35.4674 18.6511 35.4777 18.7282L35.8181 21.279C35.8335 21.3966 35.7939 21.5105 35.7089 21.593C35.624 21.6754 35.5088 21.7104 35.3934 21.6892L27.5042 20.2571C27.4284 20.2434 27.3598 20.207 27.3076 20.1513C27.1985 20.0361 27.1753 19.864 27.2497 19.7237L28.4614 17.455C28.5358 17.3146 28.6906 17.2393 28.8464 17.2676L35.1834 18.4176C35.2592 18.4314 35.3274 18.4689 35.3808 18.5251L35.3804 18.5243Z" fill="#212121"/>
<path d="M31.2089 27.073C31.2073 27.1509 31.1817 27.2248 31.135 27.2867L29.5898 29.3335C29.5183 29.4277 29.4106 29.4799 29.2928 29.4775C29.175 29.4751 29.069 29.4177 29.0022 29.3202L24.4264 22.6734C24.3824 22.6095 24.3594 22.5348 24.3615 22.4581C24.365 22.2988 24.469 22.1605 24.6199 22.1144L27.0651 21.3756C27.2159 21.3295 27.3781 21.3868 27.4685 21.518L31.1443 26.8569C31.1882 26.9208 31.2102 26.996 31.2086 27.0739L31.2089 27.073Z" fill="#212121"/>
<path d="M22.2741 30.1389C22.2184 30.1928 22.1485 30.2268 22.0722 30.2372L19.5466 30.581C19.4301 30.5965 19.3174 30.5565 19.2357 30.4707C19.1541 30.3849 19.1194 30.2686 19.1404 30.1519L20.5583 22.184C20.572 22.1075 20.608 22.0382 20.6632 21.9854C20.7772 21.8753 20.9476 21.8518 21.0866 21.9269L23.3328 23.1508C23.4717 23.2259 23.5463 23.3823 23.5183 23.5396L22.3797 29.9399C22.366 30.0165 22.3289 30.0853 22.2732 30.1393L22.2741 30.1389Z" fill="#212121"/>
<path d="M12.4468 34.3872L13.7403 38.4936H13.7899L15.086 34.3872H16.3402L14.4954 39.7921H13.0374L11.19 34.3872H12.4468Z" fill="#212121"/>
<path d="M17.3799 34.3872V39.7921H16.2485V34.3872H17.3799Z" fill="#212121"/>
<path d="M20.4781 35.9416C20.4572 35.7287 20.3674 35.5634 20.2089 35.4455C20.0504 35.3276 19.8353 35.2687 19.5635 35.2687C19.3789 35.2687 19.2229 35.2951 19.0958 35.3478C18.9686 35.3989 18.8711 35.4701 18.8031 35.5616C18.7369 35.6531 18.7038 35.7569 18.7038 35.873C18.7003 35.9698 18.7204 36.0542 18.7639 36.1264C18.8092 36.1985 18.8711 36.261 18.9495 36.3137C19.0278 36.3648 19.1184 36.4096 19.2212 36.4483C19.324 36.4853 19.4337 36.517 19.5504 36.5434L20.0312 36.6595C20.2647 36.7123 20.4789 36.7826 20.674 36.8706C20.8691 36.9586 21.0381 37.0668 21.181 37.1952C21.3238 37.3236 21.4344 37.475 21.5128 37.6491C21.5929 37.8233 21.6339 38.023 21.6356 38.2482C21.6339 38.579 21.5503 38.8658 21.3848 39.1086C21.221 39.3496 20.9841 39.537 20.674 39.6707C20.3657 39.8026 19.9938 39.8686 19.5583 39.8686C19.1263 39.8686 18.75 39.8018 18.4295 39.668C18.1107 39.5343 17.8616 39.3364 17.6821 39.0743C17.5045 38.8103 17.4113 38.484 17.4026 38.0951H18.4974C18.5096 38.2764 18.561 38.4277 18.6516 38.5491C18.7439 38.6687 18.8667 38.7593 19.02 38.8209C19.175 38.8807 19.3501 38.9106 19.5452 38.9106C19.7368 38.9106 19.9032 38.8825 20.0443 38.8262C20.1871 38.7699 20.2978 38.6916 20.3762 38.5913C20.4545 38.491 20.4937 38.3758 20.4937 38.2456C20.4937 38.1242 20.458 38.0221 20.3866 37.9394C20.3169 37.8567 20.2141 37.7864 20.0783 37.7283C19.9441 37.6702 19.7795 37.6175 19.5844 37.57L19.0017 37.4222C18.5505 37.3113 18.1943 37.138 17.933 36.9023C17.6717 36.6665 17.5419 36.3489 17.5437 35.9496C17.5419 35.6223 17.6281 35.3364 17.8023 35.0918C17.9783 34.8473 18.2196 34.6564 18.5261 34.5192C18.8327 34.3819 19.1811 34.3133 19.5713 34.3133C19.9685 34.3133 20.3152 34.3819 20.6113 34.5192C20.9092 34.6564 21.1409 34.8473 21.3064 35.0918C21.4719 35.3364 21.5572 35.6197 21.5625 35.9416H20.4781Z" fill="#212121"/>
<path d="M21.457 35.3294V34.3872H25.8521V35.3294H24.2138V39.7921H23.0954V35.3294H21.457Z" fill="#212121"/>
<path d="M25.8401 39.7921V34.3872H27.9514C28.3555 34.3872 28.7005 34.4602 28.9862 34.6063C29.2736 34.7505 29.4922 34.9555 29.642 35.2212C29.7936 35.4851 29.8694 35.7956 29.8694 36.1528C29.8694 36.5117 29.7927 36.8205 29.6394 37.0791C29.4861 37.336 29.264 37.533 28.9731 37.6702C28.6839 37.8075 28.3338 37.8761 27.9227 37.8761H26.509V36.9577H27.7397C27.9558 36.9577 28.1352 36.9278 28.278 36.868C28.4209 36.8081 28.5271 36.7184 28.5968 36.5988C28.6682 36.4791 28.704 36.3305 28.704 36.1528C28.704 35.9733 28.6682 35.822 28.5968 35.6988C28.5271 35.5757 28.42 35.4824 28.2754 35.4191C28.1326 35.354 27.9523 35.3214 27.7345 35.3214H26.9715V39.7921H25.8401ZM28.7301 37.3324L30.0601 39.7921H28.8111L27.5098 37.3324H28.7301Z" fill="#212121"/>
<path d="M30.8555 39.7921H29.6431L31.4905 34.3872H32.9485L34.7933 39.7921H33.5809L32.2404 35.6223H32.1986L30.8555 39.7921ZM30.7797 37.6676H33.6436V38.5596H30.7797V37.6676Z" fill="#212121"/>
<path d="M34.7016 39.7921V34.3872H35.833V38.8499H38.1273V39.7921H34.7016Z" fill="#212121"/>
<path d="M20.1158 43.4295V41.0984H20.5237V41.9703H20.5406C20.5617 41.9278 20.5913 41.8827 20.6296 41.8349C20.668 41.7863 20.7198 41.7449 20.7852 41.7108C20.8505 41.6759 20.9339 41.6584 21.0353 41.6584C21.1691 41.6584 21.2897 41.693 21.3971 41.762C21.5053 41.8303 21.5909 41.9316 21.654 42.0659C21.7179 42.1995 21.7498 42.3634 21.7498 42.5576C21.7498 42.7496 21.7186 42.9127 21.6563 43.047C21.5939 43.1813 21.509 43.2838 21.4016 43.3544C21.2942 43.4249 21.1725 43.4602 21.0365 43.4602C20.9373 43.4602 20.855 43.4435 20.7897 43.4101C20.7243 43.3767 20.6717 43.3365 20.6319 43.2895C20.5928 43.2417 20.5624 43.1965 20.5406 43.154H20.517V43.4295H20.1158ZM20.5158 42.5553C20.5158 42.6684 20.5316 42.7674 20.5632 42.8524C20.5955 42.9374 20.6417 43.0038 20.7018 43.0516C20.7626 43.0986 20.8363 43.1222 20.9227 43.1222C21.0128 43.1222 21.0883 43.0979 21.1492 43.0493C21.21 43 21.2558 42.9328 21.2867 42.8479C21.3182 42.7621 21.334 42.6646 21.334 42.5553C21.334 42.4468 21.3186 42.3505 21.2878 42.2662C21.257 42.182 21.2111 42.116 21.1503 42.0682C21.0894 42.0204 21.0136 41.9965 20.9227 41.9965C20.8355 41.9965 20.7615 42.0196 20.7006 42.0659C20.6398 42.1122 20.5936 42.1771 20.562 42.2605C20.5312 42.344 20.5158 42.4423 20.5158 42.5553Z" fill="#212121"/>
<path d="M22.1644 44.0851C22.1088 44.0851 22.0573 44.0805 22.01 44.0714C21.9634 44.0631 21.9262 44.0532 21.8984 44.0418L21.9931 43.7209C22.0524 43.7383 22.1054 43.7467 22.152 43.7459C22.1986 43.7451 22.2395 43.7303 22.2748 43.7015C22.3109 43.6734 22.3413 43.6264 22.3661 43.5604L22.401 43.4659L21.7733 41.6812H22.2061L22.605 43.0015H22.623L23.0231 41.6812H23.457L22.7639 43.6412C22.7316 43.7338 22.6888 43.813 22.6354 43.8791C22.5821 43.9458 22.5167 43.9967 22.4394 44.0316C22.3627 44.0672 22.2711 44.0851 22.1644 44.0851Z" fill="#212121"/>
<path d="M24.0771 40.9253H25.0286C25.1963 40.9253 25.3423 40.9571 25.4664 41.0209C25.5928 41.0824 25.6905 41.1701 25.7594 41.284C25.8283 41.3956 25.8628 41.53 25.8628 41.6871C25.8628 41.8397 25.8283 41.9741 25.7594 42.0903C25.6905 42.2041 25.5928 42.293 25.4664 42.3568C25.3423 42.4183 25.1963 42.449 25.0286 42.449H24.4736V43.3168H24.0771V40.9253ZM24.4736 41.2669V42.1073H24.9941C25.0883 42.1073 25.1699 42.0903 25.2388 42.0561C25.3101 42.0219 25.3641 41.973 25.4009 41.9092C25.4399 41.8454 25.4595 41.7714 25.4595 41.6871C25.4595 41.6006 25.4399 41.5265 25.4009 41.465C25.3641 41.4013 25.3113 41.3523 25.2423 41.3181C25.1734 41.284 25.0918 41.2669 24.9975 41.2669H24.4736Z" fill="#212121"/>
<path d="M26.0954 41.5675H26.4263L26.4953 42.0014L26.4194 41.9194C26.4516 41.8579 26.4884 41.801 26.5297 41.7486C26.5734 41.6939 26.632 41.6506 26.7056 41.6188C26.7791 41.5846 26.8733 41.5675 26.9882 41.5675H27.071V41.9126H26.9055C26.7952 41.9126 26.7079 41.9376 26.6435 41.9878C26.5792 42.0379 26.5332 42.1028 26.5056 42.1825C26.4803 42.2622 26.4677 42.3476 26.4677 42.4387V43.3168H26.0954V41.5675Z" fill="#212121"/>
<path d="M27.9455 43.023C28.0512 43.023 28.1419 42.9979 28.2178 42.9478C28.2959 42.8977 28.3568 42.8294 28.4005 42.7428C28.4442 42.654 28.466 42.5537 28.466 42.4421C28.466 42.3283 28.4442 42.2281 28.4005 42.1415C28.3568 42.055 28.2959 41.9866 28.2178 41.9365C28.1419 41.8864 28.0512 41.8613 27.9455 41.8613C27.8397 41.8613 27.7478 41.8864 27.6697 41.9365C27.5938 41.9866 27.5341 42.055 27.4904 42.1415C27.449 42.2281 27.4283 42.3283 27.4283 42.4421C27.4283 42.5537 27.449 42.654 27.4904 42.7428C27.5341 42.8294 27.5938 42.8977 27.6697 42.9478C27.7478 42.9979 27.8397 43.023 27.9455 43.023ZM27.9455 43.3373C27.7685 43.3373 27.6111 43.2997 27.4732 43.2245C27.3376 43.1493 27.2319 43.0446 27.156 42.9102C27.0825 42.7758 27.0457 42.6198 27.0457 42.4421C27.0457 42.2645 27.0825 42.1085 27.156 41.9741C27.2319 41.8397 27.3376 41.7349 27.4732 41.6598C27.6111 41.5846 27.7685 41.547 27.9455 41.547C28.1247 41.547 28.2821 41.5846 28.4177 41.6598C28.5533 41.7349 28.6579 41.8397 28.7314 41.9741C28.8073 42.1085 28.8452 42.2645 28.8452 42.4421C28.8452 42.6198 28.8073 42.7758 28.7314 42.9102C28.6579 43.0446 28.5533 43.1493 28.4177 43.2245C28.2821 43.2997 28.1247 43.3373 27.9455 43.3373Z" fill="#212121"/>
<path d="M30.0547 41.547C30.2156 41.547 30.3581 41.5823 30.4822 41.6529C30.6086 41.7236 30.7074 41.826 30.7786 41.9604C30.8522 42.0948 30.889 42.2554 30.889 42.4421C30.889 42.6221 30.8522 42.7792 30.7786 42.9136C30.7074 43.048 30.6097 43.1528 30.4856 43.2279C30.3615 43.3008 30.2179 43.3373 30.0547 43.3373C29.8938 43.3373 29.7617 43.3031 29.6583 43.2348C29.5548 43.1664 29.479 43.0822 29.4307 42.982L29.4824 42.8965V44.0001H29.1101V41.5675H29.4342L29.5066 42.0014L29.4204 41.916C29.4755 41.8181 29.5537 41.7327 29.6548 41.6598C29.7582 41.5846 29.8915 41.547 30.0547 41.547ZM29.9926 41.8613C29.8892 41.8613 29.7984 41.8864 29.7203 41.9365C29.6445 41.9843 29.5847 42.0515 29.541 42.1381C29.4997 42.2223 29.479 42.3214 29.479 42.4353C29.479 42.5515 29.4997 42.654 29.541 42.7428C29.5847 42.8316 29.6445 42.9011 29.7203 42.9512C29.7984 43.0013 29.8892 43.0264 29.9926 43.0264C30.0961 43.0264 30.1868 43.0013 30.265 42.9512C30.3431 42.9011 30.4029 42.8328 30.4442 42.7462C30.4879 42.6574 30.5098 42.556 30.5098 42.4421C30.5098 42.326 30.4879 42.2246 30.4442 42.1381C30.4029 42.0515 30.3431 41.9843 30.265 41.9365C30.1868 41.8864 30.0961 41.8613 29.9926 41.8613Z" fill="#212121"/>
<path d="M31.1907 40.9252H31.5872V41.9297H32.7076V40.9252H33.104V43.3168H32.7076V42.2782H31.5872V43.3168H31.1907V40.9252Z" fill="#212121"/>
<path d="M34.3093 43.3373C34.1254 43.3373 33.9657 43.3008 33.8301 43.2279C33.6945 43.1528 33.5899 43.048 33.5164 42.9136C33.4428 42.7792 33.4061 42.6232 33.4061 42.4456C33.4061 42.2656 33.4417 42.1085 33.5129 41.9741C33.5865 41.8397 33.6888 41.7349 33.8197 41.6598C33.9507 41.5846 34.1024 41.547 34.2748 41.547C34.4449 41.547 34.5931 41.5812 34.7195 41.6495C34.8482 41.7156 34.9482 41.8112 35.0194 41.9365C35.093 42.0618 35.132 42.2098 35.1366 42.3807C35.1366 42.4034 35.1355 42.4273 35.1332 42.4524C35.1309 42.4752 35.1286 42.498 35.1263 42.5207H33.7956C33.7956 42.523 33.7956 42.5264 33.7956 42.531C33.7956 42.5355 33.7956 42.5401 33.7956 42.5446C33.8002 42.6426 33.822 42.7291 33.8611 42.8043C33.9025 42.8772 33.9599 42.9341 34.0335 42.9751C34.107 43.0161 34.1921 43.0366 34.2886 43.0366C34.4012 43.0366 34.4966 43.0093 34.5747 42.9546C34.6551 42.9 34.708 42.8248 34.7333 42.7291H35.1056C35.0849 42.843 35.0389 42.9466 34.9677 43.04C34.8988 43.1311 34.808 43.204 34.6954 43.2587C34.585 43.3111 34.4564 43.3373 34.3093 43.3373ZM33.8094 42.2508H34.7505C34.7344 42.121 34.6839 42.0208 34.5988 41.9502C34.5161 41.8796 34.4092 41.8443 34.2782 41.8443C34.2001 41.8443 34.1266 41.8613 34.0576 41.8955C33.991 41.9274 33.9347 41.9741 33.8887 42.0356C33.845 42.0948 33.8186 42.1666 33.8094 42.2508Z" fill="#212121"/>
<path d="M35.4031 41.5675H35.734L35.803 42.0014L35.7271 41.9194C35.7593 41.8579 35.7961 41.801 35.8374 41.7486C35.8811 41.6939 35.9397 41.6506 36.0133 41.6188C36.0868 41.5846 36.181 41.5675 36.2959 41.5675H36.3787V41.9126H36.2132C36.1029 41.9126 36.0155 41.9376 35.9512 41.9878C35.8868 42.0379 35.8409 42.1028 35.8133 42.1825C35.788 42.2622 35.7754 42.3476 35.7754 42.4387V43.3168H35.4031V41.5675Z" fill="#212121"/>
<path d="M37.2533 43.023C37.359 43.023 37.4497 42.9979 37.5256 42.9478C37.6037 42.8977 37.6646 42.8294 37.7083 42.7428C37.752 42.654 37.7738 42.5537 37.7738 42.4421C37.7738 42.3283 37.752 42.2281 37.7083 42.1415C37.6646 42.055 37.6037 41.9866 37.5256 41.9365C37.4497 41.8864 37.359 41.8613 37.2533 41.8613C37.1475 41.8613 37.0556 41.8864 36.9774 41.9365C36.9016 41.9866 36.8419 42.055 36.7982 42.1415C36.7568 42.2281 36.7361 42.3283 36.7361 42.4421C36.7361 42.5537 36.7568 42.654 36.7982 42.7428C36.8419 42.8294 36.9016 42.8977 36.9774 42.9478C37.0556 42.9979 37.1475 43.023 37.2533 43.023ZM37.2533 43.3373C37.0763 43.3373 36.9189 43.2997 36.781 43.2245C36.6454 43.1493 36.5397 43.0446 36.4638 42.9102C36.3903 42.7758 36.3535 42.6198 36.3535 42.4421C36.3535 42.2645 36.3903 42.1085 36.4638 41.9741C36.5397 41.8397 36.6454 41.7349 36.781 41.6598C36.9189 41.5846 37.0763 41.547 37.2533 41.547C37.4325 41.547 37.5899 41.5846 37.7255 41.6598C37.8611 41.7349 37.9657 41.8397 38.0392 41.9741C38.1151 42.1085 38.153 42.2645 38.153 42.4421C38.153 42.6198 38.1151 42.7758 38.0392 42.9102C37.9657 43.0446 37.8611 43.1493 37.7255 43.2245C37.5899 43.2997 37.4325 43.3373 37.2533 43.3373Z" fill="#212121"/>
</svg>
