<svg width="359" height="68" viewBox="0 0 359 68" fill="none" xmlns="http://www.w3.org/2000/svg">
<path d="M1.11861 15V4.81818H2.65483V13.6776H7.26847V15H1.11861ZM10.6239 15.169C10.14 15.169 9.70253 15.0795 9.31143 14.9006C8.92034 14.7183 8.61044 14.4548 8.38175 14.1101C8.15637 13.7654 8.04368 13.3428 8.04368 12.8423C8.04368 12.4115 8.12654 12.0568 8.29226 11.7784C8.45798 11.5 8.6817 11.2796 8.96342 11.1172C9.24515 10.9548 9.56001 10.8321 9.90803 10.7493C10.256 10.6664 10.6107 10.6035 10.9719 10.5604C11.4293 10.5073 11.8005 10.4643 12.0856 10.4311C12.3706 10.3946 12.5778 10.3366 12.707 10.2571C12.8363 10.1776 12.9009 10.0483 12.9009 9.86932V9.83452C12.9009 9.40033 12.7783 9.06392 12.533 8.82528C12.2911 8.58665 11.9298 8.46733 11.4492 8.46733C10.9487 8.46733 10.5543 8.57836 10.266 8.80043C9.98094 9.01918 9.78374 9.26278 9.67436 9.53125L8.27734 9.21307C8.44306 8.74905 8.68501 8.37453 9.0032 8.08949C9.32469 7.80114 9.69425 7.59233 10.1119 7.46307C10.5295 7.33049 10.9686 7.2642 11.4293 7.2642C11.7343 7.2642 12.0574 7.30066 12.3988 7.37358C12.7435 7.44318 13.065 7.57244 13.3633 7.76136C13.6649 7.95028 13.9118 8.22041 14.104 8.57173C14.2963 8.91974 14.3924 9.37216 14.3924 9.92898V15H12.9407V13.956H12.881C12.7849 14.1482 12.6407 14.3371 12.4485 14.5227C12.2563 14.7083 12.0094 14.8625 11.7077 14.9851C11.4061 15.1077 11.0449 15.169 10.6239 15.169ZM10.9471 13.9759C11.3581 13.9759 11.7094 13.8946 12.0011 13.7322C12.296 13.5698 12.5198 13.3577 12.6722 13.0959C12.828 12.8307 12.9059 12.5473 12.9059 12.2457V11.2614C12.8529 11.3144 12.7501 11.3641 12.5977 11.4105C12.4485 11.4536 12.2778 11.4917 12.0856 11.5249C11.8933 11.5547 11.7061 11.5829 11.5238 11.6094C11.3415 11.6326 11.189 11.6525 11.0664 11.669C10.7781 11.7055 10.5146 11.7668 10.2759 11.853C10.0406 11.9392 9.85168 12.0634 9.70916 12.2259C9.56996 12.3849 9.50036 12.5971 9.50036 12.8622C9.50036 13.2301 9.63625 13.5085 9.90803 13.6974C10.1798 13.883 10.5262 13.9759 10.9471 13.9759ZM15.9917 15V4.81818H17.4782V8.60156H17.5676C17.6538 8.44247 17.7781 8.25852 17.9405 8.04972C18.1029 7.84091 18.3283 7.65862 18.6167 7.50284C18.905 7.34375 19.2862 7.2642 19.7601 7.2642C20.3766 7.2642 20.9268 7.41998 21.4107 7.73153C21.8946 8.04309 22.2741 8.49219 22.5492 9.07884C22.8276 9.66548 22.9668 10.3714 22.9668 11.1967C22.9668 12.022 22.8292 12.7296 22.5542 13.3196C22.2791 13.9062 21.9012 14.3587 21.4206 14.6768C20.94 14.9917 20.3915 15.1491 19.775 15.1491C19.311 15.1491 18.9315 15.0713 18.6365 14.9155C18.3449 14.7597 18.1162 14.5774 17.9505 14.3686C17.7847 14.1598 17.6571 13.9742 17.5676 13.8118H17.4434V15H15.9917ZM17.4483 11.1818C17.4483 11.7187 17.5262 12.1894 17.682 12.5938C17.8378 12.9981 18.0632 13.3146 18.3581 13.5433C18.6531 13.7687 19.0144 13.8814 19.4419 13.8814C19.8861 13.8814 20.2573 13.7637 20.5556 13.5284C20.8539 13.2898 21.0792 12.9666 21.2317 12.5589C21.3875 12.1513 21.4654 11.6922 21.4654 11.1818C21.4654 10.678 21.3891 10.2256 21.2367 9.82457C21.0875 9.42353 20.8622 9.10701 20.5605 8.875C20.2623 8.64299 19.8894 8.52699 19.4419 8.52699C19.0111 8.52699 18.6465 8.63802 18.3482 8.86009C18.0532 9.08215 17.8295 9.39205 17.677 9.78977C17.5246 10.1875 17.4483 10.6515 17.4483 11.1818ZM27.4272 15.1541C26.6748 15.1541 26.0269 14.9934 25.4833 14.6719C24.9431 14.3471 24.5254 13.8913 24.2305 13.3047C23.9388 12.7147 23.793 12.0237 23.793 11.2315C23.793 10.4493 23.9388 9.75994 24.2305 9.16335C24.5254 8.56676 24.9364 8.10109 25.4634 7.76633C25.9937 7.43158 26.6135 7.2642 27.3228 7.2642C27.7537 7.2642 28.1713 7.33546 28.5756 7.47798C28.98 7.6205 29.3429 7.84422 29.6644 8.14915C29.9859 8.45407 30.2395 8.85014 30.4251 9.33736C30.6107 9.82126 30.7035 10.4096 30.7035 11.1023V11.6293H24.6332V10.5156H29.2468C29.2468 10.1245 29.1673 9.77817 29.0082 9.47656C28.8491 9.17164 28.6254 8.93134 28.337 8.75568C28.052 8.58002 27.7172 8.49219 27.3327 8.49219C26.9151 8.49219 26.5505 8.59493 26.239 8.80043C25.9308 9.0026 25.6921 9.26776 25.5231 9.59588C25.3574 9.92069 25.2745 10.2737 25.2745 10.6548V11.5249C25.2745 12.0353 25.364 12.4695 25.543 12.8274C25.7253 13.1854 25.9788 13.4588 26.3036 13.6477C26.6284 13.8333 27.0079 13.9261 27.4421 13.9261C27.7238 13.9261 27.9807 13.8864 28.2127 13.8068C28.4447 13.724 28.6452 13.6013 28.8143 13.4389C28.9833 13.2765 29.1126 13.076 29.2021 12.8374L30.609 13.0909C30.4963 13.5052 30.2942 13.8681 30.0025 14.1797C29.7141 14.4879 29.3512 14.7282 28.9137 14.9006C28.4795 15.0696 27.984 15.1541 27.4272 15.1541ZM33.3393 4.81818V15H31.8528V4.81818H33.3393Z" fill="#212121"/>
<mask id="path-2-inside-1_726_5910" fill="white">
<path d="M0 36C0 31.5817 3.58172 28 8 28H58C62.4183 28 66 31.5817 66 36V60C66 64.4183 62.4183 68 58 68H8C3.58172 68 0 64.4183 0 60V36Z"/>
</mask>
<path d="M0 36C0 31.5817 3.58172 28 8 28H58C62.4183 28 66 31.5817 66 36V60C66 64.4183 62.4183 68 58 68H8C3.58172 68 0 64.4183 0 60V36Z" fill="#E4E4E7"/>
<path d="M8 28V29H58V28V27H8V28ZM66 36H65V60H66H67V36H66ZM58 68V67H8V68V69H58V68ZM0 60H1V36H0H-1V60H0ZM8 68V67C4.13401 67 1 63.866 1 60H0H-1C-1 64.9706 3.02944 69 8 69V68ZM66 60H65C65 63.866 61.866 67 58 67V68V69C62.9706 69 67 64.9706 67 60H66ZM58 28V29C61.866 29 65 32.134 65 36H66H67C67 31.0294 62.9706 27 58 27V28ZM8 28V27C3.02944 27 -1 31.0294 -1 36H0H1C1 32.134 4.13401 29 8 29V28Z" fill="#D4D4D8" mask="url(#path-2-inside-1_726_5910)"/>
<g clip-path="url(#clip0_726_5910)">
<path d="M12 48C12 48.9786 12.176 49.916 12.4976 50.7826L20 51.4783L27.5024 50.7826C27.824 49.916 28 48.9786 28 48C28 47.0215 27.824 46.0841 27.5024 45.2174L20 44.5218L12.4976 45.2174C12.176 46.0841 12 47.0215 12 48V48Z" fill="#FFDA44"/>
<path d="M27.5026 45.2175C26.3722 42.1711 23.4399 40.0001 20.0001 40.0001C16.5604 40.0001 13.6281 42.1711 12.4977 45.2175H27.5026Z" fill="#D80027"/>
<path d="M12.4977 50.7827C13.6281 53.829 16.5604 56.0001 20.0001 56.0001C23.4399 56.0001 26.3722 53.829 27.5026 50.7827H12.4977Z" fill="#D80027"/>
</g>
<g clip-path="url(#clip1_726_5910)">
<path d="M49.5287 45.5286C49.789 45.2683 50.211 45.2683 50.4714 45.5286C50.7317 45.789 50.7317 46.211 50.4714 46.4713L46.4714 50.4713C46.211 50.7317 45.789 50.7317 45.5287 50.4713L41.5287 46.4713C41.2683 46.211 41.2683 45.789 41.5287 45.5286C41.789 45.2683 42.211 45.2683 42.4714 45.5286L46 49.0573L49.5287 45.5286Z" fill="#212121"/>
</g>
<mask id="path-8-inside-2_726_5910" fill="white">
<path d="M74 36C74 31.5817 77.5817 28 82 28H351C355.418 28 359 31.5817 359 36V60C359 64.4183 355.418 68 351 68H82C77.5817 68 74 64.4183 74 60V36Z"/>
</mask>
<path d="M74 36C74 31.5817 77.5817 28 82 28H351C355.418 28 359 31.5817 359 36V60C359 64.4183 355.418 68 351 68H82C77.5817 68 74 64.4183 74 60V36Z" fill="#FAFAFA"/>
<path d="M82 28V29H351V28V27H82V28ZM359 36H358V60H359H360V36H359ZM351 68V67H82V68V69H351V68ZM74 60H75V36H74H73V60H74ZM82 68V67C78.134 67 75 63.866 75 60H74H73C73 64.9706 77.0294 69 82 69V68ZM359 60H358C358 63.866 354.866 67 351 67V68V69C355.971 69 360 64.9706 360 60H359ZM351 28V29C354.866 29 358 32.134 358 36H359H360C360 31.0294 355.971 27 351 27V28ZM82 28V27C77.0294 27 73 31.0294 73 36H74H75C75 32.134 78.134 29 82 29V28Z" fill="#D4D4D8" mask="url(#path-8-inside-2_726_5910)"/>
<path d="M90.6364 51.9545V44.4545H91.9091V51.9545H90.6364ZM87.5227 48.8409V47.5682H95.0227V48.8409H87.5227ZM100.796 54.1591C100.046 54.1591 99.3772 54.0303 98.7901 53.7727C98.2067 53.5152 97.7427 53.1572 97.398 52.6989C97.0571 52.2367 96.8715 51.7008 96.8412 51.0909H98.273C98.3033 51.4659 98.4321 51.7898 98.6594 52.0625C98.8866 52.3314 99.184 52.5398 99.5514 52.6875C99.9188 52.8352 100.326 52.9091 100.773 52.9091C101.273 52.9091 101.716 52.822 102.103 52.6477C102.489 52.4735 102.792 52.2311 103.012 51.9205C103.231 51.6098 103.341 51.25 103.341 50.8409C103.341 50.4129 103.235 50.036 103.023 49.7102C102.811 49.3807 102.5 49.1231 102.091 48.9375C101.682 48.7519 101.182 48.6591 100.591 48.6591H99.6594V47.4091H100.591C101.053 47.4091 101.459 47.3258 101.807 47.1591C102.159 46.9924 102.434 46.7576 102.631 46.4545C102.832 46.1515 102.932 45.7955 102.932 45.3864C102.932 44.9924 102.845 44.6496 102.671 44.358C102.496 44.0663 102.25 43.839 101.932 43.6761C101.618 43.5133 101.246 43.4318 100.818 43.4318C100.417 43.4318 100.038 43.5057 99.6821 43.6534C99.3298 43.7973 99.042 44.0076 98.8185 44.2841C98.595 44.5568 98.4738 44.8864 98.4548 45.2727H97.0912C97.1139 44.6629 97.2976 44.1288 97.6423 43.6705C97.987 43.2083 98.4378 42.8485 98.9946 42.5909C99.5552 42.3333 100.171 42.2045 100.841 42.2045C101.561 42.2045 102.178 42.3504 102.693 42.642C103.209 42.9299 103.604 43.3106 103.881 43.7841C104.157 44.2576 104.296 44.7689 104.296 45.3182C104.296 45.9735 104.123 46.5322 103.779 46.9943C103.438 47.4564 102.974 47.7765 102.387 47.9545V48.0455C103.121 48.1667 103.695 48.4792 104.108 48.983C104.521 49.483 104.728 50.1023 104.728 50.8409C104.728 51.4735 104.555 52.0417 104.211 52.5455C103.87 53.0455 103.404 53.4394 102.813 53.7273C102.222 54.0152 101.55 54.1591 100.796 54.1591ZM106.079 51.6136V50.4545L111.192 42.3636H112.033V44.1591H111.465L107.601 50.2727V50.3636H114.488V51.6136H106.079ZM111.556 54V51.2614V50.7216V42.3636H112.897V54H111.556Z" fill="#212121"/>
<path d="M127.409 54V42.3636H131.341C132.254 42.3636 133 42.5284 133.58 42.858C134.163 43.1837 134.595 43.625 134.875 44.1818C135.155 44.7386 135.295 45.3598 135.295 46.0455C135.295 46.7311 135.155 47.3542 134.875 47.9148C134.598 48.4754 134.17 48.9223 133.591 49.2557C133.011 49.5852 132.269 49.75 131.364 49.75H128.545V48.5H131.318C131.943 48.5 132.445 48.392 132.824 48.1761C133.203 47.9602 133.477 47.6686 133.648 47.3011C133.822 46.9299 133.909 46.5114 133.909 46.0455C133.909 45.5795 133.822 45.1629 133.648 44.7955C133.477 44.428 133.201 44.1402 132.818 43.9318C132.436 43.7197 131.928 43.6136 131.295 43.6136H128.818V54H127.409ZM138.024 48.75V54H136.684V42.3636H138.024V46.6364H138.138C138.343 46.1856 138.649 45.8277 139.059 45.5625C139.471 45.2936 140.021 45.1591 140.706 45.1591C141.301 45.1591 141.822 45.2784 142.269 45.517C142.716 45.7519 143.062 46.1136 143.309 46.6023C143.559 47.0871 143.684 47.7045 143.684 48.4545V54H142.343V48.5455C142.343 47.8523 142.163 47.3163 141.803 46.9375C141.447 46.5549 140.952 46.3636 140.32 46.3636C139.88 46.3636 139.487 46.4564 139.138 46.642C138.793 46.8277 138.521 47.0985 138.32 47.4545C138.123 47.8106 138.024 48.2424 138.024 48.75ZM148.982 54.1818C148.194 54.1818 147.503 53.9943 146.908 53.6193C146.317 53.2443 145.855 52.7197 145.522 52.0455C145.192 51.3712 145.028 50.5833 145.028 49.6818C145.028 48.7727 145.192 47.9792 145.522 47.3011C145.855 46.6231 146.317 46.0966 146.908 45.7216C147.503 45.3466 148.194 45.1591 148.982 45.1591C149.77 45.1591 150.459 45.3466 151.05 45.7216C151.645 46.0966 152.107 46.6231 152.437 47.3011C152.77 47.9792 152.937 48.7727 152.937 49.6818C152.937 50.5833 152.77 51.3712 152.437 52.0455C152.107 52.7197 151.645 53.2443 151.05 53.6193C150.459 53.9943 149.77 54.1818 148.982 54.1818ZM148.982 52.9773C149.581 52.9773 150.073 52.8239 150.459 52.517C150.846 52.2102 151.132 51.8068 151.317 51.3068C151.503 50.8068 151.596 50.2652 151.596 49.6818C151.596 49.0985 151.503 48.5549 151.317 48.0511C151.132 47.5473 150.846 47.1402 150.459 46.8295C150.073 46.5189 149.581 46.3636 148.982 46.3636C148.384 46.3636 147.891 46.5189 147.505 46.8295C147.118 47.1402 146.832 47.5473 146.647 48.0511C146.461 48.5549 146.368 49.0985 146.368 49.6818C146.368 50.2652 146.461 50.8068 146.647 51.3068C146.832 51.8068 147.118 52.2102 147.505 52.517C147.891 52.8239 148.384 52.9773 148.982 52.9773ZM155.624 48.75V54H154.284V45.2727H155.579V46.6364H155.693C155.897 46.1932 156.208 45.8371 156.624 45.5682C157.041 45.2955 157.579 45.1591 158.238 45.1591C158.829 45.1591 159.346 45.2803 159.789 45.5227C160.232 45.7614 160.577 46.125 160.823 46.6136C161.07 47.0985 161.193 47.7121 161.193 48.4545V54H159.852V48.5455C159.852 47.8598 159.674 47.3258 159.318 46.9432C158.962 46.5568 158.473 46.3636 157.852 46.3636C157.424 46.3636 157.041 46.4564 156.704 46.642C156.371 46.8277 156.107 47.0985 155.914 47.4545C155.721 47.8106 155.624 48.2424 155.624 48.75ZM166.602 54.1818C165.761 54.1818 165.036 53.9962 164.426 53.625C163.82 53.25 163.352 52.7273 163.022 52.0568C162.697 51.3826 162.534 50.5985 162.534 49.7045C162.534 48.8106 162.697 48.0227 163.022 47.3409C163.352 46.6553 163.81 46.1212 164.397 45.7386C164.988 45.3523 165.678 45.1591 166.466 45.1591C166.92 45.1591 167.369 45.2348 167.812 45.3864C168.255 45.5379 168.659 45.7841 169.022 46.125C169.386 46.4621 169.676 46.9091 169.892 47.4659C170.108 48.0227 170.216 48.7083 170.216 49.5227V50.0909H163.488V48.9318H168.852C168.852 48.4394 168.754 48 168.557 47.6136C168.363 47.2273 168.087 46.9223 167.727 46.6989C167.371 46.4754 166.95 46.3636 166.466 46.3636C165.932 46.3636 165.469 46.4962 165.079 46.7614C164.693 47.0227 164.396 47.3636 164.187 47.7841C163.979 48.2045 163.875 48.6553 163.875 49.1364V49.9091C163.875 50.5682 163.988 51.1269 164.216 51.5852C164.447 52.0398 164.767 52.3864 165.176 52.625C165.585 52.8598 166.06 52.9773 166.602 52.9773C166.954 52.9773 167.272 52.928 167.557 52.8295C167.844 52.7273 168.093 52.5758 168.301 52.375C168.509 52.1705 168.67 51.9167 168.784 51.6136L170.079 51.9773C169.943 52.4167 169.714 52.803 169.392 53.1364C169.07 53.4659 168.672 53.7235 168.199 53.9091C167.725 54.0909 167.193 54.1818 166.602 54.1818ZM176.696 48.75V54H175.355V45.2727H176.651V46.6364H176.764C176.969 46.1932 177.28 45.8371 177.696 45.5682C178.113 45.2955 178.651 45.1591 179.31 45.1591C179.901 45.1591 180.418 45.2803 180.861 45.5227C181.304 45.7614 181.649 46.125 181.895 46.6136C182.141 47.0985 182.264 47.7121 182.264 48.4545V54H180.924V48.5455C180.924 47.8598 180.746 47.3258 180.389 46.9432C180.033 46.5568 179.545 46.3636 178.924 46.3636C178.496 46.3636 178.113 46.4564 177.776 46.642C177.443 46.8277 177.179 47.0985 176.986 47.4545C176.793 47.8106 176.696 48.2424 176.696 48.75ZM189.515 50.4318V45.2727H190.856V54H189.515V52.5227H189.424C189.219 52.9659 188.901 53.3428 188.469 53.6534C188.037 53.9602 187.492 54.1136 186.833 54.1136C186.287 54.1136 185.803 53.9943 185.378 53.7557C184.954 53.5133 184.621 53.1496 184.378 52.6648C184.136 52.1761 184.015 51.5606 184.015 50.8182V45.2727H185.356V50.7273C185.356 51.3636 185.534 51.8712 185.89 52.25C186.25 52.6288 186.708 52.8182 187.265 52.8182C187.598 52.8182 187.937 52.733 188.282 52.5625C188.63 52.392 188.922 52.1307 189.157 51.7784C189.395 51.4261 189.515 50.9773 189.515 50.4318ZM192.612 54V45.2727H193.907V46.6364H194.021C194.203 46.1705 194.496 45.8087 194.901 45.5511C195.307 45.2898 195.793 45.1591 196.362 45.1591C196.937 45.1591 197.417 45.2898 197.799 45.5511C198.186 45.8087 198.487 46.1705 198.703 46.6364H198.793C199.017 46.1856 199.352 45.8277 199.799 45.5625C200.246 45.2936 200.782 45.1591 201.407 45.1591C202.187 45.1591 202.826 45.4034 203.322 45.892C203.818 46.3769 204.066 47.1326 204.066 48.1591V54H202.725V48.1591C202.725 47.5152 202.549 47.0549 202.197 46.7784C201.845 46.5019 201.43 46.3636 200.953 46.3636C200.339 46.3636 199.864 46.5492 199.526 46.9205C199.189 47.2879 199.021 47.7538 199.021 48.3182V54H197.657V48.0227C197.657 47.5265 197.496 47.1269 197.174 46.8239C196.852 46.517 196.437 46.3636 195.93 46.3636C195.581 46.3636 195.256 46.4564 194.953 46.642C194.653 46.8277 194.411 47.0852 194.225 47.4148C194.043 47.7405 193.953 48.1174 193.953 48.5455V54H192.612ZM206 54V42.3636H207.341V46.6591H207.454C207.553 46.5076 207.689 46.3144 207.863 46.0795C208.041 45.8409 208.295 45.6288 208.625 45.4432C208.958 45.2538 209.409 45.1591 209.977 45.1591C210.712 45.1591 211.36 45.3428 211.92 45.7102C212.481 46.0777 212.918 46.5985 213.233 47.2727C213.547 47.947 213.704 48.7424 213.704 49.6591C213.704 50.5833 213.547 51.3845 213.233 52.0625C212.918 52.7367 212.483 53.2595 211.926 53.6307C211.369 53.9981 210.727 54.1818 210 54.1818C209.439 54.1818 208.99 54.089 208.653 53.9034C208.316 53.714 208.057 53.5 207.875 53.2614C207.693 53.0189 207.553 52.8182 207.454 52.6591H207.295V54H206ZM207.318 49.6364C207.318 50.2955 207.414 50.8769 207.608 51.3807C207.801 51.8807 208.083 52.2727 208.454 52.5568C208.825 52.8371 209.28 52.9773 209.818 52.9773C210.379 52.9773 210.846 52.8295 211.221 52.5341C211.6 52.2348 211.884 51.8333 212.074 51.3295C212.267 50.822 212.363 50.2576 212.363 49.6364C212.363 49.0227 212.269 48.4697 212.079 47.9773C211.894 47.4811 211.611 47.089 211.233 46.8011C210.858 46.5095 210.386 46.3636 209.818 46.3636C209.272 46.3636 208.814 46.5019 208.443 46.7784C208.072 47.0511 207.791 47.4337 207.602 47.9261C207.413 48.4148 207.318 48.9848 207.318 49.6364ZM218.714 54.1818C217.874 54.1818 217.148 53.9962 216.538 53.625C215.932 53.25 215.464 52.7273 215.135 52.0568C214.809 51.3826 214.646 50.5985 214.646 49.7045C214.646 48.8106 214.809 48.0227 215.135 47.3409C215.464 46.6553 215.923 46.1212 216.51 45.7386C217.101 45.3523 217.79 45.1591 218.578 45.1591C219.033 45.1591 219.482 45.2348 219.925 45.3864C220.368 45.5379 220.771 45.7841 221.135 46.125C221.499 46.4621 221.788 46.9091 222.004 47.4659C222.22 48.0227 222.328 48.7083 222.328 49.5227V50.0909H215.601V48.9318H220.964C220.964 48.4394 220.866 48 220.669 47.6136C220.476 47.2273 220.199 46.9223 219.839 46.6989C219.483 46.4754 219.063 46.3636 218.578 46.3636C218.044 46.3636 217.582 46.4962 217.192 46.7614C216.805 47.0227 216.508 47.3636 216.3 47.7841C216.091 48.2045 215.987 48.6553 215.987 49.1364V49.9091C215.987 50.5682 216.101 51.1269 216.328 51.5852C216.559 52.0398 216.879 52.3864 217.288 52.625C217.697 52.8598 218.173 52.9773 218.714 52.9773C219.067 52.9773 219.385 52.928 219.669 52.8295C219.957 52.7273 220.205 52.5758 220.413 52.375C220.622 52.1705 220.783 51.9167 220.896 51.6136L222.192 51.9773C222.055 52.4167 221.826 52.803 221.504 53.1364C221.182 53.4659 220.785 53.7235 220.311 53.9091C219.838 54.0909 219.305 54.1818 218.714 54.1818ZM223.668 54V45.2727H224.963V46.5909H225.054C225.213 46.1591 225.501 45.8087 225.918 45.5398C226.335 45.2708 226.804 45.1364 227.327 45.1364C227.425 45.1364 227.549 45.1383 227.696 45.142C227.844 45.1458 227.956 45.1515 228.032 45.1591V46.5227C227.986 46.5114 227.882 46.4943 227.719 46.4716C227.56 46.4451 227.391 46.4318 227.213 46.4318C226.789 46.4318 226.41 46.5208 226.077 46.6989C225.747 46.8731 225.486 47.1155 225.293 47.4261C225.104 47.733 225.009 48.0833 225.009 48.4773V54H223.668Z" fill="#A1A1AA"/>
<defs>
<clipPath id="clip0_726_5910">
<rect width="16" height="16" fill="white" transform="translate(12 40)"/>
</clipPath>
<clipPath id="clip1_726_5910">
<rect width="16" height="16" fill="white" transform="translate(38 40)"/>
</clipPath>
</defs>
</svg>
